<svg version="1.1" id="Layer_1" xmlns="http://www.w3.org/2000/svg" xmlns:xlink="http://www.w3.org/1999/xlink" x="0px" y="0px"
	 width="100%" viewBox="0 0 512 512" enable-background="new 0 0 512 512" xml:space="preserve">
<path fill="#FFFFFF" opacity="1.000000" stroke="none" 
	d="
M117.000000,513.000000 
	C78.352898,513.000000 39.705791,513.000000 1.029344,513.000000 
	C1.029344,342.439240 1.029344,171.878479 1.029344,1.000000 
	C79.687279,1.000000 158.374985,1.000000 237.401871,1.380079 
	C228.768463,4.183245 219.597137,6.048213 210.868561,9.156542 
	C196.783936,14.172219 184.122269,22.020559 172.839859,31.779711 
	C158.215683,44.429443 147.113113,59.877735 139.212753,77.506531 
	C133.509293,90.233139 129.440567,103.663361 129.175491,117.577156 
	C128.604370,147.554947 128.996750,177.551163 129.010040,207.539841 
	C129.010666,208.971954 129.157486,210.404007 129.228836,211.701614 
	C150.673126,211.701614 171.740112,211.701614 193.000000,211.701614 
	C193.000000,185.765808 192.945816,160.127670 193.046005,134.490143 
	C193.065887,129.405853 193.090790,124.201782 194.117737,119.261734 
	C198.860962,96.444595 211.227341,79.349678 233.215683,70.447296 
	C252.945450,62.459335 272.327057,64.114944 290.461060,75.241920 
	C302.072845,82.366859 310.462830,92.513962 315.786987,105.260887 
	C319.632172,114.466919 320.685638,124.144455 320.856964,133.792725 
	C321.288818,158.109207 321.000000,182.438492 321.000000,206.762634 
	C321.000000,208.382645 321.000000,210.002670 321.000000,211.799683 
	C342.474976,211.799683 363.541107,211.799683 385.000000,211.799683 
	C385.000000,209.984161 385.000000,208.362167 385.000000,206.740189 
	C385.000000,179.583771 384.851105,152.426178 385.067535,125.271492 
	C385.164734,113.073555 383.039185,101.319191 379.338623,89.826843 
	C371.302338,64.869507 356.953400,44.136692 336.346191,27.969105 
	C323.350525,17.773251 309.004669,9.944027 292.779358,5.935551 
	C286.810760,4.461004 280.924042,2.654884 275.000000,1.000001 
	C354.293304,1.000000 433.586578,1.000000 512.939331,1.000000 
	C512.939331,171.666672 512.939331,342.333344 512.939331,513.000000 
	C474.231598,513.000000 435.584442,513.000000 396.603271,512.615845 
	C397.872131,511.969330 399.514435,511.850220 401.071869,511.422241 
	C415.743378,507.390686 428.274658,499.937073 437.053314,487.309509 
	C444.240936,476.970520 449.036591,465.631287 449.023285,452.648560 
	C448.967926,398.653442 448.822052,344.657166 449.135468,290.663818 
	C449.206451,278.432495 446.979858,267.034729 440.852478,256.647888 
	C429.330231,237.115829 412.077393,225.337723 389.322601,225.203201 
	C303.666534,224.696701 218.005112,225.164932 132.347183,224.856018 
	C115.902443,224.796707 101.321228,228.580170 88.432114,238.900406 
	C74.087288,250.386261 65.409325,265.334961 65.215759,283.494812 
	C64.622543,339.150208 64.980827,394.815979 65.042816,450.477600 
	C65.046982,454.219543 65.339172,458.024078 66.052444,461.691559 
	C69.348984,478.641510 77.486275,492.776428 92.398132,501.853241 
	C100.031990,506.499939 108.764198,509.342194 117.000000,513.000000 
z"/>
<path fill="#000000" opacity="1.000000" stroke="none" 
	d="
M117.468658,513.000000 
	C108.764198,509.342194 100.031990,506.499939 92.398132,501.853241 
	C77.486275,492.776428 69.348984,478.641510 66.052444,461.691559 
	C65.339172,458.024078 65.046982,454.219543 65.042816,450.477600 
	C64.980827,394.815979 64.622543,339.150208 65.215759,283.494812 
	C65.409325,265.334961 74.087288,250.386261 88.432114,238.900406 
	C101.321228,228.580170 115.902443,224.796707 132.347183,224.856018 
	C218.005112,225.164932 303.666534,224.696701 389.322601,225.203201 
	C412.077393,225.337723 429.330231,237.115829 440.852478,256.647888 
	C446.979858,267.034729 449.206451,278.432495 449.135468,290.663818 
	C448.822052,344.657166 448.967926,398.653442 449.023285,452.648560 
	C449.036591,465.631287 444.240936,476.970520 437.053314,487.309509 
	C428.274658,499.937073 415.743378,507.390686 401.071869,511.422241 
	C399.514435,511.850220 397.872131,511.969330 396.134613,512.615845 
	C303.312439,513.000000 210.624878,513.000000 117.468658,513.000000 
M285.663727,365.864471 
	C286.105713,364.487732 286.602203,363.125793 286.981293,361.731903 
	C290.935791,347.192383 284.743530,331.494415 270.319855,324.734161 
	C257.909515,318.917572 240.994431,322.440186 232.006104,334.189911 
	C222.951202,346.026642 223.622192,366.450439 236.851959,376.060333 
	C240.382431,378.624786 241.037155,381.160736 241.074036,384.998413 
	C241.234909,401.736267 241.487961,418.477997 242.095200,435.204254 
	C242.309891,441.118256 247.918564,446.929321 253.190277,447.987610 
	C260.408661,449.436676 267.210968,446.642670 270.119781,440.208771 
	C271.733215,436.640076 272.794373,432.513916 272.873962,428.613922 
	C273.183411,413.454559 272.910339,398.283936 273.107330,383.120819 
	C273.133545,381.102295 274.214874,378.787292 275.501801,377.157898 
	C278.472229,373.397064 281.869141,369.973083 285.663727,365.864471 
z"/>
<path fill="#000000" opacity="1.000000" stroke="none" 
	d="
M274.531342,1.000001 
	C280.924042,2.654884 286.810760,4.461004 292.779358,5.935551 
	C309.004669,9.944027 323.350525,17.773251 336.346191,27.969105 
	C356.953400,44.136692 371.302338,64.869507 379.338623,89.826843 
	C383.039185,101.319191 385.164734,113.073555 385.067535,125.271492 
	C384.851105,152.426178 385.000000,179.583771 385.000000,206.740189 
	C385.000000,208.362167 385.000000,209.984161 385.000000,211.799683 
	C363.541107,211.799683 342.474976,211.799683 321.000000,211.799683 
	C321.000000,210.002670 321.000000,208.382645 321.000000,206.762634 
	C321.000000,182.438492 321.288818,158.109207 320.856964,133.792725 
	C320.685638,124.144455 319.632172,114.466919 315.786987,105.260887 
	C310.462830,92.513962 302.072845,82.366859 290.461060,75.241920 
	C272.327057,64.114944 252.945450,62.459335 233.215683,70.447296 
	C211.227341,79.349678 198.860962,96.444595 194.117737,119.261734 
	C193.090790,124.201782 193.065887,129.405853 193.046005,134.490143 
	C192.945816,160.127670 193.000000,185.765808 193.000000,211.701614 
	C171.740112,211.701614 150.673126,211.701614 129.228836,211.701614 
	C129.157486,210.404007 129.010666,208.971954 129.010040,207.539841 
	C128.996750,177.551163 128.604370,147.554947 129.175491,117.577156 
	C129.440567,103.663361 133.509293,90.233139 139.212753,77.506531 
	C147.113113,59.877735 158.215683,44.429443 172.839859,31.779711 
	C184.122269,22.020559 196.783936,14.172219 210.868561,9.156542 
	C219.597137,6.048213 228.768463,4.183245 237.870529,1.380079 
	C250.020889,1.000000 262.041779,1.000000 274.531342,1.000001 
z"/>
<path fill="#FFFFFF" opacity="1.000000" stroke="none" 
	d="
M285.378357,366.138458 
	C281.869141,369.973083 278.472229,373.397064 275.501801,377.157898 
	C274.214874,378.787292 273.133545,381.102295 273.107330,383.120819 
	C272.910339,398.283936 273.183411,413.454559 272.873962,428.613922 
	C272.794373,432.513916 271.733215,436.640076 270.119781,440.208771 
	C267.210968,446.642670 260.408661,449.436676 253.190277,447.987610 
	C247.918564,446.929321 242.309891,441.118256 242.095200,435.204254 
	C241.487961,418.477997 241.234909,401.736267 241.074036,384.998413 
	C241.037155,381.160736 240.382431,378.624786 236.851959,376.060333 
	C223.622192,366.450439 222.951202,346.026642 232.006104,334.189911 
	C240.994431,322.440186 257.909515,318.917572 270.319855,324.734161 
	C284.743530,331.494415 290.935791,347.192383 286.981293,361.731903 
	C286.602203,363.125793 286.105713,364.487732 285.378357,366.138458 
z"/>
</svg>