<svg version="1.1" id="Layer_1" xmlns="http://www.w3.org/2000/svg" xmlns:xlink="http://www.w3.org/1999/xlink" x="0px" y="0px"
	 width="100%" viewBox="0 0 252 252" enable-background="new 0 0 252 252" xml:space="preserve">
<path fill="#FFFFFF" opacity="1.000000" stroke="none" 
	d="
M253.000000,137.000000 
	C253.000000,175.593307 253.000000,214.186615 253.000000,253.000000 
	C214.979385,253.000000 176.958359,253.000000 138.529205,252.730652 
	C138.425186,252.265686 138.729279,252.070068 139.477554,251.937134 
	C153.323059,251.822800 165.747452,247.551712 177.907120,242.531570 
	C182.519943,240.627121 186.674942,237.613754 191.397781,235.074081 
	C193.103210,234.226852 194.449478,233.411377 196.019760,232.412643 
	C197.016754,231.753799 197.789749,231.278244 198.827637,230.591080 
	C200.426208,229.285004 201.759903,228.190521 203.452545,227.067627 
	C204.848160,226.137833 205.884827,225.236465 207.163300,224.079041 
	C206.863983,223.808594 206.322861,223.794220 205.489700,223.867065 
	C204.267014,224.719864 203.336380,225.485443 202.125168,226.412079 
	C200.496674,227.642792 199.148743,228.712479 197.497314,229.850891 
	C196.393402,230.542023 195.593002,231.164429 194.477478,231.852936 
	C193.116470,232.643250 192.070572,233.367447 190.677948,234.149445 
	C174.509293,243.720230 157.294693,249.010452 138.566956,251.049500 
	C131.173676,250.973770 124.245049,250.910965 117.320877,251.057892 
	C116.496307,251.075378 113.224617,249.407059 115.000000,253.000000 
	C77.066872,253.000000 39.133739,253.000000 1.000000,253.000000 
	C1.000000,208.312637 1.000000,163.624985 1.338815,118.760315 
	C2.420749,114.714607 3.163867,110.845901 4.066187,106.631302 
	C6.139952,98.857178 8.054515,91.428963 10.223354,83.647041 
	C10.323723,82.839615 10.169816,82.385887 9.997084,81.961639 
	C9.978259,81.991119 9.932489,82.044022 10.304309,82.198975 
	C14.134480,75.227798 17.592831,68.101677 21.031834,60.994621 
	C21.012484,61.013680 20.979961,61.057190 21.313644,61.027405 
	C22.424976,59.663067 23.202623,58.328510 24.243340,56.826370 
	C24.688154,56.097111 24.869904,55.535439 25.031864,54.995407 
	C25.012077,55.017040 24.979523,55.065807 25.340870,54.999088 
	C26.473143,53.262348 27.244070,51.592327 27.996548,49.950565 
	C27.978096,49.978825 27.930668,50.026852 28.214666,50.310799 
	C29.685585,49.055374 30.872505,47.515999 32.037613,45.997597 
	C32.015800,46.018566 31.980259,46.067551 32.384350,45.976658 
	C32.864353,45.230679 32.940266,44.575588 32.996056,43.948219 
	C32.975937,43.975941 32.924503,44.021175 33.165119,44.275177 
	C33.608879,44.414646 33.812019,44.300114 34.325199,44.039852 
	C37.099121,40.908115 39.563000,37.922104 42.002991,34.963501 
	C41.979103,34.990917 41.924614,35.039085 42.347893,35.236313 
	C42.860569,34.930363 42.949959,34.427189 43.011047,33.949921 
	C42.982738,33.975826 42.918064,34.017128 43.199203,34.322128 
	C44.009689,34.078430 44.539040,33.529732 45.039871,32.999592 
	C45.011345,33.018147 44.960041,33.062851 45.282803,33.054718 
	C45.756367,32.684700 45.907166,32.322819 46.036312,31.983707 
	C46.014656,32.006481 45.976555,32.056469 46.347656,32.048271 
	C47.489223,31.003363 48.259689,29.966654 49.004272,28.954414 
	C48.978386,28.978886 48.918396,29.017305 49.201523,29.323139 
	C50.011574,29.079557 50.538506,28.530140 51.041336,27.997284 
	C51.017231,28.013844 50.975101,28.054417 51.327450,28.068853 
	C53.807327,26.381723 55.934856,24.680157 58.038898,22.995987 
	C58.015415,23.013384 57.974354,23.054983 58.336060,23.073917 
	C61.477173,21.038107 64.256577,18.983358 67.009537,16.952667 
	C66.983093,16.976723 66.922478,17.014629 67.194336,17.357779 
	C82.704147,9.685955 98.973343,5.057698 116.466248,2.986667 
	C123.953453,3.008183 130.975967,2.965150 138.388885,3.044466 
	C139.545761,3.433168 140.301468,3.894092 141.080292,3.937121 
	C156.439011,4.785684 170.522827,9.898821 184.141098,16.644121 
	C184.976364,17.057842 186.092438,16.904608 187.047470,16.996071 
	C187.017075,16.976971 186.964020,16.928612 186.740082,17.253407 
	C189.685837,19.403719 192.855499,21.229237 196.004715,23.033895 
	C195.984253,23.013039 195.937408,22.978121 195.982666,23.321758 
	C198.360077,25.128262 200.692230,26.591127 203.003479,28.033726 
	C202.982544,28.013460 202.934616,27.980345 203.020813,28.378174 
	C203.765213,28.856421 204.423431,28.936838 205.051636,28.998066 
	C205.021637,28.978876 204.969864,28.929945 204.708252,29.226933 
	C205.638779,30.368038 206.830887,31.212156 208.004089,32.031250 
	C207.985153,32.006222 207.942047,31.960600 207.931976,32.283321 
	C208.294479,32.758316 208.667038,32.910595 209.014984,33.036072 
	C208.990372,33.009270 208.936920,32.959866 208.946411,33.271301 
	C209.317932,33.747158 209.679977,33.911583 210.014465,34.050468 
	C209.986893,34.024929 209.924133,33.983582 210.062286,34.353844 
	C210.826004,34.821804 211.451584,34.919498 212.049194,34.999271 
	C212.021255,34.981346 211.973022,34.935719 211.693115,35.223351 
	C214.272018,38.407230 217.130844,41.303486 220.295425,44.365784 
	C220.758636,44.361507 220.916107,44.191181 221.048401,43.998661 
	C221.023224,43.976467 220.983734,43.922195 220.658310,44.198753 
	C220.894867,45.003826 221.456833,45.532337 222.002731,46.038406 
	C221.986649,46.015957 221.947495,45.977009 221.938873,46.341011 
	C223.309387,47.812195 224.688522,48.919369 226.044449,50.002968 
	C226.021240,49.979385 225.985031,49.924007 225.656784,50.177589 
	C226.558807,51.975098 227.789062,53.519020 229.002228,55.039352 
	C228.985138,55.015766 228.943665,54.974834 228.938690,55.364006 
	C229.645844,56.179356 230.357956,56.605534 231.046234,57.006550 
	C231.022400,56.981388 230.984924,56.923065 230.657654,57.179325 
	C231.226410,58.645424 232.122421,59.855267 233.002411,61.040928 
	C232.986389,61.016747 232.946960,60.974167 232.916687,61.338715 
	C235.936462,67.465393 238.986526,73.227516 242.026428,79.369461 
	C244.711609,88.824341 247.406952,97.899391 250.050812,107.383804 
	C250.217148,108.854057 250.434967,109.914963 250.568573,111.308174 
	C250.691132,112.752365 250.897873,113.864250 251.048523,115.443314 
	C250.989044,121.823166 250.880814,127.739258 251.073532,133.645538 
	C251.110657,134.783432 252.327408,135.882843 253.000000,137.000000 
M60.738960,232.446045 
	C60.226498,232.227554 59.714035,232.009064 58.912621,231.239517 
	C58.007874,230.756500 57.103123,230.273483 55.883015,229.213165 
	C54.458153,228.231277 53.033287,227.249405 51.186970,225.835098 
	C50.195217,225.150909 49.203461,224.466736 47.930370,223.181946 
	C47.523907,223.173431 47.117447,223.164917 46.710987,223.156387 
	C46.835423,223.549164 46.959858,223.941940 47.443199,224.957413 
	C48.598888,225.668579 49.754574,226.379761 51.151749,227.726990 
	C52.571171,228.743408 53.990593,229.759811 55.803123,231.275131 
	C56.678181,231.786346 57.553238,232.297562 58.807064,233.285965 
	C59.516495,233.584396 60.225925,233.882828 61.247486,234.835388 
	C61.890102,234.835388 62.532719,234.835388 64.413712,234.835388 
	C62.544296,233.787811 61.783905,233.361710 60.738960,232.446045 
M249.977188,143.834717 
	C248.648026,160.491379 242.157272,175.522263 234.142548,191.060135 
	C235.763718,190.300415 236.466370,190.202026 236.592697,189.878525 
	C241.105377,178.323303 245.833359,166.839905 249.876328,155.120529 
	C251.191971,151.306824 250.698990,146.869217 251.360809,142.147202 
	C251.435059,141.273499 251.509323,140.399796 251.583572,139.526093 
	C251.204208,139.493195 250.824844,139.460297 250.445480,139.427399 
	C250.296539,140.617004 250.147614,141.806595 249.977188,143.834717 
M153.563522,147.739151 
	C153.563522,164.043930 153.563522,180.348694 153.563522,197.115784 
	C165.061218,197.115784 176.180344,197.134659 187.299362,197.108994 
	C194.441620,197.092499 197.110367,194.379532 197.112671,187.107407 
	C197.125397,146.948334 197.124466,106.789253 197.114731,66.630173 
	C197.112885,59.025826 194.553604,56.394089 186.968430,56.389030 
	C146.809372,56.362240 106.650276,56.361210 66.491211,56.389557 
	C59.027199,56.394825 56.405533,58.934536 56.399200,66.238831 
	C56.364235,106.564514 56.366966,146.890259 56.397758,187.215942 
	C56.403267,194.429459 59.160576,197.104233 66.379372,197.110382 
	C86.708847,197.127716 107.038345,197.121078 127.367828,197.105591 
	C128.647903,197.104614 129.927856,196.947021 131.360443,196.852203 
	C131.360443,178.808777 131.360443,161.043961 131.360443,142.704712 
	C125.251335,142.704712 119.348885,142.704712 113.509460,142.704712 
	C113.509460,135.367371 113.509460,128.609161 113.509460,121.401123 
	C119.587715,121.401123 125.355789,121.401123 131.895905,121.401123 
	C131.895905,114.166695 131.395645,107.333138 132.012283,100.601906 
	C132.955383,90.306755 138.286896,82.044312 148.385941,79.565605 
	C156.854828,77.487007 165.992630,78.133759 174.875809,77.571190 
	C174.875809,85.150589 174.875809,91.233116 174.875809,97.727211 
	C170.048050,97.727211 165.540787,97.495239 161.068848,97.793083 
	C156.682007,98.085258 153.979568,100.710922 153.801102,105.187279 
	C153.590866,110.460724 153.751785,115.748978 153.751785,121.592346 
	C160.794357,121.592346 167.529282,121.592346 174.544998,121.592346 
	C173.588181,128.919647 172.709732,135.646637 171.768600,142.853775 
	C165.705048,142.853775 159.800446,142.853775 153.563599,142.853775 
	C153.563599,144.508163 153.563599,145.652817 153.563522,147.739151 
M73.389946,241.065948 
	C85.768951,247.267731 98.859245,250.807770 112.718361,251.547913 
	C95.511688,248.650879 79.160149,243.237503 63.895321,234.552505 
	C63.691608,235.005722 63.487900,235.458954 63.284191,235.912170 
	C66.392052,237.612732 69.499908,239.313309 73.389946,241.065948 
M9.985682,174.378998 
	C12.599126,179.851303 14.495399,185.742203 18.779346,190.246796 
	C16.852510,184.942078 14.222906,179.996002 12.147861,174.827271 
	C10.056668,169.618301 8.348726,164.236847 6.783009,158.840973 
	C5.301398,153.734940 4.222364,148.512085 2.966269,143.340622 
	C2.888213,148.622375 3.714058,153.680618 5.047174,158.601410 
	C6.418258,163.662338 8.284280,168.589172 9.985682,174.378998 
M21.986080,197.413055 
	C23.468794,199.169632 24.951506,200.926208 26.434217,202.682800 
	C26.746840,202.397766 27.059464,202.112732 27.372086,201.827698 
	C24.837130,198.087067 22.302172,194.346436 19.767216,190.605820 
	C19.380976,190.835022 18.994736,191.064224 18.608496,191.293427 
	C19.719656,193.079559 20.830816,194.865677 21.986080,197.413055 
M227.023102,201.122681 
	C227.082672,201.537247 227.129211,201.954681 227.219696,202.362381 
	C227.230011,202.408875 227.573975,202.465729 227.616364,202.408661 
	C230.264923,198.843948 232.898163,195.267868 235.532806,191.692825 
	C235.062805,191.379959 234.592789,191.067078 234.122787,190.754196 
	C231.920654,193.994751 229.718521,197.235291 227.023102,201.122681 
M31.619152,207.505783 
	C30.337280,205.844299 29.055410,204.182816 27.773539,202.521332 
	C27.348755,202.909348 26.923969,203.297363 26.499184,203.685379 
	C28.006826,205.169235 29.514467,206.653091 31.619152,207.505783 
M225.522964,206.046295 
	C226.014191,205.070923 226.505432,204.095535 226.996658,203.120163 
	C226.647278,202.929092 226.297913,202.738022 225.948532,202.546951 
	C224.708740,204.200867 223.468948,205.854782 222.229156,207.508698 
	C222.484863,207.742737 222.740585,207.976761 222.996292,208.210800 
	C223.639175,207.677643 224.282059,207.144501 225.522964,206.046295 
M207.649628,222.634705 
	C209.166534,221.876999 210.683441,221.119293 212.200333,220.361588 
	C211.868469,219.849808 211.536591,219.338043 211.204712,218.826263 
	C210.072662,219.830200 208.940613,220.834152 207.649628,222.634705 
M44.245449,220.021774 
	C43.596710,219.925797 42.947975,219.829819 42.299240,219.733841 
	C42.173553,220.038193 42.047867,220.342545 41.922184,220.646912 
	C43.254238,221.488953 44.586296,222.330978 45.918354,223.173019 
	C46.113029,222.881027 46.307709,222.589020 46.502384,222.297028 
	C45.954685,221.721756 45.406986,221.146484 44.245449,220.021774 
M32.006405,210.183701 
	C32.790573,210.821808 33.574741,211.459915 34.358910,212.098038 
	C34.404003,210.448059 33.725803,209.621964 32.963348,208.882767 
	C32.875561,208.797668 32.318348,209.196762 32.006405,210.183701 
M220.887955,208.844986 
	C220.357910,209.665741 219.827866,210.486496 219.297821,211.307251 
	C219.800766,211.542999 220.303711,211.778748 220.806656,212.014496 
	C221.089905,210.904648 221.373154,209.794815 220.887955,208.844986 
M3.155947,140.960739 
	C3.412565,140.807953 3.799493,140.705444 3.884081,140.486267 
	C3.950356,140.314545 3.642276,139.998322 3.500519,139.746307 
	C3.358430,139.998611 3.216341,140.250900 3.155947,140.960739 
z"/>
<path fill="#FFFFFF" opacity="1.000000" stroke="none" 
	d="
M135.000000,1.000000 
	C174.259659,1.000000 213.519333,1.000000 253.000000,1.000000 
	C253.000000,39.353943 253.000000,77.708313 252.683289,116.459129 
	C252.196548,116.240799 252.026535,115.626022 251.924927,114.612259 
	C251.937546,113.137833 251.881790,112.062401 251.914520,110.631317 
	C251.616959,109.187691 251.230942,108.099709 250.914719,106.587646 
	C248.377319,97.087502 245.770111,88.011444 243.093994,78.556297 
	C241.361572,74.475006 239.922562,70.647667 237.953873,67.115555 
	C236.687729,64.843895 234.642807,63.006317 232.946960,60.974167 
	C232.946960,60.974167 232.986389,61.016747 233.305969,60.761459 
	C232.745346,59.311810 231.865128,58.117439 230.984924,56.923065 
	C230.984924,56.923065 231.022400,56.981388 231.019989,56.591698 
	C230.326263,55.792950 229.634964,55.383892 228.943665,54.974834 
	C228.943665,54.974834 228.985138,55.015766 229.306915,54.761948 
	C228.414124,52.980087 227.199585,51.452049 225.985031,49.924011 
	C225.985031,49.924007 226.021240,49.979385 226.019470,49.627434 
	C224.660965,48.175991 223.304230,47.076504 221.947495,45.977013 
	C221.947495,45.977009 221.986649,46.015957 222.297394,45.761066 
	C222.066666,44.978184 221.525192,44.450191 220.983734,43.922199 
	C220.983734,43.922195 221.023224,43.976467 220.989349,43.725128 
	C220.650177,43.278271 220.344849,43.082752 220.035706,42.534840 
	C217.345581,39.766876 214.659302,37.351299 211.973022,34.935722 
	C211.973022,34.935719 212.021255,34.981346 211.917618,34.626217 
	C211.184036,34.175255 210.554077,34.079418 209.924133,33.983582 
	C209.924133,33.983582 209.986893,34.024929 210.211517,33.630463 
	C209.936401,33.143955 209.436661,33.051910 208.936920,32.959866 
	C208.936920,32.959866 208.990372,33.009270 209.208374,32.619759 
	C208.931595,32.140369 208.436813,32.050484 207.942047,31.960602 
	C207.942047,31.960600 207.985153,32.006222 208.304626,31.740387 
	C207.406021,30.626350 206.187943,29.778149 204.969864,28.929945 
	C204.969864,28.929945 205.021637,28.978876 204.915070,28.629562 
	C204.183868,28.180281 203.559235,28.080313 202.934616,27.980345 
	C202.934616,27.980345 202.982544,28.013460 203.304611,27.735031 
	C201.063583,25.963778 198.500488,24.470953 195.937408,22.978123 
	C195.937408,22.978121 195.984253,23.013039 196.306519,22.733109 
	C193.407196,20.611656 190.185608,18.770134 186.964020,16.928612 
	C186.964020,16.928612 187.017075,16.976971 186.933472,16.648693 
	C171.602875,8.020558 155.494537,2.689899 137.652405,2.060023 
	C136.538666,1.647486 135.769333,1.323743 135.000000,1.000000 
z"/>
<path fill="#FFFFFF" opacity="1.000000" stroke="none" 
	d="
M1.000001,117.000000 
	C1.000000,78.405746 1.000000,39.811489 1.000000,1.000000 
	C40.020626,1.000000 79.041656,1.000000 118.419556,1.337561 
	C117.852028,1.833020 116.927628,1.990916 115.561554,2.085991 
	C104.787033,4.124334 94.291336,5.655050 84.182373,8.540585 
	C78.116982,10.271910 72.655426,14.118643 66.922478,17.014629 
	C66.922478,17.014629 66.983093,16.976723 66.630898,16.972961 
	C63.510586,18.997795 60.742470,21.026388 57.974354,23.054981 
	C57.974354,23.054983 58.015415,23.013384 57.741283,22.687790 
	C55.303135,24.259602 53.139118,26.157009 50.975101,28.054417 
	C50.975101,28.054417 51.017231,28.013844 50.763763,27.705681 
	C49.979664,27.937449 49.449028,28.477377 48.918396,29.017305 
	C48.918396,29.017305 48.978386,28.978886 48.613129,28.978100 
	C47.490765,30.003698 46.733662,31.030083 45.976555,32.056469 
	C45.976555,32.056469 46.014656,32.006481 45.619247,31.791931 
	C45.135906,32.072536 45.047974,32.567696 44.960041,33.062851 
	C44.960041,33.062851 45.011345,33.018147 44.762566,32.706924 
	C43.981880,32.936176 43.449974,33.476650 42.918064,34.017128 
	C42.918064,34.017128 42.982738,33.975826 42.720978,34.007950 
	C42.281013,34.373081 42.102814,34.706081 41.924614,35.039085 
	C41.924614,35.039085 41.979103,34.990917 41.644577,34.975128 
	C38.860962,37.603058 36.411873,40.246769 33.697926,42.980431 
	C33.263550,43.387310 33.094028,43.704243 32.924503,44.021175 
	C32.924503,44.021175 32.975937,43.975941 32.622055,44.076435 
	C32.172203,44.807137 32.076233,45.437344 31.980259,46.067551 
	C31.980259,46.067551 32.015800,46.018566 31.753645,45.698067 
	C30.304550,46.927330 29.117611,48.477093 27.930668,50.026855 
	C27.930668,50.026852 27.978096,49.978825 27.644680,50.063866 
	C26.534018,51.787868 25.756769,53.426838 24.979523,55.065807 
	C24.979523,55.065807 25.012077,55.017040 24.734732,54.696636 
	C23.928032,55.235279 23.398676,56.094326 22.522980,57.098778 
	C21.777746,58.515182 21.378853,59.786186 20.979961,61.057190 
	C20.979961,61.057190 21.012484,61.013680 20.728790,60.690872 
	C16.940897,67.593384 13.436693,74.818703 9.932489,82.044022 
	C9.932489,82.044022 9.978259,81.991119 9.671030,82.028305 
	C9.187622,82.687912 9.011444,83.310333 8.492135,84.110870 
	C7.898413,85.200150 7.602584,86.101585 7.404470,87.024002 
	C5.974333,93.682648 4.563969,100.345535 2.956028,107.377487 
	C2.176479,110.831932 1.588240,113.915970 1.000001,117.000000 
z"/>
<path fill="#4D4D4D" opacity="1.000000" stroke="none" 
	d="
M139.033386,251.874481 
	C138.729279,252.070068 138.425186,252.265686 138.060547,252.730652 
	C130.645752,253.000000 123.291496,253.000000 115.468620,253.000000 
	C113.224617,249.407059 116.496307,251.075378 117.320877,251.057892 
	C124.245049,250.910965 131.173676,250.973770 138.543488,251.236755 
	C138.986038,251.500061 139.033386,251.874481 139.033386,251.874481 
z"/>
<path fill="#090909" opacity="1.000000" stroke="none" 
	d="
M251.856537,115.011246 
	C252.026535,115.626022 252.196548,116.240799 252.683289,116.927788 
	C253.000000,123.354393 253.000000,129.708786 253.000000,136.531586 
	C252.327408,135.882843 251.110657,134.783432 251.073532,133.645538 
	C250.880814,127.739258 250.989044,121.823166 251.236588,115.450455 
	C251.480743,114.990410 251.856537,115.011246 251.856537,115.011246 
z"/>
<path fill="#161616" opacity="1.000000" stroke="none" 
	d="
M116.003227,2.148813 
	C116.927628,1.990916 117.852028,1.833020 118.888214,1.337561 
	C124.022095,1.000000 129.044189,1.000000 134.533142,1.000000 
	C135.769333,1.323743 136.538666,1.647486 137.652985,2.253347 
	C137.997971,2.535465 137.998474,2.922117 137.998474,2.922117 
	C130.975967,2.965150 123.953453,3.008183 116.466522,2.793340 
	C116.002106,2.535464 116.003227,2.148812 116.003227,2.148813 
z"/>
<path fill="#0F0F0F" opacity="1.000000" stroke="none" 
	d="
M1.000001,117.250000 
	C1.588240,113.915970 2.176479,110.831932 3.145947,107.370178 
	C3.527175,106.992455 3.906986,106.977196 3.906985,106.977196 
	C3.163867,110.845901 2.420749,114.714607 1.338815,118.291656 
	C1.000000,118.000000 1.000000,117.500000 1.000001,117.250000 
z"/>
<path fill="#030303" opacity="1.000000" stroke="none" 
	d="
M153.563568,147.268311 
	C153.563599,145.652817 153.563599,144.508163 153.563599,142.853775 
	C159.800446,142.853775 165.705048,142.853775 171.768600,142.853775 
	C172.709732,135.646637 173.588181,128.919647 174.544998,121.592346 
	C167.529282,121.592346 160.794357,121.592346 153.751785,121.592346 
	C153.751785,115.748978 153.590866,110.460724 153.801102,105.187279 
	C153.979568,100.710922 156.682007,98.085258 161.068848,97.793083 
	C165.540787,97.495239 170.048050,97.727211 174.875809,97.727211 
	C174.875809,91.233116 174.875809,85.150589 174.875809,77.571190 
	C165.992630,78.133759 156.854828,77.487007 148.385941,79.565605 
	C138.286896,82.044312 132.955383,90.306755 132.012283,100.601906 
	C131.395645,107.333138 131.895905,114.166695 131.895905,121.401123 
	C125.355789,121.401123 119.587715,121.401123 113.509460,121.401123 
	C113.509460,128.609161 113.509460,135.367371 113.509460,142.704712 
	C119.348885,142.704712 125.251335,142.704712 131.360443,142.704712 
	C131.360443,161.043961 131.360443,178.808777 131.360443,196.852203 
	C129.927856,196.947021 128.647903,197.104614 127.367828,197.105591 
	C107.038345,197.121078 86.708847,197.127716 66.379372,197.110382 
	C59.160576,197.104233 56.403267,194.429459 56.397758,187.215942 
	C56.366966,146.890259 56.364235,106.564514 56.399200,66.238831 
	C56.405533,58.934536 59.027199,56.394825 66.491211,56.389557 
	C106.650276,56.361210 146.809372,56.362240 186.968430,56.389030 
	C194.553604,56.394089 197.112885,59.025826 197.114731,66.630173 
	C197.124466,106.789253 197.125397,146.948334 197.112671,187.107407 
	C197.110367,194.379532 194.441620,197.092499 187.299362,197.108994 
	C176.180344,197.134659 165.061218,197.115784 153.563522,197.115784 
	C153.563522,180.348694 153.563522,164.043930 153.563568,147.268311 
z"/>
<path fill="#1E1E1E" opacity="1.000000" stroke="none" 
	d="
M139.477570,251.937149 
	C139.033386,251.874481 138.986038,251.500061 139.009491,251.312805 
	C157.294693,249.010452 174.509293,243.720230 190.678558,234.403046 
	C191.030151,234.767822 191.034393,234.936829 191.038620,235.105835 
	C186.674942,237.613754 182.519943,240.627121 177.907120,242.531570 
	C165.747452,247.551712 153.323059,251.822800 139.477570,251.937149 
z"/>
<path fill="#1E1E1E" opacity="1.000000" stroke="none" 
	d="
M72.998856,241.039917 
	C69.499908,239.313309 66.392052,237.612732 63.284191,235.912170 
	C63.487900,235.458954 63.691608,235.005722 63.895321,234.552505 
	C79.160149,243.237503 95.511688,248.650879 112.718361,251.547913 
	C98.859245,250.807770 85.768951,247.267731 72.998856,241.039917 
z"/>
<path fill="#1A1A1A" opacity="1.000000" stroke="none" 
	d="
M138.388885,3.044466 
	C137.998474,2.922117 137.997971,2.535465 137.997391,2.342141 
	C155.494537,2.689899 171.602875,8.020558 186.963867,16.667793 
	C186.092438,16.904608 184.976364,17.057842 184.141098,16.644121 
	C170.522827,9.898821 156.439011,4.785684 141.080292,3.937121 
	C140.301468,3.894092 139.545761,3.433168 138.388885,3.044466 
z"/>
<path fill="#1A1A1A" opacity="1.000000" stroke="none" 
	d="
M115.561554,2.085990 
	C116.003227,2.148812 116.002106,2.535464 116.001831,2.728790 
	C98.973343,5.057698 82.704147,9.685955 67.194336,17.357780 
	C72.655426,14.118643 78.116982,10.271910 84.182373,8.540585 
	C94.291336,5.655050 104.787033,4.124334 115.561554,2.085990 
z"/>
<path fill="#1E1E1E" opacity="1.000000" stroke="none" 
	d="
M251.033234,142.716965 
	C250.698990,146.869217 251.191971,151.306824 249.876328,155.120529 
	C245.833359,166.839905 241.105377,178.323303 236.592697,189.878525 
	C236.466370,190.202026 235.763718,190.300415 234.142548,191.060135 
	C242.157272,175.522263 248.648026,160.491379 250.238495,143.315735 
	C250.677628,142.770172 250.855423,142.743576 251.033234,142.716965 
z"/>
<path fill="#1F1F1F" opacity="1.000000" stroke="none" 
	d="
M9.959703,173.976837 
	C8.284280,168.589172 6.418258,163.662338 5.047174,158.601410 
	C3.714058,153.680618 2.888213,148.622375 2.966269,143.340622 
	C4.222364,148.512085 5.301398,153.734940 6.783009,158.840973 
	C8.348726,164.236847 10.056668,169.618301 12.147861,174.827271 
	C14.222906,179.996002 16.852510,184.942078 18.779346,190.246796 
	C14.495399,185.742203 12.599126,179.851303 9.959703,173.976837 
z"/>
<path fill="#191919" opacity="1.000000" stroke="none" 
	d="
M243.162888,78.935394 
	C245.770111,88.011444 248.377319,97.087502 250.728989,106.579842 
	C250.473450,106.996124 250.102310,106.974449 250.102310,106.974449 
	C247.406952,97.899391 244.711609,88.824341 242.308167,79.359627 
	C242.787704,78.958443 242.975296,78.946922 243.162888,78.935394 
z"/>
<path fill="#191919" opacity="1.000000" stroke="none" 
	d="
M4.066187,106.631302 
	C3.906986,106.977196 3.527175,106.992455 3.337257,106.999771 
	C4.563969,100.345535 5.974333,93.682648 7.404470,87.024002 
	C7.602584,86.101585 7.898413,85.200150 8.775380,84.131348 
	C9.590862,83.982704 9.779970,83.991722 9.969078,84.000740 
	C8.054515,91.428963 6.139952,98.857178 4.066187,106.631302 
z"/>
<path fill="#1E1E1E" opacity="1.000000" stroke="none" 
	d="
M10.304309,82.198975 
	C13.436693,74.818703 16.940897,67.593384 20.748140,60.671810 
	C17.592831,68.101677 14.134480,75.227798 10.304309,82.198975 
z"/>
<path fill="#1B1B1B" opacity="1.000000" stroke="none" 
	d="
M243.093994,78.556297 
	C242.975296,78.946922 242.787704,78.958443 242.318344,78.979805 
	C238.986526,73.227516 235.936462,67.465393 232.916687,61.338718 
	C234.642807,63.006317 236.687729,64.843895 237.953873,67.115555 
	C239.922562,70.647667 241.361572,74.475006 243.093994,78.556297 
z"/>
<path fill="#1F1F1F" opacity="1.000000" stroke="none" 
	d="
M21.964027,197.032440 
	C20.830816,194.865677 19.719656,193.079559 18.608496,191.293427 
	C18.994736,191.064224 19.380976,190.835022 19.767216,190.605820 
	C22.302172,194.346436 24.837130,198.087067 27.372086,201.827698 
	C27.059464,202.112732 26.746840,202.397766 26.434217,202.682800 
	C24.951506,200.926208 23.468794,199.169632 21.964027,197.032440 
z"/>
<path fill="#1E1E1E" opacity="1.000000" stroke="none" 
	d="
M227.269745,200.799255 
	C229.718521,197.235291 231.920654,193.994751 234.122787,190.754196 
	C234.592789,191.067078 235.062805,191.379959 235.532806,191.692825 
	C232.898163,195.267868 230.264923,198.843948 227.616364,202.408661 
	C227.573975,202.465729 227.230011,202.408875 227.219696,202.362381 
	C227.129211,201.954681 227.082672,201.537247 227.269745,200.799255 
z"/>
<path fill="#232323" opacity="1.000000" stroke="none" 
	d="
M33.962780,42.890484 
	C36.411873,40.246769 38.860962,37.603058 41.668465,34.947716 
	C39.563000,37.922104 37.099121,40.908115 34.309845,43.716167 
	C33.977230,43.322304 33.970005,43.106396 33.962780,42.890484 
z"/>
<path fill="#222222" opacity="1.000000" stroke="none" 
	d="
M211.693115,35.223351 
	C214.659302,37.351299 217.345581,39.766876 220.023834,42.862991 
	C220.007080,43.762268 219.998383,43.981003 219.989670,44.199738 
	C217.130844,41.303486 214.272018,38.407230 211.693115,35.223351 
z"/>
<path fill="#1A1A1A" opacity="1.000000" stroke="none" 
	d="
M58.336060,23.073917 
	C60.742470,21.026388 63.510586,18.997795 66.657333,16.948906 
	C64.256577,18.983358 61.477173,21.038107 58.336060,23.073917 
z"/>
<path fill="#1A1A1A" opacity="1.000000" stroke="none" 
	d="
M186.740082,17.253407 
	C190.185608,18.770134 193.407196,20.611656 196.326981,22.753965 
	C192.855499,21.229237 189.685837,19.403719 186.740082,17.253407 
z"/>
<path fill="#1A1A1A" opacity="1.000000" stroke="none" 
	d="
M195.982666,23.321762 
	C198.500488,24.470953 201.063583,25.963778 203.325531,27.755299 
	C200.692230,26.591127 198.360077,25.128262 195.982666,23.321762 
z"/>
<path fill="#1A1A1A" opacity="1.000000" stroke="none" 
	d="
M51.327450,28.068853 
	C53.139118,26.157009 55.303135,24.259602 57.764767,22.670391 
	C55.934856,24.680157 53.807327,26.381723 51.327450,28.068853 
z"/>
<path fill="#1F1F1F" opacity="1.000000" stroke="none" 
	d="
M31.320629,207.821365 
	C29.514467,206.653091 28.006826,205.169235 26.499184,203.685379 
	C26.923969,203.297363 27.348755,202.909348 27.773539,202.521332 
	C29.055410,204.182816 30.337280,205.844299 31.320629,207.821365 
z"/>
<path fill="#1E1E1E" opacity="1.000000" stroke="none" 
	d="
M225.223938,206.328827 
	C224.282059,207.144501 223.639175,207.677643 222.996292,208.210800 
	C222.740585,207.976761 222.484863,207.742737 222.229156,207.508698 
	C223.468948,205.854782 224.708740,204.200867 225.948532,202.546951 
	C226.297913,202.738022 226.647278,202.929092 226.996658,203.120163 
	C226.505432,204.095535 226.014191,205.070923 225.223938,206.328827 
z"/>
<path fill="#1E1E1E" opacity="1.000000" stroke="none" 
	d="
M207.729095,222.236389 
	C208.940613,220.834152 210.072662,219.830200 211.204712,218.826263 
	C211.536591,219.338043 211.868469,219.849808 212.200333,220.361588 
	C210.683441,221.119293 209.166534,221.876999 207.729095,222.236389 
z"/>
<path fill="#191919" opacity="1.000000" stroke="none" 
	d="
M28.214668,50.310802 
	C29.117611,48.477093 30.304550,46.927330 31.775457,45.677097 
	C30.872505,47.515999 29.685585,49.055374 28.214668,50.310802 
z"/>
<path fill="#1B1B1B" opacity="1.000000" stroke="none" 
	d="
M221.938873,46.341019 
	C223.304230,47.076504 224.660965,48.175991 226.042679,49.651016 
	C224.688522,48.919369 223.309387,47.812195 221.938873,46.341019 
z"/>
<path fill="#1B1B1B" opacity="1.000000" stroke="none" 
	d="
M225.656784,50.177593 
	C227.199585,51.452049 228.414124,52.980087 229.324005,54.785534 
	C227.789062,53.519020 226.558807,51.975098 225.656784,50.177593 
z"/>
<path fill="#191919" opacity="1.000000" stroke="none" 
	d="
M25.340870,54.999088 
	C25.756769,53.426838 26.534018,51.787868 27.663132,50.035606 
	C27.244070,51.592327 26.473143,53.262348 25.340870,54.999088 
z"/>
<path fill="#1C1C1C" opacity="1.000000" stroke="none" 
	d="
M55.410015,230.776230 
	C53.990593,229.759811 52.571171,228.743408 51.213249,227.209641 
	C51.385975,226.550720 51.497196,226.409134 51.608421,226.267532 
	C53.033287,227.249405 54.458153,228.231277 55.832970,229.739746 
	C55.658615,230.436310 55.534313,230.606262 55.410015,230.776230 
z"/>
<path fill="#1E1E1E" opacity="1.000000" stroke="none" 
	d="
M203.093597,227.096039 
	C201.759903,228.190521 200.426208,229.285004 198.649689,230.326599 
	C198.071503,230.109848 197.936157,229.945999 197.800827,229.782150 
	C199.148743,228.712479 200.496674,227.642792 202.289154,226.629807 
	C202.853699,226.823013 202.973648,226.959518 203.093597,227.096039 
z"/>
<path fill="#1C1C1C" opacity="1.000000" stroke="none" 
	d="
M44.552368,220.296494 
	C45.406986,221.146484 45.954685,221.721756 46.502384,222.297028 
	C46.307709,222.589020 46.113029,222.881027 45.918354,223.173019 
	C44.586296,222.330978 43.254238,221.488953 41.922184,220.646912 
	C42.047867,220.342545 42.173553,220.038193 42.299240,219.733841 
	C42.947975,219.829819 43.596710,219.925797 44.552368,220.296494 
z"/>
<path fill="#191919" opacity="1.000000" stroke="none" 
	d="
M251.924927,114.612259 
	C251.856537,115.011246 251.480743,114.990410 251.292679,114.983276 
	C250.897873,113.864250 250.691132,112.752365 250.763931,111.293945 
	C251.303696,110.973022 251.564545,110.986214 251.826019,110.986969 
	C251.881790,112.062401 251.937546,113.137833 251.924927,114.612259 
z"/>
<path fill="#1E1E1E" opacity="1.000000" stroke="none" 
	d="
M191.397781,235.074066 
	C191.034393,234.936829 191.030151,234.767822 191.025299,234.345230 
	C192.070572,233.367447 193.116470,232.643250 194.717590,232.068451 
	C195.447128,232.343887 195.621445,232.469910 195.795746,232.595917 
	C194.449478,233.411377 193.103210,234.226852 191.397781,235.074066 
z"/>
<path fill="#FDFDFD" opacity="1.000000" stroke="none" 
	d="
M251.197021,142.432083 
	C250.855423,142.743576 250.677628,142.770172 250.249252,142.896469 
	C250.147614,141.806595 250.296539,140.617004 250.445480,139.427399 
	C250.824844,139.460297 251.204208,139.493195 251.583572,139.526093 
	C251.509323,140.399796 251.435059,141.273499 251.197021,142.432083 
z"/>
<path fill="#090909" opacity="1.000000" stroke="none" 
	d="
M251.914505,110.631317 
	C251.564545,110.986214 251.303696,110.973022 250.848145,110.961639 
	C250.434967,109.914963 250.217148,108.854057 250.050812,107.383804 
	C250.102310,106.974449 250.473450,106.996124 250.659180,107.003922 
	C251.230942,108.099709 251.616959,109.187691 251.914505,110.631317 
z"/>
<path fill="#1F1F1F" opacity="1.000000" stroke="none" 
	d="
M31.992594,209.777527 
	C32.318348,209.196762 32.875561,208.797668 32.963348,208.882767 
	C33.725803,209.621964 34.404003,210.448059 34.358910,212.098038 
	C33.574741,211.459915 32.790573,210.821808 31.992594,209.777527 
z"/>
<path fill="#1E1E1E" opacity="1.000000" stroke="none" 
	d="
M221.272186,208.764984 
	C221.373154,209.794815 221.089905,210.904648 220.806656,212.014496 
	C220.303711,211.778748 219.800766,211.542999 219.297821,211.307251 
	C219.827866,210.486496 220.357910,209.665741 221.272186,208.764984 
z"/>
<path fill="#1C1C1C" opacity="1.000000" stroke="none" 
	d="
M51.092506,226.891617 
	C49.754574,226.379761 48.598888,225.668579 47.557789,224.532898 
	C47.852154,223.999771 48.031933,223.891159 48.211708,223.782547 
	C49.203461,224.466736 50.195217,225.150909 51.397697,226.051315 
	C51.497196,226.409134 51.385975,226.550720 51.092506,226.891617 
z"/>
<path fill="#1E1E1E" opacity="1.000000" stroke="none" 
	d="
M202.569733,226.468750 
	C203.336380,225.485443 204.267014,224.719864 205.762665,224.030487 
	C206.525620,224.182831 206.723557,224.258972 206.921494,224.335114 
	C205.884827,225.236465 204.848160,226.137833 203.452545,227.067612 
	C202.973648,226.959518 202.853699,226.823013 202.569733,226.468750 
z"/>
<path fill="#1A1A1A" opacity="1.000000" stroke="none" 
	d="
M204.708252,29.226933 
	C206.187943,29.778149 207.406021,30.626350 208.323547,31.765415 
	C206.830887,31.212156 205.638779,30.368038 204.708252,29.226933 
z"/>
<path fill="#1E1E1E" opacity="1.000000" stroke="none" 
	d="
M21.313644,61.027405 
	C21.378853,59.786186 21.777746,58.515182 22.800705,57.109306 
	C23.609936,56.980942 23.795105,56.987450 23.980274,56.993958 
	C23.202623,58.328510 22.424976,59.663067 21.313644,61.027405 
z"/>
<path fill="#1A1A1A" opacity="1.000000" stroke="none" 
	d="
M46.347656,32.048271 
	C46.733662,31.030083 47.490765,30.003698 48.639015,28.953629 
	C48.259689,29.966654 47.489223,31.003363 46.347656,32.048271 
z"/>
<path fill="#1B1B1B" opacity="1.000000" stroke="none" 
	d="
M230.657654,57.179329 
	C231.865128,58.117439 232.745346,59.311810 233.321991,60.785645 
	C232.122421,59.855267 231.226410,58.645424 230.657654,57.179329 
z"/>
<path fill="#1E1E1E" opacity="1.000000" stroke="none" 
	d="
M198.384796,230.538177 
	C197.789749,231.278244 197.016754,231.753799 196.019760,232.412643 
	C195.621445,232.469910 195.447128,232.343887 195.032715,232.002350 
	C195.593002,231.164429 196.393402,230.542023 197.497314,229.850891 
	C197.936157,229.945999 198.071503,230.109848 198.384796,230.538177 
z"/>
<path fill="#1C1C1C" opacity="1.000000" stroke="none" 
	d="
M55.990646,230.028412 
	C57.103123,230.273483 58.007874,230.756500 58.848938,231.758331 
	C58.666275,232.454361 58.547287,232.631577 58.428299,232.808777 
	C57.553238,232.297562 56.678181,231.786346 55.606567,231.025681 
	C55.534313,230.606262 55.658615,230.436310 55.990646,230.028412 
z"/>
<path fill="#1C1C1C" opacity="1.000000" stroke="none" 
	d="
M60.935356,234.181259 
	C60.225925,233.882828 59.516495,233.584396 58.617683,233.047363 
	C58.547287,232.631577 58.666275,232.454361 58.993416,232.033859 
	C59.714035,232.009064 60.226498,232.227554 60.861122,233.002380 
	C60.967308,233.766220 60.951332,233.973740 60.935356,234.181259 
z"/>
<path fill="#1E1E1E" opacity="1.000000" stroke="none" 
	d="
M61.091423,234.508331 
	C60.951332,233.973740 60.967308,233.766220 61.003395,233.247162 
	C61.783905,233.361710 62.544296,233.787811 64.413712,234.835388 
	C62.532719,234.835388 61.890102,234.835388 61.091423,234.508331 
z"/>
<path fill="#191919" opacity="1.000000" stroke="none" 
	d="
M24.243340,56.826370 
	C23.795105,56.987450 23.609936,56.980942 23.147045,56.963905 
	C23.398676,56.094326 23.928032,55.235279 24.754520,54.675003 
	C24.869904,55.535439 24.688154,56.097111 24.243340,56.826370 
z"/>
<path fill="#1B1B1B" opacity="1.000000" stroke="none" 
	d="
M228.938690,55.364006 
	C229.634964,55.383892 230.326263,55.792950 231.043808,56.616859 
	C230.357956,56.605534 229.645844,56.179356 228.938690,55.364006 
z"/>
<path fill="#FDFDFD" opacity="1.000000" stroke="none" 
	d="
M3.115099,140.731964 
	C3.216341,140.250900 3.358430,139.998611 3.500517,139.746307 
	C3.642276,139.998322 3.950356,140.314545 3.884081,140.486267 
	C3.799493,140.705444 3.412565,140.807953 3.115099,140.731964 
z"/>
<path fill="#1B1B1B" opacity="1.000000" stroke="none" 
	d="
M220.658310,44.198761 
	C221.525192,44.450191 222.066666,44.978184 222.313477,45.783516 
	C221.456833,45.532337 220.894867,45.003826 220.658310,44.198761 
z"/>
<path fill="#191919" opacity="1.000000" stroke="none" 
	d="
M32.384350,45.976658 
	C32.076233,45.437344 32.172203,44.807137 32.642174,44.048714 
	C32.940266,44.575588 32.864353,45.230679 32.384350,45.976658 
z"/>
<path fill="#1A1A1A" opacity="1.000000" stroke="none" 
	d="
M43.199203,34.322128 
	C43.449974,33.476650 43.981880,32.936176 44.791092,32.688370 
	C44.539040,33.529732 44.009689,34.078430 43.199203,34.322128 
z"/>
<path fill="#1A1A1A" opacity="1.000000" stroke="none" 
	d="
M203.020813,28.378174 
	C203.559235,28.080313 204.183868,28.180281 204.945068,28.648752 
	C204.423431,28.936838 203.765213,28.856421 203.020813,28.378174 
z"/>
<path fill="#222222" opacity="1.000000" stroke="none" 
	d="
M210.062286,34.353844 
	C210.554077,34.079418 211.184036,34.175255 211.945557,34.644142 
	C211.451584,34.919498 210.826004,34.821804 210.062286,34.353844 
z"/>
<path fill="#1A1A1A" opacity="1.000000" stroke="none" 
	d="
M49.201523,29.323139 
	C49.449028,28.477377 49.979664,27.937449 50.787865,27.689121 
	C50.538506,28.530140 50.011574,29.079557 49.201523,29.323139 
z"/>
<path fill="#1E1E1E" opacity="1.000000" stroke="none" 
	d="
M10.223354,83.647041 
	C9.779970,83.991722 9.590862,83.982704 9.118510,83.953217 
	C9.011444,83.310333 9.187622,82.687912 9.689855,81.998825 
	C10.169816,82.385887 10.323723,82.839615 10.223354,83.647041 
z"/>
<path fill="#1A1A1A" opacity="1.000000" stroke="none" 
	d="
M207.931976,32.283321 
	C208.436813,32.050484 208.931595,32.140369 209.232986,32.646561 
	C208.667038,32.910595 208.294479,32.758316 207.931976,32.283321 
z"/>
<path fill="#1A1A1A" opacity="1.000000" stroke="none" 
	d="
M208.946411,33.271301 
	C209.436661,33.051910 209.936401,33.143955 210.239075,33.656006 
	C209.679977,33.911583 209.317932,33.747158 208.946411,33.271301 
z"/>
<path fill="#1A1A1A" opacity="1.000000" stroke="none" 
	d="
M45.282803,33.054718 
	C45.047974,32.567696 45.135906,32.072536 45.640900,31.769157 
	C45.907166,32.322819 45.756367,32.684700 45.282803,33.054718 
z"/>
<path fill="#232323" opacity="1.000000" stroke="none" 
	d="
M42.347893,35.236313 
	C42.102814,34.706081 42.281013,34.373081 42.749283,33.982048 
	C42.949959,34.427189 42.860569,34.930363 42.347893,35.236313 
z"/>
<path fill="#191919" opacity="1.000000" stroke="none" 
	d="
M33.697926,42.980431 
	C33.970005,43.106396 33.977230,43.322304 33.999805,43.861893 
	C33.812019,44.300114 33.608879,44.414646 33.165119,44.275177 
	C33.094028,43.704243 33.263550,43.387310 33.697926,42.980431 
z"/>
<path fill="#1B1B1B" opacity="1.000000" stroke="none" 
	d="
M220.295425,44.365784 
	C219.998383,43.981003 220.007080,43.762268 220.027664,43.215378 
	C220.344849,43.082752 220.650177,43.278271 221.014526,43.747322 
	C220.916107,44.191181 220.758636,44.361507 220.295425,44.365784 
z"/>
<path fill="#1E1E1E" opacity="1.000000" stroke="none" 
	d="
M206.054703,223.943268 
	C206.322861,223.794220 206.863983,223.808594 207.163300,224.079041 
	C206.723557,224.258972 206.525620,224.182831 206.054703,223.943268 
z"/>
<path fill="#1C1C1C" opacity="1.000000" stroke="none" 
	d="
M47.378334,224.221558 
	C46.959858,223.941940 46.835423,223.549164 46.710983,223.156387 
	C47.117447,223.164917 47.523907,223.173431 48.071037,223.482239 
	C48.031933,223.891159 47.852154,223.999771 47.378334,224.221558 
z"/>
</svg>