<svg version="1.1" id="Layer_1" xmlns="http://www.w3.org/2000/svg" xmlns:xlink="http://www.w3.org/1999/xlink" x="0px" y="0px"
	 width="100%" viewBox="0 0 240 240" enable-background="new 0 0 240 240" xml:space="preserve">
<path fill="#000000" opacity="1.000000" stroke="none" 
	d="
M144.531342,1.000000 
	C150.139984,3.882128 156.083511,3.698569 161.588623,5.298644 
	C188.144623,13.017242 209.911377,27.433844 226.896118,49.370655 
	C231.912323,55.849384 235.673782,63.047905 240.722931,69.810715 
	C241.000000,72.041664 241.000000,74.083336 241.000000,76.562500 
	C236.465317,70.628372 233.754364,63.203472 229.123810,56.858257 
	C201.147598,18.522709 163.292130,-0.140536 116.182396,3.791990 
	C60.000374,8.481833 16.600416,47.857899 5.607152,103.231903 
	C-2.616045,144.652847 8.824957,181.259735 37.532166,212.348328 
	C48.646179,224.384308 62.090157,233.170685 76.824860,240.700928 
	C74.958336,241.000000 72.916664,241.000000 70.437500,241.000000 
	C67.443932,237.993835 63.714153,236.772614 60.502567,234.765656 
	C29.297510,215.265289 10.584049,187.112289 2.720225,151.427475 
	C2.343753,149.719101 3.377555,147.694260 1.291888,146.151550 
	C1.000000,133.645767 1.000000,121.291542 1.000000,108.468658 
	C4.179447,103.342758 3.814300,97.662102 5.284273,92.515030 
	C10.347083,74.787720 18.803698,59.118240 30.696716,45.040306 
	C49.550327,22.723013 73.398682,9.170265 101.731956,2.999222 
	C103.963570,2.513170 106.485352,3.200892 108.712555,1.228694 
	C120.687561,1.000000 132.375122,1.000000 144.531342,1.000000 
z"/>
<path fill="#000000" opacity="1.000000" stroke="none" 
	d="
M241.000000,183.562500 
	C235.558929,190.069153 232.284637,197.582153 227.421021,204.106339 
	C217.112595,217.934189 204.158127,228.386108 189.610046,237.194016 
	C188.073013,238.124603 186.228790,238.670029 185.125305,240.689301 
	C182.629440,241.000000 180.258896,241.000000 177.444168,241.000000 
	C182.148346,238.030807 187.392181,235.214386 192.428421,232.065903 
	C213.884155,218.652390 229.548813,200.115265 240.710922,177.195862 
	C241.000000,179.041672 241.000000,181.083328 241.000000,183.562500 
z"/>
<path fill="#000000" opacity="1.000000" stroke="none" 
	d="
M114.999931,51.646278 
	C129.327698,51.663776 143.165710,51.356865 156.980225,51.793701 
	C170.100861,52.208603 182.382629,55.381298 191.506531,65.908447 
	C199.360611,74.970482 201.798676,86.068817 202.096466,97.463524 
	C202.601181,116.775520 202.581436,136.118439 202.114563,155.432220 
	C201.830704,167.174759 199.421799,178.501495 191.240829,187.882523 
	C181.757370,198.757080 169.051956,201.726227 155.707947,202.115479 
	C136.232117,202.683594 116.712090,202.795990 97.241638,202.160629 
	C80.960991,201.629379 66.386726,196.576660 57.702984,181.189178 
	C53.516090,173.770065 51.894325,165.544739 51.783096,157.199219 
	C51.512238,136.877731 51.488686,116.547783 51.737091,96.225792 
	C52.067345,69.207794 69.421135,52.105759 96.507668,51.707443 
	C102.504082,51.619267 108.502441,51.663544 114.999931,51.646278 
M180.387344,177.864609 
	C186.655258,170.884048 187.317230,162.070496 187.519287,153.482773 
	C187.934341,135.842072 187.855011,118.180817 187.536057,100.536041 
	C187.404816,93.275833 187.100357,85.802444 183.151779,79.261368 
	C176.969879,69.020683 166.756622,66.755394 156.009125,66.400436 
	C135.720520,65.730354 115.417015,65.689888 95.120003,66.314117 
	C77.496880,66.856117 67.604393,76.140656 66.385284,93.626076 
	C64.832687,115.894470 64.716560,138.178558 66.355721,160.454559 
	C67.512703,176.177963 77.189270,185.529663 92.954018,186.819016 
	C113.078751,188.464935 133.222412,187.606018 153.349472,187.485138 
	C162.970154,187.427368 172.787521,186.445389 180.387344,177.864609 
z"/>
<path fill="#000000" opacity="1.000000" stroke="none" 
	d="
M135.744873,88.820641 
	C161.446014,96.379211 173.009674,121.714424 161.537186,144.505890 
	C154.534912,158.416748 138.407669,167.687149 124.399071,165.853943 
	C105.394951,163.367004 92.434143,152.232849 88.740349,135.220856 
	C82.646477,107.155060 106.613914,83.244507 135.744873,88.820641 
M104.637428,136.725006 
	C105.298538,137.877335 105.900490,139.068634 106.629898,140.175964 
	C113.877457,151.178528 128.255859,154.396530 139.543884,147.562485 
	C150.521103,140.916611 154.446426,126.721512 148.433517,115.414902 
	C142.568085,104.385529 128.774490,99.390617 117.714172,104.290863 
	C104.921608,109.958580 99.685814,122.365166 104.637428,136.725006 
z"/>
<path fill="#000000" opacity="1.000000" stroke="none" 
	d="
M157.963135,83.627594 
	C160.282806,78.345901 164.270142,76.912666 169.187836,77.814957 
	C173.006042,78.515503 175.327255,81.164619 176.112030,84.851395 
	C177.000122,89.023453 175.336136,92.428276 171.889679,94.798439 
	C168.697067,96.994057 165.235611,96.848152 161.976532,94.928230 
	C157.760406,92.444496 157.198990,88.430832 157.963135,83.627594 
z"/>
</svg>