<?xml version="1.0" encoding="UTF-8"?>
<svg version="1.1" xmlns="http://www.w3.org/2000/svg" width="512" height="512">
<path d="M0 0 C2.97142474 0.67299063 4.03129495 2.18047575 6.03515625 4.4609375 C7.28460916 6.60906967 8.45000587 8.80694211 9.55760193 11.03153992 C9.88825954 11.69014301 10.21891715 12.3487461 10.55959469 13.02730685 C11.66251827 15.22891694 12.75392315 17.43603515 13.84545898 19.64331055 C14.63526213 21.22568314 15.42577705 22.80770063 16.21694946 24.38938904 C18.36250823 28.68363028 20.49822001 32.98270267 22.63233066 37.28264213 C24.87017695 41.78709514 27.11742737 46.28685079 29.36378479 50.7870636 C33.62094206 59.31897846 37.87026992 67.85476635 42.11651331 76.39211732 C48.33866111 88.9014695 54.57080996 101.40583824 60.80501652 113.90918446 C61.26318852 114.82809788 61.72136053 115.7470113 62.19341654 116.69377059 C63.10749264 118.52702172 64.02159546 120.36025953 64.93572575 122.19348365 C67.60482708 127.54689602 70.27107617 132.90171652 72.93484676 138.25778329 C74.59681484 141.59881017 76.26038882 144.9390358 77.92427444 148.27910805 C78.69210748 149.82140533 79.45922609 151.36405855 80.22555351 152.90710449 C82.4748177 157.43574636 84.7423813 161.95415055 87.03515625 166.4609375 C87.77093824 167.91558395 87.77093824 167.91558395 88.52158451 169.3996172 C88.95262202 170.21967589 89.38365953 171.03973459 89.82775879 171.88464355 C90.35968967 172.90508633 90.35968967 172.90508633 90.90236664 173.9461441 C92.07677372 175.82112244 92.07677372 175.82112244 95.29321289 176.51098633 C96.49840576 176.48029053 97.70359863 176.44959473 98.9453125 176.41796875 C100.9243457 176.41506836 100.9243457 176.41506836 102.94335938 176.41210938 C104.32821784 176.36875586 105.71298838 176.32250245 107.09765625 176.2734375 C109.818597 176.21218221 112.535808 176.18527245 115.2578125 176.16796875 C116.46187744 176.1316333 117.66594238 176.09529785 118.90649414 176.05786133 C122.03515625 176.4609375 122.03515625 176.4609375 124.20231628 178.073349 C126.62604967 181.23067755 126.51900394 183.10919425 126.48925781 187.06542969 C126.48984192 187.71950302 126.49042603 188.37357635 126.49102783 189.04747009 C126.48824924 191.20146444 126.45717173 193.35406106 126.42578125 195.5078125 C126.41831797 197.00424443 126.41262544 198.50068614 126.40863037 199.99713135 C126.39338064 203.9297804 126.35410537 207.86183557 126.30981445 211.79425049 C126.26884699 215.80936652 126.25061626 219.82457881 126.23046875 223.83984375 C126.18760973 231.71381376 126.11936728 239.58730169 126.03515625 247.4609375 C127.12401123 247.43737183 127.12401123 247.43737183 128.23486328 247.41333008 C131.54321413 247.35073395 134.85144006 247.31186838 138.16015625 247.2734375 C139.30226563 247.24830078 140.444375 247.22316406 141.62109375 247.19726562 C152.33680993 247.10381461 152.33680993 247.10381461 157.03515625 250.4609375 C158.31858202 253.02778904 158.18323732 254.89094816 158.2121582 257.76513672 C158.22499344 258.873237 158.23782867 259.98133728 158.25105286 261.12301636 C158.26213326 262.92610764 158.26213326 262.92610764 158.2734375 264.765625 C158.28150925 265.99628693 158.28958099 267.22694885 158.29789734 268.49490356 C158.31174657 271.10254503 158.32246495 273.71020469 158.33032227 276.31787109 C158.33919186 278.99323231 158.36008573 281.66807572 158.3918457 284.34326172 C158.43435165 288.19254336 158.4506683 292.04113832 158.4609375 295.890625 C158.47844559 297.08863739 158.49595367 298.28664978 158.51399231 299.52096558 C158.51106674 300.63537018 158.50814117 301.74977478 158.50512695 302.89794922 C158.51099319 303.87786835 158.51685944 304.85778748 158.52290344 305.86740112 C158.03515625 308.4609375 158.03515625 308.4609375 156.64640808 310.79299927 C152.54535383 313.41254944 148.53650352 312.88395575 143.78515625 312.7109375 C142.84929687 312.69289063 141.9134375 312.67484375 140.94921875 312.65625 C138.6434861 312.60919423 136.3398468 312.54347463 134.03515625 312.4609375 C134.0440387 313.50441345 134.05292114 314.5478894 134.06207275 315.62298584 C134.14312508 325.45206331 134.20310553 335.28107307 134.24240494 345.11040878 C134.26328839 350.1639167 134.29161996 355.21715505 134.33691406 360.27050781 C134.38034464 365.14641218 134.40428765 370.0220571 134.41466522 374.89813995 C134.4220616 376.75932144 134.43650491 378.62048858 134.45807648 380.48155975 C134.48707369 383.08665254 134.49111384 385.69067048 134.48925781 388.29589844 C134.50363892 389.06697937 134.51802002 389.8380603 134.53283691 390.63250732 C134.50549454 394.17439696 134.32072953 396.08928473 132.1317749 398.93804932 C129.23148495 401.04468768 127.41988362 401.033274 123.94140625 400.8515625 C120.95489937 400.23957338 119.69675991 398.95334299 118.03515625 396.4609375 C118.03515625 395.1409375 118.03515625 393.8209375 118.03515625 392.4609375 C110.11515625 392.4609375 102.19515625 392.4609375 94.03515625 392.4609375 C93.70515625 394.4409375 93.37515625 396.4209375 93.03515625 398.4609375 C89.35912356 400.91162596 86.30754591 401.16725998 82.03515625 400.4609375 C78.54124915 397.95249137 78.10083052 396.72363458 77.03515625 392.4609375 C77.03515625 366.0609375 77.03515625 339.6609375 77.03515625 312.4609375 C-38.46484375 312.4609375 -153.96484375 312.4609375 -272.96484375 312.4609375 C-272.96484375 338.8609375 -272.96484375 365.2609375 -272.96484375 392.4609375 C-275.96484375 399.4609375 -275.96484375 399.4609375 -277.96484375 400.4609375 C-285.13839747 401.0394499 -285.13839747 401.0394499 -288.46484375 398.7109375 C-289.96484375 396.4609375 -289.96484375 396.4609375 -289.96484375 392.4609375 C-297.88484375 392.4609375 -305.80484375 392.4609375 -313.96484375 392.4609375 C-314.29484375 394.4409375 -314.62484375 396.4209375 -314.96484375 398.4609375 C-318.17920904 400.60384769 -320.13910984 400.76119541 -323.9296875 400.921875 C-327.01329251 400.22347694 -328.04663967 398.96465907 -329.96484375 396.4609375 C-330.33891699 393.6069025 -330.47208773 391.14526987 -330.41894531 388.29589844 C-330.41982147 387.06607239 -330.41982147 387.06607239 -330.42071533 385.81140137 C-330.41793205 383.10560539 -330.38682924 380.40091565 -330.35546875 377.6953125 C-330.34800721 375.8177348 -330.34231387 373.94014931 -330.33831787 372.06256104 C-330.32305466 367.12384492 -330.28376688 362.1856003 -330.23950195 357.24707031 C-330.1985641 352.20644509 -330.18031003 347.16574359 -330.16015625 342.125 C-330.11727334 332.23677215 -330.04901363 322.34889405 -329.96484375 312.4609375 C-330.54975586 312.48188477 -331.13466797 312.50283203 -331.73730469 312.52441406 C-334.3963084 312.60773865 -337.0550373 312.65964647 -339.71484375 312.7109375 C-340.63523437 312.74445313 -341.555625 312.77796875 -342.50390625 312.8125 C-349.26273699 312.91045407 -349.26273699 312.91045407 -352.57312012 310.79101562 C-354.26724336 307.95464825 -354.47164665 306.22717853 -354.48242188 302.9296875 C-354.49503052 301.82173828 -354.50763916 300.71378906 -354.52062988 299.57226562 C-354.51253296 298.38052734 -354.50443604 297.18878906 -354.49609375 295.9609375 C-354.49992065 294.73310547 -354.50374756 293.50527344 -354.50769043 292.24023438 C-354.51041217 289.64452291 -354.50303286 287.04878414 -354.48632812 284.453125 C-354.4649245 280.47594151 -354.48612338 276.50056468 -354.51171875 272.5234375 C-354.50907552 270.00260017 -354.50395066 267.48176397 -354.49609375 264.9609375 C-354.50823914 263.17333008 -354.50823914 263.17333008 -354.52062988 261.34960938 C-354.50171692 259.68768555 -354.50171692 259.68768555 -354.48242188 257.9921875 C-354.4792395 257.01830078 -354.47605713 256.04441406 -354.47277832 255.04101562 C-353.8185078 251.71761698 -352.5830398 250.54659648 -349.96484375 248.4609375 C-346.91847076 247.44547984 -344.76707277 247.3067398 -341.57543945 247.25561523 C-340.47452469 247.23567001 -339.37360992 247.21572479 -338.23933411 247.19517517 C-336.4579731 247.17010643 -336.4579731 247.17010643 -334.640625 247.14453125 C-333.42408737 247.12375015 -332.20754974 247.10296906 -330.95414734 247.08155823 C-327.06193779 247.01609033 -323.1696599 246.95719035 -319.27734375 246.8984375 C-316.64126893 246.85524968 -314.00520106 246.8116353 -311.36914062 246.76757812 C-304.90111424 246.66041172 -298.43301964 246.55864005 -291.96484375 246.4609375 C-292.84817383 245.6555957 -293.73150391 244.85025391 -294.64160156 244.02050781 C-295.81717381 242.94348654 -296.992623 241.86633094 -298.16796875 240.7890625 C-299.03832764 239.99653076 -299.03832764 239.99653076 -299.92626953 239.18798828 C-316.66102643 223.82222419 -328.57161645 202.2702641 -330.1862793 179.3125 C-331.16850056 150.52859999 -325.93842534 126.44936463 -306.58984375 104.2734375 C-289.20474348 85.73130837 -266.97018839 73.22123064 -241.25390625 72.078125 C-213.46728229 71.38430552 -188.93805831 77.85143728 -168.2421875 97.27685547 C-149.22124714 115.5571244 -138.0556377 139.06734524 -136.93359375 165.51953125 C-137.1571478 193.71528525 -146.99185937 218.34355808 -166.77734375 238.5234375 C-169.73043434 241.410042 -172.71087291 243.85776083 -175.96484375 246.4609375 C-153.19484375 246.9559375 -153.19484375 246.9559375 -129.96484375 247.4609375 C-130.01125 242.67078125 -130.05765625 237.880625 -130.10546875 232.9453125 C-130.12590766 229.91013457 -130.1451633 226.87504152 -130.16015625 223.83984375 C-130.18406549 219.02244439 -130.21234567 214.20534921 -130.26660156 209.38818359 C-130.31007195 205.50430214 -130.33398329 201.62074688 -130.34435272 197.73664093 C-130.35174206 196.25503657 -130.36617193 194.77345001 -130.38776398 193.29198456 C-130.41681587 191.21607429 -130.42079931 189.14151063 -130.41894531 187.06542969 C-130.42782776 185.88406433 -130.43671021 184.70269897 -130.44586182 183.48553467 C-129.86334954 179.82275129 -128.91372592 178.64850858 -125.96484375 176.4609375 C-122.66503906 176.00683594 -122.66503906 176.00683594 -118.79296875 176.0703125 C-117.76934235 176.07880219 -117.76934235 176.07880219 -116.72503662 176.08746338 C-114.55424613 176.10978114 -112.38513169 176.15996242 -110.21484375 176.2109375 C-108.73960725 176.23100874 -107.26434476 176.24925843 -105.7890625 176.265625 C-102.18044874 176.3096287 -98.57280994 176.37862167 -94.96484375 176.4609375 C-94.70516028 175.61708622 -94.44547682 174.77323494 -94.17792416 173.90381241 C-92.88921659 170.24629811 -91.29273415 166.83242463 -89.55555725 163.37493896 C-89.2129467 162.68518675 -88.87033615 161.99543454 -88.51734346 161.28478074 C-87.37350752 158.98449404 -86.22400896 156.68708622 -85.07446289 154.38964844 C-84.25114018 152.73701627 -83.42814535 151.08422072 -82.60545349 149.43127441 C-80.3738104 144.95034353 -78.13699948 140.47201186 -75.89880681 135.99434948 C-74.03108804 132.25701143 -72.16555394 128.51858459 -70.29990953 124.78021073 C-65.9005112 115.96514098 -61.49656553 107.15235307 -57.09008789 98.34082031 C-52.54072585 89.24329978 -48.00032288 80.14134699 -43.46406466 71.03728652 C-39.56991976 63.22288286 -35.66964282 55.41156072 -31.7645368 47.60262895 C-29.43175295 42.93757201 -27.1014889 38.27129727 -24.77736092 33.60192108 C-22.59372216 29.21534192 -20.40249993 24.83263714 -18.20530128 20.45283508 C-17.39909086 18.84251293 -16.59562751 17.23081217 -15.79507828 15.61766815 C-14.70442409 13.42101381 -13.6040939 11.2294863 -12.50111389 9.03900146 C-12.184377 8.39524055 -11.86764011 7.75147964 -11.54130512 7.08821082 C-8.66277612 1.4201926 -6.33755855 0.2686441 0 0 Z " fill="#000000" transform="translate(353.96484375,55.5390625)"/>
<path d="M0 0 C14.70551577 13.86131024 24.49849888 33.61261174 25.4609375 53.83203125 C26.06063562 75.4274323 20.3728468 94.55526354 6.1875 111.1875 C5.56230469 112.00347656 4.93710938 112.81945312 4.29296875 113.66015625 C-6.0449084 126.06944478 -20.64579966 132.85898797 -35.8125 137.1875 C-36.62847656 137.435 -37.44445312 137.6825 -38.28515625 137.9375 C-58.11925354 142.97473106 -78.67678066 138.19367522 -96.04833984 128.26513672 C-102.31084727 124.43968588 -107.83538792 119.55754198 -112.8125 114.1875 C-113.41578125 113.56617188 -114.0190625 112.94484375 -114.640625 112.3046875 C-124.05470739 102.2797677 -129.07531278 91.23266289 -132.8125 78.1875 C-133.18117187 76.92679687 -133.54984375 75.66609375 -133.9296875 74.3671875 C-138.43288521 55.86321993 -133.66358162 35.60645348 -124.8125 19.1875 C-122.37984718 15.30194648 -119.71662756 11.73053563 -116.8125 8.1875 C-116.00039062 7.13175781 -116.00039062 7.13175781 -115.171875 6.0546875 C-104.06584349 -7.69306995 -85.23554231 -17.97357183 -67.75 -20.5 C-41.80668312 -22.70794186 -20.09129653 -16.74855049 0 0 Z " fill="#EC5464" transform="translate(174.8125,164.8125)"/>
<path d="M0 0 C158.4 0 316.8 0 480 0 C480 10.56 480 21.12 480 32 C321.6 32 163.2 32 0 32 C0 21.44 0 10.88 0 0 Z " fill="#FFD2A6" transform="translate(16,320)"/>
<path d="M0 0 C50.16 0 100.32 0 152 0 C152 18.48 152 36.96 152 56 C101.84 56 51.68 56 0 56 C0 37.52 0 19.04 0 0 Z " fill="#4988DB" transform="translate(312,248)"/>
<path d="M0 0 C2.47077105 3.08652816 4.25243403 6.25575636 6.01823425 9.78923035 C6.30664619 10.36363981 6.59505813 10.93804927 6.89220983 11.52986509 C7.85406733 13.44796092 8.81019757 15.36885329 9.76635742 17.28979492 C10.45610871 18.66822421 11.14620639 20.04648021 11.83662415 21.42457581 C13.70782316 25.16213136 15.57401912 28.90216453 17.43921828 32.64271712 C19.39046919 36.55400386 21.34593854 40.46318063 23.30085754 44.37263489 C26.58114982 50.93415552 29.85834132 57.49721728 33.13354492 64.0612793 C36.92506775 71.66007343 40.7207864 79.25675952 44.51890296 86.85225981 C48.16924353 94.15233168 51.81730115 101.45354171 55.46407509 108.75539589 C57.01808094 111.86694621 58.57277159 114.97815296 60.12798119 118.08910179 C61.95613711 121.7464146 63.78225946 125.40473563 65.6067791 129.06386375 C66.27852127 130.41028031 66.95095003 131.75635455 67.62409592 133.10206985 C68.5388193 134.93102945 69.4508499 136.76133508 70.36271667 138.59172058 C70.87502429 139.61801166 71.38733191 140.64430273 71.91516399 141.70169353 C73 144 73 144 73 145 C36.04 145 -0.92 145 -39 145 C-36.71349472 131.28096829 -36.71349472 131.28096829 -34.75 124.625 C-34.30531075 123.07050653 -33.86133283 121.51580945 -33.41796875 119.9609375 C-33.1864209 119.15495117 -32.95487305 118.34896484 -32.71630859 117.51855469 C-31.46128299 113.10586072 -30.26448017 108.67737852 -29.0625 104.25 C-28.55471652 102.38671084 -28.04690379 100.52342965 -27.5390625 98.66015625 C-26.50944551 94.87726232 -25.48396477 91.0932747 -24.4609375 87.30859375 C-22.24271522 79.1171981 -20.00849185 70.93908497 -17.5625 62.8125 C-15.00227657 54.28399745 -12.81098224 45.66390782 -10.5949707 37.04077148 C-3.96355389 11.26483738 -3.96355389 11.26483738 0 0 Z " fill="#F5BA41" transform="translate(354,87)"/>
<path d="M0 0 C21.97060416 1.67450071 41.6131379 10.75510859 56.265625 27.60546875 C71.12419001 46.33029302 76.92723335 67.23784814 75 91 C72.67575581 106.22780678 65.95669915 120.32582827 56 132 C55.37480469 132.81597656 54.74960938 133.63195312 54.10546875 134.47265625 C43.7675916 146.88194478 29.16670034 153.67148797 14 158 C12.77603516 158.37125 12.77603516 158.37125 11.52734375 158.75 C2.65774683 161.00259604 -6.91983184 160.17182269 -16 160 C-16 159.67 -16 159.34 -16 159 C-14.82824219 158.99742187 -13.65648438 158.99484375 -12.44921875 158.9921875 C-2.56837106 158.81527368 4.82353448 158.05287338 13 152 C14.38251953 150.98679687 14.38251953 150.98679687 15.79296875 149.953125 C33.73307561 135.99695912 46.50014048 115.87214541 49.76855469 93.13183594 C52.29615668 69.85016861 47.71892052 46.24135805 33.0859375 27.515625 C32.39757812 26.68546875 31.70921875 25.8553125 31 25 C30.31164062 24.14921875 29.62328125 23.2984375 28.9140625 22.421875 C20.9024855 12.99308762 11.31097111 5.9798302 0 1 C0 0.67 0 0.34 0 0 Z " fill="#D74352" transform="translate(125,144)"/>
<path d="M0 0 C18.48 0 36.96 0 56 0 C56 18.48 56 36.96 56 56 C37.52 56 19.04 56 0 56 C0 37.52 0 19.04 0 0 Z " fill="#5C9BEB" transform="translate(240,248)"/>
<path d="M0 0 C7.92 0 15.84 0 24 0 C24 26.4 24 52.8 24 80 C16.08 80 8.16 80 0 80 C0 53.6 0 27.2 0 0 Z " fill="#F7C292" transform="translate(448,368)"/>
<path d="M0 0 C7.92 0 15.84 0 24 0 C24 26.4 24 52.8 24 80 C16.08 80 8.16 80 0 80 C0 53.6 0 27.2 0 0 Z " fill="#F7C292" transform="translate(40,368)"/>
<path d="M0 0 C1.07764928 3.23294783 0.98073934 3.83795123 0.03125 6.9375 C-0.2066626 7.73639648 -0.4445752 8.53529297 -0.68969727 9.35839844 C-0.95709717 10.23012695 -1.22449707 11.10185547 -1.5 12 C-4.03663588 20.54113485 -6.36159203 29.11636677 -8.5625 37.75 C-10.81613727 46.54778235 -13.18563196 55.28516077 -15.8046875 63.98046875 C-17.42199817 69.36295427 -18.90146751 74.78391736 -20.38916016 80.20336914 C-21.20237699 83.15970253 -22.03017488 86.09052464 -23 89 C-29.93 89 -36.86 89 -44 89 C-35.7300084 71.24299601 -26.93635761 53.75489955 -18.15734863 36.24603271 C-16.10404483 32.14980156 -14.05311056 28.05238435 -12.00195312 23.95507812 C-8.0035686 15.9689155 -4.00263567 7.98403272 0 0 Z " fill="#F8C952" transform="translate(321,143)"/>
</svg>
