<?xml version="1.0" encoding="UTF-8"?>
<svg version="1.1" xmlns="http://www.w3.org/2000/svg" width="434" height="330">
<path d="M0 0 C143.22 0 286.44 0 434 0 C434 108.9 434 217.8 434 330 C290.78 330 147.56 330 0 330 C0 221.1 0 112.2 0 0 Z " fill="#98A4AE" transform="translate(0,0)"/>
<path d="M0 0 C1.63657916 -0.00958323 1.63657916 -0.00958323 3.30622053 -0.01936007 C6.96920715 -0.03464393 10.63111809 -0.01412477 14.29406738 0.00622559 C16.91720438 0.00272544 19.54033925 -0.00293192 22.16346741 -0.0105896 C28.55275816 -0.02511786 34.94173121 -0.01288067 41.33099186 0.00852364 C48.77085215 0.0325328 56.21063962 0.03081932 63.65053004 0.02821773 C76.92484156 0.02452726 90.19900337 0.04535559 103.4732666 0.07946777 C116.35514103 0.11255933 129.23685834 0.1267261 142.11877441 0.1204834 C156.14491835 0.11371962 170.17099646 0.11617924 184.19713068 0.1358428 C184.93880842 0.13688229 185.68048617 0.13792177 186.444639 0.13899276 C187.93427471 0.14108366 189.4239104 0.14319463 190.91354606 0.14532593 C196.09999797 0.15222206 201.2864296 0.15289075 206.47288513 0.15144348 C213.45292484 0.14985359 220.4327728 0.16474645 227.4127636 0.19067001 C229.97784957 0.19784531 232.54295557 0.19990892 235.10804939 0.19655228 C238.60291909 0.19285064 242.0972351 0.20754006 245.59204102 0.22705078 C246.6129494 0.22172286 247.63385779 0.21639493 248.6857028 0.21090555 C257.35992696 0.29475239 257.35992696 0.29475239 261.29602051 3.62145996 C262.71418393 6.45778681 262.42855569 8.84360662 262.4364624 12.01643372 C262.44091909 13.0121338 262.44091909 13.0121338 262.4454658 14.02794904 C262.45416982 16.26266386 262.45566248 18.49732521 262.45715332 20.73205566 C262.46178032 22.33013016 262.46680481 23.92820354 262.47219849 25.52627563 C262.48533647 29.87552734 262.49177024 34.22476361 262.49620914 38.57403207 C262.49913779 41.29008649 262.50324222 44.00613666 262.50771332 46.72218895 C262.52139232 55.21657966 262.53105684 63.7109607 262.53491521 72.20536166 C262.53939623 82.01729025 262.55694449 91.82907954 262.5859158 101.64096576 C262.60752065 109.22064224 262.61761886 116.80027951 262.61895633 124.37998646 C262.62000528 128.90904698 262.625932 133.43797663 262.64377594 137.96700478 C262.66023582 142.22776389 262.66242232 146.48829349 262.65363693 150.74907303 C262.65286542 152.31277391 262.65722432 153.87648702 262.66709518 155.44015694 C262.67978432 157.57555717 262.67395518 159.71014082 262.66351318 161.84553528 C262.66497974 163.04034673 262.6664463 164.23515818 262.66795731 165.46617603 C262.25526417 168.96721178 261.45193951 170.85099853 259.29602051 173.62145996 C256.45520876 174.56839721 254.71163415 174.74834566 251.76821232 174.75288773 C250.83463935 174.75672887 249.90106638 174.76057002 248.93920332 174.76452756 C247.39807903 174.76322784 247.39807903 174.76322784 245.82582092 174.76190186 C244.73577143 174.76487298 243.64572194 174.7678441 242.52264065 174.77090526 C238.85147119 174.7796122 235.18033426 174.78110218 231.50915527 174.78259277 C228.8846937 174.78721946 226.26023281 174.79224391 223.63577271 174.79763794 C216.49334928 174.81122288 209.35093148 174.81724596 202.20849729 174.8216486 C197.75051266 174.8244102 193.2925302 174.82864735 188.83454704 174.83315277 C176.49618065 174.84534462 164.15781599 174.85564477 151.8194437 174.85902786 C151.02970311 174.85924743 150.23996252 174.85946699 149.42629039 174.85969321 C148.63464541 174.85991149 147.84300044 174.86012977 147.02736622 174.86035466 C145.42315137 174.86079813 143.81893653 174.86124469 142.21472168 174.86169434 C141.41897328 174.86191577 140.62322488 174.8621372 139.8033629 174.86236534 C126.90227627 174.86631544 114.00124605 174.88377632 101.10018123 174.90705386 C87.8608394 174.93074939 74.6215259 174.94322886 61.38216251 174.94439578 C53.94626254 174.94531345 46.5104361 174.95108887 39.07455635 174.96921539 C32.08391392 174.98619639 25.09341347 174.98788252 18.1027565 174.97907639 C15.53240142 174.97830266 12.96203901 174.98269257 10.39170265 174.99253464 C6.89203381 175.00515285 3.39286829 174.99943243 -0.10679626 174.98895264 C-1.13198173 174.99700904 -2.1571672 175.00506545 -3.2134189 175.01336598 C-4.14959962 175.00677614 -5.08578033 175.0001863 -6.05033016 174.99339676 C-6.85826769 174.99399385 -7.66620521 174.99459094 -8.4986257 174.99520612 C-11.28971717 174.52219371 -12.65320173 173.54792451 -14.70397949 171.62145996 C-15.83015558 168.24293168 -15.8412355 165.66893196 -15.85787964 162.10623169 C-15.86445302 161.10924997 -15.86445302 161.10924997 -15.8711592 160.0921272 C-15.88453517 157.86052821 -15.89072327 155.6289687 -15.89685059 153.39733887 C-15.90475233 151.79911623 -15.91302133 150.20089537 -15.92163086 148.60267639 C-15.94783671 143.35114239 -15.96315439 138.09960045 -15.97741699 132.84802246 C-15.98277676 131.04063283 -15.98815427 129.23324325 -15.99354935 127.42585373 C-16.01517357 119.9093908 -16.03391159 112.39293002 -16.04517174 104.87644386 C-16.06142106 94.10033253 -16.09462774 83.32458118 -16.15157259 72.54860556 C-16.19024213 64.97315798 -16.20980072 57.39780682 -16.2150923 49.82226312 C-16.21874911 45.29646179 -16.23080548 40.77104451 -16.26319504 36.24534988 C-16.29322431 31.98857301 -16.29960616 27.73241365 -16.28781128 23.47555351 C-16.28759013 21.9134472 -16.29592961 20.35131264 -16.31346512 18.78930473 C-16.33611396 16.65567613 -16.32788567 14.52429512 -16.3119812 12.39065552 C-16.31529135 11.19714289 -16.31860149 10.00363026 -16.32201195 8.77395058 C-14.53876976 -0.32209968 -7.70867101 -0.09451972 0 0 Z " fill="#0F141A" transform="translate(93.7039794921875,77.3785400390625)"/>
<path d="M0 0 C4.00196246 2.33632062 7.12036676 4.58003204 8.74609375 9.05078125 C9.59466706 14.07472096 9.16259288 17.97405859 6.62109375 22.42578125 C4.11507904 25.93980187 1.95689193 27.75515104 -2.25390625 29.05078125 C-7.12386212 29.83424764 -10.93469872 29.67462762 -15.12890625 26.92578125 C-18.84647782 23.83786798 -20.81306863 20.76019898 -21.6015625 15.9140625 C-21.94426726 10.73834188 -20.98965137 7.48474684 -17.6640625 3.4921875 C-12.71819086 -1.56328794 -6.56830425 -2.76620092 0 0 Z " fill="#29C542" transform="translate(235.25390625,118.94921875)"/>
<path d="M0 0 C4.00196246 2.33632062 7.12036676 4.58003204 8.74609375 9.05078125 C9.59466706 14.07472096 9.16259288 17.97405859 6.62109375 22.42578125 C4.11507904 25.93980187 1.95689193 27.75515104 -2.25390625 29.05078125 C-7.12386212 29.83424764 -10.93469872 29.67462762 -15.12890625 26.92578125 C-18.84647782 23.83786798 -20.81306863 20.76019898 -21.6015625 15.9140625 C-21.94426726 10.73834188 -20.98965137 7.48474684 -17.6640625 3.4921875 C-12.71819086 -1.56328794 -6.56830425 -2.76620092 0 0 Z " fill="#F9BA2D" transform="translate(185.25390625,118.94921875)"/>
<path d="M0 0 C4.00196246 2.33632062 7.12036676 4.58003204 8.74609375 9.05078125 C9.59466706 14.07472096 9.16259288 17.97405859 6.62109375 22.42578125 C4.11507904 25.93980187 1.95689193 27.75515104 -2.25390625 29.05078125 C-7.12386212 29.83424764 -10.93469872 29.67462762 -15.12890625 26.92578125 C-18.84647782 23.83786798 -20.81306863 20.76019898 -21.6015625 15.9140625 C-21.94426726 10.73834188 -20.98965137 7.48474684 -17.6640625 3.4921875 C-12.71819086 -1.56328794 -6.56830425 -2.76620092 0 0 Z " fill="#F95D58" transform="translate(135.25390625,118.94921875)"/>
<path d="M0 0 C1.32 0 2.64 0 4 0 C5.25664978 2.90600261 6 4.79604584 6 8 C6.66 7.67 7.32 7.34 8 7 C8.73075648 4.6859378 9.40138258 2.35171131 10 0 C11.32 0.33 12.64 0.66 14 1 C12.68 4.96 11.36 8.92 10 13 C8.35 13.33 6.7 13.66 5 14 C4.16235732 12.04350603 3.33000941 10.08474444 2.5 8.125 C2.0359375 7.03445312 1.571875 5.94390625 1.09375 4.8203125 C0 2 0 2 0 0 Z " fill="#D5D6D2" transform="translate(213,192)"/>
<path d="M0 0 C2.05078125 0.03255208 4.1015625 0.06510417 6.15234375 0.09765625 C6.15234375 0.75765625 6.15234375 1.41765625 6.15234375 2.09765625 C5.18296875 2.22140625 4.21359375 2.34515625 3.21484375 2.47265625 C2.20421875 2.67890625 1.19359375 2.88515625 0.15234375 3.09765625 C-0.17765625 3.75765625 -0.50765625 4.41765625 -0.84765625 5.09765625 C1.46234375 5.75765625 3.77234375 6.41765625 6.15234375 7.09765625 C6.77734375 9.47265625 6.77734375 9.47265625 7.15234375 12.09765625 C5.15234375 14.09765625 5.15234375 14.09765625 2.98828125 14.29296875 C1.77011719 14.25816406 1.77011719 14.25816406 0.52734375 14.22265625 C-0.28992188 14.20460937 -1.1071875 14.1865625 -1.94921875 14.16796875 C-2.57570312 14.14476562 -3.2021875 14.1215625 -3.84765625 14.09765625 C-3.84765625 13.10765625 -3.84765625 12.11765625 -3.84765625 11.09765625 C-1.53765625 11.09765625 0.77234375 11.09765625 3.15234375 11.09765625 C3.48234375 10.43765625 3.81234375 9.77765625 4.15234375 9.09765625 C3.38921875 8.97390625 2.62609375 8.85015625 1.83984375 8.72265625 C-0.84765625 8.09765625 -0.84765625 8.09765625 -3.84765625 6.09765625 C-2.77957394 0.14691194 -2.77957394 0.14691194 0 0 Z " fill="#D9DAD5" transform="translate(233.84765625,191.90234375)"/>
<path d="M0 0 C0 5.28 0 10.56 0 16 C1.32 16 2.64 16 4 16 C4 16.66 4 17.32 4 18 C0.37 18 -3.26 18 -7 18 C-7 17.34 -7 16.68 -7 16 C-5.68 16 -4.36 16 -3 16 C-3.33 12.04 -3.66 8.08 -4 4 C-4.99 4.33 -5.98 4.66 -7 5 C-7 4.01 -7 3.02 -7 2 C-4.35261084 0.5393715 -3.10551666 0 0 0 Z " fill="#4D5A81" transform="translate(124,188)"/>
<path d="M0 0 C1.32 0 2.64 0 4 0 C4.66 3.63 5.32 7.26 6 11 C6.99 11 7.98 11 9 11 C9 11.99 9 12.98 9 14 C7.68 14 6.36 14 5 14 C4.16235732 12.04350603 3.33000941 10.08474444 2.5 8.125 C2.0359375 7.03445312 1.571875 5.94390625 1.09375 4.8203125 C0 2 0 2 0 0 Z " fill="#DBDCD7" transform="translate(213,192)"/>
<path d="M0 0 C0.33 0 0.66 0 1 0 C1 4.95 1 9.9 1 15 C2.65 15 4.3 15 6 15 C6 15.66 6 16.32 6 17 C2.37 17 -1.26 17 -5 17 C-5 16.34 -5 15.68 -5 15 C-3.35 15 -1.7 15 0 15 C0 10.05 0 5.1 0 0 Z " fill="#6171A3" transform="translate(122,189)"/>
<path d="M0 0 C2.64 0 5.28 0 8 0 C8 0.66 8 1.32 8 2 C5.03 2.66 2.06 3.32 -1 4 C-0.67 2.68 -0.34 1.36 0 0 Z " fill="#E7E7E2" transform="translate(232,192)"/>
<path d="M0 0 C0.33 0.99 0.66 1.98 1 3 C1.99 2.67 2.98 2.34 4 2 C4.33 3.98 4.66 5.96 5 8 C4.67 7.34 4.34 6.68 4 6 C3.01 6 2.02 6 1 6 C0.67 4.02 0.34 2.04 0 0 Z " fill="#B5B6B4" transform="translate(218,197)"/>
<path d="M0 0 C2.31 0.33 4.62 0.66 7 1 C7 1.66 7 2.32 7 3 C4.69 3 2.38 3 0 3 C0 2.01 0 1.02 0 0 Z " fill="#E8E8E3" transform="translate(230,203)"/>
<path d="M0 0 C0.33 0.66 0.66 1.32 1 2 C1.99 2 2.98 2 4 2 C4 2.99 4 3.98 4 5 C2.68 5 1.36 5 0 5 C0 3.35 0 1.7 0 0 Z " fill="#ECEDE7" transform="translate(218,201)"/>
<path d="M0 0 C-0.33 0.99 -0.66 1.98 -1 3 C-1.99 3.33 -2.98 3.66 -4 4 C-4 3.01 -4 2.02 -4 1 C-2 0 -2 0 0 0 Z " fill="#53618B" transform="translate(121,189)"/>
<path d="M0 0 C0.99 0.33 1.98 0.66 3 1 C2.67 1.66 2.34 2.32 2 3 C1.34 3 0.68 3 0 3 C0 2.01 0 1.02 0 0 Z " fill="#CECFCB" transform="translate(237,203)"/>
</svg>
