<?xml version="1.0" encoding="UTF-8"?>
<svg version="1.1" xmlns="http://www.w3.org/2000/svg" width="512" height="512">
<path d="M0 0 C13.32658812 11.46127395 23.08711761 25.9359667 30 42 C30 42.66 30 43.32 30 44 C31.1653125 43.71125 32.330625 43.4225 33.53125 43.125 C63.22024034 36.22479714 91.07012897 39.84759288 117.3046875 55.265625 C120 57 120 57 122 59 C121.95875 60.27875 121.9175 61.5575 121.875 62.875 C122.44913983 69.39255026 127.16115382 73.48774775 131.7890625 77.671875 C135.68736371 80.4983805 137.46991006 80.64066308 142.05078125 80.015625 C144 80 144 80 147.0625 82.5625 C164.08095623 106.13376902 169.53693092 135.79856089 165.34765625 164.296875 C160.42803009 190.7873863 144.61837786 214.98079095 122.8125 230.6875 C106.53845346 241.42798644 89.37866408 247.74196436 70 250 C69.54560547 251.59328125 69.54560547 251.59328125 69.08203125 253.21875 C64.6668016 268.28719115 64.6668016 268.28719115 60 274 C59.51015625 274.61101562 59.0203125 275.22203125 58.515625 275.8515625 C52.55473593 282.52208122 44.87766438 285.91541171 36.0625 287 C25.93023465 287.43311497 16.64998391 284.76898768 9 278 C3.38273638 271.98854244 -1.03109894 265.33254913 -2 257 C-2.07605469 256.38511719 -2.15210938 255.77023437 -2.23046875 255.13671875 C-3.30743103 238.28371448 4.84779825 218.96493297 15 206 C15.53367187 205.30132812 16.06734375 204.60265625 16.6171875 203.8828125 C27.34794069 190.68758011 43.48509129 182.86417364 60.08203125 180.3671875 C71.70406433 178.604506 81.85744674 176.03106776 89.49609375 166.3125 C95.3612185 157.29391856 97.31664121 148.6930954 96 138 C93.87632273 128.7341232 89.49746307 121.26239406 81.75 115.6875 C73.77549269 110.79344618 65.31626015 108.81924837 56 110 C47.22497638 112.28150614 40.02451659 116.13442799 34 123 C32.49235632 125.91134914 31.35005018 128.93738412 30.1875 132 C25.21948965 144.38572294 18.65169049 154.80085267 10 165 C9.44828125 165.68578125 8.8965625 166.3715625 8.328125 167.078125 C-3.6482695 181.5638593 -20.62573462 191.41049203 -38 198 C-38.66 198 -39.32 198 -40 198 C-39.98428955 198.55349121 -39.9685791 199.10698242 -39.95239258 199.67724609 C-39.61058006 213.53723884 -39.71519529 224.36991137 -48 236 C-48.5775 236.86625 -49.155 237.7325 -49.75 238.625 C-56.89116668 246.16289816 -65.49074676 249.96807176 -75.77880859 250.40258789 C-86.77708584 250.58576442 -95.47916803 248.10349468 -103.99609375 240.98828125 C-113.05286585 232.00212726 -116.09527972 221.50544285 -116.24169922 209.07739258 C-116.30300474 183.5797044 -111.10795002 162.71428089 -93.3125 143.75 C-84.54418474 135.41402078 -74.69098902 130.11932172 -63.6328125 125.52050781 C-52.77079577 120.9057512 -45.19522528 113.71343185 -40.6875 102.75 C-36.79637092 92.43932885 -36.75493153 82.22761116 -40.68359375 71.8515625 C-45.70480714 60.97475012 -53.16802838 54.28419798 -64.125 49.5625 C-73.83691059 46.38480688 -85.08025682 46.634435 -94.4765625 50.68359375 C-105.14666177 56.24988393 -112.05169536 63.1691396 -116.3125 74.5625 C-118.06700941 80.29241681 -118.63178868 85.9801613 -119.22094727 91.91210938 C-120.2832767 101.78696977 -124.48276799 110.26506208 -132.09375 116.796875 C-134.64701494 118.73957658 -137.12728589 120.56364295 -140 122 C-139.56258428 125.20771528 -139.11360405 128.39643564 -138.51464844 131.57861328 C-137.11707723 139.13399134 -136.61446888 146.44781691 -136.625 154.125 C-136.62632935 155.88299927 -136.62632935 155.88299927 -136.62768555 157.67651367 C-136.78587922 169.3916788 -137.95354335 181.68903992 -144 192 C-147.4352048 194.29013653 -148.985331 194.17842973 -153 194 C-153.20625 194.763125 -153.4125 195.52625 -153.625 196.3125 C-155.55894391 201.49898594 -158.2785146 206.19033084 -161 211 C-160.34 211.99 -159.68 212.98 -159 214 C-158.73120277 218.39035478 -159.35277926 220.16542588 -162.078125 223.6796875 C-164.33098111 226.18049947 -166.62492899 228.61533274 -169 231 C-168.566875 231.95777344 -168.13375 232.91554688 -167.6875 233.90234375 C-162.739704 245.46873452 -160.2546695 257.27859905 -164.5625 269.5625 C-168.9178972 278.62852182 -176.54684497 285.70150214 -185.92578125 289.234375 C-195.62895341 291.65092105 -206.29408897 291.12023039 -215 286 C-228.55445138 277.66390184 -234.49116133 261.51294506 -238.18359375 246.58203125 C-242.117945 227.44715435 -238.0950341 208.46374255 -228 192 C-224.64996342 187.32259043 -220.93062903 183.07504617 -217.015625 178.8671875 C-209.48480515 170.66052484 -206.60134696 162.29657143 -206.72265625 151.23046875 C-207.60638379 140.93690989 -212.76042403 132.33659466 -220.5625 125.75 C-228.48099805 120.2447585 -237.6493076 118.11390287 -247.15625 119.40234375 C-256.07689729 121.27715012 -263.05955625 124.95989395 -269 132 C-274.86784331 141.7263201 -276.89491939 149.66042928 -276 161 C-275.15653814 164.10930713 -274.08965942 167.05186356 -272.96875 170.0703125 C-269.9525162 179.1919873 -270.60929525 188.08552896 -274 197 C-278.89031673 206.61811538 -285.96229677 212.34818797 -296 216 C-305.14636989 218.81426766 -315.01904653 217.05911063 -323.3828125 212.78125 C-331.99645034 207.52547098 -336.69833945 200.57334066 -340.25 191.3125 C-340.48420654 190.70229004 -340.71841309 190.09208008 -340.9597168 189.46337891 C-344.99697811 178.12314761 -346.54017461 166.74433437 -346.4375 154.75 C-346.42920166 153.48510742 -346.42090332 152.22021484 -346.41235352 150.91699219 C-345.93071472 124.07548504 -335.74194516 100.23086546 -317 81 C-316.26910156 80.21882813 -315.53820312 79.43765625 -314.78515625 78.6328125 C-296.63453815 59.68471557 -270.34867932 49.44042834 -244.31298828 48.64648438 C-226.19437873 48.47351436 -207.94954475 52.21147534 -192 61 C-191.814375 60.01386719 -191.814375 60.01386719 -191.625 59.0078125 C-186.97996346 37.58258144 -175.31005277 19.35342402 -160 4 C-159.17242187 3.14921875 -158.34484375 2.2984375 -157.4921875 1.421875 C-113.95350869 -40.91849155 -44.78076194 -37.38811243 0 0 Z " fill="#000101" transform="translate(346,89)"/>
<path d="M0 0 C2.11755031 0.00315762 4.23369586 -0.02035971 6.35107422 -0.0456543 C14.39363092 -0.08397966 21.60278891 0.64602923 29.25341797 3.31567383 C29.96868652 3.55068604 30.68395508 3.78569824 31.42089844 4.02783203 C58.50602212 13.17732692 79.69484232 30.79994426 92.62841797 56.44067383 C103.35559137 78.45836176 106.48524895 105.6007262 99.25341797 129.31567383 C89.18407272 158.39897378 70.69939487 180.02673952 43.11279297 193.47192383 C40.80112078 194.5858736 38.48265221 195.66426136 36.14404297 196.72192383 C30.80675263 199.1852886 27.91513338 200.99224302 25.25341797 206.31567383 C24.28879888 209.20953111 24.11709229 211.1273606 24.07763672 214.13989258 C24.05378906 215.08670898 24.02994141 216.03352539 24.00537109 217.0090332 C23.96282732 218.98538487 23.93134875 220.96200962 23.91162109 222.9387207 C23.69333254 230.44683169 22.29170113 235.84852764 17.28857422 241.55786133 C11.14439267 246.64354031 6.90932613 248.81273651 -1.18408203 248.63208008 C-7.67033513 247.83118602 -12.66060013 244.30965171 -16.74658203 239.31567383 C-21.51508451 231.95981723 -21.34855172 225.23186601 -21.24658203 216.62817383 C-21.26978516 214.69941406 -21.26978516 214.69941406 -21.29345703 212.73168945 C-21.22200305 195.05576003 -14.90101786 180.56603298 -2.57080078 168.03051758 C5.0675306 160.68799986 13.38658089 156.8334618 22.99047852 152.65087891 C29.14951988 149.92685468 34.42846459 147.09894294 39.25341797 142.31567383 C39.94306641 141.65180664 40.63271484 140.98793945 41.34326172 140.30395508 C52.82141864 128.39830628 56.85178504 113.75680841 56.73168945 97.65185547 C56.34730436 82.9179174 50.31715629 70.36619291 39.87060547 59.93676758 C33.94111528 54.91290692 27.3715537 51.37447111 20.25341797 48.31567383 C19.46580078 47.97407227 18.67818359 47.6324707 17.86669922 47.28051758 C4.50581349 42.40345403 -10.02055663 44.92168223 -22.74658203 50.31567383 C-26.65990884 52.37028986 -30.20594865 54.67661825 -33.74658203 57.31567383 C-34.37693359 57.74106445 -35.00728516 58.16645508 -35.65673828 58.60473633 C-45.41486383 65.85108924 -51.39766924 78.73015083 -53.74658203 90.31567383 C-53.98800381 91.97409225 -54.21623888 93.63446256 -54.43408203 95.29614258 C-54.55090332 96.1757666 -54.66772461 97.05539063 -54.78808594 97.96166992 C-55.00448928 99.69194611 -55.195809 101.42561429 -55.35742188 103.16186523 C-56.10767044 109.56509023 -58.27464153 113.66493919 -62.74658203 118.31567383 C-68.24464015 122.63493389 -74.2248389 124.10042522 -81.14111328 123.72973633 C-87.90021879 122.65557563 -92.16458655 119.4262942 -96.52001953 114.29223633 C-99.67904707 109.20157411 -100.07434424 104.11126037 -99.99658203 98.25317383 C-99.98908936 97.50438965 -99.98159668 96.75560547 -99.97387695 95.98413086 C-99.47474077 69.83385656 -88.19882703 47.38138699 -70.49658203 28.62817383 C-57.16283433 15.87821543 -40.62563144 6.77991113 -22.74658203 2.31567383 C-22.14555664 2.13979736 -21.54453125 1.9639209 -20.92529297 1.78271484 C-14.02998433 -0.05032879 -7.08790821 -0.02206289 0 0 Z " fill="#036FCA" transform="translate(266.74658203125,75.684326171875)"/>
<path d="M0 0 C0.61488281 0.24685547 1.22976562 0.49371094 1.86328125 0.74804688 C3.79296875 1.625 3.79296875 1.625 7 4 C7.58348167 7.1369982 7.74403883 9.38531183 7.625 12.5 C7.74382269 23.99811361 10.71556505 32.65257907 18.8203125 41.09375 C26.14884633 47.50293371 34.49273321 50.01648964 44 51 C44.46463869 52.31028111 44.92124581 53.62340989 45.375 54.9375 C45.63023437 55.66839844 45.88546875 56.39929688 46.1484375 57.15234375 C48.39778809 64.67425468 49.3861181 71.7054795 49.375 79.5625 C49.37628906 80.52051514 49.37757813 81.47853027 49.37890625 82.46557617 C49.26902147 89.9458575 47.95781697 96.47040294 45.90625 103.62890625 C44.70991669 108.07905989 44.39106095 111.43295711 45 116 C46.9530564 118.22448643 46.9530564 118.22448643 49 120 C47.87684284 122.1051689 46.75155495 124.20915039 45.625 126.3125 C45.14933594 127.20485352 45.14933594 127.20485352 44.6640625 128.11523438 C43.20613651 130.83365888 41.71288297 133.43067554 40 136 C38.1171875 136.046875 38.1171875 136.046875 35.875 135.75 C31.80041295 135.61919464 29.91100862 136.34925274 26.8125 139 C25.51134613 140.30376139 24.23993787 141.63788796 23 143 C22.39542969 143.61359375 21.79085937 144.2271875 21.16796875 144.859375 C17.26636923 149.28179694 16.09628961 152.99256193 16.390625 158.87109375 C17.26553523 163.3634213 19.03917268 167.39866563 20.84228516 171.57666016 C23.35775636 177.51719451 24.31788016 181.98046552 22.296875 188.14453125 C19.60071861 194.30227826 15.23530981 198.38853261 9 201 C3.06246256 201.75443958 -1.94210927 201.41113561 -7 198 C-16.48494771 190.64916552 -21.71409762 174.66368204 -23.27490234 162.93408203 C-24.42830705 149.3355375 -20.82221014 136.19010617 -13 125 C-10.57303314 122.1571073 -7.98761992 119.46828302 -5.40234375 116.77001953 C4.75060488 106.07952444 10.45112075 92.65101487 10.20703125 77.828125 C9.1827935 63.83665085 3.58495293 51.4126381 -6.75 41.86328125 C-19.32056054 31.4532858 -33.92383434 28.57894634 -50 30 C-62.50851731 32.44283985 -74.29750282 39.84570452 -81.6171875 50.3125 C-90.34472973 64.20709459 -92.85449437 77.40078012 -89.64453125 93.54296875 C-89.00518086 96.25410539 -89.00518086 96.25410539 -87.375 99.625 C-85.06950875 105.28393306 -85.35833153 109.97367853 -87.1875 115.75 C-90.26702403 121.27190515 -94.00199202 124.88958979 -100 127 C-105.86149946 127.91158623 -110.69654778 127.67674229 -115.875 124.625 C-120.69938505 120.96363635 -122.85390694 116.55609074 -125 111 C-125.29519531 110.28972656 -125.59039062 109.57945312 -125.89453125 108.84765625 C-133.59257303 88.48387084 -131.48891802 63.26453316 -122.71875 43.55859375 C-117.36769988 32.47948772 -110.61999157 23.63241231 -102 15 C-101.27039063 14.25878906 -100.54078125 13.51757812 -99.7890625 12.75390625 C-73.684546 -12.13757509 -31.63588945 -15.8872204 0 0 Z " fill="#FDCF5A" transform="translate(145,163)"/>
<path d="M0 0 C17.39725232 -0.51521971 34.40081654 3.74496005 49.45703125 12.5703125 C53.04475351 14.61223303 54.2728736 15.20021976 58.51953125 15.1328125 C60.21794828 14.61288892 61.9125476 14.07706951 63.58496094 13.47875977 C64.24399414 13.38522217 64.90302734 13.29168457 65.58203125 13.1953125 C67.87219591 15.11466034 69.81484823 16.95879108 71.83203125 19.1328125 C72.38632812 19.70966797 72.940625 20.28652344 73.51171875 20.88085938 C74.8799727 22.30808979 76.23253505 23.75033308 77.58203125 25.1953125 C77.25332031 25.95585937 76.92460937 26.71640625 76.5859375 27.5 C75.25182043 31.08187075 75.32217181 33.65698385 76.58203125 37.1953125 C78.17997767 39.93464921 79.9233594 42.55231561 81.67578125 45.1953125 C94.14971195 64.82641655 96.49014111 87.88553843 91.61328125 110.328125 C87.22396427 127.47607168 79.1362073 141.61911158 66.58203125 154.1953125 C65.90914063 154.87980469 65.23625 155.56429687 64.54296875 156.26953125 C50.73183193 169.43407927 32.85681674 177.02585769 14.05175781 179.08349609 C7.55611717 179.86601997 3.53722584 181.75131926 -0.66796875 187.0078125 C-2.52832942 190.39632658 -3.49746099 193.44753091 -4.41796875 197.1953125 C-6.24730588 204.64332796 -9.06638256 209.74920217 -15.41796875 214.1953125 C-20.22694692 217.0253295 -24.98624872 217.01741067 -30.41796875 216.1953125 C-35.42365498 214.13236302 -39.24555119 211.15013572 -41.98046875 206.4453125 C-46.28829102 195.90405155 -42.14196252 183.956942 -38.09765625 173.91796875 C-31.3534474 159.60034504 -20.44043212 148.43992169 -5.38671875 142.94140625 C-1.39202258 141.93747603 2.62936674 141.43724242 6.70703125 140.8828125 C21.35457691 138.82628443 33.75181124 133.66938201 43.58203125 122.1953125 C52.35839276 110.19766475 56.10989909 96.99068575 54.58203125 82.1953125 C51.98167504 69.14970521 45.3299166 56.70783772 34.26953125 49.0078125 C24.68949291 42.96997321 15.18007129 39.80312826 3.83203125 39.8203125 C2.95111816 39.81902344 2.07020508 39.81773437 1.16259766 39.81640625 C-5.70619155 39.92774415 -11.17357186 41.31723657 -17.41796875 44.1953125 C-18.07796875 44.1953125 -18.73796875 44.1953125 -19.41796875 44.1953125 C-19.43778809 43.48101074 -19.45760742 42.76670898 -19.47802734 42.03076172 C-19.96033533 23.02289275 -19.96033533 23.02289275 -22.41796875 4.1953125 C-14.90097238 1.99824922 -7.81615595 0.44663748 0 0 Z " fill="#6ED5A2" transform="translate(403.41796875,143.8046875)"/>
<path d="M0 0 C9.74469342 7.13836145 15.04273871 15.6584521 17.41796875 27.4921875 C18.68098781 38.24220202 15.90656359 47.87300928 9.41796875 56.4921875 C2.29960079 64.57249707 -5.49842272 69.89326027 -16.32421875 70.80859375 C-28.55619234 71.32717083 -37.93794772 68.82997339 -47.35546875 60.7578125 C-54.8884266 53.09269749 -58.59020859 43.25331018 -59.01953125 32.6171875 C-58.65508772 20.28948887 -53.57342258 11.07823206 -44.83203125 2.7421875 C-32.21655939 -7.86352589 -13.95814532 -8.15105007 0 0 Z " fill="#000001" transform="translate(288.58203125,357.5078125)"/>
<path d="M0 0 C9.28773214 5.3621619 15.63468876 12.32476994 18.703125 22.80859375 C20.44742317 31.90801585 19.62626949 41.32440044 14.91796875 49.40625 C8.85526861 58.01297145 1.57455188 63.95579855 -8.828125 66.25390625 C-19.30501368 67.49173597 -28.43978518 65.53517022 -37.140625 59.50390625 C-43.66238531 54.17156534 -48.34801459 47.63304369 -49.828125 39.25390625 C-50.92318578 27.07304502 -49.63978482 17.41694522 -41.703125 7.87890625 C-31.14477119 -3.11646552 -13.93209341 -6.70891075 0 0 Z " fill="#000000" transform="translate(373.828125,385.74609375)"/>
<path d="M0 0 C7.13885415 4.82645695 11.94900203 11.9491288 14.3515625 20.20703125 C16.33029835 30.7057785 14.80138874 40.036996 9.3515625 49.1875 C4.452053 56.1255761 -1.7412501 59.87409497 -9.48828125 63.08984375 C-21.54140273 65.1327457 -31.90545 63.71010689 -41.98828125 56.58984375 C-48.32586933 51.29716267 -52.81499551 43.87955822 -54.17578125 35.71484375 C-55.0922374 24.01570819 -53.42927782 14.86430276 -46.0078125 5.6015625 C-33.4096095 -7.37270627 -15.36726986 -9.07689728 0 0 Z " fill="#010100" transform="translate(200.17578125,388.28515625)"/>
<path d="M0 0 C8.01628177 1.22353774 14.28140736 6.45772169 19.36328125 12.58203125 C26.68695905 23.40149797 29.62663136 34.28805391 27.46875 47.171875 C24.68398425 59.09793702 19.54457697 68.43776937 9.47265625 75.86328125 C1.23126444 80.9808173 -6.13859473 83.12310583 -15.6953125 84.48046875 C-28.65143362 86.51730576 -39.07511676 91.46906104 -49 100 C-49.90878906 100.74830078 -49.90878906 100.74830078 -50.8359375 101.51171875 C-61.15789672 110.78279977 -65.42822835 124.04657923 -69 137 C-69.33 137.99 -69.66 138.98 -70 140 C-70.44584531 146.99873444 -70.06194397 153.29868209 -68 160 C-73.87967132 159.64002012 -77.77386921 158.20520935 -82 154 C-86.2118654 148.42547226 -86.89883649 142.79630448 -86 136 C-82.73074025 119.30473533 -75.88101047 104.11432676 -61.625 94.125 C-53.17117232 88.51753851 -45.82796351 86.04077975 -35.875 84.6875 C-21.22745434 82.63097193 -8.83022001 77.47406951 1 66 C9.77636151 54.00235225 13.52786784 40.79537325 12 26 C10.28423996 17.39228247 6.88960382 10.23661365 2 3 C1.01 1.515 1.01 1.515 0 0 Z " fill="#3DC0A1" transform="translate(446,200)"/>
<path d="M0 0 C12.0584969 -0.50976153 23.22505668 3.59891202 32.5546875 11.19921875 C38.43182803 17.08625345 41.99812507 23.32731748 44.5546875 31.19921875 C45.0496875 32.68421875 45.0496875 32.68421875 45.5546875 34.19921875 C46.92168917 48.9515237 45.06223252 61.41860549 35.5546875 73.19921875 C34.26312689 74.51182312 32.94987788 75.80339407 31.6171875 77.07421875 C19.83844809 88.44834498 13.62660944 104.508439 13.3046875 120.69921875 C13.59283874 134.45043615 18.24909954 153.87521485 28.31640625 163.96484375 C29.48778016 164.97659648 30.6820891 165.96295483 31.90625 166.91015625 C33.5945131 168.23036199 35.06788817 169.65835399 36.5546875 171.19921875 C31.25956917 174.54350401 26.63705246 174.92354606 20.5546875 174.19921875 C12.32517887 171.24901754 8.63399831 165.28774707 5.046875 157.6953125 C-1.43458837 142.50968497 -4.44462633 128.35074339 1.3125 112.2109375 C4.98521511 103.30633578 9.54650131 96.8637835 16.15234375 89.96923828 C26.30529238 79.27874319 32.00580825 65.85023362 31.76171875 51.02734375 C30.737481 37.0358696 25.13964043 24.61185685 14.8046875 15.0625 C6.95439251 8.56147446 -2.21477259 4.08883092 -12.4453125 3.19921875 C-8.36803731 0.48103529 -4.74149801 0.38628818 0 0 Z " fill="#FBC043" transform="translate(123.4453125,189.80078125)"/>
<path d="M0 0 C5.27838185 3.62266302 8.70495173 7.6724396 10 14 C10.67637377 21.14073288 10.43236694 27.14779406 6 33 C0.64878196 38.65285246 -3.93816174 41.97948529 -11.8125 42.375 C-18.40668367 42.2278084 -22.72680113 39.85988999 -27.75 35.75 C-33.15159169 29.1480546 -34.73865612 23.74823754 -34.44921875 15.125 C-33.57752419 9.06103786 -30.49240803 5.16919044 -26.0625 1.125 C-18.02040039 -4.45523239 -8.54474662 -4.76533946 0 0 Z " fill="#026BC7" transform="translate(280,371)"/>
<path d="M0 0 C0.495 1.485 0.495 1.485 1 3 C-0.15234375 4.84765625 -0.15234375 4.84765625 -1.9375 7.0625 C-15.74542491 25.96192428 -20.57081656 50.51678103 -17.68359375 73.52099609 C-15.00939984 89.45257121 -10.53984027 104.15284344 3 114 C-2.46460747 117.54461025 -7.68671486 118.04199852 -14 117 C-19.63808362 114.78472831 -23.07678262 111.5257659 -25.875 106.1875 C-26.61661944 104.47234576 -27.32670735 102.74310943 -28 101 C-28.29519531 100.28972656 -28.59039063 99.57945312 -28.89453125 98.84765625 C-36.59257303 78.48387084 -34.48891802 53.26453316 -25.71875 33.55859375 C-19.25438492 20.17441968 -10.42425057 10.36790327 0 0 Z " fill="#FCC043" transform="translate(48,173)"/>
<path d="M0 0 C5.24848737 2.87181384 8.60365612 6.50959376 11.3125 11.8125 C12.18066239 18.13646721 12.20567436 24.53787667 8.3125 29.8125 C3.426908 34.92016436 -0.94920497 37.39713389 -8.0625 38.1875 C-13.96539159 37.57685604 -18.61711616 35.36577514 -22.5625 30.875 C-26.46431049 25.25180253 -27.5721914 20.59513404 -26.6875 13.8125 C-24.7683404 7.13188114 -20.55433089 3.29404851 -14.6875 -0.1875 C-9.46829895 -1.92723368 -5.14359457 -1.65641181 0 0 Z " fill="#6DD5A1" transform="translate(365.6875,399.1875)"/>
<path d="M0 0 C4.78638521 2.76248284 7.77189896 6.44244649 9.8125 11.5625 C10.86025565 17.72842891 10.86017806 23.56814853 7.75 29.125 C5.03687011 32.67987656 2.17244659 35.33650447 -2.1875 36.5625 C-8.07589685 37.26822547 -13.25082262 37.46167164 -18.6875 34.9375 C-24.43432238 29.47801874 -27.67716624 25.15550384 -28.5625 17.1875 C-27.99282167 11.6806095 -26.35017789 7.57287663 -22.24609375 3.7578125 C-15.40062781 -1.51180953 -8.27327985 -3.50023378 0 0 Z " fill="#FDCF5A" transform="translate(189.1875,399.4375)"/>
<path d="M0 0 C-0.70125 0.474375 -1.4025 0.94875 -2.125 1.4375 C-7.79766765 6.49357334 -12.51451276 13.36412641 -13.1796875 21.0859375 C-13.34230976 26.38019564 -12.47580995 30.9269033 -11 36 C-9.68 36.33 -8.36 36.66 -7 37 C-12.95884887 37.49657074 -17.03450774 36.39030459 -22 33 C-26.72142628 28.64818032 -29.03717751 24.0516399 -29.375 17.6875 C-29.22705572 12.7395856 -28.00098034 8.95697131 -25 5 C-17.38220568 -2.05067483 -9.80063505 -3.92025402 0 0 Z " fill="#3CBD9F" transform="translate(368,400)"/>
<path d="M0 0 C1.21236328 0.01353516 1.21236328 0.01353516 2.44921875 0.02734375 C3.37154297 0.04474609 3.37154297 0.04474609 4.3125 0.0625 C4.3125 0.3925 4.3125 0.7225 4.3125 1.0625 C1.6725 1.3925 -0.9675 1.7225 -3.6875 2.0625 C-5.94370517 9.11314117 -4.4992332 15.46156411 -1.6875 22.0625 C1.59743927 27.95273594 5.75076101 31.35467401 11.3125 35.0625 C5.57944887 39.08737947 0.09490658 38.82370326 -6.6875 38.0625 C-12.41836184 35.40174272 -16.42244609 30.89381114 -19 25.125 C-20.3699214 19.02262286 -20.06803268 14.46449391 -17.09765625 8.9921875 C-12.8650376 3.20018303 -7.1448506 -0.10354856 0 0 Z " fill="#F9BE42" transform="translate(180.6875,397.9375)"/>
<path d="M0 0 C0 0.33 0 0.66 0 1 C-1.4540625 1.20302734 -1.4540625 1.20302734 -2.9375 1.41015625 C-14.23872804 3.16433429 -23.79775252 6.89887626 -34 12 C-34.33 9.36 -34.66 6.72 -35 4 C-23.03354911 0.50245277 -12.35301604 -0.13492372 0 0 Z " fill="#39B093" transform="translate(416,144)"/>
<path d="M0 0 C1.65 0.33 3.3 0.66 5 1 C1.25 3 1.25 3 -1 3 C-0.67 2.01 -0.34 1.02 0 0 Z " fill="#48C7A3" transform="translate(422,283)"/>
</svg>
