<?xml version="1.0" encoding="UTF-8"?>
<svg version="1.1" xmlns="http://www.w3.org/2000/svg" width="588" height="406">
<path d="M0 0 C194.04 0 388.08 0 588 0 C588 133.98 588 267.96 588 406 C393.96 406 199.92 406 0 406 C0 272.02 0 138.04 0 0 Z " fill="#95A0AA" transform="translate(0,0)"/>
<path d="M0 0 C1.07261484 -0.01000202 1.07261484 -0.01000202 2.16689867 -0.02020609 C4.56989556 -0.03648581 6.9712732 -0.01704628 9.37422943 0.00215912 C11.11152879 -0.00216866 12.84882386 -0.00868354 14.58610773 -0.01720095 C19.36540359 -0.03423118 24.1441774 -0.0199843 28.92344594 -0.00068617 C34.07553362 0.01471148 39.2275561 0.00134656 44.3796463 -0.00843048 C54.47466844 -0.02297475 64.56948982 -0.01070515 74.66449296 0.01068276 C86.41427624 0.03466508 98.16401324 0.03298009 109.91381556 0.03037685 C130.87490511 0.0266846 151.83589993 0.04753013 172.79695892 0.08162689 C193.14822026 0.11471955 213.49938216 0.12888542 233.85066986 0.12264252 C255.99841235 0.11588198 278.14611314 0.11832917 300.29384947 0.13800192 C302.04980543 0.13956115 302.04980543 0.13956115 303.84123525 0.14115188 C306.19256652 0.14324281 308.54389778 0.14535379 310.89522901 0.14748505 C319.09032515 0.15438732 327.28540846 0.15504885 335.4805069 0.1536026 C345.46415919 0.15216446 355.44773027 0.16182514 365.4313556 0.18554896 C370.52761372 0.19742764 375.6237585 0.20452169 380.72002983 0.1987114 C385.38201768 0.19355319 390.04376573 0.20217947 394.7057125 0.221986 C396.39540541 0.22673976 398.08512156 0.22640803 399.77481109 0.22057563 C402.06603804 0.21342898 404.35646275 0.22461832 406.64762878 0.24050903 C408.55906245 0.24286584 408.55906245 0.24286584 410.50911093 0.24527025 C414.08302633 0.6532062 415.97548461 1.4664008 418.82381439 3.62361908 C420.55466417 7.08531864 419.9678425 11.09323322 419.96425629 14.90384674 C419.96871297 16.36507179 419.96871297 16.36507179 419.97325969 17.85581654 C419.98197535 21.14081201 419.98345735 24.42577115 419.9849472 27.71077728 C419.98957335 30.05761036 419.99459773 32.40444268 419.99999237 34.75127411 C420.01450986 41.8087385 420.02050322 48.86619509 420.02538788 55.92367175 C420.02796413 59.24584224 420.0317822 62.56801122 420.0355072 65.89018059 C420.04770138 76.93145629 420.05800022 87.97273004 420.06138229 99.01401234 C420.06160186 99.72094337 420.06182143 100.42787441 420.06204765 101.1562276 C420.06226592 101.86486667 420.0624842 102.57350575 420.06270909 103.30361873 C420.06315256 104.73963122 420.06359913 106.1756437 420.06404877 107.61165619 C420.0642702 108.32397056 420.06449163 109.03628494 420.06471977 109.7701846 C420.06866792 121.31269178 420.08612177 132.85513583 420.10940829 144.39761863 C420.13311454 156.24362861 420.14558382 168.0896069 420.14675021 179.93564099 C420.14766741 186.58854963 420.15374861 193.24138559 420.17156982 199.89427376 C420.18800355 206.15113748 420.19022886 212.40784488 420.18143082 218.66472244 C420.18065792 220.96374746 420.18503616 223.26278071 420.19488907 225.56178474 C420.20753381 228.6955248 420.2017723 231.8287049 420.19130707 234.96244049 C420.20339167 236.33345278 420.20339167 236.33345278 420.21572042 237.7321623 C420.17860347 242.47047696 420.03281987 245.84754015 416.82381439 249.62361908 C413.32312744 250.79051473 410.58697192 250.7514351 406.89093113 250.75504684 C406.17786266 250.75709948 405.46479419 250.75915211 404.73011759 250.76126695 C402.32245438 250.76695576 399.91484804 250.76547739 397.50717926 250.76406097 C395.77089924 250.76664352 394.03461981 250.76965637 392.29834121 250.77306437 C387.51277617 250.78115039 382.72722611 250.78292483 377.94165504 250.78366184 C372.78615977 250.78550958 367.63067234 250.79305541 362.47518158 250.79979706 C351.19652579 250.81339145 339.91787356 250.81940659 328.63921094 250.82380772 C321.60157715 250.82656781 314.56394473 250.83080469 307.52631187 250.83531189 C288.05418134 250.84750513 268.58205191 250.8578049 249.10991764 250.86118698 C247.23978855 250.86151633 247.23978855 250.86151633 245.33187908 250.86185233 C244.08209211 250.86207061 242.83230514 250.86228889 241.54464585 250.86251378 C239.01196961 250.86295725 236.47929337 250.86340382 233.94661713 250.86385345 C232.06216252 250.8641856 232.06216252 250.8641856 230.13963812 250.86452445 C209.769723 250.86847494 189.3998436 250.88593634 169.02994228 250.90921298 C148.13363725 250.93289914 127.23735017 250.94538755 106.34103149 250.9465549 C94.60150866 250.94747311 82.86203239 250.95326218 71.12252235 250.97137451 C61.12893051 250.98673851 51.13539961 250.99191786 41.14179821 250.98363641 C36.03958953 250.97971697 30.93750372 250.98072231 25.83530998 250.99469376 C21.16899837 251.00735524 16.50290293 251.00630397 11.83659195 250.99410304 C10.14415662 250.99213253 8.45170639 250.99528632 6.75929207 251.00394741 C4.46677466 251.01494129 2.17503357 251.0076232 -0.1174612 250.99555588 C-1.39321418 250.99615297 -2.66896715 250.99675005 -3.9833793 250.99736524 C-7.40614763 250.5967 -8.79299601 250.06990292 -11.17618561 247.62361908 C-12.08215132 244.90572195 -12.30418817 243.3283069 -12.3132 240.53589058 C-12.31827454 239.70046939 -12.32334908 238.86504819 -12.3285774 238.0043112 C-12.32932404 236.62762992 -12.32932404 236.62762992 -12.33008575 235.2231369 C-12.33665914 233.76063021 -12.33665914 233.76063021 -12.34336531 232.26857793 C-12.35676834 228.9866952 -12.3629355 225.70483932 -12.3690567 222.42293549 C-12.37695631 220.07595447 -12.38522517 217.72897467 -12.39383698 215.38199615 C-12.42006747 207.66306978 -12.43536295 199.94413795 -12.44962311 192.22518158 C-12.45498185 189.57084779 -12.46035936 186.91651404 -12.46575546 184.26218033 C-12.4875826 173.22515728 -12.50627334 162.18813382 -12.51737785 151.15109444 C-12.52030756 148.28744376 -12.52326923 145.42379311 -12.52628326 142.56014252 C-12.52702931 141.84839364 -12.52777537 141.13664477 -12.52854402 140.40332775 C-12.54120416 128.86730455 -12.57443717 117.33143524 -12.6160851 105.79548402 C-12.65848622 93.95396391 -12.68207058 82.11252267 -12.68729842 70.27092683 C-12.69071416 63.62132367 -12.70305442 56.97193413 -12.73540115 50.32239914 C-12.76538272 44.06955223 -12.77182886 37.81712571 -12.7600174 31.56422234 C-12.75979585 29.26679737 -12.7681674 26.96935345 -12.78567123 24.67199516 C-12.80823812 21.54017475 -12.80012523 18.40989496 -12.78418732 15.27806854 C-12.7980694 14.36474247 -12.81195149 13.45141639 -12.82625425 12.51041377 C-12.81568231 11.66977708 -12.80511037 10.82914039 -12.79421806 9.96302986 C-12.79625286 8.87927918 -12.79625286 8.87927918 -12.79832876 7.77363455 C-10.90891111 1.24414504 -6.14818926 -0.0013142 0 0 Z " fill="#0E1419" transform="translate(90.17618560791016,77.37638092041016)"/>
<path d="M0 0 C4.00196246 2.33632062 7.12036676 4.58003204 8.74609375 9.05078125 C9.59466706 14.07472096 9.16259288 17.97405859 6.62109375 22.42578125 C4.11507904 25.93980187 1.95689193 27.75515104 -2.25390625 29.05078125 C-7.12386212 29.83424764 -10.93469872 29.67462762 -15.12890625 26.92578125 C-18.84647782 23.83786798 -20.81306863 20.76019898 -21.6015625 15.9140625 C-21.94426726 10.73834188 -20.98965137 7.48474684 -17.6640625 3.4921875 C-12.71819086 -1.56328794 -6.56830425 -2.76620092 0 0 Z " fill="#29C542" transform="translate(235.25390625,118.94921875)"/>
<path d="M0 0 C4.00196246 2.33632062 7.12036676 4.58003204 8.74609375 9.05078125 C9.59466706 14.07472096 9.16259288 17.97405859 6.62109375 22.42578125 C4.11507904 25.93980187 1.95689193 27.75515104 -2.25390625 29.05078125 C-7.12386212 29.83424764 -10.93469872 29.67462762 -15.12890625 26.92578125 C-18.84647782 23.83786798 -20.81306863 20.76019898 -21.6015625 15.9140625 C-21.94426726 10.73834188 -20.98965137 7.48474684 -17.6640625 3.4921875 C-12.71819086 -1.56328794 -6.56830425 -2.76620092 0 0 Z " fill="#F9BA2D" transform="translate(185.25390625,118.94921875)"/>
<path d="M0 0 C4.00196246 2.33632062 7.12036676 4.58003204 8.74609375 9.05078125 C9.59466706 14.07472096 9.16259288 17.97405859 6.62109375 22.42578125 C4.11507904 25.93980187 1.95689193 27.75515104 -2.25390625 29.05078125 C-7.12386212 29.83424764 -10.93469872 29.67462762 -15.12890625 26.92578125 C-18.84647782 23.83786798 -20.81306863 20.76019898 -21.6015625 15.9140625 C-21.94426726 10.73834188 -20.98965137 7.48474684 -17.6640625 3.4921875 C-12.71819086 -1.56328794 -6.56830425 -2.76620092 0 0 Z " fill="#F95D58" transform="translate(135.25390625,118.94921875)"/>
<path d="M0 0 C3 0.625 3 0.625 5.375 2.625 C7.45561483 6.46613506 7.8451775 9.34736696 7 13.625 C5.375 16.625 5.375 16.625 3 18.625 C0 19.25 0 19.25 -3 18.625 C-5.49369699 16.52504464 -6.74345547 14.92342946 -7.3828125 11.6875 C-7.59349867 7.97942334 -7.16952866 5.93797599 -5.375 2.625 C-3 0.625 -3 0.625 0 0 Z " fill="#F0AD66" transform="translate(297,225.375)"/>
<path d="M0 0 C0.99773437 0.02320313 1.99546875 0.04640625 3.0234375 0.0703125 C4.52777344 0.09738281 4.52777344 0.09738281 6.0625 0.125 C6.83335937 0.14820313 7.60421875 0.17140625 8.3984375 0.1953125 C8.3984375 0.8553125 8.3984375 1.5153125 8.3984375 2.1953125 C7.7384375 2.1953125 7.0784375 2.1953125 6.3984375 2.1953125 C6.4603125 3.3709375 6.4603125 3.3709375 6.5234375 4.5703125 C6.3984375 7.1953125 6.3984375 7.1953125 4.3984375 9.1953125 C1.2734375 9.3203125 1.2734375 9.3203125 -1.6015625 9.1953125 C-1.6015625 10.1853125 -1.6015625 11.1753125 -1.6015625 12.1953125 C1.0384375 12.1953125 3.6784375 12.1953125 6.3984375 12.1953125 C7.0234375 14.5703125 7.0234375 14.5703125 7.3984375 17.1953125 C5.3984375 19.1953125 5.3984375 19.1953125 3.3046875 19.42578125 C2.510625 19.41160156 1.7165625 19.39742188 0.8984375 19.3828125 C0.104375 19.37636719 -0.6896875 19.36992187 -1.5078125 19.36328125 C-3.6015625 19.1953125 -3.6015625 19.1953125 -5.6015625 18.1953125 C-5.487911 15.56936466 -5.36117196 12.94519703 -5.2265625 10.3203125 C-5.195625 9.57394531 -5.1646875 8.82757813 -5.1328125 8.05859375 C-4.71635232 0.3540805 -4.71635232 0.3540805 0 0 Z " fill="#74C3D4" transform="translate(326.6015625,267.8046875)"/>
<path d="M0 0 C0.99 0 1.98 0 3 0 C3.33 1.65 3.66 3.3 4 5 C4.94875 4.95875 5.8975 4.9175 6.875 4.875 C10 5 10 5 12 7 C12.30078125 9.05859375 12.30078125 9.05859375 12.3125 11.4375 C12.32925781 12.21996094 12.34601563 13.00242187 12.36328125 13.80859375 C12 16 12 16 10.73828125 17.76953125 C7.63093609 19.96911265 4.70573473 19.23907966 1 19 C0 18 0 18 -0.11352539 16.23413086 C-0.10828857 15.48526611 -0.10305176 14.73640137 -0.09765625 13.96484375 C-0.09443359 13.15595703 -0.09121094 12.34707031 -0.08789062 11.51367188 C-0.07951172 10.66353516 -0.07113281 9.81339844 -0.0625 8.9375 C-0.05798828 8.08349609 -0.05347656 7.22949219 -0.04882812 6.34960938 C-0.03700373 4.23304337 -0.01906769 2.11651315 0 0 Z " fill="#D9D9D5" transform="translate(399,263)"/>
<path d="M0 0 C0.99 0 1.98 0 3 0 C3.33 1.65 3.66 3.3 4 5 C4.94875 4.95875 5.8975 4.9175 6.875 4.875 C10 5 10 5 12 7 C12.31914141 10.95735353 12.45215851 13.79424398 11.0625 17.5 C9 19 9 19 0 19 C0 12.73 0 6.46 0 0 Z " fill="#D7D8D4" transform="translate(276,187)"/>
<path d="M0 0 C0.99 0 1.98 0 3 0 C3 1.98 3 3.96 3 6 C4.11375 5.79375 5.2275 5.5875 6.375 5.375 C7.57125 5.25125 8.7675 5.1275 10 5 C12.41486943 7.41486943 12.2961925 8.12707789 12.3125 11.4375 C12.32925781 12.21996094 12.34601563 13.00242188 12.36328125 13.80859375 C12 16 12 16 10.73828125 17.76953125 C7.63093609 19.96911265 4.70573473 19.23907966 1 19 C0 18 0 18 -0.11352539 16.23413086 C-0.10828857 15.48526611 -0.10305176 14.73640137 -0.09765625 13.96484375 C-0.09443359 13.15595703 -0.09121094 12.34707031 -0.08789062 11.51367188 C-0.07951172 10.66353516 -0.07113281 9.81339844 -0.0625 8.9375 C-0.05798828 8.08349609 -0.05347656 7.22949219 -0.04882812 6.34960938 C-0.03700373 4.23304337 -0.01906769 2.11651315 0 0 Z " fill="#DCDDD8" transform="translate(214,225)"/>
<path d="M0 0 C1.9375 1.0625 1.9375 1.0625 3 3 C3.50030235 6.93094707 3.5996142 9.1005787 1.375 12.4375 C-1.68118452 14.44814771 -3.40649325 14.53520313 -7 14 C-8.875 13 -8.875 13 -10 11 C-10.53653931 7.42307129 -10.65701652 4.23673698 -8.9375 1 C-5.86784865 -0.58433618 -3.38318857 -0.36248449 0 0 Z " fill="#7DD1E3" transform="translate(316,268)"/>
<path d="M0 0 C1.9375 1.0625 1.9375 1.0625 3 3 C3.50030235 6.93094707 3.5996142 9.1005787 1.375 12.4375 C-1.68118452 14.44814771 -3.40649325 14.53520313 -7 14 C-8.875 13 -8.875 13 -10 11 C-10.53653931 7.42307129 -10.65701652 4.23673698 -8.9375 1 C-5.86784865 -0.58433618 -3.38318857 -0.36248449 0 0 Z " fill="#DADBD7" transform="translate(239,268)"/>
<path d="M0 0 C1.9375 1.0625 1.9375 1.0625 3 3 C3.50030235 6.93094707 3.5996142 9.1005787 1.375 12.4375 C-1.68118452 14.44814771 -3.40649325 14.53520313 -7 14 C-8.875 13 -8.875 13 -10 11 C-10.53653931 7.42307129 -10.65701652 4.23673698 -8.9375 1 C-5.86784865 -0.58433618 -3.38318857 -0.36248449 0 0 Z " fill="#DADBD7" transform="translate(193,268)"/>
<path d="M0 0 C10.05859375 -0.09765625 10.05859375 -0.09765625 13 0 C14 1 14 1 14.09765625 3.94140625 C14.08605469 5.13636719 14.07445312 6.33132812 14.0625 7.5625 C14.05347656 8.76003906 14.04445313 9.95757812 14.03515625 11.19140625 C14.02355469 12.11824219 14.01195312 13.04507813 14 14 C13.01 14 12.02 14 11 14 C10.67 10.37 10.34 6.74 10 3 C9.67 6.63 9.34 10.26 9 14 C7.68 14 6.36 14 5 14 C4.67 10.7 4.34 7.4 4 4 C3.67 7.3 3.34 10.6 3 14 C2.01 14 1.02 14 0 14 C0 9.38 0 4.76 0 0 Z " fill="#BEBFBC" transform="translate(259,192)"/>
<path d="M0 0 C10.05859375 -0.09765625 10.05859375 -0.09765625 13 0 C14 1 14 1 14.09765625 3.94140625 C14.08605469 5.13636719 14.07445312 6.33132813 14.0625 7.5625 C14.05347656 8.76003906 14.04445313 9.95757812 14.03515625 11.19140625 C14.02355469 12.11824219 14.01195312 13.04507812 14 14 C13.01 14 12.02 14 11 14 C10.67 10.37 10.34 6.74 10 3 C9.67 6.63 9.34 10.26 9 14 C8.01 14 7.02 14 6 14 C6 10.04 6 6.08 6 2 C5.34 2 4.68 2 4 2 C3.67 5.96 3.34 9.92 3 14 C2.01 14 1.02 14 0 14 C0 9.38 0 4.76 0 0 Z " fill="#DEDFDA" transform="translate(382,268)"/>
<path d="M0 0 C9.27734375 -0.09765625 9.27734375 -0.09765625 12 0 C13 1 13 1 13.09765625 3.94140625 C13.08605469 5.13636719 13.07445312 6.33132812 13.0625 7.5625 C13.05347656 8.76003906 13.04445312 9.95757812 13.03515625 11.19140625 C13.02355469 12.11824219 13.01195312 13.04507813 13 14 C12.01 14 11.02 14 10 14 C9.67 10.7 9.34 7.4 9 4 C8.67 7.3 8.34 10.6 8 14 C7.01 14 6.02 14 5 14 C4.67 10.37 4.34 6.74 4 3 C3.67 6.63 3.34 10.26 3 14 C2.01 14 1.02 14 0 14 C0 9.38 0 4.76 0 0 Z " fill="#D6D7D3" transform="translate(198,230)"/>
<path d="M0 0 C2.375 1.1875 2.375 1.1875 4 3 C4 4.65 4 6.3 4 8 C0.7 8 -2.6 8 -6 8 C-5.01 9.485 -5.01 9.485 -4 11 C-0.41642759 11.25015873 -0.41642759 11.25015873 3 11 C3 11.66 3 12.32 3 13 C-0.04983996 14.52491998 -2.6423369 14.23562548 -6 14 C-7.9375 13 -7.9375 13 -9 11 C-9.5327028 7.39862897 -9.68723346 4.22174836 -7.875 1 C-5.08970454 -0.48549091 -3.10747489 -0.38050713 0 0 Z " fill="#D4D5D0" transform="translate(238,230)"/>
<path d="M0 0 C0.99 0.66 1.98 1.32 3 2 C3.1875 5.125 3.1875 5.125 3 8 C0.03 8 -2.94 8 -6 8 C-5.01 9.485 -5.01 9.485 -4 11 C-0.41642759 11.25015873 -0.41642759 11.25015873 3 11 C3 11.66 3 12.32 3 13 C-0.04983996 14.52491998 -2.6423369 14.23562548 -6 14 C-7.9375 13 -7.9375 13 -9 11 C-9.5327028 7.39862897 -9.68723346 4.22174836 -7.875 1 C-5.13335219 -0.46221217 -3.05603838 -0.31833733 0 0 Z " fill="#E0E1DC" transform="translate(423,268)"/>
<path d="M0 0 C0.99 0.66 1.98 1.32 3 2 C3.1875 5.125 3.1875 5.125 3 8 C0.03 8 -2.94 8 -6 8 C-5.01 9.485 -5.01 9.485 -4 11 C-0.41642759 11.25015873 -0.41642759 11.25015873 3 11 C3 11.66 3 12.32 3 13 C-0.04983996 14.52491998 -2.6423369 14.23562548 -6 14 C-7.9375 13 -7.9375 13 -9 11 C-9.5327028 7.39862897 -9.68723346 4.22174836 -7.875 1 C-5.13335219 -0.46221217 -3.05603838 -0.31833733 0 0 Z " fill="#E0E1DC" transform="translate(269,268)"/>
<path d="M0 0 C0.99 0.66 1.98 1.32 3 2 C3.1875 5.125 3.1875 5.125 3 8 C0.03 8 -2.94 8 -6 8 C-5.01 9.485 -5.01 9.485 -4 11 C-0.41642759 11.25015873 -0.41642759 11.25015873 3 11 C3 11.66 3 12.32 3 13 C-0.04983996 14.52491998 -2.6423369 14.23562548 -6 14 C-7.9375 13 -7.9375 13 -9 11 C-9.5327028 7.39862897 -9.68723346 4.22174836 -7.875 1 C-5.13335219 -0.46221217 -3.05603838 -0.31833733 0 0 Z " fill="#E0E1DC" transform="translate(300,192)"/>
<path d="M0 0 C1.0725 0.2475 2.145 0.495 3.25 0.75 C3.58 3.06 3.91 5.37 4.25 7.75 C1.28 7.75 -1.69 7.75 -4.75 7.75 C-4.75 8.74 -4.75 9.73 -4.75 10.75 C-1.78 10.75 1.19 10.75 4.25 10.75 C4.25 11.41 4.25 12.07 4.25 12.75 C1.1667365 14.29163175 -1.35878099 14.04747535 -4.75 13.75 C-7.37541413 11.54803976 -7.6945448 10.13026421 -8.1875 6.75 C-7.75 3.75 -7.75 3.75 -6.1875 1.3125 C-3.75 -0.25 -3.75 -0.25 0 0 Z " fill="#EF72BB" transform="translate(190.75,192.25)"/>
<path d="M0 0 C1.60875 -0.04125 3.2175 -0.0825 4.875 -0.125 C5.77992188 -0.14820313 6.68484375 -0.17140625 7.6171875 -0.1953125 C10 0 10 0 12 2 C12.1953125 4.8203125 12.1953125 4.8203125 12.125 8.125 C12.10695312 9.22070312 12.08890625 10.31640625 12.0703125 11.4453125 C12.04710937 12.28835937 12.02390625 13.13140625 12 14 C10.68 14 9.36 14 8 14 C8 10.04 8 6.08 8 2 C6.02 2.99 6.02 2.99 4 4 C3.29823412 6.41679707 3.29823412 6.41679707 3.25 9.125 C3.19328125 10.03507813 3.1365625 10.94515625 3.078125 11.8828125 C3.03945312 12.93082031 3.03945312 12.93082031 3 14 C2.01 14 1.02 14 0 14 C0 9.38 0 4.76 0 0 Z " fill="#C3C5C1" transform="translate(168,230)"/>
<path d="M0 0 C0.99 0 1.98 0 3 0 C3.33 3.63 3.66 7.26 4 11 C4.99 10.67 5.98 10.34 7 10 C7.33 6.7 7.66 3.4 8 0 C9.32 0 10.64 0 12 0 C12 4.62 12 9.24 12 14 C10.39125 14.04125 8.7825 14.0825 7.125 14.125 C6.22007812 14.14820313 5.31515625 14.17140625 4.3828125 14.1953125 C2 14 2 14 0 12 C-0.1953125 9.1796875 -0.1953125 9.1796875 -0.125 5.875 C-0.10695312 4.77929688 -0.08890625 3.68359375 -0.0703125 2.5546875 C-0.04710937 1.71164063 -0.02390625 0.86859375 0 0 Z " fill="#C4C5C1" transform="translate(245,192)"/>
<path d="M0 0 C2.64 0 5.28 0 8 0 C8 5.61 8 11.22 8 17 C9.32 17 10.64 17 12 17 C12 17.66 12 18.32 12 19 C8.04 19 4.08 19 0 19 C0 18.34 0 17.68 0 17 C1.32 17 2.64 17 4 17 C4 12.05 4 7.1 4 2 C2.68 2 1.36 2 0 2 C0 1.34 0 0.68 0 0 Z " fill="#F4F4EF" transform="translate(245,263)"/>
<path d="M0 0 C1.60875 -0.04125 3.2175 -0.0825 4.875 -0.125 C5.77992188 -0.14820313 6.68484375 -0.17140625 7.6171875 -0.1953125 C10 0 10 0 12 2 C12.1953125 4.8203125 12.1953125 4.8203125 12.125 8.125 C12.10695312 9.22070312 12.08890625 10.31640625 12.0703125 11.4453125 C12.04710937 12.28835937 12.02390625 13.13140625 12 14 C11.01 14 10.02 14 9 14 C8.67 10.37 8.34 6.74 8 3 C6.02 3.99 6.02 3.99 4 5 C3.3006486 7.18541552 3.3006486 7.18541552 3.25 9.625 C3.19328125 10.44226563 3.1365625 11.25953125 3.078125 12.1015625 C3.05234375 12.72804687 3.0265625 13.35453125 3 14 C2.01 14 1.02 14 0 14 C0 9.38 0 4.76 0 0 Z " fill="#E0E0DB" transform="translate(229,192)"/>
<path d="M0 0 C0.99 0 1.98 0 3 0 C3.33 3.63 3.66 7.26 4 11 C5.32 10.67 6.64 10.34 8 10 C8.33 6.7 8.66 3.4 9 0 C9.99 0 10.98 0 12 0 C12 4.62 12 9.24 12 14 C10.39125 14.04125 8.7825 14.0825 7.125 14.125 C6.22007812 14.14820313 5.31515625 14.17140625 4.3828125 14.1953125 C2 14 2 14 0 12 C-0.1953125 9.1796875 -0.1953125 9.1796875 -0.125 5.875 C-0.10695313 4.77929688 -0.08890625 3.68359375 -0.0703125 2.5546875 C-0.04710937 1.71164062 -0.02390625 0.86859375 0 0 Z " fill="#DCDDD8" transform="translate(368,268)"/>
<path d="M0 0 C0.99 0 1.98 0 3 0 C3.33 3.63 3.66 7.26 4 11 C5.32 10.67 6.64 10.34 8 10 C8.33 6.7 8.66 3.4 9 0 C9.99 0 10.98 0 12 0 C12 4.62 12 9.24 12 14 C10.39125 14.04125 8.7825 14.0825 7.125 14.125 C6.22007812 14.14820313 5.31515625 14.17140625 4.3828125 14.1953125 C2 14 2 14 0 12 C-0.1953125 9.1796875 -0.1953125 9.1796875 -0.125 5.875 C-0.10695312 4.77929688 -0.08890625 3.68359375 -0.0703125 2.5546875 C-0.04710937 1.71164063 -0.02390625 0.86859375 0 0 Z " fill="#D6D7D3" transform="translate(183,230)"/>
<path d="M0 0 C8.75 -0.125 8.75 -0.125 11 1 C11 5.29 11 9.58 11 14 C10.01 14 9.02 14 8 14 C7.67 10.37 7.34 6.74 7 3 C6.01 3.33 5.02 3.66 4 4 C3.67 7.3 3.34 10.6 3 14 C2.01 14 1.02 14 0 14 C0 9.38 0 4.76 0 0 Z " fill="#D7D8D3" transform="translate(353,268)"/>
<path d="M0 0 C8.75 -0.125 8.75 -0.125 11 1 C11 5.29 11 9.58 11 14 C10.01 14 9.02 14 8 14 C7.67 10.37 7.34 6.74 7 3 C6.01 3.33 5.02 3.66 4 4 C3.67 7.3 3.34 10.6 3 14 C2.01 14 1.02 14 0 14 C0 9.38 0 4.76 0 0 Z " fill="#D7D8D3" transform="translate(199,268)"/>
<path d="M0 0 C0.66 0 1.32 0 2 0 C2.33 0.99 2.66 1.98 3 3 C5.64 3.33 8.28 3.66 11 4 C11.625 6.375 11.625 6.375 12 9 C10 11 10 11 7.90625 11.23046875 C7.1121875 11.21628906 6.318125 11.20210938 5.5 11.1875 C4.30890625 11.17783203 4.30890625 11.17783203 3.09375 11.16796875 C1 11 1 11 -1 10 C-0.67 6.7 -0.34 3.4 0 0 Z " fill="#81D8EB" transform="translate(322,276)"/>
<path d="M0 0 C2.01822917 0.06510417 4.03645833 0.13020833 6.0546875 0.1953125 C6.0546875 1.1853125 6.0546875 2.1753125 6.0546875 3.1953125 C4.0746875 3.1953125 2.0946875 3.1953125 0.0546875 3.1953125 C-0.2753125 3.8553125 -0.6053125 4.5153125 -0.9453125 5.1953125 C1.3646875 5.8553125 3.6746875 6.5153125 6.0546875 7.1953125 C6.3846875 8.8453125 6.7146875 10.4953125 7.0546875 12.1953125 C3.85088733 14.33117928 3.03528783 14.42663425 -0.6328125 14.3203125 C-1.84517578 14.29324219 -1.84517578 14.29324219 -3.08203125 14.265625 C-4.00435547 14.23082031 -4.00435547 14.23082031 -4.9453125 14.1953125 C-4.9453125 13.2053125 -4.9453125 12.2153125 -4.9453125 11.1953125 C-2.6353125 11.1953125 -0.3253125 11.1953125 2.0546875 11.1953125 C2.3846875 10.5353125 2.7146875 9.8753125 3.0546875 9.1953125 C1.0746875 8.5353125 -0.9053125 7.8753125 -2.9453125 7.1953125 C-3.5703125 4.8203125 -3.5703125 4.8203125 -3.9453125 2.1953125 C-1.9453125 0.1953125 -1.9453125 0.1953125 0 0 Z " fill="#DBDCD7" transform="translate(218.9453125,267.8046875)"/>
<path d="M0 0 C0.99 0.33 1.98 0.66 3 1 C2.01 2.175625 2.01 2.175625 1 3.375 C-1.83914158 7.62866051 -1.71868261 12.06008962 -1 17 C0.36997157 19.87146994 0.36997157 19.87146994 2 22 C2 22.99 2 23.98 2 25 C-1.78196707 23.78436773 -3.4308499 21.457598 -5.2265625 17.98828125 C-6.56054683 14.5589983 -6.91926612 11.52385345 -6 8 C-4.27076635 5.07629571 -2.26053159 2.52964249 0 0 Z " fill="#CFD0CC" transform="translate(345,262)"/>
<path d="M0 0 C2 2 2 2 2.5 5.25 C1.81316704 10.40124717 -0.11653554 11.6828741 -4 15 C-1.69 15.33 0.62 15.66 3 16 C3 16.66 3 17.32 3 18 C-0.96 18 -4.92 18 -9 18 C-7 14 -7 14 -4.375 11.0625 C-1.77442312 8.26125791 -1.77442312 8.26125791 -1.6875 5.125 C-1.790625 4.42375 -1.89375 3.7225 -2 3 C-3.98 3.33 -5.96 3.66 -8 4 C-8 3.01 -8 2.02 -8 1 C-5.23749964 -0.38125018 -3.05268901 -0.19079306 0 0 Z " fill="#F1AF67" transform="translate(346,188)"/>
<path d="M0 0 C0 5.28 0 10.56 0 16 C1.32 16 2.64 16 4 16 C4 16.66 4 17.32 4 18 C0.04 18 -3.92 18 -8 18 C-8 17.34 -8 16.68 -8 16 C-6.35 16 -4.7 16 -3 16 C-3 11.71 -3 7.42 -3 3 C-4.65 3.66 -6.3 4.32 -8 5 C-8 4.01 -8 3.02 -8 2 C-4.91190305 0.23537317 -3.76687864 0 0 0 Z " fill="#E6A763" transform="translate(284,226)"/>
<path d="M0 0 C2.31 0 4.62 0 7 0 C7 5.61 7 11.22 7 17 C8.32 17 9.64 17 11 17 C11 17.66 11 18.32 11 19 C7.04 19 3.08 19 -1 19 C-1 18.34 -1 17.68 -1 17 C0.65 17 2.3 17 4 17 C4 12.05 4 7.1 4 2 C2.68 2 1.36 2 0 2 C0 1.34 0 0.68 0 0 Z " fill="#81D9EC" transform="translate(292,263)"/>
<path d="M0 0 C5.625 -0.25 5.625 -0.25 9 2 C9.1875 4.4375 9.1875 4.4375 9 7 C9 9.83967231 9.40267181 12.23735711 10 15 C7.28817788 17.60334924 6.10866187 17.99456691 2.25 18.1875 C1.1775 18.125625 0.105 18.06375 -1 18 C-1 17.34 -1 16.68 -1 16 C2.465 15.505 2.465 15.505 6 15 C6 13.68 6 12.36 6 11 C4.35 10.67 2.7 10.34 1 10 C1 9.34 1 8.68 1 8 C2.32 7.67 3.64 7.34 5 7 C5 5.68 5 4.36 5 3 C3.02 3 1.04 3 -1 3 C-0.67 2.01 -0.34 1.02 0 0 Z " fill="#5A6997" transform="translate(118,264)"/>
<path d="M0 0 C4.26272329 1.52240117 5.98031034 4.03275246 8 8 C8.69814913 12.35767806 8.52633166 15.84708303 6.6875 19.875 C3.79553903 23.51672862 3.79553903 23.51672862 2 25 C1.34 25 0.68 25 0 25 C1.12451727 22.0280615 2.22293791 19.66559313 4 17 C4.34072484 12.40021464 3.96726539 9.15311582 2 5 C1.33333333 3.33333333 0.66666667 1.66666667 0 0 Z " fill="#D9DAD5" transform="translate(447,262)"/>
<path d="M0 0 C0.99 0 1.98 0 3 0 C3 1.32 3 2.64 3 4 C4.98 4 6.96 4 9 4 C9 4.66 9 5.32 9 6 C7.02 6 5.04 6 3 6 C3.33 8.97 3.66 11.94 4 15 C5.65 15.33 7.3 15.66 9 16 C9 16.66 9 17.32 9 18 C3.50704225 18.36619718 3.50704225 18.36619718 1.3125 16.78125 C-0.38347808 14.47956546 -0.31038837 13.13893251 -0.1875 10.3125 C-0.16042969 9.50425781 -0.13335937 8.69601563 -0.10546875 7.86328125 C-0.07066406 7.24839844 -0.03585938 6.63351563 0 6 C-0.99 6 -1.98 6 -3 6 C-3 5.34 -3 4.68 -3 4 C-2.01 4 -1.02 4 0 4 C0 2.68 0 1.36 0 0 Z " fill="#E26DB1" transform="translate(201,188)"/>
<path d="M0 0 C0 5.28 0 10.56 0 16 C1.32 16 2.64 16 4 16 C4 16.66 4 17.32 4 18 C0.37 18 -3.26 18 -7 18 C-7 17.34 -7 16.68 -7 16 C-5.68 16 -4.36 16 -3 16 C-3.33 12.04 -3.66 8.08 -4 4 C-4.99 4.33 -5.98 4.66 -7 5 C-7 4.01 -7 3.02 -7 2 C-4.35261084 0.5393715 -3.10551666 0 0 0 Z " fill="#4D5A81" transform="translate(124,188)"/>
<path d="M0 0 C6.875 0.875 6.875 0.875 8 2 C8.5351509 5.21090542 8.53124861 7.22558511 6.66015625 9.953125 C5.15676472 11.69352178 3.62116183 13.36918839 2 15 C4.31 15.33 6.62 15.66 9 16 C9 16.66 9 17.32 9 18 C5.04 18 1.08 18 -3 18 C-1.06052167 14.12104334 0.89514751 11.83169812 3.85546875 8.78125 C5.25304456 7.03475989 5.25304456 7.03475989 4.67578125 4.78125 C4.34126953 3.89953125 4.34126953 3.89953125 4 3 C2.02 3 0.04 3 -2 3 C-1.34 2.01 -0.68 1.02 0 0 Z " fill="#5D6D9D" transform="translate(119,226)"/>
<path d="M0 0 C1.32 0.33 2.64 0.66 4 1 C4.33 0.67 4.66 0.34 5 0 C7.33944736 0.28730055 9.6739143 0.61936779 12 1 C12 2.32 12 3.64 12 5 C11.01 5 10.02 5 9 5 C9 4.01 9 3.02 9 2 C6.95310804 2.62628423 6.95310804 2.62628423 5 4 C4.29823412 6.41679707 4.29823412 6.41679707 4.25 9.125 C4.19328125 10.03507813 4.1365625 10.94515625 4.078125 11.8828125 C4.05234375 12.58148438 4.0265625 13.28015625 4 14 C2.68 14 1.36 14 0 14 C0 9.38 0 4.76 0 0 Z " fill="#C9CBC7" transform="translate(245,230)"/>
<path d="M0 0 C0 0.99 0 1.98 0 3 C-0.969375 2.979375 -1.93875 2.95875 -2.9375 2.9375 C-5.87465895 2.64381501 -5.87465895 2.64381501 -7 4 C-6.71269945 6.33944736 -6.38063221 8.6739143 -6 11 C-4.02 11 -2.04 11 0 11 C-0.33 11.99 -0.66 12.98 -1 14 C-7.30818278 14.35706695 -7.30818278 14.35706695 -9.9375 13 C-11.66111424 9.75554966 -11.65623212 6.57944791 -11 3 C-8.03489811 -0.79533041 -4.53276877 -0.26150589 0 0 Z " fill="#DBDCD7" transform="translate(179,268)"/>
<path d="M0 0 C1.60875 -0.020625 3.2175 -0.04125 4.875 -0.0625 C5.77992188 -0.07410156 6.68484375 -0.08570313 7.6171875 -0.09765625 C10 0 10 0 12 1 C12 2.32 12 3.64 12 5 C11.01 5 10.02 5 9 5 C8.67 4.34 8.34 3.68 8 3 C6.35 3.33 4.7 3.66 3 4 C3 7.3 3 10.6 3 14 C2.01 14 1.02 14 0 14 C0 9.38 0 4.76 0 0 Z " fill="#E0E0DC" transform="translate(430,268)"/>
<path d="M0 0 C1.60875 -0.04125 3.2175 -0.0825 4.875 -0.125 C5.77992188 -0.14820313 6.68484375 -0.17140625 7.6171875 -0.1953125 C10 0 10 0 12 2 C12 2.99 12 3.98 12 5 C11.01 5 10.02 5 9 5 C8.67 4.34 8.34 3.68 8 3 C6.68 3.33 5.36 3.66 4 4 C3.67 7.3 3.34 10.6 3 14 C2.01 14 1.02 14 0 14 C0 9.38 0 4.76 0 0 Z " fill="#E5E6E0" transform="translate(307,192)"/>
<path d="M0 0 C0.66 0 1.32 0 2 0 C2.33 1.65 2.66 3.3 3 5 C3.94875 4.95875 4.8975 4.9175 5.875 4.875 C9 5 9 5 11 7 C11.1953125 9.1640625 11.1953125 9.1640625 11.125 11.625 C11.10695313 12.44226563 11.08890625 13.25953125 11.0703125 14.1015625 C11.03550781 15.04128906 11.03550781 15.04128906 11 16 C10.34 16 9.68 16 9 16 C8.67 13.69 8.34 11.38 8 9 C6.10820797 8.3185177 6.10820797 8.3185177 4 8 C1.23776722 10.76223278 1.42143709 13.20706617 1 17 C0.67 17 0.34 17 0 17 C0 11.39 0 5.78 0 0 Z " fill="#E8E8E3" transform="translate(400,263)"/>
<path d="M0 0 C1.98 0 3.96 0 6 0 C6 5.61 6 11.22 6 17 C7.32 17 8.64 17 10 17 C10 17.66 10 18.32 10 19 C6.37 19 2.74 19 -1 19 C-1 18.34 -1 17.68 -1 17 C0.65 17 2.3 17 4 17 C4 12.05 4 7.1 4 2 C2.68 2 1.36 2 0 2 C0 1.34 0 0.68 0 0 Z " fill="#F876C1" transform="translate(169,187)"/>
<path d="M0 0 C1.98 0 3.96 0 6 0 C7 1 7 1 7.09765625 3.94140625 C7.08605469 5.13636719 7.07445312 6.33132813 7.0625 7.5625 C7.05347656 8.76003906 7.04445313 9.95757812 7.03515625 11.19140625 C7.02355469 12.11824219 7.01195312 13.04507812 7 14 C6.01 14 5.02 14 4 14 C3.67 10.37 3.34 6.74 3 3 C2.67 6.63 2.34 10.26 2 14 C1.67 14 1.34 14 1 14 C0.67 9.38 0.34 4.76 0 0 Z " fill="#D7D7D3" transform="translate(389,268)"/>
<path d="M0 0 C0.66 0 1.32 0 2 0 C2 2.31 2 4.62 2 7 C2.66 7 3.32 7 4 7 C3.67 10.3 3.34 13.6 3 17 C4.32 17 5.64 17 7 17 C7 17.66 7 18.32 7 19 C4.69 19 2.38 19 0 19 C0 12.73 0 6.46 0 0 Z " fill="#E4E4DF" transform="translate(276,187)"/>
<path d="M0 0 C1.875 1.5 1.875 1.5 3 3 C2.34 3 1.68 3 1 3 C1 3.99 1 4.98 1 6 C-1.64 6 -4.28 6 -7 6 C-7.33 7.65 -7.66 9.3 -8 11 C-8.33 11 -8.66 11 -9 11 C-9.36180905 3.64321608 -9.36180905 3.64321608 -7.875 1 C-5.10184376 -0.47901666 -3.08815875 -0.38601984 0 0 Z " fill="#DADBD6" transform="translate(423,268)"/>
<path d="M0 0 C1.875 1.5 1.875 1.5 3 3 C2.34 3 1.68 3 1 3 C1 3.99 1 4.98 1 6 C-1.64 6 -4.28 6 -7 6 C-7.33 7.65 -7.66 9.3 -8 11 C-8.33 11 -8.66 11 -9 11 C-9.36180905 3.64321608 -9.36180905 3.64321608 -7.875 1 C-5.10184376 -0.47901666 -3.08815875 -0.38601984 0 0 Z " fill="#DADBD6" transform="translate(269,268)"/>
<path d="M0 0 C3.53571429 0.53571429 3.53571429 0.53571429 5 2 C5.1875 4.9375 5.1875 4.9375 5 8 C4.34 8.66 3.68 9.32 3 10 C0.375 9.625 0.375 9.625 -2 9 C-2.125 5.625 -2.125 5.625 -2 2 C-1.34 1.34 -0.68 0.68 0 0 Z " fill="#172329" transform="translate(311,270)"/>
<path d="M0 0 C3.53571429 0.53571429 3.53571429 0.53571429 5 2 C5.1875 4.9375 5.1875 4.9375 5 8 C4.34 8.66 3.68 9.32 3 10 C0.375 9.625 0.375 9.625 -2 9 C-2.125 5.625 -2.125 5.625 -2 2 C-1.34 1.34 -0.68 0.68 0 0 Z " fill="#1F2429" transform="translate(234,270)"/>
<path d="M0 0 C3.53571429 0.53571429 3.53571429 0.53571429 5 2 C5.1875 4.9375 5.1875 4.9375 5 8 C4.34 8.66 3.68 9.32 3 10 C0.375 9.625 0.375 9.625 -2 9 C-2.125 5.625 -2.125 5.625 -2 2 C-1.34 1.34 -0.68 0.68 0 0 Z " fill="#1F2429" transform="translate(188,270)"/>
<path d="M0 0 C1.875 1.5 1.875 1.5 3 3 C2.34 3 1.68 3 1 3 C1 3.99 1 4.98 1 6 C-1.64 6 -4.28 6 -7 6 C-7.33 7.65 -7.66 9.3 -8 11 C-8.33 11 -8.66 11 -9 11 C-9.36180905 3.64321608 -9.36180905 3.64321608 -7.875 1 C-5.10184376 -0.47901666 -3.08815875 -0.38601984 0 0 Z " fill="#DADBD6" transform="translate(300,192)"/>
<path d="M0 0 C3.45102209 0.34510221 4.81719344 0.73840807 7.125 3.3125 C7.375 6 7.375 6 7.125 8.3125 C6.795 6.9925 6.465 5.6725 6.125 4.3125 C5.465 4.3125 4.805 4.3125 4.125 4.3125 C4.125 4.9725 4.125 5.6325 4.125 6.3125 C1.485 6.3125 -1.155 6.3125 -3.875 6.3125 C-4.5 4.4375 -4.5 4.4375 -4.875 2.3125 C-2.875 0.3125 -2.875 0.3125 0 0 Z " fill="#DFE0DB" transform="translate(234.875,229.6875)"/>
<path d="M0 0 C2.125 0.375 2.125 0.375 4 1 C4.125 4.375 4.125 4.375 4 8 C3.34 8.66 2.68 9.32 2 10 C0.68 10 -0.64 10 -2 10 C-2.1953125 3.9453125 -2.1953125 3.9453125 -2 2 C-1.34 1.34 -0.68 0.68 0 0 Z " fill="#1A2025" transform="translate(404,270)"/>
<path d="M0 0 C0.99 0.33 1.98 0.66 3 1 C3.09765625 7.15234375 3.09765625 7.15234375 3 9 C2 10 2 10 -0.5625 10.0625 C-1.366875 10.041875 -2.17125 10.02125 -3 10 C-3.29296875 3.9453125 -3.29296875 3.9453125 -3 2 C-2.01 1.34 -1.02 0.68 0 0 Z " fill="#1F2529" transform="translate(220,232)"/>
<path d="M0 0 C1.67578125 1.23046875 1.67578125 1.23046875 3 3 C3.29296875 5.26171875 3.29296875 5.26171875 3.1875 7.6875 C3.16042969 8.49574219 3.13335937 9.30398437 3.10546875 10.13671875 C3.07066406 10.75160156 3.03585937 11.36648437 3 12 C1.50002556 9.05047042 0.19976433 6.08510827 -1 3 C-2.65 3 -4.3 3 -6 3 C-6.66 5.64 -7.32 8.28 -8 11 C-8.33 11 -8.66 11 -9 11 C-9.36180905 3.64321608 -9.36180905 3.64321608 -7.875 1 C-5.10184376 -0.47901666 -3.08815875 -0.38601984 0 0 Z " fill="#F0AD66" transform="translate(300,226)"/>
<path d="M0 0 C0.99 0 1.98 0 3 0 C3.9765625 6.0546875 3.9765625 6.0546875 4 8 C3.34 8.66 2.68 9.32 2 10 C0.68 10 -0.64 10 -2 10 C-2.1953125 3.9453125 -2.1953125 3.9453125 -2 2 C-1.34 1.34 -0.68 0.68 0 0 Z " fill="#1A1F24" transform="translate(281,194)"/>
<path d="M0 0 C0.33 0.99 0.66 1.98 1 3 C0.34 3 -0.32 3 -1 3 C-1 3.66 -1 4.32 -1 5 C-3.64 5 -6.28 5 -9 5 C-9.33 3.68 -9.66 2.36 -10 1 C-6.1496895 -1.56687367 -4.41430237 -0.83288724 0 0 Z " fill="#E66EB4" transform="translate(194,193)"/>
<path d="M0 0 C2.64 0 5.28 0 8 0 C8 5.61 8 11.22 8 17 C7.67 17 7.34 17 7 17 C7 12.38 7 7.76 7 3 C6.34 3 5.68 3 5 3 C5 7.62 5 12.24 5 17 C4.67 17 4.34 17 4 17 C4 12.05 4 7.1 4 2 C2.68 2 1.36 2 0 2 C0 1.34 0 0.68 0 0 Z " fill="#ADAFAD" transform="translate(245,263)"/>
<path d="M0 0 C0 4.29 0 8.58 0 13 C-0.99 13 -1.98 13 -3 13 C-3.03738281 12.22914063 -3.07476562 11.45828125 -3.11328125 10.6640625 C-3.17902344 9.66117188 -3.24476563 8.65828125 -3.3125 7.625 C-3.37050781 6.62726563 -3.42851562 5.62953125 -3.48828125 4.6015625 C-3.65714844 3.74304688 -3.82601563 2.88453125 -4 2 C-4.99 1.34 -5.98 0.68 -7 0 C-5 -1 -5 -1 0 0 Z " fill="#D6D7D2" transform="translate(273,193)"/>
<path d="M0 0 C1.23556641 0.01740234 1.23556641 0.01740234 2.49609375 0.03515625 C3.32238281 0.04417969 4.14867187 0.05320312 5 0.0625 C5.63808594 0.07410156 6.27617187 0.08570313 6.93359375 0.09765625 C6.93359375 0.75765625 6.93359375 1.41765625 6.93359375 2.09765625 C6.27359375 2.09765625 5.61359375 2.09765625 4.93359375 2.09765625 C4.99546875 3.27328125 4.99546875 3.27328125 5.05859375 4.47265625 C4.93359375 7.09765625 4.93359375 7.09765625 2.93359375 9.09765625 C0.30859375 9.22265625 0.30859375 9.22265625 -2.06640625 9.09765625 C-2.06640625 8.43765625 -2.06640625 7.77765625 -2.06640625 7.09765625 C-1.07640625 6.76765625 -0.08640625 6.43765625 0.93359375 6.09765625 C0.93359375 5.10765625 0.93359375 4.11765625 0.93359375 3.09765625 C-0.38640625 2.43765625 -1.70640625 1.77765625 -3.06640625 1.09765625 C-2.06640625 0.09765625 -2.06640625 0.09765625 0 0 Z " fill="#83DBEF" transform="translate(328.06640625,267.90234375)"/>
<path d="M0 0 C0.99 0 1.98 0 3 0 C3.03738281 0.75925781 3.07476562 1.51851562 3.11328125 2.30078125 C3.17902344 3.29464844 3.24476563 4.28851563 3.3125 5.3125 C3.37050781 6.29863281 3.42851562 7.28476563 3.48828125 8.30078125 C4.04622813 11.24384457 4.68540132 12.18182999 7 14 C4.625 14.125 4.625 14.125 2 14 C0 12 0 12 -0.1953125 9.1796875 C-0.17210937 8.08914062 -0.14890625 6.99859375 -0.125 5.875 C-0.10695312 4.77929688 -0.08890625 3.68359375 -0.0703125 2.5546875 C-0.04710937 1.71164063 -0.02390625 0.86859375 0 0 Z " fill="#DFE0DB" transform="translate(245,192)"/>
<path d="M0 0 C1.32 0.33 2.64 0.66 4 1 C3.625 3.4375 3.625 3.4375 3 6 C0.59454362 7.20272819 -0.94996953 7.10071472 -3.625 7.0625 C-4.85089844 7.04896484 -4.85089844 7.04896484 -6.1015625 7.03515625 C-7.04128906 7.01775391 -7.04128906 7.01775391 -8 7 C-8 6.01 -8 5.02 -8 4 C-5.69 4 -3.38 4 -1 4 C-0.67 2.68 -0.34 1.36 0 0 Z " fill="#C6C8C4" transform="translate(222,275)"/>
<path d="M0 0 C0.99 0 1.98 0 3 0 C3 4.62 3 9.24 3 14 C2.34 14 1.68 14 1 14 C1 13.34 1 12.68 1 12 C0.01 11.67 -0.98 11.34 -2 11 C-1.67 10.67 -1.34 10.34 -1 10 C-0.76712992 8.31816052 -0.58735834 6.6287584 -0.4375 4.9375 C-0.35371094 4.01839844 -0.26992187 3.09929687 -0.18359375 2.15234375 C-0.12300781 1.44207031 -0.06242188 0.73179687 0 0 Z " fill="#E1E2DD" transform="translate(192,230)"/>
<path d="M0 0 C0.66 0 1.32 0 2 0 C2 0.66 2 1.32 2 2 C2.66 2 3.32 2 4 2 C3.67 5.96 3.34 9.92 3 14 C2.01 14 1.02 14 0 14 C0 9.38 0 4.76 0 0 Z " fill="#DCDDD8" transform="translate(168,230)"/>
<path d="M0 0 C0.66 0 1.32 0 2 0 C3.38226016 2.76452033 3.09525387 5.0461363 3.0625 8.125 C3.05347656 9.22070312 3.04445313 10.31640625 3.03515625 11.4453125 C3.02355469 12.28835938 3.01195312 13.13140625 3 14 C2.01 14 1.02 14 0 14 C0 9.38 0 4.76 0 0 Z " fill="#DDDED9" transform="translate(353,268)"/>
<path d="M0 0 C0.66 0 1.32 0 2 0 C3.38226016 2.76452033 3.09525387 5.0461363 3.0625 8.125 C3.05347656 9.22070312 3.04445312 10.31640625 3.03515625 11.4453125 C3.02355469 12.28835938 3.01195312 13.13140625 3 14 C2.01 14 1.02 14 0 14 C0 9.38 0 4.76 0 0 Z " fill="#DDDED9" transform="translate(199,268)"/>
<path d="M0 0 C0.66 0 1.32 0 2 0 C3.38226016 2.76452033 3.09525387 5.0461363 3.0625 8.125 C3.05347656 9.22070312 3.04445312 10.31640625 3.03515625 11.4453125 C3.02355469 12.28835937 3.01195312 13.13140625 3 14 C2.01 14 1.02 14 0 14 C0 9.38 0 4.76 0 0 Z " fill="#D5D6D2" transform="translate(229,192)"/>
<path d="M0 0 C0.66 0 1.32 0 2 0 C3.04976964 3.14930893 3.10131595 5.38814456 3.0625 8.6875 C3.05347656 9.68136719 3.04445313 10.67523438 3.03515625 11.69921875 C3.02355469 12.45847656 3.01195312 13.21773437 3 14 C2.01 14 1.02 14 0 14 C0 9.38 0 4.76 0 0 Z " fill="#DCDCD8" transform="translate(259,192)"/>
<path d="M0 0 C5.625 -0.25 5.625 -0.25 9 2 C9.375 4.5 9.375 4.5 9 7 C8.01 7.66 7.02 8.32 6 9 C5 7 5 7 5 3 C3.02 3 1.04 3 -1 3 C-0.67 2.01 -0.34 1.02 0 0 Z " fill="#5A6997" transform="translate(118,264)"/>
<path d="M0 0 C-0.33 2.31 -0.66 4.62 -1 7 C-2.65 7.33 -4.3 7.66 -6 8 C-6.33 6.68 -6.66 5.36 -7 4 C-2.25 0 -2.25 0 0 0 Z " fill="#282522" transform="translate(301,234)"/>
<path d="M0 0 C0.33 0 0.66 0 1 0 C1 4.95 1 9.9 1 15 C2.65 15 4.3 15 6 15 C6 15.66 6 16.32 6 17 C2.37 17 -1.26 17 -5 17 C-5 16.34 -5 15.68 -5 15 C-3.35 15 -1.7 15 0 15 C0 10.05 0 5.1 0 0 Z " fill="#6171A3" transform="translate(122,189)"/>
<path d="M0 0 C0 0.99 0 1.98 0 3 C-4.34285714 7 -4.34285714 7 -7 7 C-6.74438677 4.6568787 -6.40729228 2.32156597 -6 0 C-3.50907189 -1.24546405 -2.58919267 -0.7767578 0 0 Z " fill="#282622" transform="translate(300,229)"/>
<path d="M0 0 C0.66 0 1.32 0 2 0 C2.29296875 6.0546875 2.29296875 6.0546875 2 8 C-1.4352048 10.29013653 -2.985331 10.17842973 -7 10 C-7.33 9.34 -7.66 8.68 -8 8 C-5.69 7.34 -3.38 6.68 -1 6 C-0.67 4.02 -0.34 2.04 0 0 Z " fill="#F0F0EB" transform="translate(239,272)"/>
<path d="M0 0 C0.66 0 1.32 0 2 0 C2.29296875 6.0546875 2.29296875 6.0546875 2 8 C-1.4352048 10.29013653 -2.985331 10.17842973 -7 10 C-7.33 9.34 -7.66 8.68 -8 8 C-5.69 7.34 -3.38 6.68 -1 6 C-0.67 4.02 -0.34 2.04 0 0 Z " fill="#F0F0EB" transform="translate(193,272)"/>
<path d="M0 0 C3.625 0.25 3.625 0.25 5.5625 1.3125 C7.17979605 4.26168691 6.81130138 6.95867559 6.625 10.25 C6.295 10.25 5.965 10.25 5.625 10.25 C5.625 8.27 5.625 6.29 5.625 4.25 C1.00992226 3.20785309 1.00992226 3.20785309 -3.375 4.25 C-3.705 3.26 -4.035 2.27 -4.375 1.25 C-3.375 0.25 -3.375 0.25 0 0 Z " fill="#7CD0E2" transform="translate(312.375,267.75)"/>
<path d="M0 0 C0.99 0.33 1.98 0.66 3 1 C2.360625 1.825 1.72125 2.65 1.0625 3.5 C-1.46413081 7.23191406 -1.69360228 10.55723303 -2 15 C-2.33 15 -2.66 15 -3 15 C-4 8.375 -4 8.375 -4 5 C-2 2.3125 -2 2.3125 0 0 Z " fill="#BEC0BC" transform="translate(345,262)"/>
<path d="M0 0 C6.0546875 -0.1953125 6.0546875 -0.1953125 8 0 C10 2 10 2 10 5 C9.01 5 8.02 5 7 5 C6.67 4.34 6.34 3.68 6 3 C4.35 3.33 2.7 3.66 1 4 C0.67 2.68 0.34 1.36 0 0 Z " fill="#DFE0DB" transform="translate(309,192)"/>
<path d="M0 0 C0.33 0.66 0.66 1.32 1 2 C3.64 2 6.28 2 9 2 C9 1.34 9 0.68 9 0 C9.66 0 10.32 0 11 0 C11 1.32 11 2.64 11 4 C7.7 4 4.4 4 1 4 C0.67 4.66 0.34 5.32 0 6 C0 4.02 0 2.04 0 0 Z " fill="#F4F4EE" transform="translate(230,234)"/>
<path d="M0 0 C7.75 -0.125 7.75 -0.125 10 1 C10 2.32 10 3.64 10 5 C9.01 5 8.02 5 7 5 C6.67 4.34 6.34 3.68 6 3 C4.68 3.33 3.36 3.66 2 4 C2 3.34 2 2.68 2 2 C1.34 2 0.68 2 0 2 C0 1.34 0 0.68 0 0 Z " fill="#DADAD6" transform="translate(432,268)"/>
<path d="M0 0 C3.69230769 0.69230769 3.69230769 0.69230769 5 2 C5.07179964 3.51928038 5.08392007 5.04167482 5.0625 6.5625 C5.05347656 7.38878906 5.04445312 8.21507812 5.03515625 9.06640625 C5.01775391 10.02353516 5.01775391 10.02353516 5 11 C4.34 11 3.68 11 3 11 C2.896875 9.906875 2.79375 8.81375 2.6875 7.6875 C2.02692273 4.14440371 1.7972908 3.06756277 -1 1 C-0.67 0.67 -0.34 0.34 0 0 Z " fill="#E9EAE4" transform="translate(221,230)"/>
<path d="M0 0 C0.33 0.99 0.66 1.98 1 3 C3.97 3 6.94 3 10 3 C10 3.66 10 4.32 10 5 C7.04335481 6.4783226 4.25770263 6.06032783 1 6 C-0.0625 4.125 -0.0625 4.125 -1 2 C-0.67 1.34 -0.34 0.68 0 0 Z " fill="#DE6BAE" transform="translate(185,200)"/>
<path d="M0 0 C0 0.66 0 1.32 0 2 C-3.96 2 -7.92 2 -12 2 C-12 1.34 -12 0.68 -12 0 C-7.66726186 -0.92844389 -4.33273814 -0.92844389 0 0 Z " fill="#EDEDE8" transform="translate(257,280)"/>
<path d="M0 0 C2.31 0.33 4.62 0.66 7 1 C7 2.32 7 3.64 7 5 C6.01 5 5.02 5 4 5 C4 4.01 4 3.02 4 2 C2.35 2.66 0.7 3.32 -1 4 C-0.67 2.68 -0.34 1.36 0 0 Z " fill="#E0E0DC" transform="translate(250,230)"/>
<path d="M0 0 C0.33 0 0.66 0 1 0 C1.33 1.65 1.66 3.3 2 5 C3.98 5 5.96 5 8 5 C8 6.98 8 8.96 8 11 C7.34 10.67 6.68 10.34 6 10 C6 9.01 6 8.02 6 7 C5.38125 7.185625 4.7625 7.37125 4.125 7.5625 C2 8 2 8 0 7 C0 4.69 0 2.38 0 0 Z " fill="#C6C8C4" transform="translate(278,187)"/>
<path d="M0 0 C2.05078125 0.03255208 4.1015625 0.06510417 6.15234375 0.09765625 C6.15234375 1.08765625 6.15234375 2.07765625 6.15234375 3.09765625 C5.20359375 3.05640625 4.25484375 3.01515625 3.27734375 2.97265625 C0.04989519 2.74791807 0.04989519 2.74791807 -1.84765625 5.09765625 C-2.41015625 3.16015625 -2.41015625 3.16015625 -2.84765625 1.09765625 C-1.84765625 0.09765625 -1.84765625 0.09765625 0 0 Z " fill="#D3D4D0" transform="translate(218.84765625,267.90234375)"/>
<path d="M0 0 C0.33 0 0.66 0 1 0 C1.9765625 6.0546875 1.9765625 6.0546875 2 8 C0 10 0 10 -1.9453125 10.1953125 C-3.96354167 10.13020833 -5.98177083 10.06510417 -8 10 C-5.38058783 8.25372522 -3.96175123 7.61277612 -1 7 C-0.67 4.69 -0.34 2.38 0 0 Z " fill="#E4E4DF" transform="translate(223,234)"/>
<path d="M0 0 C1.65 0.33 3.3 0.66 5 1 C5.33 1.99 5.66 2.98 6 4 C3.69 4 1.38 4 -1 4 C-0.67 2.68 -0.34 1.36 0 0 Z " fill="#1F1B25" transform="translate(187,194)"/>
<path d="M0 0 C0.66 0 1.32 0 2 0 C2 1.65 2 3.3 2 5 C-1.63 4.67 -5.26 4.34 -9 4 C-8.67 3.01 -8.34 2.02 -8 1 C-8 1.66 -8 2.32 -8 3 C-5.36 3 -2.72 3 0 3 C0 2.01 0 1.02 0 0 Z " fill="#F0F0EA" transform="translate(424,271)"/>
<path d="M0 0 C0.66 0 1.32 0 2 0 C2 1.65 2 3.3 2 5 C-1.63 4.67 -5.26 4.34 -9 4 C-8.67 3.01 -8.34 2.02 -8 1 C-8 1.66 -8 2.32 -8 3 C-5.36 3 -2.72 3 0 3 C0 2.01 0 1.02 0 0 Z " fill="#F0F0EA" transform="translate(270,271)"/>
<path d="M0 0 C0.33 0 0.66 0 1 0 C1.125 2.375 1.125 2.375 1 5 C-1 7 -1 7 -3.625 7.125 C-4.40875 7.08375 -5.1925 7.0425 -6 7 C-6 6.34 -6 5.68 -6 5 C-5.01 4.67 -4.02 4.34 -3 4 C-2.67 3.34 -2.34 2.68 -2 2 C-1.34 2 -0.68 2 0 2 C0 1.34 0 0.68 0 0 Z " fill="#7CD1E3" transform="translate(332,270)"/>
<path d="M0 0 C0.66 0 1.32 0 2 0 C2 1.65 2 3.3 2 5 C-1.63 4.67 -5.26 4.34 -9 4 C-8.67 3.01 -8.34 2.02 -8 1 C-8 1.66 -8 2.32 -8 3 C-5.36 3 -2.72 3 0 3 C0 2.01 0 1.02 0 0 Z " fill="#F0F0EA" transform="translate(301,195)"/>
<path d="M0 0 C1.32 0 2.64 0 4 0 C2.71480435 2.86697492 1.42870746 4.97607712 -1 7 C-1.66 7 -2.32 7 -3 7 C-1.125 2.25 -1.125 2.25 0 0 Z " fill="#C6C8C4" transform="translate(450,280)"/>
<path d="M0 0 C1.98 0 3.96 0 6 0 C5.51917969 0.37769531 5.03835938 0.75539063 4.54296875 1.14453125 C2.46337042 3.64531405 2.50158423 5.47306804 2.3125 8.6875 C2.21388672 10.17830078 2.21388672 10.17830078 2.11328125 11.69921875 C2.05720703 12.83810547 2.05720703 12.83810547 2 14 C1.67 14 1.34 14 1 14 C0.67 9.38 0.34 4.76 0 0 Z " fill="#BEC0BC" transform="translate(389,268)"/>
<path d="M0 0 C2.97 0.33 5.94 0.66 9 1 C9 1.66 9 2.32 9 3 C6.03 3 3.06 3 0 3 C0 2.01 0 1.02 0 0 Z " fill="#D6D7D3" transform="translate(214,279)"/>
<path d="M0 0 C0.66 0 1.32 0 2 0 C1.67 3.3 1.34 6.6 1 10 C0.34 9.67 -0.32 9.34 -1 9 C-1.09765625 2.84765625 -1.09765625 2.84765625 -1 1 C-0.67 0.67 -0.34 0.34 0 0 Z " fill="#84DEF1" transform="translate(307,270)"/>
<path d="M0 0 C1.98 0.495 1.98 0.495 4 1 C3.67 2.32 3.34 3.64 3 5 C1.68 4.67 0.36 4.34 -1 4 C-0.67 2.68 -0.34 1.36 0 0 Z " fill="#141E24" transform="translate(326,270)"/>
<path d="M0 0 C0.33 0 0.66 0 1 0 C1.36923077 7.50769231 1.36923077 7.50769231 -0.5 10 C-0.995 10.33 -1.49 10.66 -2 11 C-3.11450049 7.65649854 -2.91669067 6.33342063 -2 3 C-1.34 2.01 -0.68 1.02 0 0 Z " fill="#C28E57" transform="translate(303,231)"/>
<path d="M0 0 C1.32 0.33 2.64 0.66 4 1 C4 1.99 4 2.98 4 4 C2.02 4 0.04 4 -2 4 C-1.34 2.68 -0.68 1.36 0 0 Z " fill="#161C21" transform="translate(419,270)"/>
<path d="M0 0 C1.32 0.33 2.64 0.66 4 1 C4 1.99 4 2.98 4 4 C2.02 4 0.04 4 -2 4 C-1.34 2.68 -0.68 1.36 0 0 Z " fill="#161C21" transform="translate(265,270)"/>
<path d="M0 0 C1.32 0.33 2.64 0.66 4 1 C4 1.99 4 2.98 4 4 C2.02 4 0.04 4 -2 4 C-1.34 2.68 -0.68 1.36 0 0 Z " fill="#161C21" transform="translate(234,232)"/>
<path d="M0 0 C1.32 0.33 2.64 0.66 4 1 C4 1.99 4 2.98 4 4 C2.02 4 0.04 4 -2 4 C-1.34 2.68 -0.68 1.36 0 0 Z " fill="#161C21" transform="translate(296,194)"/>
<path d="M0 0 C3 2 3 2 3.875 3.875 C4 6 4 6 2.5625 8.25 C2.046875 8.8275 1.53125 9.405 1 10 C-0.60725635 6.78548731 -0.05748185 3.56387464 0 0 Z " fill="#BE8B55" transform="translate(290,231)"/>
<path d="M0 0 C0.99 0.66 1.98 1.32 3 2 C2.34 2 1.68 2 1 2 C0.34 4.64 -0.32 7.28 -1 10 C-1.33 10 -1.66 10 -2 10 C-2.1953125 3.9453125 -2.1953125 3.9453125 -2 2 C-1.34 1.34 -0.68 0.68 0 0 Z " fill="#E7A864" transform="translate(293,227)"/>
<path d="M0 0 C1.98 0 3.96 0 6 0 C5.67 0.99 5.34 1.98 5 3 C3.35 3 1.7 3 0 3 C0 2.01 0 1.02 0 0 Z " fill="#131D23" transform="translate(325,282)"/>
<path d="M0 0 C1.65 0 3.3 0 5 0 C4.67 1.32 4.34 2.64 4 4 C2.68 3.67 1.36 3.34 0 3 C0 2.01 0 1.02 0 0 Z " fill="#DB6AAC" transform="translate(279,278)"/>
<path d="M0 0 C0.33 0 0.66 0 1 0 C1.33 1.65 1.66 3.3 2 5 C2.99 5.33 3.98 5.66 5 6 C3.68 6.99 2.36 7.98 1 9 C0 8 0 8 -0.09765625 6.15234375 C-0.06510417 4.1015625 -0.03255208 2.05078125 0 0 Z " fill="#D2D3CE" transform="translate(401,263)"/>
<path d="M0 0 C-1.45255699 3.82946843 -3.42895561 5.12050295 -7 7 C-3.86206897 0 -3.86206897 0 0 0 Z " fill="#566590" transform="translate(123,237)"/>
<path d="M0 0 C1.32 0.66 2.64 1.32 4 2 C4 3.65 4 5.3 4 7 C3.67 5.68 3.34 4.36 3 3 C2.34 3 1.68 3 1 3 C0.67 3.66 0.34 4.32 0 5 C-0.5625 3.0625 -0.5625 3.0625 -1 1 C-0.67 0.67 -0.34 0.34 0 0 Z " fill="#B3B5B2" transform="translate(238,231)"/>
<path d="M0 0 C0.66 0 1.32 0 2 0 C2.625 2.375 2.625 2.375 3 5 C2.34 5.66 1.68 6.32 1 7 C0.67 4.69 0.34 2.38 0 0 Z " fill="#D6D7D2" transform="translate(341,277)"/>
<path d="M0 0 C1.98 0.99 1.98 0.99 4 2 C4 4.31 4 6.62 4 9 C3.67 9 3.34 9 3 9 C3 7.02 3 5.04 3 3 C2.01 3 1.02 3 0 3 C0 2.01 0 1.02 0 0 Z " fill="#73C0D1" transform="translate(315,269)"/>
<path d="M0 0 C1.98 0.99 1.98 0.99 4 2 C4 4.31 4 6.62 4 9 C3.67 9 3.34 9 3 9 C3 7.02 3 5.04 3 3 C2.01 3 1.02 3 0 3 C0 2.01 0 1.02 0 0 Z " fill="#CBCCC8" transform="translate(238,269)"/>
<path d="M0 0 C1.98 0.99 1.98 0.99 4 2 C4 4.31 4 6.62 4 9 C3.67 9 3.34 9 3 9 C3 7.02 3 5.04 3 3 C2.01 3 1.02 3 0 3 C0 2.01 0 1.02 0 0 Z " fill="#CBCCC8" transform="translate(192,269)"/>
<path d="M0 0 C0 0.66 0 1.32 0 2 C-2.31 2.33 -4.62 2.66 -7 3 C-7 2.34 -7 1.68 -7 1 C-4.50935112 0.31292445 -2.62113708 0 0 0 Z " fill="#E0E1DC" transform="translate(241,241)"/>
<path d="M0 0 C0.99 0.33 1.98 0.66 3 1 C1.35 2.65 -0.3 4.3 -2 6 C-2.33 5.01 -2.66 4.02 -3 3 C-2.01 2.01 -1.02 1.02 0 0 Z " fill="#E0A361" transform="translate(298,232)"/>
<path d="M0 0 C0.66 0.33 1.32 0.66 2 1 C0.71034824 2.37562854 -0.62689293 3.70766393 -2 5 C-2.66 5 -3.32 5 -4 5 C-4 4.01 -4 3.02 -4 2 C-2.125 0.9375 -2.125 0.9375 0 0 Z " fill="#D69C5E" transform="translate(280,226)"/>
<path d="M0 0 C0.99 0.33 1.98 0.66 3 1 C3 2.65 3 4.3 3 6 C2.34 6 1.68 6 1 6 C0.67 4.02 0.34 2.04 0 0 Z " fill="#F3AF67" transform="translate(345,189)"/>
<path d="M0 0 C-0.33 0.99 -0.66 1.98 -1 3 C-2.65 3 -4.3 3 -6 3 C-6 2.34 -6 1.68 -6 1 C-3.92446352 0.4465236 -2.15634036 0 0 0 Z " fill="#E6E7E2" transform="translate(179,279)"/>
<path d="M0 0 C0.66 0.33 1.32 0.66 2 1 C1.67 2.65 1.34 4.3 1 6 C0.34 6 -0.32 6 -1 6 C-1.042721 4.33388095 -1.04063832 2.66617115 -1 1 C-0.67 0.67 -0.34 0.34 0 0 Z " fill="#7BCFE1" transform="translate(324,268)"/>
<path d="M0 0 C1.65 0 3.3 0 5 0 C3.515 2.475 3.515 2.475 2 5 C0 2 0 2 0 0 Z " fill="#D4D5D0" transform="translate(231,192)"/>
<path d="M0 0 C1.65 0 3.3 0 5 0 C4.67 0.99 4.34 1.98 4 3 C3.01 3.33 2.02 3.66 1 4 C0.67 2.68 0.34 1.36 0 0 Z " fill="#D2D3CF" transform="translate(309,192)"/>
<path d="M0 0 C1.98 0 3.96 0 6 0 C4.68 1.32 3.36 2.64 2 4 C1.34 2.68 0.68 1.36 0 0 Z " fill="#D3D4D0" transform="translate(204,230)"/>
<path d="M0 0 C0.99 0 1.98 0 3 0 C2.34 1.32 1.68 2.64 1 4 C0.34 4 -0.32 4 -1 4 C-0.67 2.68 -0.34 1.36 0 0 Z " fill="#D1D2CE" transform="translate(284,202)"/>
<path d="M0 0 C0.99 0 1.98 0 3 0 C2.67 0.99 2.34 1.98 2 3 C1.01 3.33 0.02 3.66 -1 4 C-0.67 2.68 -0.34 1.36 0 0 Z " fill="#DCDDD8" transform="translate(238,278)"/>
<path d="M0 0 C0.99 0 1.98 0 3 0 C2.67 0.99 2.34 1.98 2 3 C1.01 3.33 0.02 3.66 -1 4 C-0.67 2.68 -0.34 1.36 0 0 Z " fill="#DCDDD8" transform="translate(192,278)"/>
<path d="M0 0 C1.32 0 2.64 0 4 0 C4 0.99 4 1.98 4 3 C2.35 2.67 0.7 2.34 -1 2 C-0.67 1.34 -0.34 0.68 0 0 Z " fill="#D9DAD5" transform="translate(175,268)"/>
<path d="M0 0 C0.33 0 0.66 0 1 0 C1.33 2.64 1.66 5.28 2 8 C1.01 8 0.02 8 -1 8 C-0.67 5.36 -0.34 2.72 0 0 Z " fill="#BFC1BD" transform="translate(223,234)"/>
<path d="M0 0 C0.33 0.99 0.66 1.98 1 3 C1.66 3 2.32 3 3 3 C2.67 3.99 2.34 4.98 2 6 C1.01 5.34 0.02 4.68 -1 4 C-0.67 2.68 -0.34 1.36 0 0 Z " fill="#BC8A55" transform="translate(345,192)"/>
<path d="M0 0 C1.32 0.33 2.64 0.66 4 1 C3.01 1.495 3.01 1.495 2 2 C1.67 2.99 1.34 3.98 1 5 C0.67 3.35 0.34 1.7 0 0 Z " fill="#CCCEC9" transform="translate(422,269)"/>
<path d="M0 0 C1.32 0.33 2.64 0.66 4 1 C3.01 1.495 3.01 1.495 2 2 C1.67 2.99 1.34 3.98 1 5 C0.67 3.35 0.34 1.7 0 0 Z " fill="#CCCEC9" transform="translate(268,269)"/>
<path d="M0 0 C1.32 0.33 2.64 0.66 4 1 C3.01 1.495 3.01 1.495 2 2 C1.67 2.99 1.34 3.98 1 5 C0.67 3.35 0.34 1.7 0 0 Z " fill="#CCCEC9" transform="translate(299,193)"/>
<path d="M0 0 C-0.33 0.99 -0.66 1.98 -1 3 C-1.99 3.33 -2.98 3.66 -4 4 C-4 3.01 -4 2.02 -4 1 C-2 0 -2 0 0 0 Z " fill="#53618B" transform="translate(121,189)"/>
<path d="M0 0 C1.32 0.99 2.64 1.98 4 3 C2.68 3.33 1.36 3.66 0 4 C0 2.68 0 1.36 0 0 Z " fill="#72BECF" transform="translate(321,282)"/>
<path d="M0 0 C0.33 0.66 0.66 1.32 1 2 C1.66 2 2.32 2 3 2 C2.67 2.99 2.34 3.98 2 5 C1.34 4.67 0.68 4.34 0 4 C0 2.68 0 1.36 0 0 Z " fill="#F0F0EA" transform="translate(169,230)"/>
<path d="M0 0 C0.99 0 1.98 0 3 0 C3.33 0.99 3.66 1.98 4 3 C2.68 2.67 1.36 2.34 0 2 C0 1.34 0 0.68 0 0 Z " fill="#DB6AAC" transform="translate(191,193)"/>
<path d="M0 0 C0.66 1.32 1.32 2.64 2 4 C1.34 4.66 0.68 5.32 0 6 C-1.24546405 3.50907189 -0.7767578 2.58919267 0 0 Z " fill="#48557A" transform="translate(124,267)"/>
<path d="M0 0 C0.99 0.33 1.98 0.66 3 1 C2.01 1.99 1.02 2.98 0 4 C0 2.68 0 1.36 0 0 Z " fill="#BFC1BD" transform="translate(345,262)"/>
<path d="M0 0 C0.99 0.33 1.98 0.66 3 1 C1.02 1.99 1.02 1.99 -1 3 C-0.67 2.01 -0.34 1.02 0 0 Z " fill="#4F5D85" transform="translate(118,264)"/>
<path d="M0 0 C0.99 0.33 1.98 0.66 3 1 C2.67 1.66 2.34 2.32 2 3 C1.01 2.67 0.02 2.34 -1 2 C-0.67 1.34 -0.34 0.68 0 0 Z " fill="#53618B" transform="translate(124,227)"/>
<path d="M0 0 C0.99 0.33 1.98 0.66 3 1 C2.01 2.485 2.01 2.485 1 4 C0.67 2.68 0.34 1.36 0 0 Z " fill="#CBCCC8" transform="translate(447,262)"/>
<path d="M0 0 C0.99 0.33 1.98 0.66 3 1 C2.67 1.66 2.34 2.32 2 3 C1.34 3 0.68 3 0 3 C0 2.01 0 1.02 0 0 Z " fill="#C99359" transform="translate(338,189)"/>
<path d="M0 0 C0.99 0.33 1.98 0.66 3 1 C2.34 1.66 1.68 2.32 1 3 C0.67 2.01 0.34 1.02 0 0 Z " fill="#F4B168" transform="translate(299,227)"/>
<path d="M0 0 C0.66 0 1.32 0 2 0 C1.67 0.99 1.34 1.98 1 3 C0.34 2.34 -0.32 1.68 -1 1 C-0.67 0.67 -0.34 0.34 0 0 Z " fill="#F1AF67" transform="translate(344,197)"/>
</svg>
