<?xml version="1.0" encoding="UTF-8"?>
<svg version="1.1" xmlns="http://www.w3.org/2000/svg" width="512" height="512">
<path d="M0 0 C0.73172424 0.21816376 1.46344849 0.43632751 2.21734619 0.66110229 C12.91782645 3.92376068 23.40484268 7.82351758 33.91796875 11.63671875 C36.2578652 12.48108084 38.59795734 13.3249008 40.93823242 14.16821289 C45.7849448 15.91520684 50.63081884 17.66449667 55.47607422 19.41552734 C65.55123906 23.05485832 75.63560814 26.66846336 85.72033691 30.28118896 C89.00482221 31.45794403 92.28906017 32.63538709 95.57324219 33.81298828 C110.42856408 39.13891167 125.28888226 44.45076115 140.15148926 49.75631714 C147.12930237 52.247433 154.1066387 54.73988417 161.08401489 57.23222351 C167.07130404 59.37072018 173.05899487 61.50808196 179.04736328 63.64355469 C185.11962484 65.80903381 191.19087379 67.97733078 197.26147461 70.14746094 C199.537804 70.96065314 201.8144854 71.77286081 204.09155273 72.58398438 C210.10081267 74.72484788 216.10342396 76.88209232 222.09405518 79.07458496 C223.75408502 79.67898368 225.41649842 80.27689438 227.08172607 80.86682129 C229.19980475 81.61806383 231.30752307 82.39288073 233.4140625 83.17578125 C234.54384521 83.58521973 235.67362793 83.9946582 236.83764648 84.41650391 C240.35330791 86.39798685 241.7413635 88.50522837 243.66796875 92.01171875 C244.51605035 96.45246097 244.14909589 100.62847822 242.66796875 104.88671875 C237.18602344 110.71128564 227.89616763 112.84139512 220.53125 115.3828125 C219.37481491 115.7870192 218.21837982 116.19122589 217.02690125 116.60768127 C213.34649279 117.89323768 209.66364875 119.171627 205.98046875 120.44921875 C202.31555341 121.72438197 198.65119815 123.00111728 194.9875946 124.28004456 C192.71550729 125.07280362 190.44262254 125.86328256 188.16877747 126.65098572 C181.49826731 128.97361071 174.9112314 131.44796067 168.35466003 134.0763092 C165.66796875 135.01171875 165.66796875 135.01171875 162.66796875 135.01171875 C162.67165592 135.58855974 162.67534309 136.16540073 162.679142 136.75972176 C162.76754589 150.80674105 162.83370396 164.85371854 162.87521744 178.90095711 C162.89582759 185.69416429 162.92391822 192.48718558 162.96972656 199.28027344 C163.01390959 205.83547137 163.03710418 212.39054869 163.04747772 218.94588852 C163.05487079 221.44735632 163.06930757 223.9488135 163.09088898 226.45019913 C163.11990848 229.95287197 163.1239252 233.45474589 163.12207031 236.95751953 C163.13645142 237.99258133 163.15083252 239.02764313 163.16564941 240.09407043 C163.12387184 247.38069932 161.81563407 250.66567117 156.80859375 255.98828125 C146.45943794 265.01171875 146.45943794 265.01171875 140.66796875 265.01171875 C140.75046875 266.04296875 140.83296875 267.07421875 140.91796875 268.13671875 C140.61656288 272.8085098 139.72629662 274.4946417 136.66796875 278.01171875 C134.10098471 279.87327206 131.44675604 281.48743252 128.66796875 283.01171875 C129.32023437 283.32882812 129.9725 283.6459375 130.64453125 283.97265625 C137.57546516 287.67324338 141.64376936 291.69114753 144.66796875 299.01171875 C145.81157889 304.29015316 145.86198828 309.48821249 145.90625 314.86328125 C145.91432175 315.7997348 145.92239349 316.73618835 145.93070984 317.70101929 C145.94448948 319.67273131 145.95523876 321.64446657 145.96313477 323.61621094 C145.97471171 325.63353456 145.99525237 327.65082623 146.0246582 329.66796875 C146.06718646 332.58745058 146.08347705 335.5060288 146.09375 338.42578125 C146.11125809 339.32688629 146.12876617 340.22799133 146.14680481 341.15640259 C146.13399305 344.8403232 146.04871843 347.3168704 144.26074219 350.57983398 C140.19870866 352.82313216 136.32441217 352.56283356 131.7578125 352.5078125 C130.79396133 352.50926773 129.83011017 352.51072296 128.83705139 352.51222229 C126.80206271 352.51056403 124.7670614 352.499011 122.73217773 352.47827148 C119.61322957 352.44929086 116.49597828 352.45766927 113.37695312 352.47070312 C111.39973131 352.46446646 109.42251486 352.45607609 107.4453125 352.4453125 C106.51089828 352.44824814 105.57648407 352.45118378 104.61375427 352.45420837 C103.74597855 352.4415242 102.87820282 352.42884003 101.98413086 352.41577148 C101.22120224 352.4103685 100.45827362 352.40496552 99.67222595 352.3993988 C97.075069 351.89703516 96.2016181 351.15237351 94.66796875 349.01171875 C94.28701782 346.96517944 94.28701782 346.96517944 94.27978516 344.59130859 C94.27032867 343.69962982 94.26087219 342.80795105 94.25112915 341.88925171 C94.26023819 340.44553696 94.26023819 340.44553696 94.26953125 338.97265625 C94.26666107 337.97722809 94.26379089 336.98179993 94.26083374 335.95620728 C94.25879078 333.84628736 94.26433676 331.73634861 94.27685547 329.62646484 C94.29280418 326.41980703 94.27706701 323.21442924 94.2578125 320.0078125 C94.25979688 317.95442433 94.26364456 315.90103694 94.26953125 313.84765625 C94.26345856 312.89732513 94.25738586 311.94699402 94.25112915 310.96786499 C94.34050598 302.36151424 95.94253398 294.97897177 101.90625 288.51953125 C104.87960681 285.97470702 108.08466718 284.55624529 111.66796875 283.01171875 C107.731466 279.44262293 105.42373022 277.96280388 100.02246094 278.11328125 C96.30825766 278.59464931 92.63583777 279.29253225 88.96444702 280.02798462 C84.83968647 280.85198023 80.69644787 281.57191509 76.5546875 282.3046875 C75.72046768 282.45491867 74.88624786 282.60514984 74.02674866 282.75993347 C66.16574241 284.15490222 58.3013441 285.07695131 50.35546875 285.82421875 C49.20353027 285.93507813 48.0515918 286.0459375 46.86474609 286.16015625 C43.46748838 286.47101 40.06910254 286.74685943 36.66796875 287.01171875 C35.56799561 287.10598145 34.46802246 287.20024414 33.3347168 287.29736328 C18.95255396 288.3841668 4.52045379 288.25760694 -9.89453125 288.26171875 C-10.60420925 288.26216061 -11.31388725 288.26260246 -12.04507065 288.26305771 C-35.58030112 288.27072949 -58.93529932 287.75605404 -82.33203125 285.01171875 C-83.08194336 284.92450562 -83.83185547 284.83729248 -84.60449219 284.74743652 C-164.45386653 275.3486756 -164.45386653 275.3486756 -185.33203125 252.01171875 C-187.15556654 248.98019172 -187.58036122 246.76020524 -187.57254028 243.24078369 C-187.57528961 242.28448563 -187.57803894 241.32818756 -187.58087158 240.34291077 C-187.57008575 238.77953224 -187.57008575 238.77953224 -187.55908203 237.18457031 C-187.55937408 236.08183273 -187.55966614 234.97909515 -187.55996704 233.84294128 C-187.55857309 230.19599555 -187.54300854 226.54925382 -187.52734375 222.90234375 C-187.52361386 220.37457389 -187.52076677 217.84680258 -187.51876831 215.31903076 C-187.51191081 209.34444937 -187.49614594 203.36995562 -187.47606933 197.39540935 C-187.45370606 190.5925543 -187.44271583 183.78969573 -187.43267846 176.98681307 C-187.41177956 162.9950744 -187.37660626 149.00340059 -187.33203125 135.01171875 C-188.42004076 134.72177316 -188.42004076 134.72177316 -189.53003025 134.42597008 C-194.49404835 133.09019608 -199.4135004 131.74214113 -204.25561523 130.00634766 C-205.27715195 129.64231842 -206.29868866 129.27828918 -207.35118103 128.90322876 C-208.41607254 128.51879608 -209.48096405 128.1343634 -210.578125 127.73828125 C-212.27667381 127.12984879 -212.27667381 127.12984879 -214.00953674 126.50912476 C-216.38932563 125.65556265 -218.76838055 124.79995166 -221.14672852 123.94238281 C-224.75407427 122.64228947 -228.36413252 121.34996268 -231.97460938 120.05859375 C-234.30094716 119.22311806 -236.62712441 118.38719523 -238.953125 117.55078125 C-240.01599228 117.17039703 -241.07885956 116.79001282 -242.17393494 116.39810181 C-247.42972532 114.49860275 -252.66081384 112.53853024 -257.85571289 110.47802734 C-258.81135635 110.10132904 -259.76699982 109.72463074 -260.75160217 109.33651733 C-264.19452296 107.5689134 -266.59189745 105.49198635 -268.33203125 102.01171875 C-268.5703125 99.83984375 -268.5703125 99.83984375 -268.64453125 97.26171875 C-268.68191406 96.42125 -268.71929687 95.58078125 -268.7578125 94.71484375 C-268.16311553 90.93933641 -266.7257172 88.98926562 -264.33203125 86.01171875 C-261.78658881 84.6618003 -259.58665144 83.70151209 -256.89453125 82.78125 C-255.72966187 82.35583672 -255.72966187 82.35583672 -254.54125977 81.92182922 C-251.81168328 80.93163771 -249.0721516 79.9723245 -246.33203125 79.01171875 C-244.17264575 78.237646 -242.01381927 77.46201252 -239.85546875 76.68505859 C-233.02856914 74.23603259 -226.18984063 71.82118882 -219.34931183 69.41060638 C-213.80149976 67.45418795 -208.25642579 65.4900085 -202.71104813 63.52670288 C-201.30633234 63.0293816 -199.90158528 62.53214865 -198.4968071 62.03500366 C-185.30040988 57.36445229 -172.12399218 52.63964439 -158.95703125 47.88671875 C-139.16257057 40.74394914 -119.35140938 33.64907318 -99.52978516 26.58203125 C-87.44266276 22.27156174 -75.36116076 17.94609921 -63.2890625 13.59375 C-60.83897256 12.71144052 -58.38885898 11.8291967 -55.9387207 10.94702148 C-52.41870895 9.67962802 -48.8991677 8.41101331 -45.38119507 7.13796997 C-42.16811018 5.97528452 -38.95337182 4.81728173 -35.73828125 3.66015625 C-34.79817703 3.31841873 -33.85807281 2.97668121 -32.88948059 2.62458801 C-21.30901694 -1.53092322 -12.04029548 -3.62061326 0 0 Z " fill="#8D9CA8" transform="translate(268.33203125,80.98828125)"/>
<path d="M0 0 C1.56446893 0.46382069 3.12849343 0.92914057 4.69233704 1.39506531 C5.5633521 1.65402431 6.43436716 1.9129833 7.33177662 2.17978954 C11.63382791 3.50223784 15.86698828 5.00774765 20.10546875 6.51953125 C21.05077454 6.85456665 21.99608032 7.18960205 22.97003174 7.53479004 C26.0434094 8.62487662 29.11549242 9.71855891 32.1875 10.8125 C34.34183463 11.57784091 36.49621344 12.34305746 38.65063477 13.1081543 C64.65753366 22.34972196 90.63594543 31.66784495 116.56408691 41.12811279 C126.18035903 44.63500277 135.81295105 48.08968547 145.49975586 51.39794922 C149.3755376 52.7226689 153.22568279 54.06184194 157.0234375 55.59765625 C167.88020103 59.89961884 176.98801385 60.50735193 188.1875 56.90625 C188.87085419 56.68687775 189.55420837 56.46750549 190.25827026 56.2414856 C199.27975521 53.31073187 208.20106361 50.08756836 217.125 46.875 C218.98341852 46.20873198 220.84189917 45.54263725 222.70043945 44.87670898 C233.54683374 40.98555686 244.37422669 37.04464853 255.1875 33.0625 C264.08821827 29.7880084 272.99463252 26.53287142 281.9375 23.375 C282.86135498 23.0437915 283.78520996 22.71258301 284.73706055 22.37133789 C289.50234505 20.70453873 293.95295591 19.38978503 299 19 C301.14439656 21.14439656 300.21098827 26.05622695 300.24047852 29.03027344 C300.25347488 29.97823792 300.26647125 30.92620239 300.27986145 31.90289307 C300.40663742 41.82506524 300.46333388 51.74809825 300.51489258 61.67089844 C300.54166012 66.38361357 300.59041705 71.0953204 300.65844727 75.80761719 C300.74026572 81.48878499 300.78305676 87.16899065 300.79795647 92.85071564 C300.81022811 95.01817161 300.83631554 97.18559461 300.87640572 99.35271454 C300.9297286 102.38700798 300.93288893 105.4174875 300.92407227 108.45214844 C300.96485901 109.79738586 300.96485901 109.79738586 301.00646973 111.1697998 C300.96869407 113.68974665 300.86027548 115.62876282 300 118 C298.0987251 119.75250165 296.27236816 120.86564286 293.96165371 122.01608658 C291.00911991 123.49699915 289.60002788 125.13328339 288 128 C287.36466675 133.71799925 287.98503189 136.97505315 291 142 C233.94776601 159.35950866 163.61629655 156.87543764 105 150 C104.25008789 149.91278687 103.50017578 149.82557373 102.72753906 149.73571777 C22.87816472 140.33695685 22.87816472 140.33695685 2 117 C0.17646471 113.96847297 -0.24832997 111.74848649 -0.24050903 108.22906494 C-0.24325836 107.27276688 -0.24600769 106.31646881 -0.24884033 105.33119202 C-0.24164978 104.28893967 -0.23445923 103.24668732 -0.22705078 102.17285156 C-0.22734283 101.07011398 -0.22763489 99.9673764 -0.22793579 98.83122253 C-0.22654184 95.1842768 -0.21097729 91.53753507 -0.1953125 87.890625 C-0.19158261 85.36285514 -0.18873552 82.83508383 -0.18673706 80.30731201 C-0.17987956 74.33273062 -0.16411469 68.35823687 -0.14403808 62.3836906 C-0.12167481 55.58083555 -0.11068458 48.77797698 -0.10064721 41.97509432 C-0.07974831 27.98335565 -0.04457501 13.99168184 0 0 Z " fill="#596C76" transform="translate(81,216)"/>
<path d="M0 0 C7.36799508 1.89975447 14.51356017 4.13805191 21.65234375 6.765625 C22.63255997 7.12211121 23.61277618 7.47859741 24.62269592 7.84588623 C27.72915862 8.97645087 30.83341986 10.11291214 33.9375 11.25 C38.00842591 12.73626744 42.08026356 14.22002337 46.15234375 15.703125 C47.14953934 16.06682693 48.14673492 16.43052887 49.17414856 16.80525208 C56.52614204 19.48082158 63.90324167 22.07817509 71.29272461 24.64805603 C77.38051969 26.76992908 83.41843954 29.00265191 89.4375 31.3125 C99.62159432 35.1784358 109.89294559 38.7478426 120.20288086 42.26220703 C128.02180594 44.93938702 135.77642219 47.74716346 143.5 50.6875 C151.75084817 53.828537 160.04574609 56.73656658 168.43530273 59.48388672 C174.02079895 61.31982331 179.55224569 63.26226953 185.0625 65.3125 C185.81426514 65.58860107 186.56603027 65.86470215 187.34057617 66.14916992 C192.18780619 67.93404712 197.00552818 69.78330757 201.81640625 71.6640625 C204.2523178 72.58929594 206.68851531 73.51377689 209.125 74.4375 C210.24398682 74.88714111 211.36297363 75.33678223 212.51586914 75.80004883 C232.03530111 83.09630521 246.97045933 77.29860287 265.625 70.1875 C267.98539549 69.31246916 270.34689683 68.44041582 272.70947266 67.57128906 C278.45121208 65.45422396 284.18288468 63.31148748 289.91137695 61.15887451 C296.40949825 58.72073071 302.91855143 56.31390684 309.44549561 53.95401001 C311.31992507 53.27009495 313.1867317 52.56539967 315.05322266 51.86010742 C316.15714355 51.45767822 317.26106445 51.05524902 318.3984375 50.640625 C319.32317871 50.29547852 320.24791992 49.95033203 321.20068359 49.59472656 C328.2410473 48.09897164 334.48953803 51.16497658 340.87109375 53.81640625 C342.25458763 54.38028297 342.25458763 54.38028297 343.66603088 54.95555115 C346.59294752 56.15046586 349.5152214 57.35629312 352.4375 58.5625 C354.42873933 59.37767929 356.4202729 60.19214026 358.41210938 61.00585938 C363.27817661 62.99560306 368.14048529 64.99431029 373 67 C370.03336855 69.44172915 367.31577269 70.78183249 363.69140625 72.03125 C362.0213855 72.61471191 362.0213855 72.61471191 360.31762695 73.20996094 C359.07843506 73.63567383 357.83924316 74.06138672 356.5625 74.5 C353.77487186 75.47061619 350.9891346 76.44662435 348.203125 77.421875 C347.43188797 77.6910675 346.66065094 77.96026001 345.86604309 78.23760986 C334.15443193 82.33202432 322.48769089 86.55317486 310.8125 90.75 C286.02544349 99.65939451 286.02544349 99.65939451 273.82421875 103.953125 C273.02820755 104.23468445 272.23219635 104.5162439 271.4120636 104.80633545 C256.6146347 109.99177206 245.36400482 110.31575949 230.625 104.5625 C229.31543538 104.07199515 228.00484314 103.58422717 226.69335938 103.09887695 C224.5353551 102.29958981 222.37828536 101.49825283 220.22406006 100.68882751 C211.06359786 97.24901538 201.82681444 94.02568049 192.59683228 90.77828979 C187.3966372 88.94663757 182.20016947 87.10449051 177.00390625 85.26171875 C175.98090927 84.8989534 174.95791229 84.53618805 173.90391541 84.16242981 C164.40850617 80.79333914 154.92027781 77.40447046 145.4375 74 C144.6656839 73.72300262 143.8938678 73.44600525 143.09866333 73.16061401 C133.4533208 69.69745321 123.81745485 66.20883969 114.1875 62.703125 C96.13662835 56.13631592 78.10266707 49.59047513 59.84594727 43.61547852 C49.79331492 40.3093328 39.82909279 36.77808755 29.875 33.1875 C29.11410065 32.9140979 28.35320129 32.6406958 27.56924438 32.35900879 C20.41104074 29.78371055 13.26746773 27.16753524 6.1953125 24.36328125 C5.28023926 24.00145752 4.36516602 23.63963379 3.42236328 23.2668457 C0.067947 21.51255563 -2.29949265 19.40101471 -4 16 C-4.53804631 11.09584021 -4.84938792 6.58363657 -2 2.375 C-1.34 1.59125 -0.68 0.8075 0 0 Z " fill="#798B97" transform="translate(4,167)"/>
<path d="M0 0 C0.8146875 0.27650391 1.629375 0.55300781 2.46875 0.83789062 C3.66757812 1.22364258 3.66757812 1.22364258 4.890625 1.6171875 C10.269594 3.41754966 15.69691114 5.25455802 19.07421875 10.09179688 C20.60334821 14.97574371 20.38846952 20.22494702 18.71875 25.02539062 C13.23680469 30.84995752 3.94694888 32.980067 -3.41796875 35.52148438 C-4.57440384 35.92569107 -5.73083893 36.32989777 -6.9223175 36.74635315 C-10.60272596 38.03190956 -14.28557 39.31029887 -17.96875 40.58789062 C-21.63366534 41.86305384 -25.2980206 43.13978916 -28.96162415 44.41871643 C-31.23371146 45.2114755 -33.50659621 46.00195443 -35.78044128 46.78965759 C-42.45095144 49.11228258 -49.03798735 51.58663255 -55.59455872 54.21498108 C-58.28125 55.15039062 -58.28125 55.15039062 -61.28125 55.15039062 C-61.27756283 55.72723162 -61.27387566 56.30407261 -61.27007675 56.89839363 C-61.18167286 70.94541292 -61.11551479 84.99239042 -61.07400131 99.03962898 C-61.05339116 105.83283617 -61.02530053 112.62585746 -60.97949219 119.41894531 C-60.93530916 125.97414325 -60.91211457 132.52922056 -60.90174103 139.08456039 C-60.89434796 141.58602819 -60.87991118 144.08748538 -60.85832977 146.588871 C-60.82931027 150.09154385 -60.82529355 153.59341777 -60.82714844 157.09619141 C-60.81276733 158.1312532 -60.79838623 159.166315 -60.78356934 160.23274231 C-60.82534691 167.5193712 -62.13358468 170.80434304 -67.140625 176.12695312 C-77.48978081 185.15039062 -77.48978081 185.15039062 -84.28125 185.15039062 C-84.7453125 183.85101563 -84.7453125 183.85101563 -85.21875 182.52539062 C-87.39981765 178.95637083 -88.31443483 178.45648256 -91.84353638 176.59294128 C-96.00967 173.88411746 -96.00967 173.88411746 -97.11077499 170.90926552 C-97.40823594 168.1359448 -97.42650415 165.48293346 -97.34716797 162.69458008 C-97.3534169 161.65489075 -97.35966583 160.61520142 -97.36610413 159.54400635 C-97.37680231 156.11579786 -97.32481754 152.69146301 -97.2734375 149.26367188 C-97.27147285 146.88046736 -97.27390472 144.49725551 -97.2805481 142.11405945 C-97.28817649 135.84617119 -97.24468414 129.57973123 -97.18792725 123.31213379 C-97.10528494 113.26989894 -97.09862359 103.22738445 -97.09488297 93.18486595 C-97.08602412 89.6730117 -97.05456354 86.16190465 -97.01974487 82.65022278 C-97.00991294 80.50615654 -97.00053926 78.36208814 -96.99169922 76.21801758 C-96.97612473 75.23770065 -96.96055023 74.25738373 -96.94450378 73.24736023 C-96.94403549 72.35159271 -96.9435672 71.4558252 -96.94308472 70.53291321 C-96.93600431 69.7544167 -96.92892391 68.9759202 -96.92162895 68.17383289 C-97.38070464 65.59079955 -98.24688054 64.75944531 -100.28125 63.15039062 C-102.28113171 62.220652 -104.32223671 61.37790639 -106.3828125 60.59179688 C-108.20232422 59.88893555 -108.20232422 59.88893555 -110.05859375 59.171875 C-111.34099102 58.68513878 -112.62354421 58.1988132 -113.90625 57.71289062 C-121.78462397 54.69997503 -129.6125023 51.66869895 -137.28125 48.15039062 C-136.28125 45.15039062 -136.28125 45.15039062 -134.28198242 44.09472656 C-132.9725769 43.6195459 -132.9725769 43.6195459 -131.63671875 43.13476562 C-130.66130127 42.77479492 -129.68588379 42.41482422 -128.6809082 42.04394531 C-127.620896 41.66657227 -126.56088379 41.28919922 -125.46875 40.90039062 C-124.37071045 40.49981445 -123.2726709 40.09923828 -122.14135742 39.68652344 C-118.85938412 38.49411676 -115.57179816 37.31890038 -112.28125 36.15039062 C-111.45657227 35.85648438 -110.63189453 35.56257813 -109.78222656 35.25976562 C-104.99762309 33.56005451 -100.20128405 31.89495008 -95.40332031 30.23339844 C-73.41304625 22.60524269 -51.48268816 14.81452251 -29.59375 6.90039062 C-28.54190521 6.52045959 -27.49006042 6.14052856 -26.40634155 5.74908447 C-23.4226782 4.67085059 -20.43970982 3.5907203 -17.45703125 2.50976562 C-16.55671173 2.1843277 -15.65639221 1.85888977 -14.72879028 1.52359009 C-13.90603607 1.2247995 -13.08328186 0.92600891 -12.2355957 0.61816406 C-11.51668655 0.35759216 -10.7977774 0.09702026 -10.05708313 -0.17144775 C-5.73824902 -1.82073985 -4.46218908 -1.46646446 0 0 Z " fill="#798C98" transform="translate(492.28125,160.849609375)"/>
<path d="M0 0 C3.7433257 2.59697643 5.63996386 5.15426658 7.06640625 9.43359375 C7.4470397 13.46830834 7.33173271 15.88083028 5.56640625 19.55859375 C2.48906532 23.09753582 -0.8526243 25.19500371 -4.93359375 27.43359375 C-4.28132813 27.75070312 -3.6290625 28.0678125 -2.95703125 28.39453125 C3.97390266 32.09511838 8.04220686 36.11302253 11.06640625 43.43359375 C12.21001639 48.71202816 12.26042578 53.91008749 12.3046875 59.28515625 C12.31275925 60.2216098 12.32083099 61.15806335 12.32914734 62.12289429 C12.34292698 64.09460631 12.35367626 66.06634157 12.36157227 68.03808594 C12.37314921 70.05540956 12.39368987 72.07270123 12.4230957 74.08984375 C12.46562396 77.00932558 12.48191455 79.9279038 12.4921875 82.84765625 C12.50969559 83.74876129 12.52720367 84.64986633 12.54524231 85.57827759 C12.53243055 89.2621982 12.44715593 91.7387454 10.65917969 95.00170898 C6.59714616 97.24500716 2.72284967 96.98470856 -1.84375 96.9296875 C-2.80760117 96.93114273 -3.77145233 96.93259796 -4.76451111 96.93409729 C-6.79949979 96.93243903 -8.8345011 96.920886 -10.86938477 96.90014648 C-13.98833293 96.87116586 -17.10558422 96.87954427 -20.22460938 96.89257812 C-22.20183119 96.88634146 -24.17904764 96.87795109 -26.15625 96.8671875 C-27.09066422 96.87012314 -28.02507843 96.87305878 -28.98780823 96.87608337 C-29.85558395 96.8633992 -30.72335968 96.85071503 -31.61743164 96.83764648 C-32.38036026 96.8322435 -33.14328888 96.82684052 -33.92933655 96.8212738 C-36.5264935 96.31891016 -37.3999444 95.57424851 -38.93359375 93.43359375 C-39.31454468 91.38705444 -39.31454468 91.38705444 -39.32177734 89.01318359 C-39.33123383 88.12150482 -39.34069031 87.22982605 -39.35043335 86.31112671 C-39.34436066 85.34865021 -39.33828796 84.38617371 -39.33203125 83.39453125 C-39.33490143 82.39910309 -39.33777161 81.40367493 -39.34072876 80.37808228 C-39.34277172 78.26816236 -39.33722574 76.15822361 -39.32470703 74.04833984 C-39.30875832 70.84168203 -39.32449549 67.63630424 -39.34375 64.4296875 C-39.34176562 62.37629933 -39.33791794 60.32291194 -39.33203125 58.26953125 C-39.33810394 57.31920013 -39.34417664 56.36886902 -39.35043335 55.38973999 C-39.26105652 46.78338924 -37.65902852 39.40084677 -31.6953125 32.94140625 C-28.72195569 30.39658202 -25.51689532 28.97812029 -21.93359375 27.43359375 C-22.4646875 27.15386719 -22.99578125 26.87414062 -23.54296875 26.5859375 C-28.88267715 23.55555554 -31.60068263 21.16866692 -33.93359375 15.43359375 C-34.6913443 11.09374971 -34.89163824 9.00591382 -32.60546875 5.25390625 C-24.06534773 -5.24813446 -11.5651156 -6.55294672 0 0 Z " fill="#FFD867" transform="translate(401.93359375,336.56640625)"/>
<path d="M0 0 C0.09351302 14.6296799 0.16401323 29.25932014 0.20724869 43.88923836 C0.22785884 50.68244554 0.25594947 57.47546683 0.30175781 64.26855469 C0.34594084 70.82375262 0.36913543 77.37882994 0.37950897 83.93416977 C0.38690204 86.43563757 0.40133882 88.93709475 0.42292023 91.43848038 C0.45193973 94.94115322 0.45595645 98.44302714 0.45410156 101.94580078 C0.46848267 102.98086258 0.48286377 104.01592438 0.49768066 105.08235168 C0.45590309 112.36898057 -0.85233468 115.65395242 -5.859375 120.9765625 C-16.20853081 130 -16.20853081 130 -23 130 C-23.309375 129.13375 -23.61875 128.2675 -23.9375 127.375 C-26.11864605 123.80585192 -27.03570713 123.30428456 -30.56504822 121.43978882 C-34.73087467 118.73122293 -34.73087467 118.73122293 -35.82211494 115.76628494 C-36.10824307 113.00373383 -36.11436989 110.36441963 -36.02172852 107.58837891 C-36.02304276 106.55362427 -36.02435699 105.51886963 -36.02571106 104.45275879 C-36.01945475 101.04228093 -35.94952854 97.63626397 -35.87890625 94.2265625 C-35.86211497 91.85861631 -35.84930626 89.4906388 -35.84031677 87.12265015 C-35.80599442 80.89769784 -35.71762168 74.67464323 -35.61798096 68.45043945 C-35.52582335 62.09612704 -35.48478948 55.74150718 -35.43945312 49.38671875 C-35.34300309 36.92364652 -35.18944854 24.46198121 -35 12 C-30.7826782 10.45117573 -26.56514387 8.90293201 -22.34741211 7.35522461 C-20.91278327 6.82869134 -19.4782125 6.30199981 -18.04370117 5.77514648 C-15.98110986 5.01764929 -13.91830999 4.26072252 -11.85546875 3.50390625 C-11.21473923 3.26845596 -10.5740097 3.03300568 -9.91386414 2.79042053 C-2.30388742 0 -2.30388742 0 0 0 Z " fill="#465A61" transform="translate(431,216)"/>
<path d="M0 0 C3.88254363 1.15785092 7.58919824 2.70954107 11.33203125 4.25390625 C13.17876067 4.99752972 15.02549866 5.74113202 16.87240696 6.4843111 C18.98973573 7.33870155 21.10465092 8.19887372 23.21929932 9.05987549 C28.54867628 11.22686237 33.89009139 13.36347631 39.23193359 15.49951172 C50.94792757 20.18647611 62.65625276 24.89237593 74.36352539 29.60107422 C78.83176766 31.39756031 83.30082974 33.19200231 87.7698698 34.98650265 C92.10528908 36.72774822 96.44009623 38.47051349 100.77472878 40.21371651 C102.82969421 41.03988345 104.88486481 41.86554029 106.9402523 42.69065666 C109.80024149 43.83898937 112.65937639 44.98942448 115.51831055 46.14038086 C116.34898544 46.47339706 117.17966034 46.80641327 118.0355072 47.14952087 C120.36219415 48.08764067 122.68267196 49.03900873 125 50 C125.81927286 50.33765444 126.63854572 50.67530888 127.48264503 51.02319527 C128.28205702 51.36327047 129.081469 51.70334568 129.90510559 52.0537262 C130.62005597 52.35534448 131.33500635 52.65696276 132.07162189 52.96772099 C134.20336491 54.10886316 135.52780241 55.07662721 137 57 C137.36914349 59.04020214 137.36914349 59.04020214 137.36076355 61.42289734 C137.36694954 62.77955505 137.36694954 62.77955505 137.3732605 64.16362 C137.36247467 65.15336319 137.35168884 66.14310638 137.34057617 67.1628418 C137.34101425 68.20691193 137.34145233 69.25098206 137.34190369 70.32669067 C137.33981043 73.78438898 137.31645355 77.24160494 137.29296875 80.69921875 C137.28737472 83.09389481 137.28310371 85.48857429 137.28010559 87.883255 C137.26864169 94.19130911 137.23916101 100.49915655 137.20599365 106.80712891 C137.17532618 113.24183354 137.16160735 119.6765715 137.14648438 126.11132812 C137.11429296 138.7409763 137.0630778 151.37047098 137 164 C132.05 164 127.1 164 122 164 C121.67 131.66 121.34 99.32 121 66 C91.22093612 54.08828033 91.22093612 54.08828033 61.4375 42.1875 C58.15853863 40.87316813 54.8797812 39.55836501 51.6015625 38.2421875 C44.90754067 35.55579191 38.20474982 32.89251965 31.49565125 30.2440033 C27.1579345 28.52898237 22.82450427 26.80329943 18.49172974 25.07583618 C16.38783032 24.23980592 14.28211403 23.40833217 12.17453003 22.58163452 C9.23257092 21.42697335 6.29744277 20.2563397 3.36328125 19.08203125 C2.48807831 18.74305817 1.61287537 18.40408508 0.71115112 18.05484009 C-4.12632722 16.09737951 -7.71532435 14.23954757 -11 10 C-11 6.45638757 -10.65850044 4.13408409 -8.875 1.0625 C-5.9509035 -0.59448802 -3.23885165 -0.43602106 0 0 Z " fill="#B5C3CE" transform="translate(259,170)"/>
<path d="M0 0 C3.47514085 0.65061319 6.82919419 1.48550689 10.21875 2.48828125 C28.60564267 7.84441808 46.72548703 11.5033834 65.6875 14.125 C66.81889404 14.28379639 67.95028809 14.44259277 69.1159668 14.60620117 C92.24092488 17.65457128 115.31130331 18.352325 138.60009766 18.31567383 C141.76560775 18.31106669 144.93073128 18.31789603 148.09619141 18.33618164 C191.30086338 18.58308089 235.4473379 15.81183607 277.07421875 3.48046875 C279 3 279 3 282 3 C281.835 3.495 281.67 3.99 281.5 4.5 C280.20954586 10.95227069 280.6048931 15.34148851 284 21 C226.94776601 38.35950866 156.61629655 35.87543764 98 29 C97.25008789 28.91278687 96.50017578 28.82557373 95.72753906 28.73571777 C18.12738801 19.60170422 18.12738801 19.60170422 0 0 Z " fill="#465A61" transform="translate(88,337)"/>
<path d="M0 0 C0.13928031 11.83972147 0.24576349 23.67924667 0.31087303 35.51962185 C0.3421293 41.01817793 0.38449837 46.51617176 0.45263672 52.0144043 C0.51803196 57.3247788 0.55374893 62.63461396 0.56926346 67.94536018 C0.5803136 69.96712797 0.60189232 71.98886764 0.63438034 74.01040459 C0.92932859 93.13107328 0.92932859 93.13107328 -4.31747437 99.47669983 C-9.31357995 104 -9.31357995 104 -12 104 C-12 71 -12 38 -12 4 C-2 0 -2 0 0 0 Z " fill="#596C76" transform="translate(408,224)"/>
<path d="M0 0 C3.17403511 2.52480065 5.37956176 4.4731463 6.25390625 8.51953125 C6.36407443 13.1833174 6.15777211 16.3923051 3.1875 20.125 C-0.03096948 23.32832374 -2.88244595 24.93962741 -7.25 26.1875 C-11.65663016 26.01123479 -14.78803874 24.92062731 -18.25 22.1875 C-21.26377742 18.03337437 -23.10584094 14.57149622 -22.8359375 9.24609375 C-21.37738792 4.12172291 -17.14365836 0.37103647 -12.75 -2.375 C-7.85350815 -3.23188607 -4.31341319 -2.40555736 0 0 Z " fill="#FDEEAC" transform="translate(390.25,336.8125)"/>
<path d="M0 0 C8.52899955 -0.65945873 14.86185714 0.04782905 22 5 C25.52165979 8.60755393 26.83675859 11.26964105 27.3125 16.3125 C26.93269558 20.79419215 25.93471202 22.61379382 23 26 C17.58419315 29.94562263 12.83660647 31.14091198 6.25 31.0625 C5.26515625 31.05347656 4.2803125 31.04445313 3.265625 31.03515625 C2.51796875 31.02355469 1.7703125 31.01195312 1 31 C1 30.34 1 29.68 1 29 C1.53109375 28.76925781 2.0621875 28.53851563 2.609375 28.30078125 C7.11246172 26.22180143 10.62589639 24.55036525 13 20 C13.74521289 15.29584362 13.70915799 11.41831597 11.5625 7.125 C8.04872379 4.2111368 4.23955261 2.62153829 0 1 C0 0.67 0 0.34 0 0 Z " fill="#FDE078" transform="translate(382,333)"/>
</svg>
