<?xml version="1.0" encoding="UTF-8"?>
<svg version="1.1" xmlns="http://www.w3.org/2000/svg" width="512" height="512">
<path d="M0 0 C14.35546434 11.70990834 26.06794902 27.89121936 28.30664062 46.72021484 C29.84143744 69.56310746 26.45261326 88.53621473 11.26367188 106.51318359 C10.61785156 107.24150391 9.97203125 107.96982422 9.30664062 108.72021484 C8.75363281 109.35572266 8.200625 109.99123047 7.63085938 110.64599609 C-2.50142339 121.55210475 -17.23489013 128.07773087 -31.69335938 130.72021484 C-33.01335937 130.72021484 -34.33335938 130.72021484 -35.69335938 130.72021484 C-35.60102199 138.60413733 -35.49370681 146.48775397 -35.37597656 154.37133789 C-35.33661402 157.05326625 -35.30201702 159.73519326 -35.27148438 162.41723633 C-35.22581984 166.27232166 -35.16782639 170.12705453 -35.10742188 173.98193359 C-35.09587067 175.18105881 -35.08431946 176.38018402 -35.07241821 177.61564636 C-35.05254852 178.73643082 -35.03267883 179.85721527 -35.01220703 181.01196289 C-34.99888336 181.99569382 -34.98555969 182.97942474 -34.97183228 183.9929657 C-34.67248092 186.92468988 -34.00931811 189.08889346 -32.69335938 191.72021484 C-28.59726635 194.19762918 -24.04669725 194.14507166 -19.38085938 194.34521484 C-18.27000977 194.40322266 -18.27000977 194.40322266 -17.13671875 194.46240234 C-15.32264629 194.55603189 -13.50803822 194.63918336 -11.69335938 194.72021484 C-11.75523438 193.58583984 -11.81710938 192.45146484 -11.88085938 191.28271484 C-11.7742055 157.20680313 6.53848856 123.89787796 29.81054688 100.15380859 C57.22499828 72.92085977 93.09340731 58.50059401 131.68164062 58.47021484 C132.83030106 58.46920273 132.83030106 58.46920273 134.00216675 58.46817017 C145.06850149 58.48369463 155.55593963 58.86025272 166.30664062 61.72021484 C166.98855469 61.89182129 167.67046875 62.06342773 168.37304688 62.24023438 C189.61722276 67.63320915 208.709296 77.32455879 225.30664062 91.72021484 C226.14710938 92.43951172 226.98757813 93.15880859 227.85351562 93.89990234 C233.4601866 98.80998692 238.49343206 104.03309969 243.30664062 109.72021484 C244.27931885 108.86806396 245.25199707 108.01591309 246.25415039 107.13793945 C248.95623316 104.79891889 251.73227266 102.7031086 254.65405273 100.64819336 C261.56582742 95.34972116 267.17594922 89.98539354 268.54957008 81.03682518 C269.5295345 72.06894202 269.23892428 63.0298018 268.9375 54.03070068 C268.80227811 49.33669004 268.79672526 44.64082183 268.76854706 39.9451828 C268.71197192 32.86402697 268.49465168 25.80454885 268.30664062 18.72021484 C278.86664063 18.72021484 289.42664063 18.72021484 300.30664062 18.72021484 C300.30664062 13.44021484 300.30664062 8.16021484 300.30664062 2.72021484 C310.86664063 2.72021484 321.42664063 2.72021484 332.30664062 2.72021484 C332.30664062 -2.55978516 332.30664062 -7.83978516 332.30664062 -13.27978516 C348.14664062 -13.27978516 363.98664063 -13.27978516 380.30664062 -13.27978516 C380.30664062 23.68021484 380.30664062 60.64021484 380.30664062 98.72021484 C331.86914062 97.65771484 331.86914062 97.65771484 316.73852539 97.1262207 C290.14297347 96.17134932 290.14297347 96.17134932 267.84593201 108.80921936 C263.14905076 113.74808869 259.03250261 119.01235983 255.30664062 124.72021484 C256.69323957 128.27517812 258.26160596 131.64669885 260.02246094 135.03393555 C269.82055738 153.97090806 275.60782613 173.30155069 276.30664062 194.72021484 C276.96148437 194.69926758 277.61632812 194.67832031 278.29101562 194.65673828 C281.29606391 194.57291102 284.30086526 194.52134589 287.30664062 194.47021484 C288.33660156 194.43669922 289.3665625 194.40318359 290.42773438 194.36865234 C298.26801315 194.26877618 303.5985679 195.47080617 309.54882812 200.68505859 C310.08765625 201.33603516 310.62648438 201.98701172 311.18164062 202.65771484 C311.7359375 203.30611328 312.29023438 203.95451172 312.86132812 204.62255859 C315.656822 208.6798024 316.55682847 212.25026152 316.54714966 217.14289856 C316.55127365 218.75610489 316.55127365 218.75610489 316.55548096 220.40190125 C316.54829041 221.57146866 316.54109985 222.74103607 316.53369141 223.94604492 C316.53398346 225.18547852 316.53427551 226.42491211 316.53457642 227.7019043 C316.53342335 231.09209198 316.52340572 234.48203489 316.5094285 237.87217927 C316.49691025 241.41825274 316.49574978 244.9643296 316.49337769 248.51042175 C316.48716613 255.22161239 316.47075972 261.93273772 316.45067871 268.64389962 C316.4283096 276.28594078 316.41732373 283.92798508 316.40728784 291.57005084 C316.38639319 307.28680997 316.35122354 323.00350398 316.30664062 338.72021484 C317.22692551 338.8152404 317.22692551 338.8152404 318.165802 338.91218567 C318.97298676 338.99812485 319.78017151 339.08406403 320.61181641 339.17260742 C321.81053879 339.29857048 321.81053879 339.29857048 323.03347778 339.42707825 C339.33157764 341.52880604 354.81207424 352.50874598 365.30664062 364.72021484 C370.29933222 371.53975409 374.26755384 378.83862713 377.30664062 386.72021484 C377.62761719 387.55037109 377.94859375 388.38052734 378.27929688 389.23583984 C383.99130819 407.40800607 381.23748238 428.67943226 372.74414062 445.40771484 C362.92532153 463.4517227 346.24757849 475.55022485 326.86914062 481.65771484 C306.65882525 486.03935503 285.55763023 482.84989531 268.0703125 471.91796875 C252.53818306 461.36970919 240.74216082 444.84077047 236.74414062 426.39990234 C234.22643601 405.22420817 236.41555953 384.454007 249.58642578 367.02685547 C261.69044149 352.18824522 277.23556263 341.86379913 296.30664062 338.72021484 C297.62664062 338.72021484 298.94664062 338.72021484 300.30664062 338.72021484 C300.22273395 323.16042488 300.12759809 307.6007407 300.01911354 292.04110432 C299.96900314 284.81640551 299.92256007 277.59171796 299.88476562 270.36694336 C299.85181262 264.069438 299.81196316 257.7720204 299.76385057 251.47461194 C299.73861835 248.14053213 299.7178561 244.80652186 299.70329666 241.47237587 C299.68645352 237.74927779 299.6574223 234.02646171 299.62548828 230.3034668 C299.62332809 229.19935455 299.62116791 228.09524231 299.61894226 226.95767212 C299.60219704 225.43281441 299.60219704 225.43281441 299.58511353 223.87715149 C299.57958277 222.99683919 299.57405201 222.11652689 299.56835365 221.20953846 C299.27165675 218.38746033 298.56072833 216.2609267 297.30664062 213.72021484 C293.2105476 211.24280051 288.6599785 211.29535802 283.99414062 211.09521484 C282.88329102 211.03720703 282.88329102 211.03720703 281.75 210.97802734 C279.93592754 210.8843978 278.12131947 210.80124633 276.30664062 210.72021484 C276.33886719 212.00283203 276.37109375 213.28544922 276.40429688 214.60693359 C276.35704601 249.18781696 257.09662205 282.86764879 233.30664062 306.72021484 C226.19160997 313.75541346 218.76169803 319.43764844 210.30664062 324.72021484 C210.69335938 325.13271484 211.08007812 325.54521484 211.47851562 325.97021484 C218.54077467 333.80163081 221.04902607 339.62286616 220.68164062 350.38037109 C219.80569269 358.18178239 216.19371825 362.3197634 210.40429688 367.37255859 C208.0320353 368.89663726 206.08103333 369.33903741 203.30664062 369.72021484 C203.63664062 370.38021484 203.96664063 371.04021484 204.30664062 371.72021484 C204.93906047 379.62027909 205.46750503 387.27991609 200.30664062 393.72021484 C196.32621805 397.97486277 193.21156499 400.90892958 187.30664062 401.72021484 C187.63664062 402.38021484 187.96664063 403.04021484 188.30664062 403.72021484 C188.93842802 411.61237867 189.47393715 419.2898014 184.30664062 425.72021484 C180.63562637 429.57177079 177.56464215 432.55428039 172.30664062 433.72021484 C172.35304688 434.89197266 172.39945312 436.06373047 172.44726562 437.27099609 C172.80135177 449.90635149 171.72278637 459.63276692 163.27929688 469.65380859 C155.1477117 478.17184534 146.4986157 482.72271013 134.67138672 483.19091797 C122.15708386 483.34595786 112.53377239 480.52872437 103.30664062 471.72021484 C94.10488154 462.08114443 91.86480897 452.52538798 92.10180664 439.56225586 C92.15639011 437.6144769 92.22953103 435.66723214 92.30664062 433.72021484 C91.56671875 433.45595703 90.82679688 433.19169922 90.06445312 432.91943359 C84.60995636 430.54757735 80.53664797 426.6036636 77.30664062 421.65771484 C75.30878127 416.07395407 75.91389638 409.54340351 76.30664062 403.72021484 C76.63664063 403.06021484 76.96664062 402.40021484 77.30664062 401.72021484 C76.57703125 401.62998047 75.84742188 401.53974609 75.09570312 401.44677734 C69.07105911 399.87733226 64.57941869 394.64866645 61.24414062 389.59521484 C59.83996602 383.79129316 58.54541612 375.24266386 61.30664062 369.72021484 C60.57703125 369.62998047 59.84742188 369.53974609 59.09570312 369.44677734 C53.07105911 367.87733226 48.57941869 362.64866645 45.24414062 357.59521484 C43.31651516 349.62769624 42.6636052 340.72552204 47.01757812 333.47412109 C49.27852796 330.39785905 51.69595984 327.50494101 54.30664062 324.72021484 C53.51902344 324.20974609 52.73140625 323.69927734 51.91992188 323.17333984 C34.40609072 311.48363479 15.0020502 294.81896353 7.30664062 274.72021484 C1.27406148 274.81388489 -4.75812277 274.9200098 -10.7902832 275.03759766 C-12.84165471 275.07584109 -14.89309222 275.11070203 -16.94458008 275.14208984 C-19.89623575 275.18784086 -22.84743891 275.24581906 -25.79882812 275.30615234 C-27.17097725 275.32347916 -27.17097725 275.32347916 -28.57084656 275.34115601 C-34.92083324 275.38060539 -34.92083324 275.38060539 -40.69335938 277.72021484 C-43.06968854 282.10548008 -42.99915219 286.50171542 -43.01220703 291.3659668 C-43.02225266 292.22501114 -43.03229828 293.08405548 -43.04264832 293.96913147 C-43.07345487 296.79891309 -43.09050845 299.62860019 -43.10742188 302.45849609 C-43.12613555 304.42433992 -43.14570911 306.39017574 -43.16610718 308.35600281 C-43.21741324 313.52295199 -43.2570472 318.68992722 -43.29425049 323.85699463 C-43.33429963 329.13243035 -43.38538785 334.4077579 -43.43554688 339.68310547 C-43.53228821 350.02874013 -43.61567828 360.37441949 -43.69335938 370.72021484 C-37.42335938 370.72021484 -31.15335937 370.72021484 -24.69335938 370.72021484 C-24.03335938 368.74021484 -23.37335938 366.76021484 -22.69335938 364.72021484 C-21.11864366 361.13120702 -19.34309083 357.65141434 -17.56835938 354.15771484 C-17.11976562 353.22507812 -16.67117187 352.29244141 -16.20898438 351.33154297 C-13.11511105 345.26910683 -10.12795331 341.30804067 -3.69335938 338.72021484 C1.7067973 337.64552359 7.35852904 337.8112864 12.30664062 340.40771484 C16.22118019 343.42517243 18.73486013 346.00487335 20.30664062 350.72021484 C20.38770748 352.27443213 20.4142096 353.83188511 20.40429688 355.38818359 C20.40107422 356.28085937 20.39785156 357.17353516 20.39453125 358.09326172 C20.38615234 359.02203125 20.37777344 359.95080078 20.36914062 360.90771484 C20.36462891 361.84808594 20.36011719 362.78845703 20.35546875 363.75732422 C20.34368688 366.07835197 20.32723621 368.39925129 20.30664062 370.72021484 C21.91539062 370.67380859 21.91539062 370.67380859 23.55664062 370.62646484 C29.32170162 370.77059137 33.10544664 372.65281893 37.29882812 376.59130859 C42.72759962 382.54944162 44.60768551 387.21201973 44.59716797 395.32104492 C44.60388519 396.06970322 44.61060242 396.81836151 44.61752319 397.58970642 C44.6364683 400.05645447 44.64042575 402.52292988 44.64257812 404.98974609 C44.64900902 406.71221527 44.6557376 408.43468336 44.66275024 410.15715027 C44.67471467 413.76584402 44.67843198 417.37444211 44.67724609 420.9831543 C44.67704308 425.59316189 44.70433085 430.20255183 44.73879051 434.81241322 C44.76109827 438.37020144 44.76508243 441.927842 44.76402664 445.48569298 C44.76637732 447.18445652 44.77517065 448.88322445 44.79069138 450.58191872 C44.93852268 468.43452837 44.93852268 468.43452837 38.34179688 475.96240234 C37.69082031 476.50123047 37.03984375 477.04005859 36.36914062 477.59521484 C35.72074219 478.14951172 35.07234375 478.70380859 34.40429688 479.27490234 C30.3882904 482.04198315 26.81937977 482.9698818 21.97575378 482.98764038 C20.92025833 482.99617035 19.86476288 483.00470032 18.77728271 483.01348877 C17.6296344 483.0125824 16.48198608 483.01167603 15.29956055 483.01074219 C13.47431602 483.02081802 13.47431602 483.02081802 11.61219788 483.03109741 C8.28140803 483.04682612 4.95086757 483.05345163 1.62005782 483.05472898 C-0.46369568 483.05615289 -2.54742323 483.06042706 -4.63117027 483.06572342 C-11.9088341 483.08421555 -19.18642478 483.09239519 -26.46411133 483.09082031 C-33.23462553 483.08961961 -40.00482059 483.1107098 -46.77525407 483.14230764 C-52.59880146 483.16851213 -58.42224489 483.17918585 -64.24585074 483.17790949 C-67.71923438 483.17740101 -71.19233435 483.18302015 -74.66565895 483.20426559 C-78.5432631 483.22733717 -82.42043422 483.21810153 -86.2980957 483.20605469 C-87.43967133 483.2172937 -88.58124695 483.22853271 -89.75741577 483.2401123 C-97.53796119 483.17876495 -102.92162399 482.02541153 -108.93554688 476.75537109 C-109.474375 476.10439453 -110.01320313 475.45341797 -110.56835938 474.78271484 C-111.12265625 474.13431641 -111.67695312 473.48591797 -112.24804688 472.81787109 C-115.50535651 468.09037036 -115.9911826 463.74450862 -115.98388672 458.11938477 C-115.99060394 457.37072647 -115.99732117 456.62206818 -116.00424194 455.85072327 C-116.02318705 453.38397521 -116.0271445 450.91749981 -116.02929688 448.45068359 C-116.03572777 446.72821442 -116.04245635 445.00574633 -116.04946899 443.28327942 C-116.06143342 439.67458567 -116.06515073 436.06598757 -116.06396484 432.45727539 C-116.06376183 427.8472678 -116.0910496 423.23787786 -116.12550926 418.62801647 C-116.14781702 415.07022825 -116.15180118 411.51258769 -116.15074539 407.95473671 C-116.15309607 406.25597317 -116.1618894 404.55720523 -116.17741013 402.85851097 C-116.32524143 385.00590132 -116.32524143 385.00590132 -109.72851562 377.47802734 C-108.75205078 376.66978516 -108.75205078 376.66978516 -107.75585938 375.84521484 C-107.10746094 375.29091797 -106.4590625 374.73662109 -105.79101562 374.16552734 C-100.52267931 370.53557495 -95.86150858 370.44769334 -89.67382812 370.52490234 C-88.3859716 370.52914719 -88.3859716 370.52914719 -87.07209778 370.53347778 C-84.34154063 370.54463414 -81.61131667 370.56973026 -78.88085938 370.59521484 C-77.02474433 370.60525052 -75.16862413 370.61437535 -73.3125 370.62255859 C-68.77265892 370.64455859 -64.23306556 370.67905704 -59.69335938 370.72021484 C-59.70224182 369.5478125 -59.71112427 368.37541016 -59.72027588 367.16748047 C-59.80146186 356.1034858 -59.86137295 345.03955181 -59.90060806 333.97532654 C-59.92145756 328.28746091 -59.94972742 322.59983631 -59.99511719 316.91210938 C-60.03866841 311.42022339 -60.06251632 305.92856883 -60.07286835 300.43652344 C-60.08024302 298.34420124 -60.09464406 296.2518913 -60.1162796 294.15966797 C-60.14543653 291.22254341 -60.1493102 288.28636774 -60.14746094 285.34912109 C-60.16184204 284.48956314 -60.17622314 283.63000519 -60.19104004 282.74440002 C-60.14444929 275.87827987 -58.27920545 270.67106106 -53.72851562 265.47802734 C-53.07753906 264.93919922 -52.4265625 264.40037109 -51.75585938 263.84521484 C-51.10746094 263.29091797 -50.4590625 262.73662109 -49.79101562 262.16552734 C-44.39743993 258.44928338 -39.57212539 258.44981586 -33.23632812 258.52490234 C-32.33336502 258.52773224 -31.43040192 258.53056213 -30.50007629 258.53347778 C-27.62686703 258.54463878 -24.75397382 258.56973587 -21.88085938 258.59521484 C-19.92838993 258.60524992 -17.97591558 258.61437485 -16.0234375 258.62255859 C-11.24662372 258.64456476 -6.47004507 258.67906653 -1.69335938 258.72021484 C-2.10545654 257.50350098 -2.51755371 256.28678711 -2.94213867 255.03320312 C-3.48825549 253.41069064 -4.03422763 251.78812945 -4.58007812 250.16552734 C-4.85106323 249.36671143 -5.12204834 248.56789551 -5.40124512 247.74487305 C-9.51059861 235.50118713 -11.20888346 223.58388569 -11.69335938 210.72021484 C-12.34820312 210.74116211 -13.00304687 210.76210937 -13.67773438 210.78369141 C-16.68278266 210.86751867 -19.68758401 210.91908379 -22.69335938 210.97021484 C-23.72332031 211.00373047 -24.75328125 211.03724609 -25.81445312 211.07177734 C-33.6547319 211.17165351 -38.98528665 209.96962352 -44.93554688 204.75537109 C-45.474375 204.10439453 -46.01320313 203.45341797 -46.56835938 202.78271484 C-47.12265625 202.13431641 -47.67695312 201.48591797 -48.24804688 200.81787109 C-51.27765189 196.42084976 -51.94162381 192.66219104 -51.92041016 187.36938477 C-51.92025909 186.10845505 -51.92010803 184.84752533 -51.91995239 183.54838562 C-51.90974074 182.18248332 -51.89930877 180.81658265 -51.88867188 179.45068359 C-51.88493878 178.04535626 -51.88209321 176.64002631 -51.88009644 175.23469543 C-51.87248326 171.54721817 -51.8528549 167.85990002 -51.83068848 164.17248535 C-51.81017997 160.40521395 -51.80108404 156.63791668 -51.79101562 152.87060547 C-51.76960662 145.48706962 -51.73549892 138.10366458 -51.69335938 130.72021484 C-52.30688263 130.65686447 -52.92040588 130.5935141 -53.55252075 130.52824402 C-54.35970551 130.44230484 -55.16689026 130.35636566 -55.99853516 130.26782227 C-57.19725754 130.14185921 -57.19725754 130.14185921 -58.42019653 130.01335144 C-74.71829639 127.91162365 -90.19879299 116.93168371 -100.69335938 104.72021484 C-105.68605097 97.9006756 -109.65427259 90.60180256 -112.69335938 82.72021484 C-113.17482422 81.47498047 -113.17482422 81.47498047 -113.66601562 80.20458984 C-119.37802694 62.03242362 -116.62420113 40.76099743 -108.13085938 24.03271484 C-98.31204028 5.98870699 -81.63429724 -6.10979517 -62.25585938 -12.21728516 C-40.94019993 -16.83856634 -17.54585144 -13.26057573 0 0 Z " fill="#000000" transform="translate(123.693359375,21.27978515625)"/>
<path d="M0 0 C0.76957031 0.6290625 1.53914062 1.258125 2.33203125 1.90625 C25.93984925 21.76751179 42.1805981 53.7504875 44.83447266 84.46386719 C47.1056782 119.26221999 38.67201761 152.56943374 15.8515625 179.5390625 C13.61458901 182.07429912 11.32360458 184.54406283 9 187 C8.24074219 187.82371094 7.48148438 188.64742187 6.69921875 189.49609375 C2.15424071 194.26422947 -2.60687314 198.40620065 -7.9375 202.25 C-8.52837402 202.68078857 -9.11924805 203.11157715 -9.72802734 203.55541992 C-13.46932252 206.18972282 -16.99046505 207.74646396 -21.3125 209.3125 C-24.12324592 210.47376642 -24.12324592 210.47376642 -26 213 C-27.65373128 219.82489975 -27.31475796 227.03075735 -27 234 C-26.31365479 233.98404785 -25.62730957 233.9680957 -24.92016602 233.95166016 C-24.01967529 233.93925293 -23.11918457 233.9268457 -22.19140625 233.9140625 C-21.29881104 233.89811035 -20.40621582 233.8821582 -19.48657227 233.86572266 C-16.29352994 234.03815008 -14.43767389 234.95549932 -12 237 C-10.59542263 239.80915474 -10.75104843 241.88810534 -11 245 C-12.77984405 248.1359157 -13.52308207 248.84102736 -17 250 C-18.79000038 250.10083341 -20.58350356 250.14361731 -22.37631226 250.15390015 C-23.49229294 250.16250061 -24.60827362 250.17110107 -25.7580719 250.17996216 C-26.98307907 250.18422211 -28.20808624 250.18848206 -29.47021484 250.19287109 C-30.75984634 250.20104858 -32.04947784 250.20922607 -33.37818909 250.21765137 C-37.65575071 250.24383967 -41.93332198 250.25917315 -46.2109375 250.2734375 C-47.68400707 250.27879799 -49.15707658 250.2841755 -50.63014603 250.28956985 C-56.75691314 250.31119153 -62.88367765 250.32992901 -69.01047325 250.34119225 C-77.78972836 250.35743859 -86.56854144 250.3906405 -95.3476299 250.44759309 C-101.52181519 250.48628174 -107.69588217 250.50582347 -113.87018549 250.51111281 C-117.55765393 250.51476706 -121.24465055 250.52679543 -124.93198776 250.55921555 C-129.04525858 250.59486379 -133.15757756 250.59092818 -137.27099609 250.58349609 C-139.10243416 250.6081041 -139.10243416 250.6081041 -140.97087097 250.63320923 C-150.15636416 250.56508515 -150.15636416 250.56508515 -153.25650024 247.65103149 C-155 245 -155 245 -155.625 242 C-154.73794164 237.74211985 -153.63397247 236.42264831 -150 234 C-146.2947699 233.58888599 -142.71118727 233.70752465 -139 234 C-137.86613216 221.59113853 -137.86613216 221.59113853 -142.0234375 210.62109375 C-144.70146138 209.24548025 -144.70146138 209.24548025 -147.69921875 208.22265625 C-151.64135945 206.76243135 -154.6317493 204.72233115 -158 202.25 C-158.59216309 201.82041992 -159.18432617 201.39083984 -159.79443359 200.94824219 C-169.53685398 193.76905394 -177.68307344 185.63488421 -185 176 C-185.59296875 175.23429688 -186.1859375 174.46859375 -186.796875 173.6796875 C-196.31194895 160.80378468 -202.79453674 146.38544576 -207 131 C-207.31541748 129.86667236 -207.31541748 129.86667236 -207.63720703 128.71044922 C-216.41210331 95.86885404 -210.27082782 62.32795885 -194 33 C-188.6867956 24.20239697 -182.10024652 16.4068202 -175 9 C-174.24332031 8.18015625 -173.48664063 7.3603125 -172.70703125 6.515625 C-127.31889958 -41.16782817 -49.27713984 -41.23610028 0 0 Z " fill="#F8D46E" transform="translate(339,126)"/>
<path d="M0 0 C0.76957031 0.6290625 1.53914062 1.258125 2.33203125 1.90625 C25.93984925 21.76751179 42.1805981 53.7504875 44.83447266 84.46386719 C47.1056782 119.26221999 38.67201761 152.56943374 15.8515625 179.5390625 C13.61458901 182.07429912 11.32360458 184.54406283 9 187 C8.24074219 187.82371094 7.48148438 188.64742187 6.69921875 189.49609375 C2.15424071 194.26422947 -2.60687314 198.40620065 -7.9375 202.25 C-8.52837402 202.68078857 -9.11924805 203.11157715 -9.72802734 203.55541992 C-13.46932252 206.18972282 -16.99046505 207.74646396 -21.3125 209.3125 C-24.12324592 210.47376642 -24.12324592 210.47376642 -26 213 C-27.65373128 219.82489975 -27.31475796 227.03075735 -27 234 C-26.31365479 233.98404785 -25.62730957 233.9680957 -24.92016602 233.95166016 C-24.01967529 233.93925293 -23.11918457 233.9268457 -22.19140625 233.9140625 C-21.29881104 233.89811035 -20.40621582 233.8821582 -19.48657227 233.86572266 C-16.29352994 234.03815008 -14.43767389 234.95549932 -12 237 C-10.59542263 239.80915474 -10.75104843 241.88810534 -11 245 C-12.77984405 248.1359157 -13.52308207 248.84102736 -17 250 C-18.79000038 250.10083341 -20.58350356 250.14361731 -22.37631226 250.15390015 C-23.49229294 250.16250061 -24.60827362 250.17110107 -25.7580719 250.17996216 C-26.98307907 250.18422211 -28.20808624 250.18848206 -29.47021484 250.19287109 C-30.75984634 250.20104858 -32.04947784 250.20922607 -33.37818909 250.21765137 C-37.65575071 250.24383967 -41.93332198 250.25917315 -46.2109375 250.2734375 C-47.68400707 250.27879799 -49.15707658 250.2841755 -50.63014603 250.28956985 C-56.75691314 250.31119153 -62.88367765 250.32992901 -69.01047325 250.34119225 C-77.78972836 250.35743859 -86.56854144 250.3906405 -95.3476299 250.44759309 C-101.52181519 250.48628174 -107.69588217 250.50582347 -113.87018549 250.51111281 C-117.55765393 250.51476706 -121.24465055 250.52679543 -124.93198776 250.55921555 C-129.04525858 250.59486379 -133.15757756 250.59092818 -137.27099609 250.58349609 C-139.10243416 250.6081041 -139.10243416 250.6081041 -140.97087097 250.63320923 C-150.15636416 250.56508515 -150.15636416 250.56508515 -153.25650024 247.65103149 C-155 245 -155 245 -155.625 242 C-154.73794164 237.74211985 -153.63397247 236.42264831 -150 234 C-146.2947699 233.58888599 -142.71118727 233.70752465 -139 234 C-137.86613216 221.59113853 -137.86613216 221.59113853 -142.0234375 210.62109375 C-144.70146138 209.24548025 -144.70146138 209.24548025 -147.69921875 208.22265625 C-151.64135945 206.76243135 -154.6317493 204.72233115 -158 202.25 C-158.59216309 201.82041992 -159.18432617 201.39083984 -159.79443359 200.94824219 C-169.53685398 193.76905394 -177.68307344 185.63488421 -185 176 C-185.59296875 175.23429688 -186.1859375 174.46859375 -186.796875 173.6796875 C-196.31194895 160.80378468 -202.79453674 146.38544576 -207 131 C-207.31541748 129.86667236 -207.31541748 129.86667236 -207.63720703 128.71044922 C-216.41210331 95.86885404 -210.27082782 62.32795885 -194 33 C-188.6867956 24.20239697 -182.10024652 16.4068202 -175 9 C-174.24332031 8.18015625 -173.48664063 7.3603125 -172.70703125 6.515625 C-127.31889958 -41.16782817 -49.27713984 -41.23610028 0 0 Z M-113 -6 C-116.44599294 1.32435025 -116.44599294 1.32435025 -118 9 C-123.13598389 8.57200134 -126.58701956 7.40200068 -131.0078125 4.7421875 C-133.73765025 3.72518912 -135.21794026 4.18588828 -138 5 C-140.16689554 6.54612139 -140.16689554 6.54612139 -142.16357422 8.59838867 C-142.94723358 9.35975632 -143.73089294 10.12112396 -144.53829956 10.90556335 C-145.78391159 12.14920403 -145.78391159 12.14920403 -147.0546875 13.41796875 C-147.91563019 14.26796951 -148.77657288 15.11797028 -149.66360474 15.99372864 C-151.47916026 17.79342261 -153.28941567 19.59847688 -155.09472656 21.40844727 C-157.86646885 24.17897259 -160.66620558 26.91888324 -163.46875 29.65820312 C-165.2283502 31.40966416 -166.98622315 33.16286254 -168.7421875 34.91796875 C-169.58474091 35.73694138 -170.42729431 36.555914 -171.29537964 37.39970398 C-172.06012604 38.17683243 -172.82487244 38.95396088 -173.61279297 39.75463867 C-174.29276337 40.43112961 -174.97273376 41.10762054 -175.67330933 41.80461121 C-177.30153787 44.02130356 -177.30153787 44.02130356 -176.77249146 47.13032532 C-175.88133564 50.44081797 -174.53536151 53.02209332 -172.83984375 55.97265625 C-171.82421964 58.42432561 -171.8587877 60.3716291 -172 63 C-172.66386719 63.19335938 -173.32773438 63.38671875 -174.01171875 63.5859375 C-174.89472656 63.84632813 -175.77773437 64.10671875 -176.6875 64.375 C-177.55761719 64.63023437 -178.42773438 64.88546875 -179.32421875 65.1484375 C-181.92513119 65.97617314 -184.46577023 66.98630809 -187 68 C-187 87.8 -187 107.6 -187 128 C-179.67564975 131.44599294 -179.67564975 131.44599294 -172 133 C-172.42799866 138.13598389 -173.59799932 141.58701956 -176.2578125 146.0078125 C-177.27481088 148.73765025 -176.81411172 150.21794026 -176 153 C-174.45387861 155.16689554 -174.45387861 155.16689554 -172.40161133 157.16357422 C-171.25955986 158.33906326 -171.25955986 158.33906326 -170.09443665 159.53829956 C-169.26534286 160.36870758 -168.43624908 161.1991156 -167.58203125 162.0546875 C-166.73203049 162.91563019 -165.88202972 163.77657288 -165.00627136 164.66360474 C-163.20657739 166.47916026 -161.40152312 168.28941567 -159.59155273 170.09472656 C-156.82102741 172.86646885 -154.08111676 175.66620558 -151.34179688 178.46875 C-149.59033584 180.2283502 -147.83713746 181.98622315 -146.08203125 183.7421875 C-144.85357231 185.00601761 -144.85357231 185.00601761 -143.60029602 186.29537964 C-142.82316757 187.06012604 -142.04603912 187.82487244 -141.24536133 188.61279297 C-140.56887039 189.29276337 -139.89237946 189.97273376 -139.19538879 190.67330933 C-136.97874059 192.30122646 -136.97874059 192.30122646 -133.86967468 191.77468872 C-130.53446853 190.87432653 -127.97575853 189.49073614 -125.02734375 187.7421875 C-123 187 -123 187 -118 188 C-116.35 192.62 -114.7 197.24 -113 202 C-93.2 202 -73.4 202 -53 202 C-51.35 197.38 -49.7 192.76 -48 188 C-41.93321136 186.78664227 -40.54875947 188.00260381 -35.5 190.96875 C-32.40533137 192.24530081 -31.17520512 191.96251208 -28 191 C-25.83310446 189.45387861 -25.83310446 189.45387861 -23.83642578 187.40161133 C-22.66093674 186.25955986 -22.66093674 186.25955986 -21.46170044 185.09443665 C-20.63129242 184.26534286 -19.8008844 183.43624908 -18.9453125 182.58203125 C-18.08436981 181.73203049 -17.22342712 180.88202972 -16.33639526 180.00627136 C-14.52083974 178.20657739 -12.71058433 176.40152312 -10.90527344 174.59155273 C-8.13353115 171.82102741 -5.33379442 169.08111676 -2.53125 166.34179688 C-0.7716498 164.59033584 0.98622315 162.83713746 2.7421875 161.08203125 C3.58474091 160.26305862 4.42729431 159.444086 5.29537964 158.60029602 C6.06012604 157.82316757 6.82487244 157.04603912 7.61279297 156.24536133 C8.29276337 155.56887039 8.97273376 154.89237946 9.67330933 154.19538879 C11.30122646 151.97874059 11.30122646 151.97874059 10.77468872 148.86967468 C9.87432653 145.53446853 8.49073614 142.97575853 6.7421875 140.02734375 C6 138 6 138 7 133 C11.62 131.35 16.24 129.7 21 128 C21 108.2 21 88.4 21 68 C16.38 66.35 11.76 64.7 7 63 C5.92725015 57.63625075 6.12667876 56.97584567 8.5 52.4375 C10.47850546 48.94042562 10.47850546 48.94042562 10.78935242 45.08930969 C9.78396977 42.42819703 8.39132262 40.98241928 6.40161133 38.94995117 C5.64024368 38.16621628 4.87887604 37.38248138 4.09443665 36.57499695 C3.26534286 35.73942764 2.43624908 34.90385834 1.58203125 34.04296875 C0.30703011 32.7494323 0.30703011 32.7494323 -0.99372864 31.42976379 C-2.79455257 29.60936603 -4.59957715 27.79311564 -6.40844727 25.98071289 C-9.17690731 23.19814666 -11.91761918 20.39006887 -14.65820312 17.58007812 C-16.40981311 15.81607314 -18.16301634 14.05364849 -19.91796875 12.29296875 C-20.73694138 11.44727829 -21.555914 10.60158783 -22.39970398 9.73027039 C-23.17683243 8.9622963 -23.95396088 8.1943222 -24.75463867 7.40307617 C-25.76937508 6.37859627 -25.76937508 6.37859627 -26.80461121 5.3334198 C-29.02009624 3.69755766 -29.02009624 3.69755766 -32.13032532 4.22651672 C-35.44029068 5.11867459 -38.02225925 6.46473385 -40.97265625 8.16015625 C-43.42432561 9.17578036 -45.3716291 9.1412123 -48 9 C-48.19335938 8.33613281 -48.38671875 7.67226562 -48.5859375 6.98828125 C-48.84632813 6.10527344 -49.10671875 5.22226563 -49.375 4.3125 C-49.63023437 3.44238281 -49.88546875 2.57226562 -50.1484375 1.67578125 C-50.97617314 -0.92513119 -51.98630809 -3.46577023 -53 -6 C-72.8 -6 -92.6 -6 -113 -6 Z " fill="#FDE8A6" transform="translate(339,126)"/>
<path d="M0 0 C19.8 0 39.6 0 60 0 C65 13 65 13 65 15 C70.13598389 14.57200134 73.58701956 13.40200068 78.0078125 10.7421875 C80.73765025 9.72518912 82.21794026 10.18588828 85 11 C87.08859253 12.56047058 87.08859253 12.56047058 89.16357422 14.59838867 C89.94723358 15.35975632 90.73089294 16.12112396 91.53829956 16.90556335 C92.36870758 17.73465714 93.1991156 18.56375092 94.0546875 19.41796875 C94.91563019 20.26796951 95.77657288 21.11797028 96.66360474 21.99372864 C98.47916026 23.79342261 100.28941567 25.59847688 102.09472656 27.40844727 C104.86646885 30.17897259 107.66620558 32.91888324 110.46875 35.65820312 C112.2283502 37.40966416 113.98622315 39.16286254 115.7421875 40.91796875 C116.58474091 41.73694138 117.42729431 42.555914 118.29537964 43.39970398 C119.06012604 44.17683243 119.82487244 44.95396088 120.61279297 45.75463867 C121.29276337 46.43112961 121.97273376 47.10762054 122.67330933 47.80461121 C124 50 124 50 123.77468872 53.13032532 C122.87432653 56.46553147 121.49073614 59.02424147 119.7421875 61.97265625 C118.63727974 64.44520678 118.63727974 64.44520678 120 69 C124.62 70.65 129.24 72.3 134 74 C134 93.8 134 113.6 134 134 C129.38 135.65 124.76 137.3 120 139 C118.93621721 144.31891396 118.97292393 144.69859393 121.5 149 C124.05694715 153.35225046 124.05694715 153.35225046 123.78935242 156.39602661 C122.85410086 159.48130273 121.65297662 160.87126337 119.40161133 163.16357422 C118.64024368 163.94723358 117.87887604 164.73089294 117.09443665 165.53829956 C116.26534286 166.36870758 115.43624908 167.1991156 114.58203125 168.0546875 C113.30703011 169.34610153 113.30703011 169.34610153 112.00627136 170.66360474 C110.20657739 172.47916026 108.40152312 174.28941567 106.59155273 176.09472656 C103.82102741 178.86646885 101.08111676 181.66620558 98.34179688 184.46875 C96.59033584 186.2283502 94.83713746 187.98622315 93.08203125 189.7421875 C92.26305862 190.58474091 91.444086 191.42729431 90.60029602 192.29537964 C89.82316757 193.06012604 89.04603912 193.82487244 88.24536133 194.61279297 C87.56887039 195.29276337 86.89237946 195.97273376 86.19538879 196.67330933 C84 198 84 198 80.86967468 197.77468872 C77.53446853 196.87432653 74.97575853 195.49073614 72.02734375 193.7421875 C69.55479322 192.63727974 69.55479322 192.63727974 65 194 C62.525 200.93 62.525 200.93 60 208 C40.2 208 20.4 208 0 208 C-1.65 203.38 -3.3 198.76 -5 194 C-10.31891396 192.93621721 -10.69859393 192.97292393 -15 195.5 C-19.35225046 198.05694715 -19.35225046 198.05694715 -22.39602661 197.78935242 C-25.48130273 196.85410086 -26.87126337 195.65297662 -29.16357422 193.40161133 C-30.33906326 192.25955986 -30.33906326 192.25955986 -31.53829956 191.09443665 C-32.78391159 189.85079597 -32.78391159 189.85079597 -34.0546875 188.58203125 C-35.34610153 187.30703011 -35.34610153 187.30703011 -36.66360474 186.00627136 C-38.47916026 184.20657739 -40.28941567 182.40152312 -42.09472656 180.59155273 C-44.86646885 177.82102741 -47.66620558 175.08111676 -50.46875 172.34179688 C-52.2283502 170.59033584 -53.98622315 168.83713746 -55.7421875 167.08203125 C-56.58474091 166.26305862 -57.42729431 165.444086 -58.29537964 164.60029602 C-59.06012604 163.82316757 -59.82487244 163.04603912 -60.61279297 162.24536133 C-61.29276337 161.56887039 -61.97273376 160.89237946 -62.67330933 160.19538879 C-64 158 -64 158 -63.77249146 154.86967468 C-62.88133564 151.55918203 -61.53536151 148.97790668 -59.83984375 146.02734375 C-58.82421964 143.57567439 -58.8587877 141.6283709 -59 139 C-59.66386719 138.80664062 -60.32773438 138.61328125 -61.01171875 138.4140625 C-61.89472656 138.15367187 -62.77773437 137.89328125 -63.6875 137.625 C-64.55761719 137.36976563 -65.42773438 137.11453125 -66.32421875 136.8515625 C-68.92513119 136.02382686 -71.46577023 135.01369191 -74 134 C-74 114.2 -74 94.4 -74 74 C-61 69 -61 69 -59 69 C-59.4499562 63.71301461 -60.82749469 59.83144997 -63.2578125 55.11328125 C-64.17373543 52.50531123 -63.9380958 51.57977737 -63 49 C-61.43952942 47.03166199 -61.43952942 47.03166199 -59.40161133 44.94995117 C-58.64024368 44.16621628 -57.87887604 43.38248138 -57.09443665 42.57499695 C-56.26534286 41.73942764 -55.43624908 40.90385834 -54.58203125 40.04296875 C-53.73203049 39.18061111 -52.88202972 38.31825348 -52.00627136 37.42976379 C-50.20544743 35.60936603 -48.40042285 33.79311564 -46.59155273 31.98071289 C-43.82309269 29.19814666 -41.08238082 26.39006887 -38.34179688 23.58007812 C-36.59018689 21.81607314 -34.83698366 20.05364849 -33.08203125 18.29296875 C-32.26305862 17.44727829 -31.444086 16.60158783 -30.60029602 15.73027039 C-29.82316757 14.9622963 -29.04603912 14.1943222 -28.24536133 13.40307617 C-27.56887039 12.72008957 -26.89237946 12.03710297 -26.19538879 11.3334198 C-24 10 -24 10 -20.86967468 10.22651672 C-17.55970932 11.11867459 -14.97774075 12.46473385 -12.02734375 14.16015625 C-9.57567439 15.17578036 -7.6283709 15.1412123 -5 15 C-4.70996094 14.00419922 -4.70996094 14.00419922 -4.4140625 12.98828125 C-4.15367187 12.10527344 -3.89328125 11.22226563 -3.625 10.3125 C-3.24214844 9.00732422 -3.24214844 9.00732422 -2.8515625 7.67578125 C-2.02382686 5.07486881 -1.01369191 2.53422977 0 0 Z M11 16 C10.01 19.63 9.02 23.26 8 27 C3.125 29 3.125 29 0.43359375 29.515625 C-2.19033072 29.88928912 -2.19033072 29.88928912 -4.8125 31.75 C-7 33 -7 33 -9.4375 32.875 C-12 32 -12 32 -15.0625 30.3125 C-17.78413786 28.70461098 -17.78413786 28.70461098 -19.84472656 29.59130859 C-22.71764978 31.46905746 -25.03333154 33.7869136 -27.421875 36.2265625 C-28.17914886 36.98808121 -28.17914886 36.98808121 -28.95172119 37.76498413 C-30.55592096 39.38033842 -32.15300856 41.00252209 -33.75 42.625 C-34.83938107 43.72441698 -35.9292199 44.82338059 -37.01953125 45.921875 C-39.68501885 48.6093602 -42.34415143 51.30299021 -45 54 C-43.67672275 58.17727549 -43.67672275 58.17727549 -41.8125 62.125 C-40.74227123 64.59475871 -41.19631744 65.43881381 -42 68 C-43.26562283 71.12878562 -44.60416259 74.22154389 -45.94140625 77.3203125 C-47.12247116 79.8298183 -47.12247116 79.8298183 -47 82 C-50.63 82.99 -54.26 83.98 -58 85 C-58 97.54 -58 110.08 -58 123 C-54.37 124.32 -50.74 125.64 -47 127 C-44.93455293 129.92099546 -44.04072487 131.44232567 -43.0625 134.6875 C-42.81854492 135.40067383 -42.57458984 136.11384766 -42.32324219 136.84863281 C-41.01202123 141.19761456 -40.68608634 144.03059972 -42.75 148.25 C-43.19859375 148.89453125 -43.6471875 149.5390625 -44.109375 150.203125 C-44.40328125 150.79609375 -44.6971875 151.3890625 -45 152 C-43.62520357 155.94724161 -40.69235485 158.56410274 -37.7734375 161.421875 C-37.26575836 161.92672424 -36.75807922 162.43157349 -36.23501587 162.95172119 C-34.61966158 164.55592096 -32.99747791 166.15300856 -31.375 167.75 C-30.27558302 168.83938107 -29.17661941 169.9292199 -28.078125 171.01953125 C-25.3906398 173.68501885 -22.69700979 176.34415143 -20 179 C-15.82272451 177.67672275 -15.82272451 177.67672275 -11.875 175.8125 C-9.40524129 174.74227123 -8.56118619 175.19631744 -6 176 C-2.87121438 177.26562283 0.22154389 178.60416259 3.3203125 179.94140625 C5.8298183 181.12247116 5.8298183 181.12247116 8 181 C8.99 184.63 9.98 188.26 11 192 C23.54 192 36.08 192 49 192 C50.32 188.37 51.64 184.74 53 181 C55.92099546 178.93455293 57.44232567 178.04072487 60.6875 177.0625 C61.75726074 176.69656738 61.75726074 176.69656738 62.84863281 176.32324219 C67.19761456 175.01202123 70.03059972 174.68608634 74.25 176.75 C74.89453125 177.19859375 75.5390625 177.6471875 76.203125 178.109375 C76.79609375 178.40328125 77.3890625 178.6971875 78 179 C81.94724161 177.62520357 84.56410274 174.69235485 87.421875 171.7734375 C87.92672424 171.26575836 88.43157349 170.75807922 88.95172119 170.23501587 C90.55592096 168.61966158 92.15300856 166.99747791 93.75 165.375 C94.83938107 164.27558302 95.9292199 163.17661941 97.01953125 162.078125 C99.68501885 159.3906398 102.34415143 156.69700979 105 154 C104.69255859 153.07767578 104.69255859 153.07767578 104.37890625 152.13671875 C100.78034814 141.34104443 100.78034814 141.34104443 103.25 134.5625 C103.44851563 133.89412109 103.64703125 133.22574219 103.8515625 132.53710938 C104.578125 130.56640625 104.578125 130.56640625 107 127 C110.63 125.68 114.26 124.36 118 123 C118 110.46 118 97.92 118 85 C114.37 84.01 110.74 83.02 107 82 C105.45598929 78.6707269 104.73337393 76.44804034 104 73 C103.4225 71.9275 102.845 70.855 102.25 69.75 C100.76363844 66.48000456 100.82754754 65.34986417 102 62 C102.556875 60.989375 103.11375 59.97875 103.6875 58.9375 C105.29538902 56.21586214 105.29538902 56.21586214 104.40869141 54.15527344 C102.53094254 51.28235022 100.2130864 48.96666846 97.7734375 46.578125 C97.01191879 45.82085114 97.01191879 45.82085114 96.23501587 45.04827881 C94.61966158 43.44407904 92.99747791 41.84699144 91.375 40.25 C90.27558302 39.16061893 89.17661941 38.0707801 88.078125 36.98046875 C85.3906398 34.31498115 82.69700979 31.65584857 80 29 C79.38511719 29.20496094 78.77023437 29.40992188 78.13671875 29.62109375 C67.34104443 33.21965186 67.34104443 33.21965186 60.5625 30.75 C59.89412109 30.55148438 59.22574219 30.35296875 58.53710938 30.1484375 C56.56640625 29.421875 56.56640625 29.421875 53 27 C51.68 23.37 50.36 19.74 49 16 C36.46 16 23.92 16 11 16 Z " fill="#030301" transform="translate(226,120)"/>
<path d="M0 0 C0.99 0.33 1.98 0.66 3 1 C3 11.23 3 21.46 3 32 C8.69905167 31.88187635 8.69905167 31.88187635 14.3972168 31.72973633 C19.08604008 31.68083417 22.21011422 31.91277549 26 35 C27.42666016 37.85332032 27.14307693 40.29188273 27.16113281 43.48168945 C27.16609772 44.14694641 27.17106262 44.81220337 27.17617798 45.49761963 C27.19080622 47.70285063 27.19760326 49.90800966 27.203125 52.11328125 C27.20887667 53.64544171 27.2146344 55.17760215 27.22039795 56.70976257 C27.23091034 59.92524552 27.23675119 63.14070345 27.24023438 66.35620117 C27.24571442 70.4721189 27.26973067 74.58770503 27.29820633 78.70351887 C27.31685251 81.86999977 27.32203939 85.03640119 27.32357025 88.20293236 C27.32659372 89.7199605 27.33461198 91.23698735 27.34775543 92.75396156 C27.36485519 94.8796045 27.36292645 97.0044427 27.35644531 99.13012695 C27.36191376 100.94309013 27.36191376 100.94309013 27.36749268 102.79267883 C26.96251872 106.32712084 26.17941535 108.20819075 24 111 C21.09652179 111.96782607 19.24461854 112.12993207 16.22438049 112.14044189 C15.24158112 112.14615204 14.25878174 112.15186218 13.24620056 112.15774536 C12.16923416 112.15886322 11.09226776 112.15998108 9.98266602 112.16113281 C8.27989502 112.16858017 8.27989502 112.16858017 6.54272461 112.17617798 C2.77977904 112.19080812 -0.98312439 112.19760236 -4.74609375 112.203125 C-7.35539247 112.20887488 -9.96469118 112.21463263 -12.57398987 112.22039795 C-17.34758574 112.2299672 -22.12117248 112.23586559 -26.89477676 112.2388947 C-33.92094422 112.24337781 -40.94691737 112.26093957 -47.97302574 112.2898953 C-54.05936593 112.3141077 -60.1456258 112.32183851 -66.2320118 112.32357025 C-68.82163616 112.32660312 -71.41125959 112.33465286 -74.00085258 112.34775543 C-77.61847663 112.36475577 -81.23562402 112.36295037 -84.85327148 112.35644531 C-85.92821365 112.3656601 -87.00315582 112.37487488 -88.110672 112.3843689 C-89.0962912 112.37879974 -90.0819104 112.37323059 -91.09739685 112.36749268 C-91.95261146 112.36895924 -92.80782606 112.3704258 -93.68895626 112.3719368 C-96.55138529 111.91126067 -97.90818295 110.98275781 -100 109 C-101.1297418 105.6107746 -101.15469643 102.97882441 -101.19287109 99.40478516 C-101.20104858 98.73938217 -101.20922607 98.07397919 -101.21765137 97.38841248 C-101.24244353 95.18863821 -101.25900377 92.98892812 -101.2734375 90.7890625 C-101.27876118 90.03680767 -101.28408485 89.28455284 -101.28956985 88.50950241 C-101.31627229 84.52913177 -101.33565797 80.54879221 -101.35009766 76.56835938 C-101.3634468 73.27608517 -101.3913201 69.98442934 -101.43212891 66.69238281 C-101.48143965 62.71420858 -101.50621609 58.73659592 -101.51332474 54.75812912 C-101.5200366 53.24384808 -101.53525729 51.72957955 -101.55921555 50.21547318 C-101.59086941 48.09431974 -101.59090568 45.97533191 -101.58349609 43.85400391 C-101.59158295 42.64837799 -101.5996698 41.44275208 -101.60800171 40.20059204 C-100.79734036 35.933176 -99.51934439 34.51380186 -96 32 C-93.16300766 31.5015617 -90.92010519 31.30712332 -88.08862305 31.34057617 C-87.30760727 31.33009247 -86.52659149 31.31960876 -85.72190857 31.30880737 C-83.1514388 31.28010458 -80.58231976 31.28634287 -78.01171875 31.29296875 C-76.22522803 31.27985075 -74.43875213 31.2645462 -72.65229797 31.24714661 C-67.95869117 31.20729544 -63.26547234 31.1971061 -58.57171631 31.19311523 C-53.77881093 31.183784 -48.98613353 31.14637053 -44.19335938 31.11132812 C-34.79558357 31.04675113 -25.39797826 31.01351197 -16 31 C-15.55084229 30.09644775 -15.10168457 29.19289551 -14.63891602 28.26196289 C-12.97670691 24.91948546 -11.31187729 21.57831916 -9.64624023 18.23754883 C-8.92481738 16.78966503 -8.20411194 15.34142355 -7.48413086 13.89282227 C-6.45092809 11.81432832 -5.41517756 9.73712167 -4.37890625 7.66015625 C-4.05596085 7.00910416 -3.73301544 6.35805206 -3.40028381 5.68727112 C-1.11387171 1.11387171 -1.11387171 1.11387171 0 0 Z " fill="#B3DC7E" transform="translate(125,376)"/>
<path d="M0 0 C12.54 0 25.08 0 38 0 C39.32 3.63 40.64 7.26 42 11 C44.92099546 13.06544707 46.44232567 13.95927513 49.6875 14.9375 C50.40067383 15.18145508 51.11384766 15.42541016 51.84863281 15.67675781 C56.19761456 16.98797877 59.03059972 17.31391366 63.25 15.25 C63.89453125 14.80140625 64.5390625 14.3528125 65.203125 13.890625 C65.79609375 13.59671875 66.3890625 13.3028125 67 13 C70.94724161 14.37479643 73.56410274 17.30764515 76.421875 20.2265625 C76.92672424 20.73424164 77.43157349 21.24192078 77.95172119 21.76498413 C79.55592096 23.38033842 81.15300856 25.00252209 82.75 26.625 C83.83938107 27.72441698 84.9292199 28.82338059 86.01953125 29.921875 C88.68501885 32.6093602 91.34415143 35.30299021 94 38 C92.1484375 43.734375 92.1484375 43.734375 90.8125 46.125 C89.74227123 48.59475871 90.19631744 49.43881381 91 52 C92.26562283 55.12878562 93.60416259 58.22154389 94.94140625 61.3203125 C96 64 96 64 96 66 C99.63 66.99 103.26 67.98 107 69 C107 81.54 107 94.08 107 107 C103.37 108.32 99.74 109.64 96 111 C93.93455293 113.92099546 93.04072487 115.44232567 92.0625 118.6875 C91.69656738 119.75726074 91.69656738 119.75726074 91.32324219 120.84863281 C90.01202123 125.19761456 89.68608634 128.03059972 91.75 132.25 C92.19859375 132.89453125 92.6471875 133.5390625 93.109375 134.203125 C93.40328125 134.79609375 93.6971875 135.3890625 94 136 C92.62520357 139.94724161 89.69235485 142.56410274 86.7734375 145.421875 C86.26575836 145.92672424 85.75807922 146.43157349 85.23501587 146.95172119 C83.61966158 148.55592096 81.99747791 150.15300856 80.375 151.75 C79.27558302 152.83938107 78.17661941 153.9292199 77.078125 155.01953125 C74.3906398 157.68501885 71.69700979 160.34415143 69 163 C65 161.66666667 61 160.33333333 57 159 C54.39890349 159.62734068 52.06084819 160.33976768 49.5625 161.25 C48.55993164 161.54777344 48.55993164 161.54777344 47.53710938 161.8515625 C45.181863 162.63000801 45.181863 162.63000801 42 165 C40.68 168.63 39.36 172.26 38 176 C25.46 176 12.92 176 0 176 C-0.99 172.37 -1.98 168.74 -3 165 C-6.3292731 163.45598929 -8.55195966 162.73337393 -12 162 C-13.0725 161.4225 -14.145 160.845 -15.25 160.25 C-18.51999544 158.76363844 -19.65013583 158.82754754 -23 160 C-24.010625 160.556875 -25.02125 161.11375 -26.0625 161.6875 C-29 163 -29 163 -30.84472656 162.40869141 C-33.71764978 160.53094254 -36.03333154 158.2130864 -38.421875 155.7734375 C-38.92672424 155.26575836 -39.43157349 154.75807922 -39.95172119 154.23501587 C-41.55592096 152.61966158 -43.15300856 150.99747791 -44.75 149.375 C-45.83938107 148.27558302 -46.9292199 147.17661941 -48.01953125 146.078125 C-50.68501885 143.3906398 -53.34415143 140.69700979 -56 138 C-54.66666667 134 -53.33333333 130 -52 126 C-52.62734068 123.39890349 -53.33976768 121.06084819 -54.25 118.5625 C-54.44851562 117.89412109 -54.64703125 117.22574219 -54.8515625 116.53710938 C-55.63000801 114.181863 -55.63000801 114.181863 -58 111 C-61.63 109.68 -65.26 108.36 -69 107 C-69 94.46 -69 81.92 -69 69 C-65.37 68.01 -61.74 67.02 -58 66 C-55.99189249 61.56498373 -55.99189249 61.56498373 -55.484375 58.43359375 C-55 56 -55 56 -53.25 53.1875 C-51.77667315 51.06617092 -51.77667315 51.06617092 -52.125 48.5625 C-52.97052287 45.84375271 -52.97052287 45.84375271 -54.6875 42.9375 C-56 40 -56 40 -55.40869141 38.15527344 C-53.53094254 35.28235022 -51.2130864 32.96666846 -48.7734375 30.578125 C-48.26575836 30.07327576 -47.75807922 29.56842651 -47.23501587 29.04827881 C-45.61966158 27.44407904 -43.99747791 25.84699144 -42.375 24.25 C-41.27558302 23.16061893 -40.17661941 22.0707801 -39.078125 20.98046875 C-36.3906398 18.31498115 -33.69700979 15.65584857 -31 13 C-25.265625 14.8515625 -25.265625 14.8515625 -22.875 16.1875 C-20.40524129 17.25772877 -19.56118619 16.80368256 -17 16 C-13.87121438 14.73437717 -10.77845611 13.39583741 -7.6796875 12.05859375 C-5 11 -5 11 -3 11 C-2.01 7.37 -1.02 3.74 0 0 Z M-31.79296875 48 C-42.6865873 62.80760894 -47.15177867 79.76650708 -45 98 C-41.28881246 116.39099604 -31.27112522 131.57645807 -15.8203125 142.25 C-11.38228875 145.00378759 -6.87845574 147.14688876 -2 149 C-0.79537109 149.47953125 -0.79537109 149.47953125 0.43359375 149.96875 C17.23674893 155.63096766 34.39773977 151.89326304 49.95703125 144.6171875 C65.82581676 135.87061281 75.5303682 121.86191494 81.125 105.05859375 C85.62914891 89.31418037 83.66396488 72.75382201 76.25 58.25 C66.20334724 41.10270543 51.82071986 30.06001073 32.67578125 24.66015625 C7.77144457 20.18743266 -15.22841417 28.96961855 -31.79296875 48 Z " fill="#FCC528" transform="translate(237,136)"/>
<path d="M0 0 C0.70382813 0.50015625 1.40765625 1.0003125 2.1328125 1.515625 C2.75414063 1.95390625 3.37546875 2.3921875 4.015625 2.84375 C14.68712701 11.17039282 21.61129201 24.3819389 24.1328125 37.515625 C25.60796013 53.16771771 22.46075046 67.60556654 13.1328125 80.515625 C12.47539062 81.44568359 12.47539062 81.44568359 11.8046875 82.39453125 C3.69126547 92.81608196 -9.38393978 99.8253632 -22.2734375 102.23046875 C-38.84165353 104.05197443 -53.47649234 100.92021778 -67.1171875 90.85546875 C-78.31119553 81.54832949 -86.68118621 67.20166043 -88.04736328 52.58837891 C-89.09703089 36.52733578 -84.96071484 21.97034522 -74.6796875 9.328125 C-54.73665941 -12.06132052 -24.34577676 -15.90912145 0 0 Z " fill="#FC806D" transform="translate(111.8671875,33.484375)"/>
<path d="M0 0 C0.70382812 0.50015625 1.40765625 1.0003125 2.1328125 1.515625 C2.75414062 1.95390625 3.37546875 2.3921875 4.015625 2.84375 C14.68712701 11.17039282 21.61129201 24.3819389 24.1328125 37.515625 C25.78471266 55.04315508 21.33931823 70.42125063 10.2578125 84.265625 C0.2780665 95.2484898 -14.06538755 101.6291551 -28.72265625 102.83203125 C-43.74046455 103.46916136 -57.5787079 98.78613645 -69.1796875 89.140625 C-80.4863399 78.57086237 -87.65257493 63.8321768 -88.26953125 48.34692383 C-88.51200626 33.1299332 -83.38279435 18.66244619 -72.90234375 7.421875 C-52.20193157 -11.96737863 -23.95367401 -15.65289589 0 0 Z " fill="#FD806D" transform="translate(463.8671875,385.484375)"/>
<path d="M0 0 C14.24521305 10.79330136 25.58035749 25.54356194 28.2890625 43.734375 C29.84665152 62.76096162 25.9646599 79.50142273 13.96875 94.66796875 C5.46185591 104.49489813 -3.57517012 110.28133132 -15.7109375 114.734375 C-16.46375 115.05535156 -17.2165625 115.37632812 -17.9921875 115.70703125 C-32.07411843 121.03733961 -49.30613212 118.39242032 -62.66015625 112.4140625 C-80.63445008 103.23889996 -91.30695734 89.28541558 -98.1484375 70.609375 C-102.73351908 54.35317666 -100.12902778 37.104831 -92.0234375 22.484375 C-83.73524172 8.43224798 -71.9485578 -1.47752175 -56.7109375 -7.265625 C-55.90785156 -7.5853125 -55.10476562 -7.905 -54.27734375 -8.234375 C-36.47546916 -14.23313461 -15.45369067 -10.30246045 0 0 Z M-72.4140625 21.890625 C-81.93963411 33.68418985 -84.99558243 45.83249384 -83.7109375 60.734375 C-81.13225491 73.62778796 -74.98945126 84.46254574 -64.7109375 92.734375 C-52.30959579 100.78679514 -40.00534887 103.99325727 -25.2734375 101.046875 C-12.57915631 97.45415391 -1.6190914 90.82720891 5.3359375 79.359375 C11.89557169 67.19161764 14.47279396 54.81417985 11.1640625 41.109375 C7.17836732 28.45433362 -0.16521688 18.00159349 -12.00195312 11.65161133 C-33.07809543 1.11073451 -55.99155923 4.52670434 -72.4140625 21.890625 Z " fill="#040301" transform="translate(291.7109375,170.265625)"/>
<path d="M0 0 C7.33590199 4.77843157 11.62856456 11.65837182 14 20 C15.32339593 30.72647224 12.87791124 40.16037827 6.4375 48.875 C1.39325043 54.26257545 -7.47221888 58.61745894 -14.8203125 59.23828125 C-22.21377368 59.40432825 -27.64458785 58.86641044 -34 55 C-35.04800781 54.38125 -35.04800781 54.38125 -36.1171875 53.75 C-43.49878749 48.8475034 -47.64893302 41.43178111 -50 33 C-50.88055277 24.83952844 -50.30216839 18.0496591 -46 11 C-45.57589844 10.30132812 -45.15179688 9.60265625 -44.71484375 8.8828125 C-34.17648681 -6.6752075 -15.80622083 -8.79670733 0 0 Z " fill="#030301" transform="translate(274,197)"/>
<path d="M0 0 C0.9778093 -0.00554901 1.95561859 -0.01109802 2.96305847 -0.01681519 C6.19136748 -0.02861436 9.41827378 -0.00433254 12.64648438 0.02148438 C14.89180436 0.02319546 17.13712635 0.02312982 19.38244629 0.0213623 C24.08670174 0.02301571 28.79048076 0.04171827 33.49462891 0.07324219 C39.52404007 0.11291941 45.55282712 0.11728746 51.58234406 0.10977936 C56.2183402 0.10670954 60.85419609 0.11883071 65.49015808 0.13591003 C67.71330383 0.14294039 69.93646548 0.14606452 72.15962219 0.1452179 C75.26686319 0.14701597 78.37335698 0.16839946 81.48046875 0.1953125 C82.39906174 0.1923819 83.31765472 0.18945129 84.26408386 0.18643188 C89.05386571 0.25042776 92.37603763 0.45115905 96.24023438 3.61523438 C97.64481174 6.42438911 97.48918595 8.50333972 97.24023438 11.61523438 C95.46039033 14.75115008 94.71715231 15.45626173 91.24023438 16.61523438 C89.8556056 16.71340306 88.46683048 16.75861896 87.07876587 16.76913452 C86.23203812 16.77773499 85.38531036 16.78633545 84.51292419 16.79519653 C83.58714066 16.79945648 82.66135712 16.80371643 81.70751953 16.80810547 C80.73000229 16.81628296 79.75248505 16.82446045 78.74534607 16.83288574 C75.50666925 16.85772336 72.26803614 16.87424961 69.02929688 16.88867188 C67.37135164 16.89665739 67.37135164 16.89665739 65.67991257 16.90480423 C59.83218835 16.93152579 53.98448543 16.95090589 48.13671875 16.96533203 C42.09147921 16.98199818 36.04678287 17.02679574 30.00174904 17.07770348 C25.35722206 17.11132053 20.71282508 17.12290327 16.06818771 17.12855911 C13.83940849 17.13528441 11.61063819 17.15053944 9.38197708 17.17444992 C6.2647765 17.20599122 3.14905587 17.20615475 0.03173828 17.19873047 C-0.8899968 17.2151358 -1.81173187 17.23154114 -2.76139832 17.2484436 C-7.25501196 17.20458923 -9.15962973 17.07398583 -12.83267212 14.26626587 C-14.75976562 11.61523438 -14.75976562 11.61523438 -15.38476562 8.61523438 C-13.61716022 0.13072844 -7.26442958 -0.10488857 0 0 Z " fill="#CACFD7" transform="translate(214.759765625,391.384765625)"/>
<path d="M0 0 C31.68 0 63.36 0 96 0 C96 5.28 96 10.56 96 16 C64.32 16 32.64 16 0 16 C0 10.72 0 5.44 0 0 Z " fill="#000000" transform="translate(40,424)"/>
<path d="M0 0 C2.57935927 1.1110309 4.20985973 2.6611279 6.20605469 4.62812805 C6.9240625 5.31519836 7.64207031 6.00226868 8.38183594 6.7101593 C9.89355469 8.81562805 9.89355469 8.81562805 9.78773499 10.62623596 C8.50738341 13.76116482 6.49849911 15.56895103 4.09838867 17.95137024 C3.60081055 18.44938644 3.10323242 18.94740265 2.59057617 19.46051025 C0.94727894 21.10172066 -0.70638166 22.73205468 -2.36035156 24.36250305 C-3.50300782 25.49956299 -4.64500269 26.63728793 -5.78636169 27.77565002 C-8.78992037 30.76776281 -11.80237946 33.75075664 -14.81677246 36.73194885 C-17.89205724 39.7765274 -20.95885076 42.82963255 -24.02636719 45.8820343 C-30.04477577 51.86828323 -36.07261248 57.8449265 -42.10644531 63.81562805 C-45.53127239 62.19786688 -47.76335053 60.39219562 -50.43457031 57.68281555 C-51.23378906 56.87715149 -52.03300781 56.07148743 -52.85644531 55.2414093 C-54.09394531 53.97877258 -54.09394531 53.97877258 -55.35644531 52.69062805 C-56.19691406 51.84113586 -57.03738281 50.99164368 -57.90332031 50.1164093 C-59.97560214 48.02057882 -62.04306924 45.92022092 -64.10644531 43.81562805 C-62.50109244 40.40503402 -60.70125631 38.19770321 -57.98144531 35.56562805 C-57.25699219 34.8592218 -56.53253906 34.15281555 -55.78613281 33.42500305 C-55.23183594 32.8939093 -54.67753906 32.36281555 -54.10644531 31.81562805 C-49.81265718 33.73849839 -47.3349083 36.44041674 -44.10644531 39.81562805 C-40.82897722 38.38571935 -38.71124199 36.64225621 -36.22753906 34.08442688 C-35.47996338 33.32056168 -34.7323877 32.55669647 -33.9621582 31.76968384 C-33.16414795 30.94566574 -32.3661377 30.12164764 -31.54394531 29.2726593 C-29.84385355 27.54241989 -28.14331932 25.81261515 -26.44238281 24.08320618 C-23.76422547 21.34911014 -21.09013553 18.61133289 -18.42382812 15.86567688 C-15.84985829 13.21947105 -13.26071965 10.58891262 -10.66894531 7.9601593 C-9.87093506 7.13006851 -9.0729248 6.29997772 -8.25073242 5.44473267 C-7.1293689 4.31311958 -7.1293689 4.31311958 -5.98535156 3.15864563 C-5.33123291 2.48739151 -4.67711426 1.81613739 -4.00317383 1.12454224 C-2.10644531 -0.18437195 -2.10644531 -0.18437195 0 0 Z " fill="#060302" transform="translate(459.1064453125,403.1843719482422)"/>
<path d="M0 0 C2.57935927 1.1110309 4.20985973 2.6611279 6.20605469 4.62812805 C6.9240625 5.31519836 7.64207031 6.00226868 8.38183594 6.7101593 C9.89355469 8.81562805 9.89355469 8.81562805 9.78773499 10.62623596 C8.50738341 13.76116482 6.49849911 15.56895103 4.09838867 17.95137024 C3.60081055 18.44938644 3.10323242 18.94740265 2.59057617 19.46051025 C0.94727894 21.10172066 -0.70638166 22.73205468 -2.36035156 24.36250305 C-3.50300782 25.49956299 -4.64500269 26.63728793 -5.78636169 27.77565002 C-8.78992037 30.76776281 -11.80237946 33.75075664 -14.81677246 36.73194885 C-17.89205724 39.7765274 -20.95885076 42.82963255 -24.02636719 45.8820343 C-30.04477577 51.86828323 -36.07261248 57.8449265 -42.10644531 63.81562805 C-45.53127239 62.19786688 -47.76335053 60.39219562 -50.43457031 57.68281555 C-51.23378906 56.87715149 -52.03300781 56.07148743 -52.85644531 55.2414093 C-54.09394531 53.97877258 -54.09394531 53.97877258 -55.35644531 52.69062805 C-56.19691406 51.84113586 -57.03738281 50.99164368 -57.90332031 50.1164093 C-59.97560214 48.02057882 -62.04306924 45.92022092 -64.10644531 43.81562805 C-62.50109244 40.40503402 -60.70125631 38.19770321 -57.98144531 35.56562805 C-57.25699219 34.8592218 -56.53253906 34.15281555 -55.78613281 33.42500305 C-55.23183594 32.8939093 -54.67753906 32.36281555 -54.10644531 31.81562805 C-49.81265718 33.73849839 -47.3349083 36.44041674 -44.10644531 39.81562805 C-40.82897722 38.38571935 -38.71124199 36.64225621 -36.22753906 34.08442688 C-35.47996338 33.32056168 -34.7323877 32.55669647 -33.9621582 31.76968384 C-33.16414795 30.94566574 -32.3661377 30.12164764 -31.54394531 29.2726593 C-29.84385355 27.54241989 -28.14331932 25.81261515 -26.44238281 24.08320618 C-23.76422547 21.34911014 -21.09013553 18.61133289 -18.42382812 15.86567688 C-15.84985829 13.21947105 -13.26071965 10.58891262 -10.66894531 7.9601593 C-9.87093506 7.13006851 -9.0729248 6.29997772 -8.25073242 5.44473267 C-7.1293689 4.31311958 -7.1293689 4.31311958 -5.98535156 3.15864563 C-5.33123291 2.48739151 -4.67711426 1.81613739 -4.00317383 1.12454224 C-2.10644531 -0.18437195 -2.10644531 -0.18437195 0 0 Z " fill="#060302" transform="translate(107.1064453125,51.18437194824219)"/>
<path d="M0 0 C15.84 0 31.68 0 48 0 C48 17.27184466 48 17.27184466 41.390625 24.84375 C36.05628173 29.83552077 30.26065739 32.09281336 23 32.4375 C15.33403939 32.13273704 10.79987931 29.14425078 5.625 23.625 C-0.90536993 16.26207295 0 10.06477628 0 0 Z " fill="#A8B0BB" transform="translate(232,456)"/>
<path d="M0 0 C5.28 0 10.56 0 16 0 C16 26.4 16 52.8 16 80 C10.72 80 5.44 80 0 80 C0 53.6 0 27.2 0 0 Z " fill="#B4DD7F" transform="translate(472,24)"/>
<path d="M0 0 C0.66569504 -0.00554901 1.33139008 -0.01109802 2.01725769 -0.01681519 C4.20691044 -0.02857861 6.39447797 -0.00437471 8.58398438 0.02148438 C10.11185614 0.02319649 11.63973084 0.02312877 13.16760254 0.0213623 C16.36543997 0.02301365 19.56257476 0.04167599 22.76025391 0.07324219 C26.85265379 0.1129199 30.94413402 0.11728643 35.03668976 0.10977936 C38.19037249 0.1067051 41.3438497 0.11884625 44.4974823 0.13591003 C46.00610565 0.14292529 47.5147523 0.14606636 49.02339172 0.1452179 C51.13450962 0.14702221 53.24453978 0.16845545 55.35546875 0.1953125 C57.15485901 0.20794128 57.15485901 0.20794128 58.99060059 0.2208252 C62.47938538 0.65256382 64.38053785 1.52169287 67.17773438 3.61523438 C68.58231174 6.42438911 68.42668595 8.50333972 68.17773438 11.61523438 C66.39789033 14.75115008 65.65465231 15.45626173 62.17773438 16.61523438 C59.98138324 16.72994826 57.78173889 16.78461539 55.58251953 16.80810547 C54.91711655 16.81628296 54.25171356 16.82446045 53.56614685 16.83288574 C51.36637258 16.85767791 49.16666249 16.87423814 46.96679688 16.88867188 C46.21454205 16.89399555 45.46228722 16.89931923 44.68723679 16.90480423 C40.70686615 16.93150667 36.72652659 16.95089235 32.74609375 16.96533203 C29.45381955 16.97868118 26.16216371 17.00655447 22.87011719 17.04736328 C18.89194295 17.09667402 14.9143303 17.12145046 10.93586349 17.12855911 C9.42158246 17.13527098 7.90731392 17.15049166 6.39320755 17.17444992 C4.27205411 17.20610378 2.15306628 17.20614005 0.03173828 17.19873047 C-1.77670059 17.21086075 -1.77670059 17.21086075 -3.62167358 17.22323608 C-7.75547101 16.43795765 -9.23531615 14.86445309 -11.82226562 11.61523438 C-12.44726562 8.61523438 -12.44726562 8.61523438 -11.82226562 5.61523438 C-8.14529699 1.00473595 -5.84277586 -0.01000643 0 0 Z " fill="#CACFD7" transform="translate(227.822265625,423.384765625)"/>
<path d="M0 0 C21.12 0 42.24 0 64 0 C64 5.28 64 10.56 64 16 C42.88 16 21.76 16 0 16 C0 10.72 0 5.44 0 0 Z " fill="#000000" transform="translate(40,456)"/>
<path d="M0 0 C5.28 0 10.56 0 16 0 C16 21.12 16 42.24 16 64 C10.72 64 5.44 64 0 64 C0 42.88 0 21.76 0 0 Z " fill="#B4DD7F" transform="translate(440,40)"/>
<path d="M0 0 C5.67476113 1.96434039 9.31400331 5.62800662 12 11 C12.59057744 16.67862925 12.29370905 21.16922672 9 26 C4.99653611 30.03627917 1.41408246 32.12458106 -4.3125 32.3125 C-8.94226662 32.25237316 -11.4369151 31.06591027 -15 28 C-19.3022759 23.23261319 -20.36282503 19.56252705 -20.28125 13.28125 C-19.69180611 8.50020514 -16.85179203 5.75038822 -13.375 2.6875 C-8.92314854 -0.47565762 -5.3540278 -0.48837416 0 0 Z " fill="#F9E4A3" transform="translate(260,208)"/>
<path d="M0 0 C5.28 0 10.56 0 16 0 C16 15.84 16 31.68 16 48 C10.72 48 5.44 48 0 48 C0 32.16 0 16.32 0 0 Z " fill="#B4DD7F" transform="translate(408,56)"/>
<path d="M0 0 C5.28 0 10.56 0 16 0 C16 5.28 16 10.56 16 16 C10.72 16 5.44 16 0 16 C0 10.72 0 5.44 0 0 Z " fill="#000000" transform="translate(120,456)"/>
</svg>
