<?xml version="1.0" encoding="UTF-8"?>
<svg version="1.1" xmlns="http://www.w3.org/2000/svg" width="512" height="512">
<path d="M0 0 C5.57880887 0.41020653 8.51457324 3.91240772 12.25 7.75 C13.27078115 8.77348789 14.29301707 9.79552614 15.31640625 10.81640625 C16.92766321 12.42378766 18.53463858 14.03401209 20.12597656 15.66113281 C23.93363535 19.53879452 26.60209482 21.85123182 32.01953125 22.609375 C32.97964111 22.75221924 33.93975098 22.89506348 34.92895508 23.04223633 C35.9630249 23.19329834 36.99709473 23.34436035 38.0625 23.5 C83.4912687 30.64705856 125.9392906 50.6882314 159.5 82.1875 C161.97679294 84.49542069 164.50228742 86.72326209 167.0625 88.9375 C171.18105348 92.59105551 174.72910346 96.52640352 178.25 100.75 C178.98734375 101.59949219 179.7246875 102.44898437 180.484375 103.32421875 C192.21949769 117.02142405 201.99573815 131.72122242 210.25 147.75 C210.67023438 148.55920898 211.09046875 149.36841797 211.5234375 150.20214844 C226.87418922 180.0779675 237.03815544 214.91923417 236.25 248.75 C237.27480469 248.70359375 238.29960937 248.6571875 239.35546875 248.609375 C240.71611656 248.57183989 242.07679605 248.53544159 243.4375 248.5 C244.11103516 248.46648437 244.78457031 248.43296875 245.47851562 248.3984375 C249.07046654 248.32835065 251.09608908 248.65679498 254.19140625 250.53125 C256.25 252.75 256.25 252.75 257 256.5 C256.58997448 262.0763471 253.08982269 265.01879126 249.25 268.75 C247.68470041 270.29408396 246.1228975 271.84158039 244.56347656 273.39160156 C243.49579219 274.4477434 242.42109238 275.49684911 241.33886719 276.53808594 C237.1169318 280.65658255 235.21893816 283.69504546 234.42578125 289.51171875 C234.21949097 290.92348389 234.21949097 290.92348389 234.0090332 292.36376953 C233.86167725 293.37810059 233.71432129 294.39243164 233.5625 295.4375 C228.00641571 330.65724281 214.30136802 364.87108105 193.25 393.75 C192.84571777 394.3083252 192.44143555 394.86665039 192.02490234 395.44189453 C186.71299371 402.71603021 180.95440843 409.45474925 174.79296875 416.01953125 C172.59060742 418.38427867 170.47038207 420.79099414 168.375 423.25 C161.90920792 430.60445545 161.90920792 430.60445545 156.6875 431.0625 C153.25 430.75 153.25 430.75 151.30078125 430.046875 C149.15309618 429.5282485 149.15309618 429.5282485 147.109375 430.90234375 C142.94223552 434.15656633 142.94223552 434.15656633 140.91015625 438.7890625 C140.96042969 439.45679688 141.01070313 440.12453125 141.0625 440.8125 C141.26622526 445.09073054 140.71134825 446.08744964 137.93823242 449.17260742 C134.63656888 452.25750231 130.85244297 454.54183031 127 456.875 C126.07888428 457.43485596 125.15776855 457.99471191 124.20874023 458.5715332 C89.70746209 479.12554761 48.82324151 493.34191732 8.25 492.75 C8.29640625 493.77480469 8.3428125 494.79960937 8.390625 495.85546875 C8.42816011 497.21611656 8.46455841 498.57679605 8.5 499.9375 C8.53351563 500.61103516 8.56703125 501.28457031 8.6015625 501.97851562 C8.67164935 505.57046654 8.34320502 507.59608908 6.46875 510.69140625 C4.25 512.75 4.25 512.75 0.5 513.5 C-5.07880887 513.08979347 -8.01457324 509.58759228 -11.75 505.75 C-12.77078115 504.72651211 -13.79301707 503.70447386 -14.81640625 502.68359375 C-16.42766321 501.07621234 -18.03463858 499.46598791 -19.62597656 497.83886719 C-23.3257134 494.07111155 -25.99752713 491.67226075 -31.265625 490.890625 C-32.17521973 490.74786133 -33.08481445 490.60509766 -34.02197266 490.45800781 C-35.00472168 490.30686523 -35.9874707 490.15572266 -37 490 C-61.81272201 485.89516967 -85.52251127 478.71808993 -107.74462891 466.82275391 C-109.12295562 466.08543134 -110.50572608 465.35637472 -111.89208984 464.63427734 C-141.4965045 449.20184147 -167.99579779 426.70081476 -187.75 399.75 C-188.38711914 398.89607666 -188.38711914 398.89607666 -189.03710938 398.02490234 C-218.07398562 359.07112017 -233.33537853 313.10597214 -235.75 264.75 C-236.77480469 264.79640625 -237.79960937 264.8428125 -238.85546875 264.890625 C-240.21611656 264.92816011 -241.57679605 264.96455841 -242.9375 265 C-243.61103516 265.03351563 -244.28457031 265.06703125 -244.97851562 265.1015625 C-248.57046654 265.17164935 -250.59608908 264.84320502 -253.69140625 262.96875 C-255.75 260.75 -255.75 260.75 -256.5 257 C-256.08979347 251.42119113 -252.58759228 248.48542676 -248.75 244.75 C-247.72651211 243.72921885 -246.70447386 242.70698293 -245.68359375 241.68359375 C-244.07621234 240.07233679 -242.46598791 238.46536142 -240.83886719 236.87402344 C-236.69845932 232.80836181 -234.61031025 230.01840715 -233.671875 224.2890625 C-233.48391357 223.18836426 -233.29595215 222.08766602 -233.10229492 220.95361328 C-232.9035376 219.7726709 -232.70478027 218.59172852 -232.5 217.375 C-227.96675393 191.87865887 -220.09067722 167.56895634 -207.75 144.75 C-207.43595215 144.16202637 -207.1219043 143.57405273 -206.79833984 142.96826172 C-196.92836465 124.61348133 -184.40662152 108.35600798 -170.13183594 93.21972656 C-169.21044274 92.23972885 -168.29440183 91.25467132 -167.38378906 90.26464844 C-166.08197091 88.85127288 -164.76002801 87.45651601 -163.4375 86.0625 C-162.67824219 85.25425781 -161.91898437 84.44601563 -161.13671875 83.61328125 C-158.22879149 81.34309908 -156.4211313 80.87822839 -152.75 80.75 C-151.90050781 81.11738281 -151.05101562 81.48476562 -150.17578125 81.86328125 C-147.73117987 83.06719318 -147.73117987 83.06719318 -145.29296875 81.73046875 C-142.82816323 79.8542735 -140.71393211 78.15368213 -138.75 75.75 C-138.36443015 73.51562787 -138.36443015 73.51562787 -138.6875 71.25 C-139.06838548 67.22349635 -139.06838548 67.22349635 -137.53125 64.9375 C-131.16463448 59.11042817 -123.23102604 54.97848359 -115.75 50.75 C-115.0988623 50.37584961 -114.44772461 50.00169922 -113.77685547 49.61621094 C-82.63237647 31.83040329 -43.88198196 20.05403887 -7.75 20.75 C-7.79640625 19.72519531 -7.8428125 18.70039063 -7.890625 17.64453125 C-7.92816011 16.28388344 -7.96455841 14.92320395 -8 13.5625 C-8.03351563 12.88896484 -8.06703125 12.21542969 -8.1015625 11.52148438 C-8.17164935 7.92953346 -7.84320502 5.90391092 -5.96875 2.80859375 C-3.75 0.75 -3.75 0.75 0 0 Z M-76.75 115.75 C-77.37036133 116.08725098 -77.99072266 116.42450195 -78.62988281 116.77197266 C-106.34869127 131.95749773 -128.46766292 155.69108442 -142.75 183.75 C-143.06662598 184.36020996 -143.38325195 184.97041992 -143.70947266 185.59912109 C-148.67302122 195.25406542 -152.19083124 205.22198905 -155.13085938 215.66308594 C-155.6606202 217.44873088 -156.29679763 219.2022093 -156.953125 220.9453125 C-157.90760152 223.92154383 -158.30063081 225.66369115 -157.75 228.75 C-155.00178865 233.02093946 -151.77069772 236.57133825 -148.23632812 240.19970703 C-146.07654384 242.45243866 -144.09484774 244.83082568 -142.125 247.25 C-141.17753906 248.37921875 -141.17753906 248.37921875 -140.2109375 249.53125 C-138.58036059 252.00763418 -138.04800551 253.81320372 -137.75 256.75 C-138.81399073 260.56263347 -139.3751651 261.50011007 -142.75 263.75 C-144.65112305 264.06884766 -144.65112305 264.06884766 -146.76171875 264.1640625 C-147.51904297 264.20273437 -148.27636719 264.24140625 -149.05664062 264.28125 C-150.23516602 264.32765625 -150.23516602 264.32765625 -151.4375 264.375 C-152.23478516 264.41367187 -153.03207031 264.45234375 -153.85351562 264.4921875 C-155.81863475 264.58632494 -157.7842854 264.66924632 -159.75 264.75 C-158.57915214 307.19323478 -138.99035504 345.50835676 -108.8828125 374.9296875 C-89.52319299 392.76792237 -66.87400222 404.65668058 -41.77001953 412.13085938 C-39.96345213 412.68457643 -38.18051356 413.3140628 -36.40234375 413.953125 C-33.16020131 414.89287643 -31.09031455 415.29228845 -27.75 414.75 C-23.43373239 412.03235002 -19.89132665 408.80849735 -16.26660156 405.24072266 C-6.17102482 395.31741428 -6.17102482 395.31741428 0.1875 395 C2.89733682 395.09836068 3.91296363 395.45451606 5.9609375 397.25 C7.85594236 400.92516095 7.81902374 404.4176467 7.9375 408.5 C7.97166016 409.29277344 8.00582031 410.08554687 8.04101562 410.90234375 C8.12319104 412.85107504 8.18828045 414.80051362 8.25 416.75 C43.00679591 418.43178045 79.41224599 400.91123565 105.25 378.75 C107.68596569 376.50043864 109.99463346 374.17885628 112.25 371.75 C117.25 366.75 117.25 366.75 118.7265625 365.4140625 C138.37681856 347.0676149 150.72993369 319.37034356 157.25 293.75 C157.55035156 292.89019531 157.85070312 292.03039062 158.16015625 291.14453125 C158.86774551 288.5719054 159.00375648 287.32721525 158.25 284.75 C155.39715429 280.61521257 152.15536068 276.98746247 148.72021484 273.33251953 C146.59564345 271.04565939 144.60125667 268.66542482 142.625 266.25 C141.67753906 265.12078125 141.67753906 265.12078125 140.7109375 263.96875 C139.08036059 261.49236582 138.54800551 259.68679628 138.25 256.75 C139.31399073 252.93736653 139.8751651 251.99988993 143.25 249.75 C145.24291992 249.43115234 145.24291992 249.43115234 147.48046875 249.3359375 C148.28291016 249.29726562 149.08535156 249.25859375 149.91210938 249.21875 C151.16217773 249.17234375 151.16217773 249.17234375 152.4375 249.125 C153.28248047 249.08632812 154.12746094 249.04765625 154.99804688 249.0078125 C157.08167524 248.91363721 159.16580753 248.83073325 161.25 248.75 C158.13504783 211.41156016 145.38608801 176.69375459 119.42578125 149.078125 C117.73066189 147.26431685 116.15753465 145.4477029 114.625 143.5 C111.46433931 139.84028762 107.9825504 136.81493976 104.25 133.75 C103.32316406 132.98558594 102.39632813 132.22117188 101.44140625 131.43359375 C82.37150951 116.05946067 60.035229 105.48576063 36.25 99.75 C35.54439941 99.56751709 34.83879883 99.38503418 34.11181641 99.19702148 C30.10888291 98.38489428 28.47919269 98.60805369 24.9765625 100.77734375 C23.92341204 101.7264115 22.89002914 102.69776704 21.875 103.6875 C20.74783714 104.70361475 19.62022854 105.71923525 18.4921875 106.734375 C17.41014754 107.73817221 16.32935343 108.74331459 15.25 109.75 C5.50644918 118.6885281 5.50644918 118.6885281 -1.83984375 118.421875 C-4.67124857 117.42596165 -5.36801594 116.43021152 -6.75 113.75 C-7.24324299 110.83864526 -7.35193792 107.94822478 -7.4375 105 C-7.47166016 104.20722656 -7.50582031 103.41445312 -7.54101562 102.59765625 C-7.62319104 100.64892496 -7.68828045 98.69948638 -7.75 96.75 C-31.83142236 96.02514113 -55.89957615 104.15011631 -76.75 115.75 Z " fill="#010101" transform="translate(255.75,-0.75)"/>
<path d="M0 0 C0.86431641 -0.02449219 1.72863281 -0.04898438 2.61914062 -0.07421875 C8.55676795 -0.10110612 13.40467564 0.65595012 18.1875 4.375 C22.13556028 8.87770476 22.92865435 14.01908021 23.4375 19.8125 C23.51484375 20.54404297 23.5921875 21.27558594 23.671875 22.02929688 C23.8580671 23.80975885 24.02484664 25.59223355 24.1875 27.375 C25.21746094 27.49101562 26.24742187 27.60703125 27.30859375 27.7265625 C30.98171415 28.34059874 33.85027802 29.27186001 37.25 30.75 C38.28382813 31.19214844 39.31765625 31.63429687 40.3828125 32.08984375 C43.1875 33.375 43.1875 33.375 46.625 35.3125 C49.12470954 36.66572866 49.12470954 36.66572866 51.55078125 35.6640625 C54.32355226 34.30848556 56.51011704 32.71236346 58.9375 30.8125 C63.64557335 27.47353997 67.36186568 25.70526467 73.1875 26.375 C81.03969353 28.24382206 87.16162456 35.4478771 92.1875 41.375 C94.89834097 46.06004037 96.12518945 49.97011586 95.1875 55.375 C93.5810698 58.8350035 91.92107519 61.4803125 89.515625 64.4140625 C88.95359375 65.10242188 88.3915625 65.79078125 87.8125 66.5 C87.26851562 67.12132812 86.72453125 67.74265625 86.1640625 68.3828125 C84.91072214 70.37920972 84.91072214 70.37920972 85.83984375 72.69140625 C86.50693359 74.01978516 86.50693359 74.01978516 87.1875 75.375 C87.65027344 76.45394531 88.11304688 77.53289062 88.58984375 78.64453125 C89.3729463 80.45184427 90.1570167 82.25885229 90.96337891 84.0559082 C92.4451605 87.40642505 93.41547588 90.47385078 94.0625 94.0625 C95.886674 97.70992565 95.886674 97.70992565 99.71484375 98.37890625 C101.84935163 98.79106826 103.96243816 99.12073573 106.12255859 99.3659668 C111.07989024 99.94484471 114.28091798 101.0216128 118.1875 104.375 C121.96790668 109.62600886 121.6706074 115.08916305 121.625 121.3125 C121.64498047 122.27607422 121.66496094 123.23964844 121.68554688 124.23242188 C121.68127115 130.48781011 120.93735368 134.31269753 117.1875 139.375 C112.9313111 143.13743149 107.91076494 143.53928746 102.4375 144 C97.91043275 144.4771027 97.91043275 144.4771027 94.640625 147.296875 C93.60658884 149.95824675 92.90148519 152.61106765 92.1875 155.375 C91.3429667 157.49157881 90.46735285 159.59599727 89.5625 161.6875 C88.76818296 163.58222441 87.97635377 165.4779945 87.1875 167.375 C86.48560547 168.59896484 86.48560547 168.59896484 85.76953125 169.84765625 C84.84127653 172.56498212 84.84127653 172.56498212 86.92578125 175.3828125 C87.76581899 176.43650913 88.62480431 177.47531833 89.5 178.5 C93.51094616 183.3949178 95.61301475 186.6770624 95.4453125 193.27734375 C94.43673559 201.48349225 86.19896022 208.37473905 80.1875 213.375 C75.71198891 215.86578361 71.85312281 217.01271946 66.78515625 216.30859375 C62.6494303 214.82222006 59.24682071 212.12940386 55.88037109 209.35058594 C54.12492619 207.90984639 54.12492619 207.90984639 51.1875 206.375 C48.06598949 206.82501249 48.06598949 206.82501249 45.1875 208.375 C43.81078125 208.97828125 43.81078125 208.97828125 42.40625 209.59375 C41.5090625 210.0165625 40.611875 210.439375 39.6875 210.875 C29.90431416 215.375 29.90431416 215.375 24.1875 215.375 C24.04054688 216.98568359 24.04054688 216.98568359 23.890625 218.62890625 C23.74042514 220.06519245 23.58933586 221.50138583 23.4375 222.9375 C23.375625 223.64197266 23.31375 224.34644531 23.25 225.07226562 C22.68828533 230.15110245 21.62020391 234.46139193 18.1875 238.375 C12.64873658 242.66902539 6.84259637 242.97005846 0.0625 242.8125 C-0.80503906 242.81958984 -1.67257813 242.82667969 -2.56640625 242.83398438 C-9.37193868 242.76665415 -13.52426985 241.5564245 -18.57421875 236.7421875 C-21.45557139 233.0133782 -22.0158649 229.07821284 -22.625 224.5 C-22.80579102 223.324375 -22.80579102 223.324375 -22.99023438 222.125 C-23.28201088 220.21094616 -23.54975467 218.29325455 -23.8125 216.375 C-24.946875 215.98828125 -26.08125 215.6015625 -27.25 215.203125 C-28.77093263 214.67737051 -30.29176039 214.15131254 -31.8125 213.625 C-32.92818359 213.24601562 -32.92818359 213.24601562 -34.06640625 212.859375 C-38.64159824 211.26800387 -42.88364092 209.42727272 -47.13476562 207.09912109 C-48.89814933 206.16286149 -48.89814933 206.16286149 -51.3125 206.75 C-54.29118333 208.68614416 -57.08489474 210.82082765 -59.91015625 212.97265625 C-64.39059544 216.27548514 -68.04835482 216.87992666 -73.48828125 216.09765625 C-77.89046944 214.72890866 -80.65731145 211.60802053 -83.8125 208.375 C-84.62589844 207.59640625 -85.43929687 206.8178125 -86.27734375 206.015625 C-91.15827822 201.29661726 -93.91872608 198.61660025 -94.125 191.625 C-94.0546645 185.56735479 -91.9932871 182.21845721 -88.3984375 177.53125 C-85.6302059 174.34157017 -85.6302059 174.34157017 -85.07617188 170.41162109 C-85.80185627 168.40443965 -86.56094918 166.43651914 -87.40625 164.4765625 C-87.71433594 163.74953125 -88.02242187 163.0225 -88.33984375 162.2734375 C-88.98545707 160.76441359 -89.63387207 159.25658509 -90.28515625 157.75 C-92.02948148 153.61908753 -93.29834978 149.87381443 -93.8125 145.375 C-94.82570312 145.26542969 -95.83890625 145.15585937 -96.8828125 145.04296875 C-98.23444461 144.88340107 -99.58600343 144.72321167 -100.9375 144.5625 C-101.60265625 144.49224609 -102.2678125 144.42199219 -102.953125 144.34960938 C-108.70008617 143.64532492 -113.8787878 142.13578098 -117.625 137.5 C-121.16254944 132.44635795 -120.99437216 127.52178763 -121 121.5 C-121.01224609 120.81808594 -121.02449219 120.13617188 -121.03710938 119.43359375 C-121.05228145 114.12336748 -120.49913334 109.11436421 -117.6484375 104.484375 C-111.61179838 98.86739528 -101.88372131 97.375 -93.8125 97.375 C-93.60625 96.17875 -93.4 94.9825 -93.1875 93.75 C-91.93840525 88.01510514 -89.54831765 82.83675609 -87.15234375 77.51171875 C-86.48912109 75.95904297 -86.48912109 75.95904297 -85.8125 74.375 C-85.50699219 73.69179687 -85.20148438 73.00859375 -84.88671875 72.3046875 C-84.76196618 69.06112077 -86.73912118 67.29010974 -88.6875 64.8125 C-92.24916582 60.23942036 -93.95619367 57.32913027 -94.0625 51.5 C-94.08828125 50.65695313 -94.1140625 49.81390625 -94.140625 48.9453125 C-93.3622808 42.84828292 -88.64843234 38.84534989 -84.5 34.6875 C-83.94376953 34.10677734 -83.38753906 33.52605469 -82.81445312 32.92773438 C-79.38940686 29.47876462 -76.7005313 27.4243696 -71.8125 26.375 C-64.01637913 26.375 -58.48152479 29.84242654 -52.921875 35.1953125 C-50.7860897 36.69695928 -50.7860897 36.69695928 -47.99609375 35.75 C-46.42021484 35.069375 -46.42021484 35.069375 -44.8125 34.375 C-43.68972656 33.900625 -42.56695312 33.42625 -41.41015625 32.9375 C-39.05556379 31.89679615 -36.70139594 30.85513109 -34.34765625 29.8125 C-30.84683751 28.38896265 -27.45836295 27.3435051 -23.8125 26.375 C-23.66554688 25.22902344 -23.51859375 24.08304688 -23.3671875 22.90234375 C-21.28728901 8.29644144 -21.28728901 8.29644144 -16.5078125 3.50390625 C-11.220948 -0.01660951 -6.16038172 0.00906605 0 0 Z M-30.8125 100.375 C-35.76119717 109.07788123 -38.55226888 118.54604004 -36.328125 128.5546875 C-36.13734375 129.21726562 -35.9465625 129.87984375 -35.75 130.5625 C-34.74213207 134.66116293 -34.85176177 137.2918625 -35.8125 141.375 C-36.4725 142.365 -37.1325 143.355 -37.8125 144.375 C-36.90623216 145.6739839 -35.98700463 146.96393167 -35.0625 148.25 C-34.55203125 148.96929687 -34.0415625 149.68859375 -33.515625 150.4296875 C-31.73746453 152.46070565 -30.28548393 153.35355012 -27.8125 154.375 C-27.3175 153.88 -27.3175 153.88 -26.8125 153.375 C-20.91504191 152.84844124 -17.16635971 153.75498766 -11.890625 156.40234375 C-4.33280101 159.93974633 5.17049235 159.37594117 12.9375 156.8125 C23.53545509 152.41596841 31.13046618 144.78187132 35.5625 134.25 C38.66596696 124.83528089 38.35317331 115.03597046 34.50390625 105.90234375 C29.5443209 96.38052855 21.91351592 89.39764848 11.875 85.4375 C-4.57164553 80.79647128 -20.34583576 87.41011961 -30.8125 100.375 Z " fill="#FC4654" transform="translate(255.8125,134.625)"/>
<path d="M0 0 C0.86431641 -0.02449219 1.72863281 -0.04898438 2.61914062 -0.07421875 C8.55676795 -0.10110612 13.40467564 0.65595012 18.1875 4.375 C22.13556028 8.87770476 22.92865435 14.01908021 23.4375 19.8125 C23.51484375 20.54404297 23.5921875 21.27558594 23.671875 22.02929688 C23.8580671 23.80975885 24.02484664 25.59223355 24.1875 27.375 C25.21746094 27.49101562 26.24742187 27.60703125 27.30859375 27.7265625 C30.98171415 28.34059874 33.85027802 29.27186001 37.25 30.75 C38.28382813 31.19214844 39.31765625 31.63429687 40.3828125 32.08984375 C43.1875 33.375 43.1875 33.375 46.625 35.3125 C49.12470954 36.66572866 49.12470954 36.66572866 51.55078125 35.6640625 C54.32355226 34.30848556 56.51011704 32.71236346 58.9375 30.8125 C63.64557335 27.47353997 67.36186568 25.70526467 73.1875 26.375 C81.03969353 28.24382206 87.16162456 35.4478771 92.1875 41.375 C94.89834097 46.06004037 96.12518945 49.97011586 95.1875 55.375 C93.5810698 58.8350035 91.92107519 61.4803125 89.515625 64.4140625 C88.95359375 65.10242188 88.3915625 65.79078125 87.8125 66.5 C87.26851562 67.12132812 86.72453125 67.74265625 86.1640625 68.3828125 C84.91072214 70.37920972 84.91072214 70.37920972 85.83984375 72.69140625 C86.50693359 74.01978516 86.50693359 74.01978516 87.1875 75.375 C87.65027344 76.45394531 88.11304688 77.53289062 88.58984375 78.64453125 C89.3729463 80.45184427 90.1570167 82.25885229 90.96337891 84.0559082 C92.4451605 87.40642505 93.41547588 90.47385078 94.0625 94.0625 C95.886674 97.70992565 95.886674 97.70992565 99.71484375 98.37890625 C101.84935163 98.79106826 103.96243816 99.12073573 106.12255859 99.3659668 C111.07989024 99.94484471 114.28091798 101.0216128 118.1875 104.375 C121.96790668 109.62600886 121.6706074 115.08916305 121.625 121.3125 C121.64498047 122.27607422 121.66496094 123.23964844 121.68554688 124.23242188 C121.68127115 130.48781011 120.93735368 134.31269753 117.1875 139.375 C112.9313111 143.13743149 107.91076494 143.53928746 102.4375 144 C97.91043275 144.4771027 97.91043275 144.4771027 94.640625 147.296875 C93.60658884 149.95824675 92.90148519 152.61106765 92.1875 155.375 C91.3429667 157.49157881 90.46735285 159.59599727 89.5625 161.6875 C88.76818296 163.58222441 87.97635377 165.4779945 87.1875 167.375 C86.48560547 168.59896484 86.48560547 168.59896484 85.76953125 169.84765625 C84.84127653 172.56498212 84.84127653 172.56498212 86.92578125 175.3828125 C87.76581899 176.43650913 88.62480431 177.47531833 89.5 178.5 C93.51094616 183.3949178 95.61301475 186.6770624 95.4453125 193.27734375 C94.43673559 201.48349225 86.19896022 208.37473905 80.1875 213.375 C75.71198891 215.86578361 71.85312281 217.01271946 66.78515625 216.30859375 C62.6494303 214.82222006 59.24682071 212.12940386 55.88037109 209.35058594 C54.12492619 207.90984639 54.12492619 207.90984639 51.1875 206.375 C48.06598949 206.82501249 48.06598949 206.82501249 45.1875 208.375 C43.81078125 208.97828125 43.81078125 208.97828125 42.40625 209.59375 C41.5090625 210.0165625 40.611875 210.439375 39.6875 210.875 C29.90431416 215.375 29.90431416 215.375 24.1875 215.375 C24.04054688 216.98568359 24.04054688 216.98568359 23.890625 218.62890625 C23.74042514 220.06519245 23.58933586 221.50138583 23.4375 222.9375 C23.375625 223.64197266 23.31375 224.34644531 23.25 225.07226562 C22.68828533 230.15110245 21.62020391 234.46139193 18.1875 238.375 C12.64873658 242.66902539 6.84259637 242.97005846 0.0625 242.8125 C-0.80503906 242.81958984 -1.67257813 242.82667969 -2.56640625 242.83398438 C-9.37193868 242.76665415 -13.52426985 241.5564245 -18.57421875 236.7421875 C-21.45557139 233.0133782 -22.0158649 229.07821284 -22.625 224.5 C-22.80579102 223.324375 -22.80579102 223.324375 -22.99023438 222.125 C-23.28201088 220.21094616 -23.54975467 218.29325455 -23.8125 216.375 C-24.946875 215.98828125 -26.08125 215.6015625 -27.25 215.203125 C-28.77093263 214.67737051 -30.29176039 214.15131254 -31.8125 213.625 C-32.92818359 213.24601562 -32.92818359 213.24601562 -34.06640625 212.859375 C-38.64159824 211.26800387 -42.88364092 209.42727272 -47.13476562 207.09912109 C-48.89814933 206.16286149 -48.89814933 206.16286149 -51.3125 206.75 C-54.29118333 208.68614416 -57.08489474 210.82082765 -59.91015625 212.97265625 C-64.39059544 216.27548514 -68.04835482 216.87992666 -73.48828125 216.09765625 C-77.89046944 214.72890866 -80.65731145 211.60802053 -83.8125 208.375 C-84.62589844 207.59640625 -85.43929687 206.8178125 -86.27734375 206.015625 C-91.15827822 201.29661726 -93.91872608 198.61660025 -94.125 191.625 C-94.0546645 185.56735479 -91.9932871 182.21845721 -88.3984375 177.53125 C-85.6302059 174.34157017 -85.6302059 174.34157017 -85.07617188 170.41162109 C-85.80185627 168.40443965 -86.56094918 166.43651914 -87.40625 164.4765625 C-87.71433594 163.74953125 -88.02242187 163.0225 -88.33984375 162.2734375 C-88.98545707 160.76441359 -89.63387207 159.25658509 -90.28515625 157.75 C-92.02948148 153.61908753 -93.29834978 149.87381443 -93.8125 145.375 C-94.82570312 145.26542969 -95.83890625 145.15585937 -96.8828125 145.04296875 C-98.23444461 144.88340107 -99.58600343 144.72321167 -100.9375 144.5625 C-101.60265625 144.49224609 -102.2678125 144.42199219 -102.953125 144.34960938 C-108.70008617 143.64532492 -113.8787878 142.13578098 -117.625 137.5 C-121.16254944 132.44635795 -120.99437216 127.52178763 -121 121.5 C-121.01224609 120.81808594 -121.02449219 120.13617188 -121.03710938 119.43359375 C-121.05228145 114.12336748 -120.49913334 109.11436421 -117.6484375 104.484375 C-111.61179838 98.86739528 -101.88372131 97.375 -93.8125 97.375 C-93.60625 96.17875 -93.4 94.9825 -93.1875 93.75 C-91.93840525 88.01510514 -89.54831765 82.83675609 -87.15234375 77.51171875 C-86.48912109 75.95904297 -86.48912109 75.95904297 -85.8125 74.375 C-85.50699219 73.69179687 -85.20148438 73.00859375 -84.88671875 72.3046875 C-84.76196618 69.06112077 -86.73912118 67.29010974 -88.6875 64.8125 C-92.24916582 60.23942036 -93.95619367 57.32913027 -94.0625 51.5 C-94.08828125 50.65695313 -94.1140625 49.81390625 -94.140625 48.9453125 C-93.3622808 42.84828292 -88.64843234 38.84534989 -84.5 34.6875 C-83.94376953 34.10677734 -83.38753906 33.52605469 -82.81445312 32.92773438 C-79.38940686 29.47876462 -76.7005313 27.4243696 -71.8125 26.375 C-64.01637913 26.375 -58.48152479 29.84242654 -52.921875 35.1953125 C-50.7860897 36.69695928 -50.7860897 36.69695928 -47.99609375 35.75 C-46.42021484 35.069375 -46.42021484 35.069375 -44.8125 34.375 C-43.68972656 33.900625 -42.56695312 33.42625 -41.41015625 32.9375 C-39.05556379 31.89679615 -36.70139594 30.85513109 -34.34765625 29.8125 C-30.84683751 28.38896265 -27.45836295 27.3435051 -23.8125 26.375 C-23.66554688 25.22902344 -23.51859375 24.08304688 -23.3671875 22.90234375 C-21.28728901 8.29644144 -21.28728901 8.29644144 -16.5078125 3.50390625 C-11.220948 -0.01660951 -6.16038172 0.00906605 0 0 Z M-5.8125 16.375 C-6.07804687 17.78394531 -6.34359375 19.19289062 -6.6171875 20.64453125 C-6.97360148 22.49225637 -7.33039192 24.3399089 -7.6875 26.1875 C-7.86152344 27.11626953 -8.03554687 28.04503906 -8.21484375 29.00195312 C-8.38886719 29.89462891 -8.56289062 30.78730469 -8.7421875 31.70703125 C-8.89929199 32.52921143 -9.05639648 33.3513916 -9.21826172 34.19848633 C-9.8125 36.375 -9.8125 36.375 -11.8125 39.375 C-14.7265625 40.26171875 -14.7265625 40.26171875 -18.4375 41.0625 C-28.0292884 43.33535214 -37.30593195 47.5237296 -45.3984375 53.18359375 C-48.76955525 54.84733309 -50.24280528 54.5371242 -53.8125 53.375 C-56.59220339 51.71251523 -59.13094414 49.79680353 -61.6875 47.8125 C-62.37585938 47.29236328 -63.06421875 46.77222656 -63.7734375 46.23632812 C-65.46069964 44.95916442 -67.13766428 43.66841639 -68.8125 42.375 C-69.93838014 43.33229916 -71.0631715 44.29087895 -72.1875 45.25 C-73.12722656 46.05050781 -73.12722656 46.05050781 -74.0859375 46.8671875 C-75.37086651 47.98932007 -76.60621975 49.16871975 -77.8125 50.375 C-77.20872506 55.42760919 -73.33892601 59.15752996 -70.23046875 62.97851562 C-67.7602266 66.22380509 -66.81874525 67.74214766 -66.77734375 71.9375 C-67.89547086 75.65052586 -69.38423306 78.31832403 -71.5 81.5625 C-75.66870557 88.22368012 -77.75317642 95.06704492 -79.46948242 102.7097168 C-81.02490573 108.87398087 -81.02490573 108.87398087 -84.96875 111.3828125 C-89.07876239 112.44373033 -93.03350439 113.14200776 -97.25 113.5625 C-97.98154297 113.64435547 -98.71308594 113.72621094 -99.46679688 113.81054688 C-101.24764466 114.00841885 -103.02994927 114.19310707 -104.8125 114.375 C-104.8125 118.995 -104.8125 123.615 -104.8125 128.375 C-103.73871094 128.48457031 -102.66492188 128.59414063 -101.55859375 128.70703125 C-100.1223322 128.86661587 -98.68613767 129.02680442 -97.25 129.1875 C-96.19329102 129.29288086 -96.19329102 129.29288086 -95.11523438 129.40039062 C-90.22742433 129.96350238 -85.97895286 130.60746525 -81.8125 133.375 C-79.93361497 137.03069471 -78.90063577 140.86069272 -77.8125 144.8125 C-75.3627868 153.00226908 -72.99805505 159.93855285 -67.96484375 166.91015625 C-66.28115583 170.51153618 -66.7558538 172.57600745 -67.8125 176.375 C-69.29918955 178.80546544 -71.06934209 180.9169181 -72.9375 183.0625 C-76.49761367 186.79748137 -76.49761367 186.79748137 -77.83984375 191.53515625 C-76.57935423 193.79253483 -75.1283782 195.34907879 -73.25 197.125 C-72.28900391 198.04539062 -72.28900391 198.04539062 -71.30859375 198.984375 C-70.81488281 199.44328125 -70.32117188 199.9021875 -69.8125 200.375 C-69.26722656 200.01148438 -68.72195312 199.64796875 -68.16015625 199.2734375 C-66.57331091 198.2155406 -64.98322534 197.16249436 -63.390625 196.11328125 C-61.70962534 194.97987996 -60.05143277 193.81166102 -58.421875 192.60546875 C-57.66390625 192.05503906 -56.9059375 191.50460937 -56.125 190.9375 C-55.09826172 190.16599609 -55.09826172 190.16599609 -54.05078125 189.37890625 C-50.87323593 187.95372449 -49.13744056 188.42442398 -45.8125 189.375 C-43.64480222 190.54939829 -41.52172066 191.80812899 -39.4375 193.125 C-32.9966263 197.03381124 -26.53550889 199.33696953 -19.30859375 201.3671875 C-18.15488281 201.69976562 -17.00117188 202.03234375 -15.8125 202.375 C-14.87535156 202.62507812 -13.93820313 202.87515625 -12.97265625 203.1328125 C-10.8125 204.375 -10.8125 204.375 -9.6015625 206.9765625 C-8.69342682 210.88783994 -7.88808787 214.79668271 -7.1875 218.75 C-6.98640625 219.85408203 -6.98640625 219.85408203 -6.78125 220.98046875 C-6.45443673 222.77794172 -6.13291989 224.57637633 -5.8125 226.375 C-1.5225 226.375 2.7675 226.375 7.1875 226.375 C7.34605469 224.97765625 7.50460937 223.5803125 7.66796875 222.140625 C7.90249538 220.30193623 8.1382361 218.46340202 8.375 216.625 C8.47619141 215.70460938 8.57738281 214.78421875 8.68164062 213.8359375 C9.59639089 207.01239498 9.59639089 207.01239498 12.58203125 203.79296875 C15.26778291 202.3313078 17.7845233 201.63305993 20.76171875 200.98828125 C29.25438324 198.8411825 37.07576076 195.17048566 44.45703125 190.51171875 C48.11986808 188.98684677 51.3288248 188.55869806 55.1875 189.375 C57.9958427 190.87346171 60.29678215 192.7869696 62.6875 194.875 C63.63496094 195.66197266 63.63496094 195.66197266 64.6015625 196.46484375 C66.14482166 197.75089305 67.66829056 199.06062779 69.1875 200.375 C72.15560069 199.04580708 74.19313789 197.59637857 76.4375 195.25 C77.345 194.30125 78.2525 193.3525 79.1875 192.375 C77.33872138 186.82866414 73.76884814 182.95751211 70.0859375 178.5078125 C67.80156933 174.73813499 67.62522801 172.71394847 68.1875 168.375 C69.32421875 165.9609375 69.32421875 165.9609375 70.875 163.75 C76.22880677 155.42887109 79.22025088 146.21867473 81.4140625 136.6171875 C82.30203299 134.04297002 83.08746909 133.08449162 85.1875 131.375 C87.36401367 130.7590332 87.36401367 130.7590332 89.85546875 130.42578125 C91.19448242 130.23725586 91.19448242 130.23725586 92.56054688 130.04492188 C93.95370117 129.86799805 93.95370117 129.86799805 95.375 129.6875 C96.31537109 129.55794922 97.25574219 129.42839844 98.22460938 129.29492188 C100.54405837 128.97702785 102.86560815 128.67453042 105.1875 128.375 C105.1875 123.755 105.1875 119.135 105.1875 114.375 C103.77855469 114.19324219 102.36960937 114.01148438 100.91796875 113.82421875 C99.07022169 113.57097423 97.22257021 113.3170316 95.375 113.0625 C94.44623047 112.94455078 93.51746094 112.82660156 92.56054688 112.70507812 C91.66787109 112.57939453 90.77519531 112.45371094 89.85546875 112.32421875 C88.62219849 112.15925903 88.62219849 112.15925903 87.36401367 111.9909668 C84.80865654 111.26778496 83.80453026 110.4593945 82.1875 108.375 C81.53816856 106.1695615 80.98937552 103.93385302 80.5 101.6875 C78.16903074 91.89404037 73.7680759 82.74586384 68.1875 74.375 C67.51799938 69.81681661 68.03854874 67.13436209 70.59375 63.41015625 C71.60815322 62.07298836 72.63995276 60.74886442 73.6875 59.4375 C74.21214844 58.75365234 74.73679687 58.06980469 75.27734375 57.36523438 C76.56580429 55.69023567 77.87466438 54.03096312 79.1875 52.375 C77.78071502 49.4340231 76.42576794 47.38551716 74.0625 45.125 C73.11375 44.2175 72.165 43.31 71.1875 42.375 C66.30831514 44.48931344 62.51132305 48.10889553 58.453125 51.4765625 C54.55844026 53.74069741 51.54383433 54.20914681 47.1875 53.375 C44.57362271 52.39009049 42.26166093 51.06659021 39.875 49.625 C32.4371066 45.3999574 25.0923338 42.17494626 16.6875 40.375 C13.1875 39.375 13.1875 39.375 11.57421875 37.921875 C9.45363978 34.02717786 9.0889028 29.9822371 8.5 25.625 C8.37044922 24.73683594 8.24089844 23.84867188 8.10742188 22.93359375 C7.79028794 20.74889334 7.48748452 18.56212119 7.1875 16.375 C2.8975 16.375 -1.3925 16.375 -5.8125 16.375 Z " fill="#020000" transform="translate(255.8125,134.625)"/>
<path d="M0 0 C0.66 0 1.32 0 2 0 C3.84847311 2.1729233 5.5921349 4.35402668 7.3125 6.625 C9.20223906 9.08808847 11.09678135 11.5473096 13 14 C13.67011108 14.86806274 13.67011108 14.86806274 14.35375977 15.75366211 C16.61411933 18.5911529 17.86752745 19.94751087 21.3125 21.3125 C30.89122608 20.50074355 38.84415432 7.82272896 45 1 C46.47942538 5.43827615 44.96936047 8.72452333 43.6875 13.125 C43.41897217 14.04861328 43.15044434 14.97222656 42.8737793 15.92382812 C31.49038863 53.72765557 12.08685025 86.8859519 -16.296875 114.3046875 C-18.97938129 116.69409563 -18.97938129 116.69409563 -20 119 C-19.81388322 120.35435747 -19.62615346 121.70849354 -19.4375 123.0625 C-19.33728571 126.69379424 -19.81128746 127.77978009 -22.22265625 130.59375 C-24.74713234 132.83772875 -27.30528665 134.96452902 -30 137 C-30.53625 136.67 -31.0725 136.34 -31.625 136 C-34.75478243 134.68219687 -36.61373236 134.55562952 -40 135 C-42.6631832 136.32280852 -45.01835637 138.02904327 -47.4375 139.75 C-64.08352177 150.99915583 -81.98306618 159.58246098 -101 166 C-101.73379883 166.24830566 -102.46759766 166.49661133 -103.22363281 166.75244141 C-119.46392201 172.12984786 -136.82297003 175.7820158 -153.953125 176.17578125 C-154.984375 176.19962891 -156.015625 176.22347656 -157.078125 176.24804688 C-159.20812283 176.29132885 -161.3384007 176.32240656 -163.46875 176.34179688 C-169.61712853 176.48206316 -169.61712853 176.48206316 -175.18359375 178.87109375 C-177.23952586 181.28073461 -177.73920457 182.87045486 -178 186 C-189.042249 176.75532642 -199.34403652 166.78439148 -209.43896484 156.52416992 C-210.13328613 155.82138916 -210.82760742 155.1186084 -211.54296875 154.39453125 C-212.16196045 153.76393799 -212.78095215 153.13334473 -213.41870117 152.48364258 C-214.94854454 150.90662131 -214.94854454 150.90662131 -217 150 C-217 149.34 -217 148.68 -217 148 C-214.93145331 146.23343093 -212.85379311 144.5766683 -210.6875 142.9375 C-209.38988242 141.93846378 -208.09301515 140.93845228 -206.796875 139.9375 C-206.15041016 139.43992187 -205.50394531 138.94234375 -204.83789062 138.4296875 C-202.33125859 136.47978883 -199.88298008 134.46334149 -197.4375 132.4375 C-193.30157082 129.03506646 -189.11178238 125.71277606 -184.875 122.4375 C-184.30579834 121.995271 -183.73659668 121.55304199 -183.15014648 121.09741211 C-179.12036585 118 -179.12036585 118 -178 118 C-177.97421875 118.60328125 -177.9484375 119.2065625 -177.921875 119.828125 C-177.86515625 120.62734375 -177.8084375 121.4265625 -177.75 122.25 C-177.70359375 123.03890625 -177.6571875 123.8278125 -177.609375 124.640625 C-176.77513267 127.87064016 -175.70749208 129.05412765 -173 131 C-169.61809706 131.56316482 -169.61809706 131.56316482 -165.8125 131.375 C-165.1119751 131.35993408 -164.4114502 131.34486816 -163.68969727 131.3293457 C-155.73071229 131.08441305 -147.8686943 130.18116006 -140 129 C-138.21916016 128.74283203 -138.21916016 128.74283203 -136.40234375 128.48046875 C-93.76487307 121.16174455 -53.03426837 94.98182334 -28 59.84375 C-15.37979469 41.6593004 -4.62650417 21.79326963 0 0 Z " fill="#97D97B" transform="translate(426,300)"/>
<path d="M0 0 C13.40909434 11.22621852 25.71175247 23.57689917 38 36 C36.64272489 39.12215428 35.21718037 40.93163119 32.578125 43.06640625 C31.54413574 43.91078247 31.54413574 43.91078247 30.48925781 44.7722168 C29.75030273 45.36301025 29.01134766 45.95380371 28.25 46.5625 C27.49299805 47.17585205 26.73599609 47.7892041 25.95605469 48.42114258 C23.64406748 50.28928054 21.32329247 52.14594885 19 54 C18.31035156 54.55333008 17.62070312 55.10666016 16.91015625 55.67675781 C15.02756796 57.18562437 13.14042722 58.68847037 11.25 60.1875 C10.69086914 60.63230713 10.13173828 61.07711426 9.55566406 61.53540039 C6.4911068 63.94026549 3.38665594 66.07462338 0 68 C-0.03867187 67.09507813 -0.03867187 67.09507813 -0.078125 66.171875 C-0.13484375 65.37265625 -0.1915625 64.5734375 -0.25 63.75 C-0.29640625 62.96109375 -0.3428125 62.1721875 -0.390625 61.359375 C-1.20965871 58.18824448 -2.39466775 56.95843003 -5 55 C-9.28523504 54.21966399 -13.66743019 54.70499055 -18 55 C-18.74942871 55.04930664 -19.49885742 55.09861328 -20.27099609 55.14941406 C-45.79151922 56.96896654 -69.52351217 63.70484834 -92 76 C-93.04414063 76.56460938 -94.08828125 77.12921875 -95.1640625 77.7109375 C-107.87316652 84.85352102 -119.07224924 93.43562343 -129.52001953 103.56689453 C-130.8960628 104.89935477 -132.28918089 106.21411942 -133.68359375 107.52734375 C-155.54042185 128.56581947 -169.98704416 157.02488119 -178 186 C-178.66 186 -179.32 186 -180 186 C-181.84847311 183.8270767 -183.5921349 181.64597332 -185.3125 179.375 C-187.20223906 176.91191153 -189.09678135 174.4526904 -191 172 C-191.67011108 171.13193726 -191.67011108 171.13193726 -192.35375977 170.24633789 C-194.61411933 167.4088471 -195.86752745 166.05248913 -199.3125 164.6875 C-204.82248301 165.15444771 -207.26085219 168.15022651 -211 172 C-211.93392578 172.91652344 -211.93392578 172.91652344 -212.88671875 173.8515625 C-214.61077375 175.54943879 -216.3076095 177.27063981 -218 179 C-218.97793113 179.98040065 -219.95695713 180.95971147 -220.9375 181.9375 C-221.618125 182.618125 -222.29875 183.29875 -223 184 C-222.50484046 175.71733133 -220.10074442 168.31680631 -217.4375 160.5 C-217.21280029 159.83392731 -216.98810059 159.16785461 -216.7565918 158.4815979 C-213.19635239 147.96427308 -209.33265917 137.76089143 -204 128 C-203.61875977 127.30165039 -203.23751953 126.60330078 -202.84472656 125.88378906 C-191.00081048 104.49602441 -175.8617169 85.24978515 -158.2421875 68.3046875 C-156.87729356 66.99863631 -156.87729356 66.99863631 -156 65 C-156.18546257 63.62472371 -156.37329008 62.24976575 -156.5625 60.875 C-156.66105989 57.29785575 -156.27219195 56.29036997 -153.77734375 53.62890625 C-151.24782458 51.63304091 -148.69439266 49.76578948 -146 48 C-145.46375 48.33 -144.9275 48.66 -144.375 49 C-141.24058391 50.31975414 -139.3921014 50.44816855 -136 50 C-133.29521791 48.65636353 -130.89753609 46.93130091 -128.4375 45.1875 C-97.16251991 24.12258853 -59.69643047 10.87091208 -21.83984375 9.77734375 C-20.33949585 9.73347534 -20.33949585 9.73347534 -18.80883789 9.6887207 C-16.90346013 9.64733736 -14.99734694 9.63015768 -13.09155273 9.64135742 C-8.62450849 9.57296931 -6.61730654 9.4625852 -2.9453125 6.7109375 C-1.22695761 4.31628229 -0.32108004 2.88972035 0 0 Z " fill="#FDE079" transform="translate(264,26)"/>
<path d="M0 0 C7.71867333 0.5603042 14.76015488 2.9223876 22.0625 5.375 C22.72106995 5.59486572 23.37963989 5.81473145 24.0581665 6.04125977 C47.85253753 14.04291938 69.26810566 25.48241407 89 41 C90.22783203 41.92039062 90.22783203 41.92039062 91.48046875 42.859375 C112.53539078 59.18101998 128.83620281 79.67550187 143 102 C143.38285156 102.60279785 143.76570312 103.2055957 144.16015625 103.82666016 C158.13915461 126.18145135 165.81359454 151.35279585 170.46411133 177.09082031 C170.81113036 178.97468308 171.17944642 180.85479801 171.57299805 182.72949219 C173.27869745 191.09615671 173.32662963 199.33919879 173.30273438 207.85546875 C173.3290031 214.45311889 173.3290031 214.45311889 176.29296875 220.1640625 C178.49548494 221.6578325 180.53778038 222.99687349 183 224 C182.35933594 224.6290625 181.71867188 225.258125 181.05859375 225.90625 C180.19363281 226.7621875 179.32867187 227.618125 178.4375 228.5 C177.16712891 229.75296875 177.16712891 229.75296875 175.87109375 231.03125 C173.72987428 233.19574359 171.72933514 235.44806185 169.74609375 237.7578125 C165.60629015 242.53516053 161.12912337 246.94387701 156.625 251.375 C155.01074338 252.96383525 153.39864674 254.55486903 151.7890625 256.1484375 C151.08475098 256.84114746 150.38043945 257.53385742 149.65478516 258.24755859 C147.92378526 259.91166413 147.92378526 259.91166413 147 262 C146.34 262 145.68 262 145 262 C143.23343093 259.93145331 141.5766683 257.85379311 139.9375 255.6875 C138.93846378 254.38988242 137.93845228 253.09301515 136.9375 251.796875 C136.43992187 251.15041016 135.94234375 250.50394531 135.4296875 249.83789062 C133.47978883 247.33125859 131.46334149 244.88298008 129.4375 242.4375 C126.03506646 238.30157082 122.71277606 234.11178238 119.4375 229.875 C118.995271 229.30579834 118.55304199 228.73659668 118.09741211 228.15014648 C115 224.12036585 115 224.12036585 115 223 C115.90492188 222.94392578 115.90492188 222.94392578 116.828125 222.88671875 C117.62734375 222.82097656 118.4265625 222.75523437 119.25 222.6875 C120.43335938 222.60048828 120.43335938 222.60048828 121.640625 222.51171875 C124.68162498 221.85216412 125.95753943 221.39827384 128 219 C128.56745697 215.95273995 128.46899673 212.96420539 128.375 209.875 C128.35775879 208.97700684 128.34051758 208.07901367 128.32275391 207.15380859 C127.12169128 161.53761137 106.3413788 118.13425779 73.58325195 86.60668945 C51.69459003 66.24250155 25.47266814 53.33346385 -3 45 C-3 44.34 -3 43.68 -3 43 C-0.8270767 41.15152689 1.35402668 39.4078651 3.625 37.6875 C6.08808847 35.79776094 8.5473096 33.90321865 11 32 C11.5787085 31.55325928 12.15741699 31.10651855 12.75366211 30.64624023 C15.5911529 28.38588067 16.94751087 27.13247255 18.3125 23.6875 C17.84526678 18.17414799 14.84707208 15.74409119 11 12 C10.06607422 11.03126953 10.06607422 11.03126953 9.11328125 10.04296875 C6.6972435 7.55355892 4.34971346 5.26004334 1.5625 3.1875 C1.046875 2.795625 0.53125 2.40375 0 2 C0 1.34 0 0.68 0 0 Z " fill="#FDB956" transform="translate(303,41)"/>
<path d="M0 0 C0.66 0 1.32 0 2 0 C3.76656907 2.06854669 5.4233317 4.14620689 7.0625 6.3125 C8.06153622 7.61011758 9.06154772 8.90698485 10.0625 10.203125 C10.56007812 10.84958984 11.05765625 11.49605469 11.5703125 12.16210938 C13.52021117 14.66874141 15.53665851 17.11701992 17.5625 19.5625 C20.96493354 23.69842918 24.28722394 27.88821762 27.5625 32.125 C28.004729 32.69420166 28.44695801 33.26340332 28.90258789 33.84985352 C32 37.87963415 32 37.87963415 32 39 C31.39671875 39.02578125 30.7934375 39.0515625 30.171875 39.078125 C29.37265625 39.13484375 28.5734375 39.1915625 27.75 39.25 C26.96109375 39.29640625 26.1721875 39.3428125 25.359375 39.390625 C22.12159099 40.22687385 20.95206909 41.28464997 19 44 C18.54498305 46.65792661 18.38196129 48.77884675 18.4375 51.4375 C18.44918213 52.20900391 18.46086426 52.98050781 18.47290039 53.77539062 C19.74613365 89.77285193 32.74472013 125.69870243 55 154 C55.6909375 154.91136719 56.381875 155.82273437 57.09375 156.76171875 C79.91385787 185.92547601 113.82375811 208.42600504 150 217 C150 217.66 150 218.32 150 219 C147.8270767 220.84847311 145.64597332 222.5921349 143.375 224.3125 C140.91191153 226.20223906 138.4526904 228.09678135 136 230 C135.13193726 230.67011108 135.13193726 230.67011108 134.24633789 231.35375977 C131.4088471 233.61411933 130.05248913 234.86752745 128.6875 238.3125 C129.15473322 243.82585201 132.15292792 246.25590881 136 250 C136.93392578 250.96873047 136.93392578 250.96873047 137.88671875 251.95703125 C140.3027565 254.44644108 142.65028654 256.73995666 145.4375 258.8125 C145.953125 259.204375 146.46875 259.59625 147 260 C147 260.66 147 261.32 147 262 C105.70900773 257.81105876 67.28162203 230.59546121 38 203 C37.2678125 202.31035156 36.535625 201.62070312 35.78125 200.91015625 C-5.34447674 161.00840947 -25.70399049 102.55122296 -26.84228516 46.2421875 C-26.91851528 43.82964965 -26.91851528 43.82964965 -28 41 C-29.87387216 40.19787372 -29.87387216 40.19787372 -32.0625 39.8125 C-33.16271484 39.57466797 -33.16271484 39.57466797 -34.28515625 39.33203125 C-34.85105469 39.22246094 -35.41695312 39.11289063 -36 39 C-26.75532642 27.957751 -16.78439148 17.65596348 -6.52416992 7.56103516 C-5.46999878 6.51955322 -5.46999878 6.51955322 -4.39453125 5.45703125 C-3.76393799 4.83803955 -3.13334473 4.21904785 -2.48364258 3.58129883 C-0.90662131 2.05145546 -0.90662131 2.05145546 0 0 Z " fill="#8AC8FD" transform="translate(62,209)"/>
<path d="M0 0 C0.96196289 -0.00644531 1.92392578 -0.01289063 2.91503906 -0.01953125 C16.4288803 0.22153899 28.12175475 5.37458227 38.0625 14.5625 C48.57695121 25.78428702 54.04731719 39.4607272 53.66015625 54.8125 C52.18135647 70.49774709 45.71744854 82.79661769 34.3125 93.5 C20.51618959 104.33403956 5.4099543 106.38692444 -11.6875 104.5 C-16.05175733 103.55923789 -19.86909958 101.79751211 -23.6875 99.5 C-24.59242188 98.99082031 -25.49734375 98.48164063 -26.4296875 97.95703125 C-28.6875 96.5 -28.6875 96.5 -29.6875 94.5 C-29.94702656 90.99639145 -30.03042714 88.3358849 -28.6875 85.0625 C-26.1551154 83.08407453 -24.11239336 82.95157318 -20.9453125 83.09765625 C-17.61030843 83.69195628 -14.77969443 85.01488804 -11.765625 86.52734375 C-4.20780101 90.06474633 5.29549235 89.50094117 13.0625 86.9375 C23.13562958 82.7440283 29.54895908 76.09836103 34.34375 66.41796875 C38.08943128 57.07110667 37.50749802 46.20783386 33.625 37.02734375 C28.50818066 27.1744208 21.09457679 21.38866233 10.9375 17.0625 C-0.55803346 15.27871033 -9.78033313 16.64792617 -19.9375 22.3125 C-28.41382951 29.05503484 -33.99556329 36.49369004 -35.6875 47.5 C-36.0298537 52.38053072 -35.98405403 56.96754207 -34.625 61.6875 C-33.6046404 65.83696237 -33.48277159 68.4039234 -34.6875 72.5 C-37.64335737 75.28198341 -39.25105026 75.5 -43.3125 75.5 C-46.6875 74.5 -46.6875 74.5 -48.5 72.4375 C-52.96765805 61.38592483 -53.9661515 46.74438498 -50.0625 35.375 C-49.32740997 33.72363579 -48.53541007 32.0963739 -47.6875 30.5 C-47.22859375 29.63117188 -46.7696875 28.76234375 -46.296875 27.8671875 C-39.27570679 15.48775934 -29.29588439 6.18077044 -15.68359375 1.34375 C-10.53419556 0.04044859 -5.28500104 0.03373764 0 0 Z " fill="#020000" transform="translate(255.6875,203.5)"/>
<path d="M0 0 C0.99 0.495 0.99 0.495 2 1 C-9.7514674 24.55696454 -24.33708803 44.98949521 -43.296875 63.3046875 C-45.97938129 65.69409563 -45.97938129 65.69409563 -47 68 C-46.81388322 69.35435747 -46.62615346 70.70849354 -46.4375 72.0625 C-46.33728571 75.69379424 -46.81128746 76.77978009 -49.22265625 79.59375 C-51.74713234 81.83772875 -54.30528665 83.96452902 -57 86 C-57.804375 85.505 -57.804375 85.505 -58.625 85 C-61.75478243 83.68219687 -63.61373236 83.55562952 -67 84 C-69.6631832 85.32280852 -72.01835637 87.02904327 -74.4375 88.75 C-91.08352177 99.99915583 -108.98306618 108.58246098 -128 115 C-129.10069824 115.3724585 -129.10069824 115.3724585 -130.22363281 115.75244141 C-146.46392201 121.12984786 -163.82297003 124.7820158 -180.953125 125.17578125 C-182.5 125.21155273 -182.5 125.21155273 -184.078125 125.24804688 C-186.20812283 125.29132885 -188.3384007 125.32240656 -190.46875 125.34179688 C-196.61712853 125.48206316 -196.61712853 125.48206316 -202.18359375 127.87109375 C-204.23952586 130.28073461 -204.73920457 131.87045486 -205 135 C-209.66740543 131.09240476 -214.19694784 127.04581052 -218.6875 122.9375 C-219.24590576 122.4312207 -219.80431152 121.92494141 -220.37963867 121.40332031 C-223.57180098 118.46758151 -226.37828814 115.47647923 -229 112 C-227.89454834 112.16008545 -226.78909668 112.3201709 -225.65014648 112.48510742 C-220.63147432 113.10865046 -215.65021264 113.19708092 -210.59765625 113.23828125 C-209.61069763 113.2480751 -208.62373901 113.25786896 -207.60687256 113.26795959 C-177.57025854 113.66233946 -177.57025854 113.66233946 -148 109 C-147.09975098 108.78037598 -146.19950195 108.56075195 -145.27197266 108.33447266 C-139.10235322 106.78796347 -133.04152907 104.98582851 -127 103 C-126.21496094 102.74379883 -125.42992187 102.48759766 -124.62109375 102.22363281 C-92.50872224 91.54184646 -64.37407717 74.35107759 -40 51 C-39.41605469 50.44860352 -38.83210937 49.89720703 -38.23046875 49.32910156 C-23.59407888 35.45534463 -8.54413278 18.5046726 0 0 Z " fill="#80D060" transform="translate(453,351)"/>
<path d="M0 0 C-3.62641902 3.7207868 -7.39920073 7.15713773 -11.375 10.5 C-12.23109863 11.22183472 -12.23109863 11.22183472 -13.10449219 11.95825195 C-23.90602292 21 -23.90602292 21 -26 21 C-26.03867187 20.09507813 -26.03867187 20.09507813 -26.078125 19.171875 C-26.13484375 18.37265625 -26.1915625 17.5734375 -26.25 16.75 C-26.29640625 15.96109375 -26.3428125 15.1721875 -26.390625 14.359375 C-27.20965871 11.18824448 -28.39466775 9.95843003 -31 8 C-35.28523504 7.21966399 -39.66743019 7.70499055 -44 8 C-45.12414307 8.07395996 -45.12414307 8.07395996 -46.27099609 8.14941406 C-71.79151922 9.96896654 -95.52351217 16.70484834 -118 29 C-119.04414063 29.56460938 -120.08828125 30.12921875 -121.1640625 30.7109375 C-133.87316652 37.85352102 -145.07224924 46.43562343 -155.52001953 56.56689453 C-156.8960628 57.89935477 -158.28918089 59.21411942 -159.68359375 60.52734375 C-165.3192553 65.95199769 -170.11383738 71.76302002 -174.7734375 78.01953125 C-176.79591759 80.72681601 -178.87380912 83.37381446 -181 86 C-180.45620485 81.3993204 -178.4505056 78.09446958 -175.9375 74.3125 C-175.53337891 73.69600586 -175.12925781 73.07951172 -174.71289062 72.44433594 C-168.61979469 63.27608595 -161.49040092 55.04861104 -154 47 C-153.02353516 45.92492187 -153.02353516 45.92492187 -152.02734375 44.828125 C-115.04603386 5.78042207 -52.255008 -12.70454608 0 0 Z " fill="#F5CC57" transform="translate(290,73)"/>
<path d="M0 0 C0.66 0 1.32 0 2 0 C2.47308594 0.87140625 2.94617187 1.7428125 3.43359375 2.640625 C8.01887976 10.95241043 13.07827458 18.55467456 19 26 C19.72058594 26.91394531 20.44117187 27.82789063 21.18359375 28.76953125 C26.82327909 35.79651887 32.82871925 42.44183468 39 49 C39.61617187 49.65871094 40.23234375 50.31742187 40.8671875 50.99609375 C45.83863703 56.14594458 51.40173672 60.55496436 57 65 C57.97839844 65.79535156 58.95679688 66.59070313 59.96484375 67.41015625 C68.81394604 74.45149742 78.22078528 80.33708108 88 86 C88.64195312 86.37398926 89.28390625 86.74797852 89.9453125 87.13330078 C112.84423805 100.34142092 112.84423805 100.34142092 138 106 C140.33984375 108.08203125 140.33984375 108.08203125 142.9375 110.8125 C146.42809413 114.48124979 146.42809413 114.48124979 150.31640625 117.69921875 C150.87199219 118.12847656 151.42757812 118.55773437 152 119 C152 119.66 152 120.32 152 121 C110.70900773 116.81105876 72.28162203 89.59546121 43 62 C42.2678125 61.31035156 41.535625 60.62070312 40.78125 59.91015625 C23.74333534 43.37932238 9.01849704 21.97665331 0 0 Z " fill="#6ABFF9" transform="translate(57,350)"/>
<path d="M0 0 C1.53515625 1.70703125 1.53515625 1.70703125 3.0625 3.8125 C3.56910156 4.49957031 4.07570312 5.18664062 4.59765625 5.89453125 C6.94026513 9.41170725 8.01323252 11.24574644 7.9375 15.5625 C7.66261607 18.86390854 7.66261607 18.86390854 9.16015625 20.55078125 C11.46627569 22.36727873 13.81244158 23.44738704 16.5 24.625 C17.4590625 25.05039062 18.418125 25.47578125 19.40625 25.9140625 C29.41985387 30.10650509 44.45923708 29.626955 54.75 26.4375 C64.76755021 22.27322767 72.28623439 16.48358347 79 8 C79.495 8.99 79.495 8.99 80 10 C76.00331236 21.42944159 68.51332747 29.95539102 57.8125 35.5 C44.99622909 41.26487916 33.3870816 41.27283943 20 37 C8.24182525 32.1573196 -0.1603818 23.16272526 -5.03125 11.5390625 C-6.4327977 7.63289716 -7.40635134 4.1989639 -7 0 C-3.98968256 -0.93423645 -3.13349732 -1.04449911 0 0 Z " fill="#F72A39" transform="translate(219,279)"/>
<path d="M0 0 C0.66 0.33 1.32 0.66 2 1 C1.67 1.33 1.34 1.66 1 2 C1.52730713 2.23074219 2.05461426 2.46148437 2.59790039 2.69921875 C23.94281694 12.0756943 42.74590948 21.98728278 59.88671875 38.0625 C62.02609511 40.07162176 62.02609511 40.07162176 64.5625 42.0234375 C68.18716749 44.96267108 71.01978629 48.42498272 74 52 C74.63035156 52.75410156 75.26070313 53.50820312 75.91015625 54.28515625 C79.78940773 59.02817744 83.48605657 63.90087408 87.0625 68.875 C87.46903809 69.42244873 87.87557617 69.96989746 88.29443359 70.53393555 C91.05801418 74.45555921 91.05801418 74.45555921 90.74609375 77.3828125 C90.49988281 77.91648437 90.25367188 78.45015625 90 79 C89.01773438 77.71029297 89.01773438 77.71029297 88.015625 76.39453125 C62.66819069 43.42405593 30.36953767 21.00484657 -10 10 C-10 9.34 -10 8.68 -10 8 C-8.38542921 6.56418526 -6.70780925 5.19855217 -5 3.875 C-4.071875 3.15054688 -3.14375 2.42609375 -2.1875 1.6796875 C-1.465625 1.12539062 -0.74375 0.57109375 0 0 Z " fill="#F8A73C" transform="translate(310,76)"/>
<path d="M0 0 C0.33 0.99 0.66 1.98 1 3 C-0.36328125 5.19140625 -0.36328125 5.19140625 -2.3125 7.5625 C-2.94800781 8.34753906 -3.58351563 9.13257813 -4.23828125 9.94140625 C-6 12 -6 12 -8 14 C-7.42017397 9.21643523 -5.56809656 6.00320934 -3 2 C-2.01 1.34 -1.02 0.68 0 0 Z " fill="#E7C153" transform="translate(117,145)"/>
<path d="M0 0 C0.66 0.33 1.32 0.66 2 1 C1.01 2.32 0.02 3.64 -1 5 C-1 1 -1 1 0 0 Z " fill="#79C45B" transform="translate(449,359)"/>
</svg>
