<?xml version="1.0" encoding="UTF-8"?>
<svg version="1.1" xmlns="http://www.w3.org/2000/svg" width="252" height="251">
<path d="M0 0 C26.33560153 21.50534926 43.19700242 51.90892565 46.72949219 85.88232422 C49.56732413 120.33868669 39.8666146 153.45768231 17.609375 180.03125 C15.43379415 182.4981695 13.19806129 184.88784624 10.92578125 187.265625 C9.93578125 188.36777344 9.93578125 188.36777344 8.92578125 189.4921875 C-11.05589104 210.91193469 -42.43215745 223.45730416 -71.32421875 224.65234375 C-108.31075319 225.50058331 -140.63628904 214.80639021 -167.66674805 189.14428711 C-190.97429729 166.21343843 -204.8106413 134.74903443 -205.31567383 101.97338867 C-205.43426682 66.12781072 -192.95153032 35.1141229 -168.07421875 9.265625 C-167.44257813 8.55921875 -166.8109375 7.8528125 -166.16015625 7.125 C-123.93022395 -38.63959624 -46.61159361 -36.76054296 0 0 Z " fill="#FDFDFD" transform="translate(205.07421875,26.734375)"/>
<path d="M0 0 C6.30896275 4.03963716 9.2989108 10.07618208 11.88671875 16.953125 C12.68260714 20.94151145 13.0094355 24.71232028 13.00024414 28.77490234 C13.00013084 30.45596573 13.00013084 30.45596573 13.00001526 32.17098999 C12.99485397 33.36495392 12.98969269 34.55891785 12.984375 35.7890625 C12.98296005 37.02355133 12.9815451 38.25804016 12.98008728 39.52993774 C12.97450147 43.46269175 12.9619515 47.39538828 12.94921875 51.328125 C12.94363787 53.99869708 12.93963933 56.66926863 12.93554688 59.33984375 C12.9253887 65.87764398 12.90581033 72.41532035 12.88671875 78.953125 C4.63671875 78.953125 -3.61328125 78.953125 -12.11328125 78.953125 C-12.15066406 75.42496094 -12.18804687 71.89679688 -12.2265625 68.26171875 C-12.27281493 64.83286449 -12.32403521 61.40411778 -12.37573242 57.9753418 C-12.4089224 55.59813001 -12.43697266 53.22084054 -12.4597168 50.84350586 C-12.49337111 47.42007442 -12.54569426 43.99735104 -12.6015625 40.57421875 C-12.60795242 39.51665878 -12.61434235 38.45909882 -12.6209259 37.36949158 C-12.73731861 31.48634516 -13.24521882 27.13570983 -16.11328125 21.953125 C-19.76209065 19.17417944 -23.9887642 19.48559462 -28.4140625 19.57421875 C-32.77594287 20.18652323 -34.27216571 21.60206565 -37.11328125 24.953125 C-39.62713922 30.50279064 -39.45957222 36.0606922 -39.52734375 42.0390625 C-39.5467099 43.09598297 -39.56607605 44.15290344 -39.58602905 45.24185181 C-39.64561039 48.60386184 -39.69212467 51.96590651 -39.73828125 55.328125 C-39.77648073 57.61329584 -39.81553361 59.89845258 -39.85546875 62.18359375 C-39.95289391 67.77336244 -40.03263387 73.36298849 -40.11328125 78.953125 C-48.36328125 78.953125 -56.61328125 78.953125 -65.11328125 78.953125 C-65.11328125 52.553125 -65.11328125 26.153125 -65.11328125 -1.046875 C-57.19328125 -1.046875 -49.27328125 -1.046875 -41.11328125 -1.046875 C-40.78328125 1.923125 -40.45328125 4.893125 -40.11328125 7.953125 C-39.39140625 7.210625 -38.66953125 6.468125 -37.92578125 5.703125 C-27.64428894 -4.3498897 -13.20267598 -6.54032747 0 0 Z " fill="#030303" transform="translate(173.11328125,100.046875)"/>
<path d="M0 0 C8.25 0 16.5 0 25 0 C25 26.4 25 52.8 25 80 C16.75 80 8.5 80 0 80 C0 53.6 0 27.2 0 0 Z " fill="#030303" transform="translate(68,99)"/>
<path d="M0 0 C26.33560153 21.50534926 43.19700242 51.90892565 46.72949219 85.88232422 C49.56732413 120.33868669 39.8666146 153.45768231 17.609375 180.03125 C15.43379415 182.4981695 13.19806129 184.88784624 10.92578125 187.265625 C9.93578125 188.36777344 9.93578125 188.36777344 8.92578125 189.4921875 C-11.05589104 210.91193469 -42.43215745 223.45730416 -71.32421875 224.65234375 C-108.31075319 225.50058331 -140.63628904 214.80639021 -167.66674805 189.14428711 C-190.97429729 166.21343843 -204.8106413 134.74903443 -205.31567383 101.97338867 C-205.43426682 66.12781072 -192.95153032 35.1141229 -168.07421875 9.265625 C-167.44257813 8.55921875 -166.8109375 7.8528125 -166.16015625 7.125 C-123.93022395 -38.63959624 -46.61159361 -36.76054296 0 0 Z M-175.6328125 19.265625 C-185.92257172 31.90968113 -194.53362575 47.59652505 -199.07421875 63.265625 C-199.44546875 64.49925781 -199.81671875 65.73289062 -200.19921875 67.00390625 C-206.12891308 88.99266168 -205.22459885 114.7531283 -198.07421875 136.265625 C-197.84428223 136.98975586 -197.6143457 137.71388672 -197.37744141 138.45996094 C-187.53960178 168.99694933 -164.79831852 195.12279935 -136.33984375 209.76171875 C-127.52279223 214.12872132 -118.67620119 217.98328103 -109.07421875 220.265625 C-107.26244141 220.71035156 -107.26244141 220.71035156 -105.4140625 221.1640625 C-73.25178287 228.29884897 -39.86431273 221.45761736 -12.07421875 204.265625 C16.63545381 185.49236122 34.68919602 158.14119331 42.92578125 125.265625 C43.12010742 124.51385986 43.31443359 123.76209473 43.51464844 122.98754883 C45.29290114 115.30227268 45.41050486 107.55440546 45.42578125 99.703125 C45.42779541 98.9810788 45.42980957 98.25903259 45.43188477 97.5151062 C45.36515234 61.87655411 30.53564411 31.99223414 5.65625 6.984375 C-19.17351415 -16.40419223 -51.98632059 -27.02854066 -85.69140625 -26.1171875 C-121.11726545 -24.4221193 -152.31424616 -7.00881595 -175.6328125 19.265625 Z " fill="#1C1C1C" transform="translate(205.07421875,26.734375)"/>
<path d="M0 0 C3.84781114 2.73622126 6.12016513 5.57685206 7.8125 10 C8.35597049 14.1689907 7.75112139 17.45230455 5.56640625 21.0546875 C2.80080161 24.51708084 0.24876308 27.02618615 -4.1875 28 C-8.47067228 28.46725516 -10.61643678 28.30749558 -14.4375 26.25 C-17.93755516 23.38631851 -19.75946733 21.28409802 -21.1875 17 C-21.53581525 11.60111357 -21.61850532 8.41129255 -18.1875 4 C-13.08827906 -1.73662356 -7.11421992 -2.23191213 0 0 Z " fill="#050505" transform="translate(87.1875,60)"/>
<path d="M0 0 C4.19557566 1.5832361 6.63279763 4.71535773 9.5 8 C25.69245617 25.96976804 47.4001292 39.25949089 71 45 C72.81564453 45.44666016 72.81564453 45.44666016 74.66796875 45.90234375 C91.93178116 49.72376056 110.47525383 49.38951371 127.70703125 45.65625 C130.59122071 45.08146491 133.07504139 44.86628761 136 45 C121.66116251 54.55922499 93.67567165 51.60273423 77.63671875 48.8684082 C48.94490387 43.0882888 18.30717202 27.5449038 1.609375 2.5859375 C1.07828125 1.73257813 0.5471875 0.87921875 0 0 Z " fill="#161616" transform="translate(25,201)"/>
<path d="M0 0 C0.33 0 0.66 0 1 0 C1.00410889 0.76852295 1.00821777 1.5370459 1.01245117 2.32885742 C1.16583956 18.79786228 2.0009794 34.17988759 7 50 C7.22848633 50.72993164 7.45697266 51.45986328 7.69238281 52.21191406 C10.92199654 62.22051897 15.48784086 71.05830447 21 80 C21.53496094 80.87398438 22.06992187 81.74796875 22.62109375 82.6484375 C23.73185132 84.44201205 24.86277656 86.22308838 26 88 C18.18277558 85.14003985 13.7527892 72.90002779 10.3125 65.6875 C1.20072511 45.81354448 -2.90048875 23.8585002 -1 2 C-0.67 1.34 -0.34 0.68 0 0 Z " fill="#262626" transform="translate(1,113)"/>
<path d="M0 0 C-1.40796574 3.01998449 -3.08361489 5.5740608 -5.0625 8.25 C-18.40771162 27.21132151 -24.57376464 46.39946399 -29 69 C-29.33 69 -29.66 69 -30 69 C-31.05064377 45.53562253 -17.61688003 19.40815058 -3.41015625 1.40625 C-2 0 -2 0 0 0 Z " fill="#1C1C1C" transform="translate(31,44)"/>
<path d="M0 0 C0.66 0.33 1.32 0.66 2 1 C-6.89684956 19.21443683 -17.39874247 33.02550551 -32 47 C-32 44 -32 44 -29.9453125 41.7578125 C-29.01460937 40.88898438 -28.08390625 40.02015625 -27.125 39.125 C-15.3480239 27.71373301 -7.29428453 14.58856906 0 0 Z " fill="#171717" transform="translate(240,175)"/>
<path d="M0 0 C3.81428569 2.54285712 4.09530562 4.4070394 5.625 8.6875 C8.77467329 17.1009968 13.2134276 24.43265697 18 32 C19.00488899 33.6637235 20.00696275 35.32917542 21 37 C12.16479876 33.7676093 7.19531351 18.58339607 3.4453125 10.5078125 C2.00604241 7.01466509 0.96058913 3.64650825 0 0 Z " fill="#1A1A1A" transform="translate(6,164)"/>
<path d="M0 0 C4.3943466 1.62675331 6.96873498 4.96857842 10 8.375 C11.04093595 9.52930521 12.08258722 10.68296579 13.125 11.8359375 C13.61484375 12.37959961 14.1046875 12.92326172 14.609375 13.48339844 C16.34945388 15.38111087 18.15758349 17.20187235 20 19 C19.67 19.66 19.34 20.32 19 21 C16.5748932 18.63349244 14.16153387 16.25533103 11.75 13.875 C11.06808594 13.20984375 10.38617188 12.5446875 9.68359375 11.859375 C5.91765633 8.13000008 2.74375321 4.53992156 0 0 Z " fill="#121212" transform="translate(25,201)"/>
<path d="M0 0 C2.98162648 2.68064211 4.99718996 5.84817485 7.1875 9.1875 C7.90292969 10.27417969 8.61835938 11.36085937 9.35546875 12.48046875 C9.89816406 13.31191406 10.44085938 14.14335937 11 15 C10.01 15 9.02 15 8 15 C6.2109375 12.98828125 6.2109375 12.98828125 4.375 10.3125 C3.76398437 9.44238281 3.15296875 8.57226562 2.5234375 7.67578125 C1.01954614 5.03433104 0.39886058 2.99145437 0 0 Z " fill="#232323" transform="translate(16,185)"/>
</svg>
