<?xml version="1.0" encoding="UTF-8"?>
<svg version="1.1" xmlns="http://www.w3.org/2000/svg" width="512" height="512">
<path d="M0 0 C6.01509512 3.65192664 10.73608741 8.25903408 15.65757751 13.25312614 C16.56273102 14.15944786 17.46788452 15.06576958 18.40046692 15.99955559 C20.35714861 17.95892668 22.30901424 19.92292552 24.25715637 21.89078712 C27.34417351 25.00904358 30.4417299 28.11669052 33.54063416 31.22312737 C38.44533271 36.14227574 43.34275892 41.06859324 48.23720264 45.99794304 C56.99270819 54.81543941 65.76039795 63.62081211 74.5309782 72.42331135 C77.60266944 75.50675684 80.67114425 78.59335663 83.73687744 81.68272567 C85.18845439 83.1448672 86.6411799 84.60585654 88.09437561 86.06638908 C89.85678522 87.83789712 91.61734119 89.61125227 93.37556458 91.38691521 C96.82633563 94.8506133 100.27845938 98.24941867 103.99674988 101.42593193 C110.18678555 106.75420578 115.88305141 112.62102916 121.6683197 118.37983513 C123.01258248 119.71454388 124.35701355 121.04908315 125.70159912 122.38346672 C130.09054638 126.74123445 134.47412631 131.10437847 138.85679626 135.46845818 C139.60440499 136.21276958 140.35201372 136.95708099 141.12227726 137.72394729 C148.17947513 144.75039583 155.23464209 151.77887762 162.28496933 158.81222057 C171.28011065 167.78543028 180.28517466 176.74841963 189.30400634 185.69782001 C195.65948137 192.00602935 202.00339986 198.32571491 208.33891511 204.65396947 C212.11759281 208.42769921 215.90113005 212.19623241 219.6971817 215.95249176 C223.26610843 219.48448938 226.82046901 223.03052436 230.36433983 226.58765602 C231.66358362 227.88684598 232.96793494 229.18095231 234.27783394 230.4693985 C248.92535295 244.88983092 248.92535295 244.88983092 249.36693954 254.86845684 C249.15525027 263.86875281 243.51150649 270.36503614 237.34707642 276.43551445 C236.4854637 277.30203043 236.4854637 277.30203043 235.60644466 278.18605179 C233.69912776 280.10059317 231.7813703 282.00430339 229.86338806 283.90815544 C228.4858488 285.28648638 227.10896361 286.6654713 225.73268127 288.0450573 C222.0058751 291.77698195 218.26983403 295.4995329 214.53190207 299.2203095 C210.61344259 303.1236869 206.70313435 307.03521411 202.79180908 310.94573784 C196.22220892 317.51164951 189.64700689 324.07190693 183.06797791 330.62837029 C174.63742066 339.03006907 166.21613122 347.44099348 157.79776287 355.85490322 C150.54388633 363.10479079 143.28575843 370.35041793 136.02695107 377.59536815 C133.70191015 379.91632231 131.37744683 382.23785377 129.05306053 384.5594635 C125.39228811 388.21531839 121.72886481 391.8684973 118.06341934 395.51966667 C116.72266912 396.85591991 115.38273648 398.19299408 114.04370689 399.53097153 C108.19984318 405.36921661 102.39229924 411.17022261 96.10342503 416.53332996 C92.28408158 419.89654101 88.75109154 423.56108166 85.17271423 427.17646599 C84.30336243 428.05049065 83.43401062 428.9245153 82.53831482 429.82502556 C80.6635809 431.71020766 78.78976212 433.59625168 76.91733932 435.48372459 C73.95310178 438.47122491 70.98381501 441.45367283 68.01356506 444.43519402 C59.5736224 452.90841195 51.13801479 461.38591378 42.7127533 469.87373161 C38.04726716 474.57377333 33.37641367 479.26841117 28.69955552 483.95713782 C25.74808684 486.9166808 22.80329311 489.88265732 19.86330009 492.85359812 C17.602742 495.13396786 15.33229124 497.40445268 13.06333923 499.67646599 C12.25591278 500.49624931 11.44848633 501.31603264 10.61659241 502.16065788 C4.87147887 507.88535894 0.292634 511.58612523 -8.12757874 511.66767693 C-15.78759642 511.48425575 -19.83417364 509.08608202 -25.12757874 503.79267693 C-28.51388302 498.32249308 -29.29653303 493.1283954 -28.40474892 486.83993912 C-26.39202675 478.59282588 -19.23611964 472.22402106 -13.39564514 466.45429802 C-12.57856583 465.63517433 -11.76148651 464.81605064 -10.91964722 463.97210503 C-8.23833363 461.28780303 -5.54648121 458.61435313 -2.85414124 455.94111443 C-0.97557354 454.06560829 0.90244291 452.18956502 2.77980042 450.31284904 C6.70703429 446.38929391 10.63983227 442.47139104 14.57652283 438.55732536 C19.60929843 433.55341774 24.63278409 428.54029101 29.65337181 423.52415848 C33.52857809 419.65252107 37.40710843 415.78422066 41.28656387 411.91684151 C43.13927492 410.06980613 44.99153262 408.22231589 46.84331894 406.37435341 C49.43686863 403.78772033 52.03375792 401.20448874 54.63169861 398.62226677 C55.38832291 397.86676033 56.1449472 397.11125389 56.92449951 396.33285332 C60.19962174 393.08379472 63.49287398 389.91513162 67.00050354 386.91757011 C72.89712589 381.82554652 78.31694904 376.22915564 83.81382751 370.71479607 C85.06600813 369.46233294 86.31840986 368.21009083 87.5710144 366.95805168 C90.95077419 363.57857738 94.32745404 360.19604109 97.7035675 356.81292462 C101.23982251 353.27039459 104.77893247 349.73071905 108.31773376 346.19073296 C115.00955322 339.49581238 121.69882069 332.79834802 128.38716316 326.09995407 C136.00553391 318.47038423 143.62676338 310.84367271 151.24822807 303.21719372 C166.91779698 287.53718805 182.5837927 271.85361659 198.24742126 256.16767693 C196.63954423 252.16451326 193.83146928 249.47503708 190.82173157 246.49474907 C189.98233974 245.65173562 189.98233974 245.65173562 189.12599051 244.7916916 C187.2485073 242.90857013 185.36395697 241.03268556 183.47935486 239.1566906 C182.13202883 237.80829167 180.78513587 236.4594599 179.43864441 235.11022758 C175.77762692 231.44435788 172.1103807 227.7847777 168.44187117 224.12640738 C164.60127849 220.29459766 160.76595824 216.45751741 156.9299469 212.62112236 C150.48204734 206.17415989 144.0302846 199.73108411 137.57603455 193.29047966 C130.12471028 185.85485138 122.67859534 178.41403958 115.23548257 170.97019213 C107.30388892 163.03792142 99.36848481 155.10947106 91.43196917 147.18212533 C89.15051205 144.90279462 86.86976188 142.62275858 84.58916855 140.34256363 C80.99482912 136.74923334 77.39793341 133.15848075 73.79909515 129.56965637 C72.48252489 128.2559923 71.16678248 126.94149791 69.85195541 125.6260891 C64.04658544 119.81912355 58.27529956 114.04748411 52.02379036 108.7159605 C48.74275283 105.85620768 45.68875245 102.76490136 42.60972595 99.69111443 C41.53496506 98.62380089 41.53496506 98.62380089 40.43849182 97.53492546 C38.09601301 95.20691783 35.75732474 92.87515351 33.41929626 90.54267693 C32.61521584 89.74142387 31.81113541 88.94017082 30.9826889 88.11463737 C26.73489352 83.88176655 22.4899316 79.646079 18.24742126 75.4079113 C13.87404299 71.04003515 9.49145088 66.68152721 5.10665512 62.32511711 C1.72497355 58.96207237 -1.64996871 55.59232564 -5.02310944 52.22071648 C-6.63611728 50.6107288 -8.25161824 49.00323479 -9.86968231 47.39832878 C-12.13110178 45.15400533 -14.38282145 42.90036171 -16.63246155 40.64423943 C-17.29746674 39.98844902 -17.96247192 39.33265862 -18.64762878 38.65699577 C-24.52633993 32.72518659 -28.31916478 27.19194032 -28.85023499 18.65595818 C-28.58378736 11.86687271 -25.45449719 6.86959538 -20.75257874 2.16767693 C-15.39702174 -1.84899082 -6.15750775 -2.92428276 0 0 Z " fill="#7E7E7E" transform="translate(145.75257873535156,0.8323230743408203)"/>
</svg>
