<?xml version="1.0" encoding="UTF-8"?>
<svg version="1.1" xmlns="http://www.w3.org/2000/svg" width="581" height="517">
<path d="M0 0 C61.05 0 122.1 0 185 0 C185 116.16 185 232.32 185 352 C123.95 352 62.9 352 0 352 C0 235.84 0 119.68 0 0 Z " fill="#FBED20" transform="translate(202,165)"/>
<path d="M0 0 C61.05 0 122.1 0 185 0 C185 83.16 185 166.32 185 252 C123.95 252 62.9 252 0 252 C0 168.84 0 85.68 0 0 Z " fill="#FEFE75" transform="translate(0,265)"/>
<path d="M0 0 C61.05 0 122.1 0 185 0 C185 49.83 185 99.66 185 151 C123.95 151 62.9 151 0 151 C0 101.17 0 51.34 0 0 Z " fill="#DFDF7A" transform="translate(396,365)"/>
<path d="M0 0 C3.72548963 1.24182988 3.9042787 2.14148532 5.6796875 5.5390625 C6.19047852 6.50183105 6.70126953 7.46459961 7.22753906 8.45654297 C7.77120117 9.50213379 8.31486328 10.54772461 8.875 11.625 C10.0319075 13.80832429 11.19081871 15.99058782 12.3515625 18.171875 C12.9487207 19.29658203 13.54587891 20.42128906 14.16113281 21.58007812 C17.1071768 27.05912542 20.17365998 32.46833458 23.25 37.875 C24.33859281 39.78903341 25.42713878 41.70309347 26.515625 43.6171875 C26.97227539 44.41753418 27.42892578 45.21788086 27.89941406 46.04248047 C28.63134876 47.34431108 29.33209412 48.66418823 30 50 C32.88135422 50.5829296 35.69983755 51.03819563 38.609375 51.42578125 C39.49937195 51.55149002 40.3893689 51.67719879 41.30633545 51.80671692 C44.20305505 52.2134425 47.10138006 52.60706719 50 53 C51.92391425 53.26679502 53.84774285 53.53420847 55.77148438 53.80224609 C61.59593178 54.6101893 67.42277715 55.39986757 73.25 56.1875 C75.27866317 56.46276289 77.30730909 56.73815295 79.3359375 57.01367188 C84.2237618 57.67723936 89.11181252 58.33911346 94 59 C90.81721757 62.887783 87.85704924 66.13568089 83.875 69.25 C79.95566191 72.38126742 76.18710446 75.59814431 72.5 79 C68.83692752 82.37002668 65.10997759 85.60717671 61.25 88.75 C60.3528125 89.48734375 59.455625 90.2246875 58.53125 90.984375 C56.96505657 92.23152903 55.36525673 93.43910322 53.71875 94.578125 C51.79735034 95.96580253 50.41224653 97.10098188 49 99 C48.81549217 100.9619333 48.81549217 100.9619333 49.21264648 103.0715332 C49.38786331 104.26934921 49.38786331 104.26934921 49.56661987 105.49136353 C49.78114304 106.73313858 49.78114304 106.73313858 50 108 C50.13552277 108.78603607 50.27104553 109.57207214 50.41067505 110.38192749 C50.86546038 112.87837423 51.35240788 115.36674548 51.84765625 117.85546875 C52.20908223 119.71287159 52.57040739 121.57029404 52.93164062 123.42773438 C53.49817257 126.31800754 54.06652858 129.20790655 54.63696289 132.09741211 C55.19114873 134.91168544 55.73849263 137.72722609 56.28515625 140.54296875 C56.45700943 141.40246628 56.62886261 142.26196381 56.80592346 143.14750671 C57.64821685 147.50215297 58.19848632 151.53880519 58 156 C53.10331685 154.49450546 48.60264238 152.50267723 43.99609375 150.296875 C43.23635757 149.93660217 42.4766214 149.57632935 41.69386292 149.20513916 C39.27352685 148.05665217 36.85544178 146.90351794 34.4375 145.75 C32.84065263 144.99055346 31.2436487 144.23143599 29.64648438 143.47265625 C28.86496002 143.10120483 28.08343567 142.72975342 27.27822876 142.3470459 C25.7224095 141.60871571 24.16591633 140.87180384 22.60873413 140.13635254 C19.09976951 138.47862433 15.6001984 136.8085924 12.12548828 135.08007812 C10.98192871 134.52255859 9.83836914 133.96503906 8.66015625 133.390625 C7.67797119 132.90110352 6.69578613 132.41158203 5.68383789 131.90722656 C0.44517837 130.13638523 -3.49921424 132.54077354 -8.27734375 134.80859375 C-9.17722771 135.23252663 -9.17722771 135.23252663 -10.09529114 135.6650238 C-11.37979247 136.27079322 -12.6631447 136.87900423 -13.94543457 137.48944092 C-16.62833437 138.76628026 -19.31713459 140.0304478 -22.00570679 141.29528809 C-23.3653826 141.93507323 -24.72477759 142.57545552 -26.08389282 143.21643066 C-32.28808089 146.14171898 -38.51110504 149.02442938 -44.75 151.875 C-46.12273071 152.5081311 -46.12273071 152.5081311 -47.52319336 153.15405273 C-48.3560083 153.53376221 -49.18882324 153.91347168 -50.046875 154.3046875 C-51.12727051 154.7994458 -51.12727051 154.7994458 -52.22949219 155.30419922 C-54 156 -54 156 -56 156 C-55.11991623 149.04481443 -53.87929205 142.27241333 -52.24453735 135.46005249 C-51.36056216 131.75137684 -50.53791116 128.02996919 -49.71704102 124.30688477 C-49.2789263 122.3862722 -48.81542735 120.47128264 -48.32739258 118.56274414 C-45.27135434 108.17992438 -45.27135434 108.17992438 -47.06289673 97.97518921 C-49.94852056 94.34624993 -53.42940345 91.68207714 -57.28337097 89.1476593 C-59.85920762 87.42557326 -62.19177209 85.42806253 -64.5625 83.4375 C-65.44808594 82.72722656 -66.33367187 82.01695313 -67.24609375 81.28515625 C-70.83392553 78.30801924 -74.22868791 75.14705932 -77.6340332 71.96484375 C-81.38993919 68.48282523 -85.3093659 65.34480381 -89.453125 62.33984375 C-89.96359375 61.89769531 -90.4740625 61.45554688 -91 61 C-91 60.34 -91 59.68 -91 59 C-56.10813692 54.11728351 -56.10813692 54.11728351 -41.5625 52.1875 C-40.64847412 52.0639917 -39.73444824 51.9404834 -38.79272461 51.81323242 C-34.83437051 51.29440978 -31.0031155 50.84382096 -27 51 C-26.79117188 50.2265625 -26.58234375 49.453125 -26.3671875 48.65625 C-24.48255601 43.61620693 -21.81690276 39.1483023 -19.125 34.5 C-17.95558547 32.45785849 -16.78765659 30.41486562 -15.62109375 28.37109375 C-15.02409668 27.32550293 -14.42709961 26.27991211 -13.81201172 25.20263672 C-10.87997556 20.02041489 -8.02997645 14.79424205 -5.1875 9.5625 C-4.66623535 8.6034375 -4.1449707 7.644375 -3.60791016 6.65625 C-2.40379601 4.43829542 -1.20102855 2.21962652 0 0 Z " fill="#FCEE21" transform="translate(293,0)"/>
<path d="M0 0 C5.7361096 2.95118682 8.87755671 7.23368352 12 12.75 C14.12470268 19.71430323 14.12924568 25.1644385 10.8125 31.75 C5.61683461 40.44655421 -1.46243658 48.56979167 -8.875 55.4375 C-9.535 55.4375 -10.195 55.4375 -10.875 55.4375 C-10.875 56.0975 -10.875 56.7575 -10.875 57.4375 C-2.955 57.4375 4.965 57.4375 13.125 57.4375 C13.125 61.3975 13.125 65.3575 13.125 69.4375 C-2.385 69.4375 -17.895 69.4375 -33.875 69.4375 C-33.875 58.4375 -33.875 58.4375 -31.1640625 55.0546875 C-29.9680846 54.1076642 -28.74489436 53.19423369 -27.5 52.3125 C-26.20763702 51.3029741 -24.91597434 50.29255108 -23.625 49.28125 C-22.985625 48.79914063 -22.34625 48.31703125 -21.6875 47.8203125 C-8.22002842 37.6793055 -8.22002842 37.6793055 -0.6015625 23.44921875 C-0.41718201 19.22974224 -0.50256666 17.02618496 -2.8125 13.375 C-6.38003084 11.11799069 -8.56207381 10.70674597 -12.71875 10.94921875 C-16.2767516 11.75492563 -17.80831324 13.53122175 -19.875 16.4375 C-20.205 18.0875 -20.535 19.7375 -20.875 21.4375 C-24.835 21.4375 -28.795 21.4375 -32.875 21.4375 C-33.5706969 15.06027837 -32.44019653 11.6692803 -28.6640625 6.48828125 C-21.26308792 -1.99536865 -10.47426271 -4.16832904 0 0 Z " fill="#030301" transform="translate(101.875,358.5625)"/>
<path d="M0 0 C5.02726924 3.14931412 9.03467841 6.92533704 10.8125 12.73046875 C11.9393926 18.35459329 12.15667021 23.27698773 9.23828125 28.29296875 C8.57828125 29.13859375 7.91828125 29.98421875 7.23828125 30.85546875 C7.23828125 35.13387136 9.52232557 36.67581332 12.23828125 39.85546875 C14.17274085 45.65884754 14.33075681 51.92876302 12.1796875 57.69140625 C8.3795578 64.55017694 3.63447265 68.39007162 -3.76171875 70.85546875 C-10.83945808 71.59937529 -16.71089003 71.39655061 -22.78515625 67.46484375 C-27.78792131 63.39144611 -30.87981171 59.36077786 -31.63671875 52.85546875 C-31.67796875 51.53546875 -31.71921875 50.21546875 -31.76171875 48.85546875 C-27.80171875 48.85546875 -23.84171875 48.85546875 -19.76171875 48.85546875 C-16.76171875 54.60546875 -16.76171875 54.60546875 -16.76171875 56.85546875 C-11.74138906 58.52891198 -7.5434523 58.72738091 -2.82421875 56.41796875 C0.10169476 52.78274287 0.62992267 49.4700263 0.23828125 44.85546875 C-1.88072229 41.0210814 -5.01391338 40.34166956 -9.01171875 39.10546875 C-10.59168964 38.6762281 -12.17407789 38.25540881 -13.76171875 37.85546875 C-13.76171875 34.88546875 -13.76171875 31.91546875 -13.76171875 28.85546875 C-13.06304687 28.60152344 -12.364375 28.34757812 -11.64453125 28.0859375 C-10.73445313 27.74175781 -9.824375 27.39757812 -8.88671875 27.04296875 C-7.98179687 26.70652344 -7.076875 26.37007813 -6.14453125 26.0234375 C-3.46746026 24.95897851 -3.46746026 24.95897851 -1.76171875 21.85546875 C-1.5485689 18.44507115 -1.67682475 16.11015076 -2.76171875 12.85546875 C-6.25915296 11.37578505 -10.03741349 11.52294149 -13.76171875 11.85546875 C-16.44829889 13.9611667 -17.86239759 16.006487 -19.76171875 18.85546875 C-22.36328125 19.1484375 -22.36328125 19.1484375 -25.38671875 19.04296875 C-26.89105469 19.00236328 -26.89105469 19.00236328 -28.42578125 18.9609375 C-29.19664062 18.92613281 -29.9675 18.89132812 -30.76171875 18.85546875 C-31.34586922 14.18226498 -31.00152953 11.625443 -28.26171875 7.73046875 C-20.93335665 -0.98892504 -11.14535191 -4.61893651 0 0 Z " fill="#040402" transform="translate(497.76171875,408.14453125)"/>
<path d="M0 0 C61.05 0 122.1 0 185 0 C185 116.16 185 232.32 185 352 C123.95 352 62.9 352 0 352 C0 235.84 0 119.68 0 0 Z M1 1 C1 116.17 1 231.34 1 350 C61.06 350 121.12 350 183 350 C183 234.83 183 119.66 183 1 C122.94 1 62.88 1 1 1 Z " fill="#302D06" transform="translate(202,165)"/>
<path d="M0 0 C61.05 0 122.1 0 185 0 C185 83.16 185 166.32 185 252 C123.95 252 62.9 252 0 252 C0 168.84 0 85.68 0 0 Z M2 1 C2 83.17 2 165.34 2 250 C62.06 250 122.12 250 184 250 C184 167.83 184 85.66 184 1 C123.94 1 63.88 1 2 1 Z " fill="#18180B" transform="translate(0,265)"/>
<path d="M0 0 C5.94 0 11.88 0 18 0 C18 23.1 18 46.2 18 70 C14.04 70 10.08 70 6 70 C6 50.86 6 31.72 6 12 C3.03 12 0.06 12 -3 12 C-2.01 8.04 -1.02 4.08 0 0 Z " fill="#000000" transform="translate(285,308)"/>
</svg>
