<svg version="1.1" id="Layer_1" xmlns="http://www.w3.org/2000/svg" xmlns:xlink="http://www.w3.org/1999/xlink" x="0px" y="0px"
	 width="100%" viewBox="0 0 512 512" enable-background="new 0 0 512 512" xml:space="preserve">
<path fill="#000000" opacity="1.000000" stroke="none" 
	d="
M1.000000,192.000000 
	C1.000000,128.000000 1.000000,64.500000 1.000000,1.000000 
	C171.666672,1.000000 342.333344,1.000000 513.000000,1.000000 
	C513.000000,171.666672 513.000000,342.333344 513.000000,513.000000 
	C342.333344,513.000000 171.666672,513.000000 1.000000,513.000000 
	C1.000000,406.166656 1.000000,299.333344 1.000000,192.000000 
M188.425385,456.745789 
	C212.794067,464.782959 237.829605,468.485596 263.457397,467.891205 
	C269.996765,467.739502 276.612030,467.163605 283.022644,465.912781 
	C297.077972,463.170319 311.024689,459.871155 325.726959,456.656342 
	C348.970978,447.959106 370.608826,436.573242 389.946777,420.709900 
	C405.507965,407.944672 418.908508,393.415100 430.439148,377.022919 
	C444.207275,357.449890 454.030365,336.018646 460.382141,313.007294 
	C465.065521,296.040222 467.510345,278.707581 467.955261,260.153381 
	C466.951050,246.839493 466.927399,233.361160 464.728271,220.247665 
	C460.764343,196.610443 452.741913,174.217941 440.749268,153.306107 
	C428.933777,132.703186 414.418030,114.454300 396.457886,98.787155 
	C379.936310,84.374908 361.807770,72.840714 341.825684,63.842155 
	C317.320251,52.806618 291.559753,47.401649 264.973450,46.214809 
	C252.312653,45.649616 239.440872,46.530674 226.858673,48.210129 
	C204.928101,51.137394 183.902863,57.672546 164.019150,67.518280 
	C147.165924,75.863411 131.773911,86.309341 117.549065,98.720802 
	C104.633865,109.989586 93.543457,122.710030 83.727592,136.617798 
	C69.963936,156.119064 60.029533,177.462845 53.774868,200.505768 
	C48.390629,220.341965 45.536190,240.497589 46.081974,261.975433 
	C46.391167,265.412598 46.831238,268.843781 46.988106,272.287872 
	C47.935516,293.088684 52.661243,313.043365 60.020935,332.468018 
	C70.084541,359.029236 85.126724,382.427094 104.612953,402.982483 
	C117.800217,416.893341 132.552948,429.091125 149.300278,438.337463 
	C161.696793,445.181763 175.060181,450.274811 188.425385,456.745789 
z"/>
<path fill="#B7022D" opacity="1.000000" stroke="none" 
	d="
M46.193207,261.091187 
	C45.536190,240.497589 48.390629,220.341965 53.774868,200.505768 
	C60.029533,177.462845 69.963936,156.119064 83.727592,136.617798 
	C93.543457,122.710030 104.633865,109.989586 117.549065,98.720802 
	C131.773911,86.309341 147.165924,75.863411 164.019150,67.518280 
	C183.902863,57.672546 204.928101,51.137394 226.858673,48.210129 
	C239.440872,46.530674 252.312653,45.649616 264.973450,46.214809 
	C291.559753,47.401649 317.320251,52.806618 341.825684,63.842155 
	C361.807770,72.840714 379.936310,84.374908 396.457886,98.787155 
	C414.418030,114.454300 428.933777,132.703186 440.749268,153.306107 
	C452.741913,174.217941 460.764343,196.610443 464.728271,220.247665 
	C466.927399,233.361160 466.951050,246.839493 467.607910,260.440216 
	C453.391296,245.521927 437.668427,232.634689 419.739624,222.453049 
	C414.021149,219.205551 408.562042,218.418396 402.840637,223.099609 
	C398.868805,226.501297 397.290863,230.325287 398.552582,235.269821 
	C401.905823,248.410767 403.145996,261.697845 400.986023,275.195160 
	C398.188477,292.676758 391.597748,308.315399 378.716858,320.753326 
	C374.636932,310.604767 371.449158,300.407898 366.694855,291.002930 
	C363.189941,284.069580 357.639435,278.170319 353.036407,271.472565 
	C368.898590,244.286865 374.141418,215.664703 366.929443,185.172424 
	C362.306580,165.626953 353.319061,148.299103 338.879059,133.647125 
	C335.867767,130.801468 332.989532,128.260483 329.945251,125.436859 
	C303.658264,103.742081 273.842499,95.336975 240.397232,99.866760 
	C185.146454,107.349876 142.579224,157.690506 144.200073,213.451584 
	C144.813385,234.551346 150.837280,253.974594 161.425049,272.082123 
	C148.501114,285.805420 141.080582,302.340942 135.028244,320.452576 
	C125.390579,310.959625 119.790779,300.358765 116.140785,288.619598 
	C110.763420,271.324799 110.807388,253.932861 115.343224,236.468765 
	C116.755371,231.031647 116.119202,226.192352 110.606567,222.687378 
	C105.335327,218.813766 100.173256,219.049301 94.985901,222.061798 
	C92.403000,223.561798 89.918823,225.231125 87.345657,226.748672 
	C71.748901,235.947067 58.649021,248.132065 46.193207,261.091187 
M140.311783,101.806396 
	C170.539658,79.228844 204.468231,65.972046 242.045563,63.192688 
	C267.952362,61.276527 293.629517,63.897751 318.317261,72.686317 
	C327.397034,75.918617 336.203186,79.920120 345.131165,83.577980 
	C347.717194,84.637497 350.713898,86.603958 352.543945,83.067284 
	C354.313446,79.647629 351.190277,78.089104 348.815002,76.533966 
	C348.397644,76.260696 347.971924,75.980225 347.513367,75.792900 
	C338.117981,71.954788 328.899078,67.576843 319.280914,64.413582 
	C297.126587,57.127388 274.309204,54.373272 250.940079,54.866001 
	C230.242462,55.302406 210.196869,58.936317 190.836014,65.768280 
	C159.117004,76.961128 131.655319,94.781128 108.680153,119.647911 
	C87.021942,143.089340 71.846313,169.988037 62.690659,200.436691 
	C61.799740,203.399567 61.382835,206.461014 64.882805,207.565643 
	C68.653587,208.755753 69.446625,205.658249 70.313835,202.754517 
	C76.555305,181.855637 85.935730,162.495499 98.529373,144.639984 
	C110.049721,128.306183 124.046318,114.456963 140.311783,101.806396 
M59.147629,217.483856 
	C59.522034,219.130035 59.416538,221.265991 60.430481,222.259476 
	C61.173092,222.987137 63.905098,222.774460 64.794380,221.949875 
	C65.650177,221.156296 65.277870,219.038315 65.445168,217.502243 
	C63.531181,217.322418 61.617191,217.142578 59.147629,217.483856 
z"/>
<path fill="#E63950" opacity="1.000000" stroke="none" 
	d="
M403.155212,222.922134 
	C408.562042,218.418396 414.021149,219.205551 419.739624,222.453049 
	C437.668427,232.634689 453.391296,245.521927 467.535095,260.908813 
	C467.510345,278.707581 465.065521,296.040222 460.382141,313.007294 
	C454.030365,336.018646 444.207275,357.449890 430.439148,377.022919 
	C418.908508,393.415100 405.507965,407.944672 389.946777,420.709900 
	C370.608826,436.573242 348.970978,447.959106 325.362091,456.330048 
	C324.068085,450.943878 322.945038,445.909149 322.283691,440.814514 
	C321.896210,437.829590 320.581268,437.134094 317.754791,436.976898 
	C311.151031,436.609741 304.354462,436.617493 298.026917,434.970978 
	C280.926392,430.521118 268.175171,420.150360 259.667267,404.555634 
	C258.870392,403.095001 256.842712,402.305817 255.386475,401.204895 
	C254.586823,402.505310 253.194885,403.755188 253.078964,405.113953 
	C251.898575,418.950562 254.511200,432.029938 262.236542,443.691284 
	C265.331268,448.362762 269.496674,452.313568 272.943237,456.771362 
	C273.802551,457.882782 274.479309,460.092072 273.933472,461.060028 
	C273.403076,462.000519 271.115143,462.516479 269.740204,462.304138 
	C266.140686,461.748352 262.522064,460.973816 259.079803,459.794006 
	C219.247375,446.141296 195.654083,407.339294 200.290649,364.411102 
	C200.673294,360.868286 202.157410,357.444427 203.420502,354.128174 
	C206.917114,359.480652 211.669006,362.184753 217.644333,362.765472 
	C223.044785,363.290375 224.909454,361.568298 224.928787,356.066986 
	C224.969650,344.427765 224.929886,332.788330 224.957077,321.149048 
	C224.960938,319.494751 224.913116,317.781311 225.304596,316.197968 
	C226.508926,311.326752 231.143753,308.197510 236.205963,308.622803 
	C241.754730,309.088959 245.603622,313.204315 245.728134,319.480743 
	C245.922684,329.287262 245.793472,339.100281 245.794769,348.910522 
	C245.796814,364.202240 244.116104,362.828278 260.790344,362.811737 
	C264.467377,362.808075 266.245636,361.019897 266.204559,357.259277 
	C266.153839,352.611542 266.296753,347.961700 266.780945,343.235962 
	C268.928223,342.577850 270.702301,342.115448 272.363098,341.392822 
	C277.190186,339.292511 281.971863,337.087921 286.885498,335.289917 
	C287.065582,336.417755 287.131470,337.179932 287.117615,338.404602 
	C287.071808,343.246521 287.105743,347.625946 287.077087,352.447083 
	C287.015900,354.883698 286.539795,357.045441 287.161072,358.823761 
	C287.716431,360.413330 289.272980,362.435852 290.747864,362.797119 
	C302.132690,365.585815 312.923981,356.808929 312.994812,344.917480 
	C313.055206,334.776520 313.162048,324.631378 312.925201,314.495636 
	C312.842529,310.957520 313.808929,308.899445 316.952789,306.962585 
	C322.011902,303.845764 327.106293,300.444122 331.232666,296.229645 
	C338.852997,288.446655 345.782898,279.987671 353.000397,271.810303 
	C357.639435,278.170319 363.189941,284.069580 366.694855,291.002930 
	C371.449158,300.407898 374.636932,310.604767 378.552307,321.033997 
	C376.870514,323.392883 375.338074,325.455688 373.363159,326.922913 
	C357.454956,338.741699 345.187164,353.667328 335.731293,370.953033 
	C328.438477,384.284546 323.831757,398.501282 322.100250,414.698273 
	C326.244690,409.697937 329.559814,405.365082 333.217712,401.344025 
	C347.188385,385.986237 363.613190,373.616791 380.605072,361.795105 
	C414.430756,338.261719 430.163818,306.141266 423.839355,264.764130 
	C421.412689,248.888107 414.509674,234.664902 403.155212,222.922134 
z"/>
<path fill="#C5022B" opacity="1.000000" stroke="none" 
	d="
M203.129761,353.965302 
	C202.157410,357.444427 200.673294,360.868286 200.290649,364.411102 
	C195.654083,407.339294 219.247375,446.141296 259.079803,459.794006 
	C262.522064,460.973816 266.140686,461.748352 269.740204,462.304138 
	C271.115143,462.516479 273.403076,462.000519 273.933472,461.060028 
	C274.479309,460.092072 273.802551,457.882782 272.943237,456.771362 
	C269.496674,452.313568 265.331268,448.362762 262.236542,443.691284 
	C254.511200,432.029938 251.898575,418.950562 253.078964,405.113953 
	C253.194885,403.755188 254.586823,402.505310 255.386475,401.204895 
	C256.842712,402.305817 258.870392,403.095001 259.667267,404.555634 
	C268.175171,420.150360 280.926392,430.521118 298.026917,434.970978 
	C304.354462,436.617493 311.151031,436.609741 317.754791,436.976898 
	C320.581268,437.134094 321.896210,437.829590 322.283691,440.814514 
	C322.945038,445.909149 324.068085,450.943878 325.006470,456.401550 
	C311.024689,459.871155 297.077972,463.170319 283.022644,465.912781 
	C276.612030,467.163605 269.996765,467.739502 263.457397,467.891205 
	C237.829605,468.485596 212.794067,464.782959 188.467285,456.171722 
	C189.797714,446.259705 191.373215,436.949493 192.278915,427.574554 
	C192.937134,420.761414 192.456543,414.009857 187.064743,408.616974 
	C183.660675,405.212189 180.701492,401.367615 177.417755,397.836548 
	C164.293045,383.723450 148.792160,372.575195 133.083221,361.549377 
	C99.545807,338.009979 83.720535,306.085297 90.150398,264.830811 
	C92.625854,248.948074 99.417122,234.683487 110.825027,222.955017 
	C116.119202,226.192352 116.755371,231.031647 115.343224,236.468765 
	C110.807388,253.932861 110.763420,271.324799 116.140785,288.619598 
	C119.790779,300.358765 125.390579,310.959625 135.028244,320.452576 
	C141.080582,302.340942 148.501114,285.805420 161.671936,272.333496 
	C167.813354,279.304688 173.406815,286.137939 178.821869,293.255127 
	C168.040466,302.625092 156.988724,311.248627 146.986389,320.953705 
	C139.875275,327.853516 140.965958,327.355408 147.296112,332.028717 
	C148.890564,333.205872 150.279984,334.700745 151.613571,336.184479 
	C158.474182,343.817535 165.285904,351.494568 172.427155,359.506805 
	C179.649948,347.842560 189.101669,338.200134 201.048889,331.467041 
	C201.810852,339.271271 202.470306,346.618286 203.129761,353.965302 
z"/>
<path fill="#E63850" opacity="1.000000" stroke="none" 
	d="
M110.606567,222.687378 
	C99.417122,234.683487 92.625854,248.948074 90.150398,264.830811 
	C83.720535,306.085297 99.545807,338.009979 133.083221,361.549377 
	C148.792160,372.575195 164.293045,383.723450 177.417755,397.836548 
	C180.701492,401.367615 183.660675,405.212189 187.064743,408.616974 
	C192.456543,414.009857 192.937134,420.761414 192.278915,427.574554 
	C191.373215,436.949493 189.797714,446.259705 188.251007,455.872833 
	C175.060181,450.274811 161.696793,445.181763 149.300278,438.337463 
	C132.552948,429.091125 117.800217,416.893341 104.612953,402.982483 
	C85.126724,382.427094 70.084541,359.029236 60.020935,332.468018 
	C52.661243,313.043365 47.935516,293.088684 46.988106,272.287872 
	C46.831238,268.843781 46.391167,265.412598 46.137589,261.533325 
	C58.649021,248.132065 71.748901,235.947067 87.345657,226.748672 
	C89.918823,225.231125 92.403000,223.561798 94.985901,222.061798 
	C100.173256,219.049301 105.335327,218.813766 110.606567,222.687378 
z"/>
<path fill="#FFFEFE" opacity="1.000000" stroke="none" 
	d="
M179.000259,292.971191 
	C173.406815,286.137939 167.813354,279.304688 161.973022,272.220062 
	C150.837280,253.974594 144.813385,234.551346 144.200073,213.451584 
	C142.579224,157.690506 185.146454,107.349876 240.397232,99.866760 
	C273.842499,95.336975 303.658264,103.742081 329.956177,125.810287 
	C330.850281,127.948051 331.447815,129.502853 332.302216,130.900635 
	C349.165344,158.488235 354.261017,187.945282 346.094788,219.382492 
	C338.616577,248.170944 322.192627,270.573975 297.091522,286.528656 
	C294.087524,288.438049 292.828064,290.616791 292.907349,294.222229 
	C293.126831,304.201538 293.027069,314.189178 292.962982,324.172943 
	C292.928680,329.515686 291.466797,334.335999 287.197388,337.942108 
	C287.131470,337.179932 287.065582,336.417755 286.972351,334.834198 
	C286.980347,329.543152 287.064209,325.073242 287.040192,320.603912 
	C287.000549,313.223267 283.065460,308.606781 276.826202,308.517944 
	C270.823273,308.432495 266.337158,313.302216 266.221863,320.475372 
	C266.099518,328.085144 266.297760,335.700104 266.356018,343.312775 
	C266.296753,347.961700 266.153839,352.611542 266.204559,357.259277 
	C266.245636,361.019897 264.467377,362.808075 260.790344,362.811737 
	C244.116104,362.828278 245.796814,364.202240 245.794769,348.910522 
	C245.793472,339.100281 245.922684,329.287262 245.728134,319.480743 
	C245.603622,313.204315 241.754730,309.088959 236.205963,308.622803 
	C231.143753,308.197510 226.508926,311.326752 225.304596,316.197968 
	C224.913116,317.781311 224.960938,319.494751 224.957077,321.149048 
	C224.929886,332.788330 224.969650,344.427765 224.928787,356.066986 
	C224.909454,361.568298 223.044785,363.290375 217.644333,362.765472 
	C211.669006,362.184753 206.917114,359.480652 203.420517,354.128174 
	C202.470306,346.618286 201.810852,339.271271 201.151901,331.008118 
	C201.166977,324.294739 201.356720,318.489319 201.085281,312.705475 
	C201.007706,311.052094 200.002426,308.949005 198.723343,307.928314 
	C192.276016,302.783386 185.597595,297.928101 179.000259,292.971191 
M228.618637,168.347412 
	C222.730301,166.852386 216.841980,165.357361 210.095200,163.591187 
	C206.654922,164.072159 203.101700,164.157379 199.793655,165.101608 
	C184.257767,169.536194 173.415222,184.230988 173.413559,200.477249 
	C173.411957,216.140701 183.781128,230.693390 198.586914,235.449966 
	C211.141998,239.151199 222.805771,237.885742 233.801743,229.054993 
	C253.697235,212.026840 251.176453,180.117996 228.618637,168.347412 
M273.142609,180.067993 
	C258.579803,203.924667 272.222992,233.944092 299.883331,237.124237 
	C301.044861,237.213455 302.205261,237.361450 303.368042,237.383072 
	C321.054932,237.712112 336.543701,225.408524 340.090393,208.230225 
	C343.734802,190.578705 334.587189,173.067703 318.172058,166.272537 
	C301.970123,159.565628 283.101135,165.233551 273.142609,180.067993 
M259.430481,276.001770 
	C261.095276,276.001587 262.760406,276.022583 264.424835,275.997467 
	C270.916443,275.899536 272.927094,272.865387 270.171814,267.110870 
	C267.444977,261.415680 264.717407,255.709854 261.689026,250.173431 
	C259.252472,245.718979 254.771545,245.678452 252.355820,250.102570 
	C249.091919,256.080017 246.035187,262.185669 243.211121,268.382874 
	C241.321152,272.530243 243.424301,275.704987 247.974609,275.954498 
	C251.460388,276.145599 254.964691,275.998474 259.430481,276.001770 
z"/>
<path fill="#D10128" opacity="1.000000" stroke="none" 
	d="
M402.840637,223.099609 
	C414.509674,234.664902 421.412689,248.888107 423.839355,264.764130 
	C430.163818,306.141266 414.430756,338.261719 380.605072,361.795105 
	C363.613190,373.616791 347.188385,385.986237 333.217712,401.344025 
	C329.559814,405.365082 326.244690,409.697937 322.100250,414.698273 
	C323.831757,398.501282 328.438477,384.284546 335.731293,370.953033 
	C345.187164,353.667328 357.454956,338.741699 373.363159,326.922913 
	C375.338074,325.455688 376.870514,323.392883 378.772522,321.325378 
	C391.597748,308.315399 398.188477,292.676758 400.986023,275.195160 
	C403.145996,261.697845 401.905823,248.410767 398.552582,235.269821 
	C397.290863,230.325287 398.868805,226.501297 402.840637,223.099609 
z"/>
<path fill="#D00028" opacity="1.000000" stroke="none" 
	d="
M140.007629,101.991592 
	C124.046318,114.456963 110.049721,128.306183 98.529373,144.639984 
	C85.935730,162.495499 76.555305,181.855637 70.313835,202.754517 
	C69.446625,205.658249 68.653587,208.755753 64.882805,207.565643 
	C61.382835,206.461014 61.799740,203.399567 62.690659,200.436691 
	C71.846313,169.988037 87.021942,143.089340 108.680153,119.647911 
	C131.655319,94.781128 159.117004,76.961128 190.836014,65.768280 
	C210.196869,58.936317 230.242462,55.302406 250.940079,54.866001 
	C274.309204,54.373272 297.126587,57.127388 319.280914,64.413582 
	C328.899078,67.576843 338.117981,71.954788 347.513367,75.792900 
	C347.971924,75.980225 348.397644,76.260696 348.815002,76.533966 
	C351.190277,78.089104 354.313446,79.647629 352.543945,83.067284 
	C350.713898,86.603958 347.717194,84.637497 345.131165,83.577980 
	C336.203186,79.920120 327.397034,75.918617 318.317261,72.686317 
	C293.629517,63.897751 267.952362,61.276527 242.045563,63.192688 
	C204.468231,65.972046 170.539658,79.228844 140.007629,101.991592 
z"/>
<path fill="#D2D2D3" opacity="1.000000" stroke="none" 
	d="
M353.036407,271.472565 
	C345.782898,279.987671 338.852997,288.446655 331.232666,296.229645 
	C327.106293,300.444122 322.011902,303.845764 316.952789,306.962585 
	C313.808929,308.899445 312.842529,310.957520 312.925201,314.495636 
	C313.162048,324.631378 313.055206,334.776520 312.994812,344.917480 
	C312.923981,356.808929 302.132690,365.585815 290.747864,362.797119 
	C289.272980,362.435852 287.716431,360.413330 287.161072,358.823761 
	C286.539795,357.045441 287.015900,354.883698 287.471924,352.450623 
	C296.919556,351.208038 302.774200,344.381409 302.946442,334.071899 
	C303.113342,324.080750 303.144073,314.080902 302.906494,304.092682 
	C302.819183,300.421173 304.288605,298.361481 307.211151,296.453796 
	C340.744171,274.565094 358.090271,243.177689 359.787201,203.535248 
	C360.684631,182.570282 355.115845,162.710861 344.356506,144.474472 
	C342.361420,141.092957 340.782898,137.465652 339.012115,133.951782 
	C353.319061,148.299103 362.306580,165.626953 366.929443,185.172424 
	C374.141418,215.664703 368.898590,244.286865 353.036407,271.472565 
z"/>
<path fill="#E6E7E8" opacity="1.000000" stroke="none" 
	d="
M338.879059,133.647125 
	C340.782898,137.465652 342.361420,141.092957 344.356506,144.474472 
	C355.115845,162.710861 360.684631,182.570282 359.787201,203.535248 
	C358.090271,243.177689 340.744171,274.565094 307.211151,296.453796 
	C304.288605,298.361481 302.819183,300.421173 302.906494,304.092682 
	C303.144073,314.080902 303.113342,324.080750 302.946442,334.071899 
	C302.774200,344.381409 296.919556,351.208038 287.534576,352.008911 
	C287.105743,347.625946 287.071808,343.246521 287.117615,338.404602 
	C291.466797,334.335999 292.928680,329.515686 292.962982,324.172943 
	C293.027069,314.189178 293.126831,304.201538 292.907349,294.222229 
	C292.828064,290.616791 294.087524,288.438049 297.091522,286.528656 
	C322.192627,270.573975 338.616577,248.170944 346.094788,219.382492 
	C354.261017,187.945282 349.165344,158.488235 332.302216,130.900635 
	C331.447815,129.502853 330.850281,127.948051 330.122253,126.092926 
	C332.989532,128.260483 335.867767,130.801468 338.879059,133.647125 
z"/>
<path fill="#D00028" opacity="1.000000" stroke="none" 
	d="
M59.425415,217.223297 
	C61.617191,217.142578 63.531181,217.322418 65.445168,217.502243 
	C65.277870,219.038315 65.650177,221.156296 64.794380,221.949875 
	C63.905098,222.774460 61.173092,222.987137 60.430481,222.259476 
	C59.416538,221.265991 59.522034,219.130035 59.425415,217.223297 
z"/>
<path fill="#D2032A" opacity="1.000000" stroke="none" 
	d="
M266.780945,343.235962 
	C266.297760,335.700104 266.099518,328.085144 266.221863,320.475372 
	C266.337158,313.302216 270.823273,308.432495 276.826202,308.517944 
	C283.065460,308.606781 287.000549,313.223267 287.040192,320.603912 
	C287.064209,325.073242 286.980347,329.543152 286.858154,334.468506 
	C281.971863,337.087921 277.190186,339.292511 272.363098,341.392822 
	C270.702301,342.115448 268.928223,342.577850 266.780945,343.235962 
z"/>
<path fill="#E63950" opacity="1.000000" stroke="none" 
	d="
M178.821869,293.255127 
	C185.597595,297.928101 192.276016,302.783386 198.723343,307.928314 
	C200.002426,308.949005 201.007706,311.052094 201.085281,312.705475 
	C201.356720,318.489319 201.166977,324.294739 201.049408,330.550903 
	C189.101669,338.200134 179.649948,347.842560 172.427155,359.506805 
	C165.285904,351.494568 158.474182,343.817535 151.613571,336.184479 
	C150.279984,334.700745 148.890564,333.205872 147.296112,332.028717 
	C140.965958,327.355408 139.875275,327.853516 146.986389,320.953705 
	C156.988724,311.248627 168.040466,302.625092 178.821869,293.255127 
z"/>
<path fill="#B7032E" opacity="1.000000" stroke="none" 
	d="
M273.690735,179.633972 
	C283.101135,165.233551 301.970123,159.565628 318.172058,166.272537 
	C334.587189,173.067703 343.734802,190.578705 340.090393,208.230225 
	C336.543701,225.408524 321.054932,237.712112 303.368042,237.383072 
	C302.205261,237.361450 301.044861,237.213455 299.339233,236.623749 
	C298.344727,233.025650 297.963593,229.916122 297.432434,226.832413 
	C294.308380,208.695374 285.799042,193.257080 273.690735,179.633972 
z"/>
<path fill="#B7042E" opacity="1.000000" stroke="none" 
	d="
M197.978348,234.952850 
	C183.781128,230.693390 173.411957,216.140701 173.413559,200.477249 
	C173.415222,184.230988 184.257767,169.536194 199.793655,165.101608 
	C203.101700,164.157379 206.654922,164.072159 210.535889,164.179794 
	C211.080688,166.584656 211.275986,168.401016 211.273727,170.217148 
	C211.261230,180.270294 211.783218,190.368469 211.009827,200.365158 
	C210.031754,213.007553 203.723282,223.942780 197.978348,234.952850 
z"/>
<path fill="#D10129" opacity="1.000000" stroke="none" 
	d="
M198.282623,235.201416 
	C203.723282,223.942780 210.031754,213.007553 211.009827,200.365158 
	C211.783218,190.368469 211.261230,180.270294 211.273727,170.217148 
	C211.275986,168.401016 211.080688,166.584656 210.965118,164.315369 
	C216.841980,165.357361 222.730301,166.852386 228.872986,169.004898 
	C233.781525,182.396011 236.992645,195.425079 235.927963,209.093109 
	C235.402222,215.842651 234.098282,222.531540 233.146454,229.247879 
	C222.805771,237.885742 211.141998,239.151199 198.282623,235.201416 
z"/>
<path fill="#E63A51" opacity="1.000000" stroke="none" 
	d="
M273.416687,179.850983 
	C285.799042,193.257080 294.308380,208.695374 297.432434,226.832413 
	C297.963593,229.916122 298.344727,233.025650 298.884399,236.513977 
	C272.222992,233.944092 258.579803,203.924667 273.416687,179.850983 
z"/>
<path fill="#E63B52" opacity="1.000000" stroke="none" 
	d="
M258.945618,276.001770 
	C254.964691,275.998474 251.460388,276.145599 247.974609,275.954498 
	C243.424301,275.704987 241.321152,272.530243 243.211121,268.382874 
	C246.035187,262.185669 249.091919,256.080017 252.355820,250.102570 
	C254.771545,245.678452 259.252472,245.718979 261.689026,250.173431 
	C264.717407,255.709854 267.444977,261.415680 270.171814,267.110870 
	C272.927094,272.865387 270.916443,275.899536 264.424835,275.997467 
	C262.760406,276.022583 261.095276,276.001587 258.945618,276.001770 
z"/>
<path fill="#E63C53" opacity="1.000000" stroke="none" 
	d="
M233.474091,229.151428 
	C234.098282,222.531540 235.402222,215.842651 235.927963,209.093109 
	C236.992645,195.425079 233.781525,182.396011 229.088531,169.282471 
	C251.176453,180.117996 253.697235,212.026840 233.474091,229.151428 
z"/>
</svg>