<?xml version="1.0" encoding="UTF-8"?>
<svg version="1.1" xmlns="http://www.w3.org/2000/svg" width="512" height="512">
<path d="M0 0 C8.75810195 7.9292595 8.75810195 7.9292595 11.8203125 12.05078125 C13.49827383 13.54671628 13.49827383 13.54671628 16.1015625 12.87890625 C17.2153125 12.56566406 18.3290625 12.25242188 19.4765625 11.9296875 C36.44569865 7.8718506 55.96894236 8.51505398 72.4765625 14.2421875 C73.18989746 14.48888184 73.90323242 14.73557617 74.63818359 14.98974609 C88.98944664 20.1199211 100.44700159 27.70032827 111.4765625 38.2421875 C112.15203125 38.84289062 112.8275 39.44359375 113.5234375 40.0625 C130.31272718 55.57580366 139.79560408 79.47591744 141.390625 101.99609375 C141.79489808 112.56232203 141.79489808 112.56232203 140.8984375 117.29296875 C140.34285895 120.47960856 140.00752993 123.03637264 140.4765625 126.2421875 C142.61924104 128.611629 144.8148378 129.94456064 147.578125 131.5390625 C166.45953422 142.63379892 179.35752993 165.26096018 185 185.859375 C185.81611667 189.93995835 186.55988794 194.17971711 185.4765625 198.2421875 C184.65414063 198.80164063 183.83171875 199.36109375 182.984375 199.9375 C180.16209991 202.5311796 180.07677455 203.01354259 179.8125 206.6484375 C179.79925573 208.34635244 179.81315679 210.04465531 179.8515625 211.7421875 C179.83222656 212.59683594 179.81289063 213.45148438 179.79296875 214.33203125 C179.81183848 216.75113034 179.90790849 218.88977054 180.4765625 221.2421875 C182.87136757 223.59118089 182.87136757 223.59118089 185.4765625 225.2421875 C188.66903256 235.10128621 181.70834379 248.05510659 177.36352539 256.7980957 C173.25126108 264.73387396 168.57821129 271.66574154 162.4765625 278.2421875 C161.65671875 279.15355469 160.836875 280.06492187 159.9921875 281.00390625 C145.59157107 296.27793285 123.80393852 309.05795632 102.38867188 310.37011719 C98.54394051 310.60795406 96.80815049 310.91899414 94.0078125 313.6484375 C93.3375 314.669375 92.6671875 315.6903125 91.9765625 316.7421875 C83.47470943 329.08311263 83.47470943 329.08311263 77.826828 333.54570007 C76.2309752 335.17816208 76.2309752 335.17816208 76.53340149 337.52082825 C76.73547714 338.41347885 76.9375528 339.30612946 77.14575195 340.22583008 C77.36620682 341.24151566 77.58666168 342.25720123 77.813797 343.30366516 C78.06989243 344.40357285 78.32598785 345.50348053 78.58984375 346.63671875 C78.83824509 347.77566086 79.08664642 348.91460297 79.34257507 350.08805847 C80.14168225 353.74744722 80.96301684 357.40129207 81.7890625 361.0546875 C90.42301882 399.3683489 90.42301882 399.3683489 84.87890625 408.5625 C80.65930554 413.61661784 74.74809882 417.77492027 68.09339905 418.50288391 C66.85812721 418.509795 66.85812721 418.509795 65.59790039 418.5168457 C64.6566481 418.52637772 63.71539581 418.53590973 62.74562073 418.54573059 C61.74030807 418.54481918 60.73499542 418.54390778 59.69921875 418.54296875 C58.13306068 418.54939644 58.13306068 418.54939644 56.53526306 418.55595398 C54.3305636 418.56168833 52.12584522 418.56220414 49.92114258 418.55786133 C46.55452088 418.55470201 43.18877872 418.57817019 39.82226562 418.60351562 C37.67708444 418.60578882 35.5319009 418.60649202 33.38671875 418.60546875 C32.38343033 418.6146785 31.38014191 418.62388824 30.34645081 418.63337708 C24.97356009 418.59794034 21.08991131 418.31503083 16.4765625 415.2421875 C13.02514906 411.5391085 10.2566361 407.52366638 7.4765625 403.3046875 C-8.21870079 380.20225517 -28.8548152 363.20432606 -53.39672852 350.19750977 C-59.48490574 346.93524008 -64.86736947 343.28682447 -70.2109375 338.921875 C-73.90638119 336.23768448 -75.51711385 336.08405093 -80.078125 336.80078125 C-81.51842217 337.09279968 -82.95851277 337.38583811 -84.3984375 337.6796875 C-114.09319764 343.11206568 -144.73884487 336.97496856 -169.76953125 320.046875 C-180.24217692 312.38916976 -192.59060498 303.10785253 -198.5234375 291.2421875 C-199.28785156 291.22760498 -200.05226563 291.21302246 -200.83984375 291.19799805 C-233.54115292 290.50196386 -263.6765973 285.122731 -288.5234375 262.2421875 C-289.04534668 261.76265625 -289.56725586 261.283125 -290.10498047 260.7890625 C-306.28499096 245.75290138 -317.57705365 227.52753878 -323.5234375 206.2421875 C-323.843125 205.17871094 -324.1628125 204.11523438 -324.4921875 203.01953125 C-331.84900222 173.89880631 -325.83288029 143.14713652 -311.42578125 117.359375 C-301.48245613 101.06620571 -287.6590912 84.81619002 -269.7109375 77.3671875 C-261.70264936 73.30542985 -260.25236042 66.44221401 -257.46484375 58.4609375 C-251.95582778 42.90472909 -240.37013101 28.21900053 -226.5234375 19.2421875 C-223.37191614 18.86400494 -221.26536164 19.00000501 -218.26171875 19.98046875 C-214.31058363 20.35810934 -212.22072717 18.78461578 -208.8359375 16.8046875 C-202.67999327 13.2421875 -202.67999327 13.2421875 -200.5234375 13.2421875 C-200.4203125 12.1490625 -200.3171875 11.0559375 -200.2109375 9.9296875 C-199.34696691 5.29566344 -199.34696691 5.29566344 -196.5234375 3.2421875 C-179.61500712 -2.6501443 -160.33869948 -2.93240746 -143.2109375 1.8671875 C-137.11240492 3.49300491 -137.11240492 3.49300491 -131.25 1.59765625 C-128.71633781 -0.61335459 -126.40593238 -2.89947053 -124.07373047 -5.31201172 C-90.8605463 -36.28657497 -31.83855861 -27.14260601 0 0 Z " fill="#020101" transform="translate(326.5234375,58.7578125)"/>
<path d="M0 0 C12.60035344 11.602086 20.33433453 26.94526509 24.89160156 43.26074219 C25.96400129 47.16404018 25.96400129 47.16404018 28.4375 50.3125 C31.00811311 50.96017793 31.00811311 50.96017793 33.4375 51.3125 C34.24993525 54.87174014 34.57274922 58.16377695 34.5625 61.8125 C34.56507813 62.7303125 34.56765625 63.648125 34.5703125 64.59375 C34.43994035 67.26254454 34.03128606 69.71115153 33.4375 72.3125 C32.509375 72.539375 31.58125 72.76625 30.625 73 C26.74462874 74.59779993 26.2819364 75.61862874 24.4375 79.3125 C23.63078433 81.81000331 22.88996874 84.28725383 22.1875 86.8125 C18.61054544 98.83492686 12.78637337 108.94355751 4.4375 118.3125 C3.77234375 119.07175781 3.1071875 119.83101562 2.421875 120.61328125 C-10.89394109 134.89079516 -31.29976854 144.62154496 -50.83154297 145.40332031 C-53.222008 145.44599833 -55.60920969 145.44907768 -58 145.4375 C-58.79470703 145.44136719 -59.58941406 145.44523438 -60.40820312 145.44921875 C-82.39490198 145.41343893 -101.39995582 136.77329649 -117.296875 121.6640625 C-119.92375318 119.21321224 -121.07852768 118.3125 -124.75 118.3125 C-128.34475009 119.49181115 -128.34475009 119.49181115 -130.5625 122.3125 C-130.77491484 125.92355229 -130.31928463 128.27745472 -128.16015625 131.23046875 C-112.7951229 147.5050601 -91.10168411 156.08158883 -69.5625 160.3125 C-70.90605962 163.35219037 -72.34876146 165.27622562 -74.8203125 167.484375 C-75.44550781 168.06703125 -76.07070313 168.6496875 -76.71484375 169.25 C-78.02645784 170.45512661 -79.34943371 171.64800692 -80.68359375 172.828125 C-84.1744806 176.04768401 -84.1744806 176.04768401 -86.04614258 180.28955078 C-86.14513443 184.85423666 -85.07075669 189.27006863 -84 193.6875 C-81.58405316 203.94129422 -79.49650983 214.25786191 -77.40206909 224.58099365 C-76.95309651 226.79257642 -76.50201268 229.00372096 -76.05078125 231.21484375 C-75.91550018 231.88600723 -75.78021912 232.55717072 -75.64083862 233.24867249 C-75.07685744 236.00898534 -74.45475016 238.63574951 -73.5625 241.3125 C-73.125 244.6875 -73.125 244.6875 -73.5625 248.3125 C-77.47815483 252.52691798 -80.33537532 253.91082416 -86.03413391 254.3127594 C-87.24313606 254.35517006 -87.24313606 254.35517006 -88.4765625 254.3984375 C-89.32441818 254.43843369 -90.17227386 254.47842987 -91.04582214 254.51963806 C-93.76083688 254.62043293 -96.47075306 254.66482114 -99.1875 254.6875 C-100.56208878 254.70337662 -100.56208878 254.70337662 -101.96444702 254.71957397 C-119.23442926 254.743402 -119.23442926 254.743402 -124.48046875 249.96484375 C-127.1813896 246.47794064 -128.92573644 242.62812232 -130.55664062 238.54833984 C-132.15356268 234.9986767 -134.53768478 232.30763737 -137.125 229.4375 C-137.57939453 228.91406006 -138.03378906 228.39062012 -138.50195312 227.85131836 C-153.81540412 210.3152136 -171.773834 197.52811366 -192.05810547 186.40576172 C-196.03651267 184.21880698 -199.8193011 181.88306097 -203.5625 179.3125 C-200.36840347 175.5408731 -195.84777593 173.57540879 -191.56835938 171.2734375 C-188.37127853 169.5081368 -186.62542193 168.4068829 -184.5625 165.3125 C-184.24087924 162.2249407 -184.07525485 160.17234439 -185.625 157.4375 C-188.66935931 155.6698075 -191.09143743 156.03752899 -194.5625 156.3125 C-197.96597765 157.84391325 -197.96597765 157.84391325 -201.25 160 C-222.78581112 173.03657451 -248.65320725 177.09308586 -273.4375 172.125 C-287.89302762 168.28102075 -303.63378342 162.63778364 -311.8125 149.375 C-318.33824151 137.75047912 -320.37365514 126.02066424 -317.3671875 112.8828125 C-314.03430661 102.23700851 -307.38234231 94.04377498 -297.578125 88.6796875 C-286.74682891 83.66519857 -274.98762213 82.29759883 -263.375 85.75 C-258.09598663 87.7765065 -253.51703713 90.7582895 -248.83862305 93.87915039 C-229.01333355 107.0588484 -204.92555286 109.33796315 -181.75 105.125 C-175.21768066 103.67788164 -169.40206456 101.57222503 -163.5625 98.3125 C-162.78519531 97.88195312 -162.00789062 97.45140625 -161.20703125 97.0078125 C-142.9115998 85.86051003 -137.70145949 66.72192406 -132.5625 47.3125 C-126.45851137 24.45294097 -114.60898265 4.1763887 -93.7421875 -8 C-64.84715047 -23.33495823 -25.05480991 -20.98832244 0 0 Z " fill="#F96571" transform="translate(472.5625,208.6875)"/>
<path d="M0 0 C1.63485352 -0.00483398 1.63485352 -0.00483398 3.30273438 -0.00976562 C13.84391819 0.059131 23.83339674 1.23699452 33.5625 5.4375 C34.2838916 5.74389404 35.0052832 6.05028809 35.74853516 6.3659668 C56.30941808 15.40791098 72.79876006 32.38114616 81.0625 53.3125 C82.66457861 58.24431443 83.9122454 63.25727849 85.0625 68.3125 C85.25585938 69.08722656 85.44921875 69.86195312 85.6484375 70.66015625 C87.73633908 84.03454468 85.90037596 97.49037309 83.03515625 110.578125 C81.04817938 119.89113826 80.90796046 128.99319091 80.9375 138.5 C80.93363281 139.72525391 80.92976562 140.95050781 80.92578125 142.21289062 C80.93360626 149.63491361 81.28945594 156.9022344 82.09838867 164.2824707 C82.04617248 168.69100959 80.26308685 171.21534287 77.8046875 174.75 C71.12966323 184.56797291 68.50101613 196.36383493 65.68579102 207.72265625 C61.89088124 222.73398651 56.88038054 235.19488772 43.5234375 243.87890625 C28.65307852 252.54148045 5.7269922 252.98334909 -10.625 248.75 C-17.25945537 246.49061267 -23.06352067 243.08921474 -28.9375 239.3125 C-44.48376443 229.41087016 -60.22418386 225.68342521 -78.56640625 228.9609375 C-93.87726796 233.73156552 -105.58768662 243.05074353 -113.32543945 257.015625 C-118.29966076 266.5073425 -119.4488431 275.7137004 -119.9375 286.3125 C-123.17548158 283.62566422 -124.67058204 280.12237506 -126.375 276.375 C-126.83459106 275.36856445 -126.83459106 275.36856445 -127.3034668 274.34179688 C-138.31009106 249.81923597 -138.51686085 223.93449217 -130.21484375 198.58984375 C-123.86059281 182.28642925 -113.37354042 168.00920035 -99.9375 156.8125 C-99.2775 155.9875 -98.6175 155.1625 -97.9375 154.3125 C-98.185 152.4253125 -98.185 152.4253125 -98.4375 150.5 C-98.6015625 148.4453125 -98.6015625 148.4453125 -97.9375 146.3125 C-92.47343615 141.68166583 -86.22401236 137.81612659 -78.9375 137.3125 C-78.256875 138.055 -78.256875 138.055 -77.5625 138.8125 C-75.88457646 140.71474885 -75.88457646 140.71474885 -72.5 140.1875 C-67.92205414 139.42732449 -63.44372495 138.23363421 -58.96484375 137.03125 C-40.30372881 132.60074013 -18.552436 134.7773828 -0.375 140.41796875 C13.05923365 143.91392273 27.01987259 141.90969878 39.00390625 135.23046875 C40.76613249 134.15729802 40.76613249 134.15729802 43.0625 132.3125 C43.8875 131.755625 44.7125 131.19875 45.5625 130.625 C52.99413745 123.75073536 58.660346 112.68103713 59.30078125 102.5390625 C59.55170936 92.16017631 59.72735568 80.41660442 52.75 71.9375 C50.05051093 69.97149529 50.05051093 69.97149529 46.3125 70.4375 C43.23155703 70.97712149 43.23155703 70.97712149 42.0625 72.3125 C41.46744164 77.64513841 42.01909437 81.29189233 44.3828125 86.109375 C46.61218411 93.335614 46.12534103 103.14301857 43.296875 110.1875 C38.18903012 118.98075195 31.58308756 124.13897081 22.0625 127.3125 C10.05935683 128.15024798 -0.38365727 126.38258803 -11.9375 123.3125 C-15.2617272 122.59396158 -18.59440294 121.93676382 -21.9375 121.3125 C-21.23173828 119.93578125 -21.23173828 119.93578125 -20.51171875 118.53125 C-11.19906098 100.23763867 -7.42609418 81.93656437 -13.6171875 61.8046875 C-20.79396494 42.82232351 -33.50108207 30.10657305 -50.9375 20.3125 C-48.44029547 13.39123558 -39.11004856 9.85142281 -32.796875 6.7890625 C-21.84159776 2.05707102 -11.9460748 -0.17598814 0 0 Z " fill="#FCE064" transform="translate(258.9375,50.6875)"/>
<path d="M0 0 C0.47179687 0.51949219 0.94359375 1.03898437 1.4296875 1.57421875 C2.94170707 3.24604807 2.94170707 3.24604807 5.3828125 3.14453125 C6.28773438 3.03496094 7.19265625 2.92539063 8.125 2.8125 C9.11371094 2.69648437 10.10242188 2.58046875 11.12109375 2.4609375 C13.54046745 2.07357509 15.82388657 1.56597525 18.1875 0.9375 C37.39356018 -3.57353193 60.32345039 2.18453795 76.80419922 12.39013672 C91.40818113 21.7932369 101.51900512 33.71938214 105.60742188 50.88305664 C106.25665725 54.38400186 106.34093815 57.82185588 106.3125 61.375 C106.30686035 62.11959473 106.3012207 62.86418945 106.29541016 63.63134766 C106.06463375 74.13053151 102.42912017 82.10114138 97 91 C96.64035156 91.71929687 96.28070313 92.43859375 95.91015625 93.1796875 C94.45481809 95.54154944 93.42905568 96.61257063 91 98 C87.44478479 98.6554928 83.99469186 99.03389036 80.39526367 99.29736328 C74.40422033 99.75164318 68.84716785 100.81727377 63.0625 102.4375 C62.29969727 102.6432666 61.53689453 102.8490332 60.75097656 103.06103516 C55.57989066 104.40141049 55.57989066 104.40141049 52 108 C51.91234375 109.13824219 51.8246875 110.27648437 51.734375 111.44921875 C51 115 51 115 48.015625 117.14453125 C46.77277107 117.72761485 45.51662341 118.2830309 44.25 118.8125 C43.62867188 119.09802734 43.00734375 119.38355469 42.3671875 119.67773438 C40.59263052 120.48452136 38.79655052 121.24345262 37 122 C36.08734375 122.43699219 35.1746875 122.87398438 34.234375 123.32421875 C33.49703125 123.54722656 32.7596875 123.77023438 32 124 C30.515 123.01 30.515 123.01 29 122 C21.63683725 122.33830748 17.957841 127.04950395 13 132 C12.18144531 132.80695313 11.36289063 133.61390625 10.51953125 134.4453125 C3.10040204 142.15931966 -2.40236205 150.92246166 -8 160 C-26.76780727 151.45965076 -39.34835214 126.36995248 -46.5703125 108.125 C-54.20255314 87.53975666 -52.56421385 67.12046527 -43.55053711 47.421875 C-40.22933992 40.50702031 -36.02039889 34.75587134 -31 29 C-30.14444659 27.9177615 -29.29007461 26.83458672 -28.4375 25.75 C-26.37745776 23.42584978 -24.65956046 22.02988353 -22.1875 20.25 C-19.78890622 18.30828123 -19.08269547 17.48311563 -18.5546875 14.3984375 C-18.56173919 11.89508733 -18.69085081 9.48300776 -19 7 C-16.59087645 5.63063499 -14.17425815 4.27958007 -11.75 2.9375 C-11.06808594 2.54755859 -10.38617188 2.15761719 -9.68359375 1.75585938 C-9.01972656 1.39169922 -8.35585937 1.02753906 -7.671875 0.65234375 C-7.0644043 0.31195068 -6.45693359 -0.02844238 -5.83105469 -0.37915039 C-3.50100166 -1.1691937 -2.27750218 -0.85922044 0 0 Z " fill="#26D0B2" transform="translate(128,73)"/>
<path d="M0 0 C0.07927734 0.65258789 0.15855469 1.30517578 0.24023438 1.97753906 C2.19143387 17.36614282 5.30207367 30.98454269 12 45 C12.32516602 45.68771484 12.65033203 46.37542969 12.98535156 47.08398438 C21.08429442 63.90803454 32.60111563 80.31217501 47.8125 91.375 C51.89000318 94.43150159 51.89000318 94.43150159 52.39453125 97.0390625 C52.125 99 52.125 99 51 102 C43.54707634 105.7039681 32.84321396 105.52749602 24.89306641 103.44921875 C15.15691409 99.93290851 6.3746178 93.09906615 1.625 83.8125 C1.06745101 82.54855409 0.52463555 81.2779584 0 80 C-2.10281594 75.25335701 -2.10281594 75.25335701 -6 72 C-8.76059793 71.65492526 -10.36202878 71.64801588 -12.8125 73 C-14.83415792 76.40489755 -14.78691268 79.24790911 -14 83 C-8.05961601 98.30098907 1.07501167 106.90721805 15.25 114.8125 C22.33730319 117.87292638 28.78396262 118.38598257 36.4375 118.625 C37.45521484 118.66367187 38.47292969 118.70234375 39.52148438 118.7421875 C42.01414936 118.83580872 44.5068195 118.92153993 47 119 C47.01981934 119.73524902 47.03963867 120.47049805 47.06005859 121.22802734 C47.1562499 124.61066627 47.26554257 127.99276537 47.375 131.375 C47.4059375 132.53128906 47.436875 133.68757812 47.46875 134.87890625 C47.70315721 141.79391891 48.3927047 148.27178713 50 155 C50.33451172 156.55654297 50.33451172 156.55654297 50.67578125 158.14453125 C52.26447591 164.80145427 54.43473368 171.04297312 57.01171875 177.3828125 C58 180 58 180 58 182 C30.31418443 183.07401871 5.61035354 173.88357097 -15.07421875 155.28125 C-33.00748388 138.52637486 -44.98811353 114.25943268 -46.41015625 89.62109375 C-46.7294846 78.78456326 -45.60887306 68.51489272 -43 58 C-42.74476562 56.91847656 -42.48953125 55.83695313 -42.2265625 54.72265625 C-37.59713951 37.54282506 -27.74409911 23.70470834 -15.4375 11.1875 C-14.90737305 10.64770508 -14.37724609 10.10791016 -13.83105469 9.55175781 C-4.19618649 0 -4.19618649 0 0 0 Z " fill="#1B94F7" transform="translate(61,152)"/>
<path d="M0 0 C21.56966006 1.53844737 40.13129344 11.23873566 55 27 C65.2663663 39.28555419 71.46145796 52.4485614 75 68 C75.19335938 68.77472656 75.38671875 69.54945312 75.5859375 70.34765625 C77.67383908 83.72204468 75.83787596 97.17787309 72.97265625 110.265625 C70.98567938 119.57863826 70.84546046 128.68069091 70.875 138.1875 C70.87113281 139.41275391 70.86726562 140.63800781 70.86328125 141.90039062 C70.87110626 149.32241361 71.22695594 156.5897344 72.03588867 163.9699707 C71.98367248 168.37850959 70.20058685 170.90284287 67.7421875 174.4375 C61.06716323 184.25547291 58.43851613 196.05133493 55.62329102 207.41015625 C51.82838124 222.42148651 46.81788054 234.88238772 33.4609375 243.56640625 C19.45024733 251.72818926 2.63577568 250.26049607 -13 250 C-13 249.67 -13 249.34 -13 249 C-11.90945313 248.87044922 -11.90945313 248.87044922 -10.796875 248.73828125 C1.93822773 246.95863228 13.55892234 242.68409265 22.00390625 232.609375 C28.90642229 223.21388344 30.93059198 214.08221758 31.5625 202.625 C31.62727539 201.52091797 31.62727539 201.52091797 31.69335938 200.39453125 C31.79843799 198.59651932 31.89962093 196.79828042 32 195 C31.50371094 195.43570313 31.00742187 195.87140625 30.49609375 196.3203125 C29.06723457 197.57293668 27.63467232 198.82134443 26.19921875 200.06640625 C24.8895643 201.21787864 23.59434162 202.38665799 22.33203125 203.58984375 C10.84905739 214.278933 -4.1497696 217.93196298 -19.42578125 217.41015625 C-34.6771699 216.3874123 -47.48928052 208.35003958 -57.828125 197.484375 C-61.81167544 192.92765183 -64.65301024 189.31326506 -65.5625 183.25 C-65 180 -65 180 -63.375 177.5625 C-60.24316508 175.50208229 -58.68455227 175.3232455 -55 176 C-51.77685172 178.57851863 -49.52853204 181.62469525 -47.125 184.9375 C-40.9324616 193.2778302 -32.36872167 199.05338175 -22 201 C-10.04028508 202.02607962 1.17900606 199.84195156 11.00390625 192.703125 C16.28261075 188.19918144 20.30364084 182.82887406 24 177 C25 176 25 176 27.06640625 175.90234375 C28.30197266 175.91974609 28.30197266 175.91974609 29.5625 175.9375 C30.38878906 175.94652344 31.21507812 175.95554688 32.06640625 175.96484375 C32.70449219 175.97644531 33.34257812 175.98804688 34 176 C34.31130859 175.06994141 34.31130859 175.06994141 34.62890625 174.12109375 C36.51845701 168.68962358 38.67304347 163.57961921 41.25 158.4375 C48.37059299 143.89464378 54.06203559 126.61031638 54.23828125 110.35546875 C54.25038887 109.2633886 54.25038887 109.2633886 54.26274109 108.14924622 C54.27651884 106.60871714 54.28726896 105.06815834 54.29516602 103.52758789 C54.30657682 101.98712906 54.32685124 100.44670624 54.35668945 98.90649414 C54.64610288 83.91358503 52.39265975 70.05888645 46.25 56.25 C45.73675171 55.06688232 45.73675171 55.06688232 45.21313477 53.85986328 C40.52871991 43.34374257 34.43042779 33.79676678 27 25 C26.27296875 24.12730469 25.5459375 23.25460938 24.796875 22.35546875 C17.97922119 14.49317443 9.65673352 6.31520701 0 2 C0 1.34 0 0.68 0 0 Z " fill="#FAD12F" transform="translate(269,51)"/>
<path d="M0 0 C17.01749716 13.94557074 30.11446811 32.74984391 33 55 C33.21940562 58.70950215 33.29323859 62.40944213 33.3125 66.125 C33.31805908 67.05046631 33.32361816 67.97593262 33.3293457 68.92944336 C33.2570387 75.61444195 33.2570387 75.61444195 31 79 C29.7625 78.78887573 29.7625 78.78887573 28.5 78.57348633 C19.98048262 77.22507778 11.66578794 76.65641763 3.04101562 76.68432617 C1.0007633 76.68749881 -1.03804869 76.66385498 -3.078125 76.63867188 C-23.71907729 76.5390718 -46.40920259 83.00040081 -61.51171875 97.71484375 C-63 99 -63 99 -65 99 C-65.2255214 84.92399535 -65.37075779 71.42649601 -62.234375 57.6328125 C-59.66655032 46.12795094 -59.2773538 34.75765601 -59 23 C-45.83000183 22.22402629 -34.40874823 24.55134072 -24 33 C-23.48566406 33.5465625 -22.97132813 34.093125 -22.44140625 34.65625 C-20.96279633 36.28914421 -20.96279633 36.28914421 -18.0625 36.4375 C-14.95637022 36.21000806 -14.95637022 36.21000806 -12.5625 34.4375 C-10.7375277 32.01507372 -10.7375277 32.01507372 -10.75 28.6875 C-13.21737605 21.40874064 -19.36094242 18.15601767 -25.9375 14.75 C-34.8664613 10.37763381 -42.63450833 8.54246672 -52.5625 8.3125 C-53.57119141 8.27833984 -54.57988281 8.24417969 -55.61914062 8.20898438 C-58.07931568 8.12736719 -60.53917309 8.05794324 -63 8 C-63.24234375 7.154375 -63.4846875 6.30875 -63.734375 5.4375 C-65.66499882 -1.09691908 -67.82132663 -6.9832254 -71 -13 C-71 -13.66 -71 -14.32 -71 -15 C-45.64269312 -19.86304515 -20.88693597 -15.90840603 0 0 Z " fill="#F78426" transform="translate(419,101)"/>
<path d="M0 0 C6.04665056 -0.3298173 11.68044616 0.29437199 17.625 1.3125 C18.34099365 1.43020752 19.0569873 1.54791504 19.79467773 1.66918945 C36.04401879 4.59485701 49.39791099 16.547098 58.80078125 29.609375 C65.05945047 38.98769049 69.42763349 49.11318026 72.45410156 59.94824219 C73.52650129 63.85154018 73.52650129 63.85154018 76 67 C78.57061311 67.64767793 78.57061311 67.64767793 81 68 C81.81243525 71.55924014 82.13524922 74.85127695 82.125 78.5 C82.12886719 79.87671875 82.12886719 79.87671875 82.1328125 81.28125 C82.00244035 83.95004454 81.59378606 86.39865153 81 89 C80.071875 89.226875 79.14375 89.45375 78.1875 89.6875 C74.30712874 91.28529993 73.8444364 92.30612874 72 96 C71.19328433 98.49750331 70.45246874 100.97475383 69.75 103.5 C66.17304544 115.52242686 60.34887337 125.63105751 52 135 C51.33484375 135.75925781 50.6696875 136.51851562 49.984375 137.30078125 C37.2301217 150.97617507 17.69406348 160.66470975 -1 162 C-4.00242834 162.07015019 -6.99755577 162.06255092 -10 162 C-6.98937217 159.61421945 -3.87930423 157.81683023 -0.5 156 C6.62525332 151.88125601 12.21218523 146.77959344 18 141 C18.7425 140.26910156 19.485 139.53820312 20.25 138.78515625 C28.48012864 130.15316586 34.08508763 119.19092023 38 108 C38.27457031 107.26523437 38.54914063 106.53046875 38.83203125 105.7734375 C46.53371958 84.29976463 44.25014281 60.14415447 34.84057617 39.57446289 C27.76442762 24.95806512 17.63835501 12.65219552 4.21484375 3.5234375 C2 2 2 2 0 0 Z " fill="#F94958" transform="translate(425,192)"/>
<path d="M0 0 C0.47179687 0.51949219 0.94359375 1.03898437 1.4296875 1.57421875 C2.94170707 3.24604807 2.94170707 3.24604807 5.3828125 3.14453125 C6.28773438 3.03496094 7.19265625 2.92539063 8.125 2.8125 C9.11371094 2.69648437 10.10242188 2.58046875 11.12109375 2.4609375 C13.54046745 2.07357509 15.82388657 1.56597525 18.1875 0.9375 C37.39356018 -3.57353193 60.32345039 2.18453795 76.80419922 12.39013672 C91.40818113 21.7932369 101.51900512 33.71938214 105.60742188 50.88305664 C106.25665725 54.38400186 106.34093815 57.82185588 106.3125 61.375 C106.30686035 62.11959473 106.3012207 62.86418945 106.29541016 63.63134766 C106.06538667 74.0962774 102.47116444 82.15157357 97 91 C96.57074219 91.73089844 96.14148438 92.46179688 95.69921875 93.21484375 C93.40940346 96.51785164 91.96346235 97.79619066 87.953125 98.64453125 C84.95060087 98.90883795 82.01279714 99.03412553 79 99 C79.2165625 98.34257812 79.433125 97.68515625 79.65625 97.0078125 C83.54600345 83.71782155 83.47805662 69.16712977 79 56 C78.34 55.01 77.68 54.02 77 53 C76.29875 53.825 75.5975 54.65 74.875 55.5 C72 58 72 58 69.10546875 58.38671875 C65.34321693 57.91821192 64.16961002 56.88305917 61.4375 54.3125 C50.88233264 45.49564656 39.54945174 43.61274641 26.17529297 44.71777344 C18.23026662 45.74857596 12.39915917 49.58386911 6.1875 54.375 C0.65933232 58.60289159 0.65933232 58.60289159 -3 58.25 C-6.32225385 56.86572756 -7.60174531 56.3208549 -9 53 C-9.20443978 49.38823052 -8.89181323 47.09295589 -6.5625 44.23828125 C4.82704649 33.67922252 17.91635192 28.40130404 33.3125 28.5625 C34.32143311 28.56934814 35.33036621 28.57619629 36.36987305 28.58325195 C48.2135167 28.83751366 57.64165297 32.29472534 68 38 C57.32190444 23.26743958 36.31435702 13.41182345 18.78613281 10.45849609 C14.91906478 9.99019884 11.21053496 9.88670468 7.31640625 9.90234375 C6.61603745 9.9037587 5.91566864 9.90517365 5.19407654 9.90663147 C2.98350534 9.91217523 0.77303996 9.92471674 -1.4375 9.9375 C-2.94726415 9.94252229 -4.45702991 9.94708391 -5.96679688 9.95117188 C-9.64456493 9.96212613 -13.32227212 9.9793511 -17 10 C-17 11.65 -17 13.3 -17 15 C-17.33 15 -17.66 15 -18 15 C-18.33 12.36 -18.66 9.72 -19 7 C-16.59087645 5.63063499 -14.17425815 4.27958007 -11.75 2.9375 C-11.06808594 2.54755859 -10.38617188 2.15761719 -9.68359375 1.75585938 C-9.01972656 1.39169922 -8.35585937 1.02753906 -7.671875 0.65234375 C-7.0644043 0.31195068 -6.45693359 -0.02844238 -5.83105469 -0.37915039 C-3.50100166 -1.1691937 -2.27750218 -0.85922044 0 0 Z " fill="#20B49D" transform="translate(128,73)"/>
<path d="M0 0 C13.16999817 -0.77597371 24.59125177 1.55134072 35 10 C35.51433594 10.5465625 36.02867187 11.093125 36.55859375 11.65625 C38.03720367 13.28914421 38.03720367 13.28914421 40.9375 13.4375 C44.04446617 13.22982334 44.04446617 13.22982334 46.3125 11.375 C48.31233339 8.56041967 48.69029053 6.40680413 49 3 C56.05613996 11.36050436 60.80957516 21.25239188 63.9375 31.6875 C64.23611938 32.66444824 64.23611938 32.66444824 64.54077148 33.66113281 C66.2149979 39.68507239 66.60997832 45.7785356 67 52 C66.175 52.06469482 65.35 52.12938965 64.5 52.19604492 C40.56979198 54.14070817 15.27349788 56.77764791 -2.65234375 74.78515625 C-4 76 -4 76 -6 76 C-6.2255214 61.92399535 -6.37075779 48.42649601 -3.234375 34.6328125 C-0.66655032 23.12795094 -0.2773538 11.75765601 0 0 Z " fill="#FA9643" transform="translate(360,124)"/>
<path d="M0 0 C0.07927734 0.65258789 0.15855469 1.30517578 0.24023438 1.97753906 C2.19143387 17.36614282 5.30207367 30.98454269 12 45 C12.32516602 45.68771484 12.65033203 46.37542969 12.98535156 47.08398438 C21.08429442 63.90803454 32.60111563 80.31217501 47.8125 91.375 C51.89000318 94.43150159 51.89000318 94.43150159 52.39453125 97.0390625 C52.125 99 52.125 99 51 102 C43.54707634 105.7039681 32.84321396 105.52749602 24.89306641 103.44921875 C15.15691409 99.93290851 6.3746178 93.09906615 1.625 83.8125 C1.0683812 82.54814418 0.52558232 81.27756932 0 80 C-1.83954969 75.91081647 -1.83954969 75.91081647 -4.5625 72.4375 C-6.48873199 70.51126801 -7.00620728 68.54702818 -8 66 C-8.80283657 64.24467974 -9.60585724 62.48944214 -10.41137695 60.73535156 C-16.20331179 47.9745783 -20.20188042 34.92871738 -22 21 C-22.99 21.66 -23.98 22.32 -25 23 C-23.67900916 20.07872312 -22.2469446 17.99090616 -19.98828125 15.72265625 C-19.39466797 15.12646484 -18.80105469 14.53027344 -18.18945312 13.91601562 C-17.57005859 13.30435547 -16.95066406 12.69269531 -16.3125 12.0625 C-15.71244141 11.45470703 -15.11238281 10.84691406 -14.49414062 10.22070312 C-4.22933522 0 -4.22933522 0 0 0 Z " fill="#1684F5" transform="translate(61,152)"/>
<path d="M0 0 C0.96486328 0.27263672 0.96486328 0.27263672 1.94921875 0.55078125 C9.25399988 2.58278171 16.60205107 4.34163625 24 6 C22.65644038 9.03969037 21.21373854 10.96372562 18.7421875 13.171875 C18.11699219 13.75453125 17.49179687 14.3371875 16.84765625 14.9375 C15.53604216 16.14262661 14.21306629 17.33550692 12.87890625 18.515625 C9.3880194 21.73518401 9.3880194 21.73518401 7.51635742 25.97705078 C7.41736557 30.54173666 8.49174331 34.95756863 9.5625 39.375 C11.97844684 49.62879422 14.06599017 59.94536191 16.16043091 70.26849365 C16.60940349 72.48007642 17.06048732 74.69122096 17.51171875 76.90234375 C17.64699982 77.57350723 17.78228088 78.24467072 17.92166138 78.93617249 C18.48564256 81.69648534 19.10774984 84.32324951 20 87 C20.4375 90.375 20.4375 90.375 20 94 C16.73283254 97.60432869 14.54423836 99.27613404 9.64697266 99.56762695 C7.98579222 99.56684313 6.3244671 99.53905133 4.6640625 99.48828125 C3.34503433 99.47766914 3.34503433 99.47766914 1.99935913 99.46684265 C-0.79298103 99.43898536 -3.58327209 99.37626555 -6.375 99.3125 C-8.2747105 99.28740582 -10.17445262 99.26459461 -12.07421875 99.24414062 C-16.71692824 99.18918737 -21.35811743 99.10297692 -26 99 C-26 98.67 -26 98.34 -26 98 C-17.585 97.505 -17.585 97.505 -9 97 C-9.62646721 93.96884595 -10.25308613 90.9377232 -10.88037109 87.90673828 C-11.42295406 85.28047917 -11.96390449 82.65394131 -12.50244141 80.02685547 C-13.79004809 73.75861946 -15.09880815 67.49933804 -16.51171875 61.2578125 C-22.71627259 33.61502319 -22.71627259 33.61502319 -18.1875 24.375 C-15.22572608 19.88127405 -11.59455743 15.78780436 -8.01049805 11.77880859 C-4.73832449 8.08632949 -2.33024841 4.35345232 0 0 Z " fill="#F74958" transform="translate(379,363)"/>
<path d="M0 0 C9.24889696 7.58883853 16.52524024 20.05854248 18 32 C19.10998062 48.1541822 15.42707554 62.84333581 4.75 75.3125 C-4.87837844 85.34273063 -16.89716569 92.23225082 -30.9375 93.203125 C-46.70285063 93.44443139 -60.79278546 89.74599111 -72.51953125 78.79296875 C-74.94505907 75.85545616 -75.34693289 73.74687521 -75 70 C-73 67 -73 67 -70 65 C-65.00620473 64.6158619 -62.44826843 66.2548245 -58.75 69.3125 C-49.78950333 76.65617855 -40.38044224 78.09479314 -29 77 C-19.27079788 75.18887161 -10.2441884 69.67646439 -4.5390625 61.60546875 C1.38974715 51.56862601 4.00011978 41.52565024 1.30078125 30.01953125 C-0.74140131 23.77234831 -3.84849235 19.02925498 -8 14 C-10.48836965 10.26744552 -10.54226552 8.41559065 -10 4 C-6.99746894 0.65432253 -4.50513222 -1.01365475 0 0 Z " fill="#040101" transform="translate(436,223)"/>
<path d="M0 0 C3.22314828 2.57851863 5.47146796 5.62469525 7.875 8.9375 C14.0675384 17.2778302 22.63127833 23.05338175 33 25 C44.95971492 26.02607962 56.17900606 23.84195156 66.00390625 16.703125 C71.28261075 12.19918144 75.30364084 6.82887406 79 1 C80 0 80 0 83.3125 -0.3125 C87 0 87 0 89.4375 1.625 C91.5848256 4.88893492 91.71842864 6.12048534 91 10 C85.27182339 22.93314875 74.28248639 32.15439849 61.4453125 37.47265625 C46.06543082 43.17875339 30.94198041 42.76682791 16 36 C5.71268805 30.76330632 -5.46051313 21.97232757 -10 11 C-10.61583228 6.89445148 -10.68248247 5.0237237 -8.375 1.5625 C-5.24316508 -0.49791771 -3.68455227 -0.6767545 0 0 Z " fill="#040301" transform="translate(214,227)"/>
<path d="M0 0 C1.51339966 0.01135986 1.51339966 0.01135986 3.05737305 0.02294922 C17.84362735 0.34870573 30.22759152 5.56778244 41.171875 15.64453125 C42.6875 17.4375 42.6875 17.4375 44 21.0625 C43.6875 24.4375 43.6875 24.4375 41.625 27.375 C38.15902161 29.8085593 36.83111406 29.91761649 32.6875 29.4375 C30.37109375 27.86328125 30.37109375 27.86328125 28.125 25.75 C17.56983264 16.93314656 6.23695174 15.05024641 -7.13720703 16.15527344 C-15.08223338 17.18607596 -20.91334083 21.02136911 -27.125 25.8125 C-32.65316768 30.04039159 -32.65316768 30.04039159 -36.3125 29.6875 C-39.63475385 28.30322756 -40.91424531 27.7583549 -42.3125 24.4375 C-42.51693978 20.82573052 -42.20431323 18.53045589 -39.875 15.67578125 C-28.4861449 5.1173635 -15.39570407 -0.16248084 0 0 Z " fill="#000504" transform="translate(161.3125,101.5625)"/>
<path d="M0 0 C5.28 0 10.56 0 16 0 C16.04898438 1.76085937 16.09796875 3.52171875 16.1484375 5.3359375 C16.22352128 7.68230569 16.29906664 10.02865915 16.375 12.375 C16.4059375 13.53128906 16.436875 14.68757813 16.46875 15.87890625 C16.70315721 22.79391891 17.3927047 29.27178713 19 36 C19.22300781 37.03769531 19.44601563 38.07539063 19.67578125 39.14453125 C21.26447591 45.80145427 23.43473368 52.04297312 26.01171875 58.3828125 C27 61 27 61 27 63 C17.71854592 63.22823248 9.13029973 62.90427108 0 61 C-2.14832472 53.12566239 -2.34559485 45.63675093 -2.3125 37.5 C-2.31200653 36.83858002 -2.31151306 36.17716003 -2.31100464 35.49569702 C-2.28484015 24.04656686 -1.64570349 12.93711046 2 2 C1.34 1.34 0.68 0.68 0 0 Z " fill="#1683F4" transform="translate(92,271)"/>
<path d="M0 0 C21.32933673 2.91082713 41.16374104 15.80568187 55 32 C56.21484375 34.23046875 56.21484375 34.23046875 57 36 C53.60725158 34.75932423 50.94396902 33.35002823 48.0625 31.1875 C35.13148808 22.56682539 22.06623268 22.10437081 7 22 C6.74605469 21.13117188 6.49210937 20.26234375 6.23046875 19.3671875 C5.88628906 18.21476562 5.54210937 17.06234375 5.1875 15.875 C4.85105469 14.73804687 4.51460938 13.60109375 4.16796875 12.4296875 C3.07699343 8.96605755 3.07699343 8.96605755 1.36328125 5.7578125 C0 3 0 3 0 0 Z " fill="#F89442" transform="translate(349,87)"/>
<path d="M0 0 C0.66 0 1.32 0 2 0 C3.39131742 1.59711646 4.71517335 3.25352684 6 4.9375 C8.54336771 8.51216924 8.54336771 8.51216924 12 11 C12 11.66 12 12.32 12 13 C13.32 13.66 14.64 14.32 16 15 C16 15.99 16 16.98 16 18 C2.45246812 8.71026386 2.45246812 8.71026386 0.30859375 1.7578125 C0.20675781 1.17773438 0.10492188 0.59765625 0 0 Z " fill="#1A90F1" transform="translate(63,234)"/>
</svg>
