<?xml version="1.0" encoding="UTF-8"?>
<svg version="1.1" xmlns="http://www.w3.org/2000/svg" width="512" height="512">
<path d="M0 0 C19.63997074 10.49670718 33.0717826 31.84653307 43 51 C43.31420898 51.5971582 43.62841797 52.19431641 43.95214844 52.80957031 C53.62678423 71.42575851 57.7261246 91.48539806 62 112 C90.05 112.33 118.1 112.66 147 113 C146.94199219 105.26175781 146.88398438 97.52351563 146.82421875 89.55078125 C146.79867436 84.65167178 146.77460494 79.75264429 146.75585938 74.85351562 C146.72595717 67.07542899 146.69056371 59.29763634 146.62280273 51.51977539 C146.56851994 45.24983179 146.53858687 38.98020338 146.52561378 32.71004295 C146.51636735 30.31658146 146.49831137 27.92313744 146.47134972 25.52980995 C146.43511063 22.18005572 146.43005273 18.83160782 146.43237305 15.48168945 C146.41439667 14.48978607 146.39642029 13.49788269 146.37789917 12.47592163 C146.41143964 8.00796192 146.55221908 5.67092879 149.07940674 1.88433838 C152.74204792 -0.4787621 154.95038429 -0.6278664 159.29711914 -0.63110352 C160.01318832 -0.63825882 160.72925751 -0.64541412 161.46702576 -0.65278625 C163.82372682 -0.66963584 166.17851556 -0.65029747 168.53515625 -0.62890625 C170.17752744 -0.62973522 171.81989854 -0.63219565 173.46226501 -0.63621521 C176.89965875 -0.6390705 180.33639991 -0.62439753 183.77368164 -0.59692383 C188.17793382 -0.56281391 192.58102142 -0.56887033 196.98532963 -0.5875864 C200.3748901 -0.59815758 203.76417984 -0.58921811 207.15371513 -0.57420158 C208.77760451 -0.56902193 210.40152218 -0.56949896 212.02540779 -0.57574654 C214.2949818 -0.58120154 216.56289115 -0.56081893 218.83227539 -0.53344727 C220.12291397 -0.52724869 221.41355255 -0.52105011 222.74330139 -0.5146637 C226.53929642 0.08522627 227.68579482 1.00187194 230 4 C231.16963529 6.33927057 231.12330589 7.69676648 231.12025452 10.30264282 C231.12231651 11.65723854 231.12231651 11.65723854 231.12442017 13.03919983 C231.12082489 14.0325383 231.11722961 15.02587677 231.11352539 16.04931641 C231.11367142 17.09324051 231.11381744 18.13716461 231.1139679 19.21272278 C231.11326922 22.67569023 231.10547891 26.1386044 231.09765625 29.6015625 C231.09579191 31.99767019 231.09436808 34.39377827 231.09336853 36.78988647 C231.08954461 43.10608975 231.07971538 49.42227014 231.06866455 55.73846436 C231.05844774 62.17980642 231.05387033 68.62115217 231.04882812 75.0625 C231.03809302 87.70834311 231.02120945 100.35417034 231 113 C231.88869781 112.99333817 231.88869781 112.99333817 232.79534912 112.98654175 C238.9595702 112.94230799 245.12374622 112.91213336 251.28808594 112.89013672 C253.58888582 112.8800768 255.8896729 112.86642738 258.19042969 112.84912109 C261.4967769 112.82487265 264.80295512 112.81351677 268.109375 112.8046875 C269.13867126 112.79436493 270.16796753 112.78404236 271.22845459 112.77340698 C272.18914856 112.77325592 273.14984253 112.77310486 274.13964844 112.77294922 C274.98348083 112.768508 275.82731323 112.76406677 276.69671631 112.75949097 C279.27401084 113.02861223 280.82622449 113.59956522 283 115 C285.15590744 118.23386117 285.24937911 119.07939541 285.24609566 122.80447674 C285.25007775 123.79973423 285.25405985 124.79499172 285.25816262 125.82040852 C285.25233693 126.91669931 285.24651125 128.01299011 285.24050903 129.14250183 C285.24307231 130.88594005 285.24307231 130.88594005 285.24568737 132.66459924 C285.24841758 135.89592757 285.24214602 139.12709648 285.23213124 142.35840595 C285.22351085 145.84100335 285.2264159 149.32359305 285.22793579 152.80619812 C285.22898554 158.84176084 285.22269958 164.8772804 285.21146011 170.91283226 C285.19522021 179.63926827 285.18999866 188.36568336 285.18748413 197.09213284 C285.18310465 211.2495034 285.1697887 225.40685093 285.15087891 239.56420898 C285.13252664 253.31843958 285.11836694 267.07266393 285.10986328 280.8269043 C285.10933783 281.67442287 285.10881239 282.52194144 285.10827102 283.3951424 C285.10566098 287.64680669 285.10313356 291.89847103 285.10064721 296.1501354 C285.07990684 331.43344001 285.04467444 366.71671788 285 402 C285.60996826 401.98428955 286.21993652 401.9685791 286.84838867 401.95239258 C289.6279971 401.88980187 292.40745692 401.85093378 295.1875 401.8125 C296.62706055 401.77479492 296.62706055 401.77479492 298.09570312 401.73632812 C307.07416443 401.6431261 307.07416443 401.6431261 311 405 C312.48142482 407.96284963 312.16463441 410.98225617 312.17700195 414.23193359 C312.18685875 415.34927132 312.18685875 415.34927132 312.19691467 416.48918152 C312.21665657 418.95893449 312.22831138 421.42862666 312.23828125 423.8984375 C312.24235678 424.74111805 312.2464323 425.5837986 312.25063133 426.45201492 C312.27149456 430.91104132 312.28579592 435.3700369 312.29516602 439.82910156 C312.30623905 444.43843134 312.34064821 449.04727949 312.38033772 453.65643883 C312.40645949 457.19775298 312.41485381 460.73895152 312.41844749 464.28035355 C312.42332394 465.97964358 312.43496799 467.6789281 312.45348549 469.37812424 C312.47778652 471.75556587 312.47692923 474.13175002 312.4699707 476.50927734 C312.48278076 477.21176102 312.49559082 477.91424469 312.50878906 478.63801575 C312.47614278 481.69632653 312.24846119 483.64085511 310.4915266 486.18046331 C306.9971045 488.73240445 303.81187918 488.55229549 299.64782715 488.50336456 C298.79346982 488.50917833 297.93911249 488.51499209 297.05886555 488.52098203 C294.17633135 488.53565972 291.29463833 488.52166066 288.41210938 488.50793457 C286.33260409 488.51254041 284.25310205 488.51889118 282.17360687 488.52684355 C276.44388556 488.54360347 270.71442937 488.53526025 264.98470688 488.52289867 C258.8114819 488.51387771 252.63830369 488.5278032 246.46508789 488.53881836 C235.06561315 488.55560886 223.66624697 488.55410901 212.26677489 488.54317249 C201.73667871 488.53311935 191.20661367 488.53047921 180.67651367 488.53526306 C179.97865035 488.5355686 179.28078703 488.53587414 178.56177634 488.53618894 C175.7290851 488.53743425 172.89639388 488.53870784 170.06370267 488.540028 C143.4784206 488.55227032 116.89319263 488.54116014 90.30791891 488.51964041 C66.67660445 488.50065727 43.0453762 488.50235576 19.4140625 488.52148438 C-7.12187778 488.54289226 -33.65777024 488.55140218 -60.19371796 488.53903532 C-63.02131652 488.53775241 -65.84891509 488.53650105 -68.67651367 488.53526306 C-69.37276582 488.53494675 -70.06901797 488.53463044 -70.78636867 488.53430455 C-81.31112411 488.52975025 -91.83584504 488.53508395 -102.3605957 488.54518127 C-114.3249731 488.55660237 -126.28924863 488.5534069 -138.25362206 488.5320583 C-144.36240802 488.52151871 -150.47101865 488.51747552 -156.57980347 488.53065491 C-162.16578634 488.54252444 -167.75143043 488.53610639 -173.33738232 488.5147447 C-175.36423499 488.51025548 -177.39111596 488.51259643 -179.41795063 488.52224785 C-182.16165651 488.53431639 -184.90418405 488.52203461 -187.64782715 488.50336456 C-188.84323514 488.51741156 -188.84323514 488.51741156 -190.06279278 488.53174233 C-193.57651158 488.48356829 -195.61651169 488.28032906 -198.49026489 486.17962217 C-200.64260121 483.07226915 -200.55981343 480.18893284 -200.51757812 476.54101562 C-200.52809204 475.42323982 -200.52809204 475.42323982 -200.53881836 474.28288269 C-200.55640042 471.82362424 -200.54477574 469.36551982 -200.53125 466.90625 C-200.53394488 465.19518819 -200.53782726 463.48412786 -200.54284668 461.77307129 C-200.54874198 458.18857225 -200.54017799 454.60447216 -200.52148438 451.02001953 C-200.49869451 446.42633561 -200.51181746 441.83358646 -200.53577423 437.23993683 C-200.55023152 433.70714276 -200.54562661 430.17457016 -200.53526306 426.64176941 C-200.53259557 424.94809356 -200.53586635 423.25439757 -200.54518127 421.56074524 C-200.55534612 419.19295024 -200.53984879 416.82666683 -200.51757812 414.45898438 C-200.52567505 413.75964279 -200.53377197 413.06030121 -200.54211426 412.33976746 C-200.48330552 408.9632271 -200.21939767 407.27649021 -198.09265137 404.59631348 C-194.90268653 402.16294883 -193.16812037 401.8785053 -189.2109375 401.90234375 C-188.26992187 401.90556641 -187.32890625 401.90878906 -186.359375 401.91210938 C-185.37453125 401.92048828 -184.3896875 401.92886719 -183.375 401.9375 C-182.38242188 401.94201172 -181.38984375 401.94652344 -180.3671875 401.95117188 C-177.9113984 401.96297855 -175.45572896 401.979446 -173 402 C-173.00151888 401.4005835 -173.00303776 400.801167 -173.00460267 400.18358636 C-173.0940658 364.67724637 -173.16272132 329.17092575 -173.20426132 293.66449656 C-173.2092643 289.40360949 -173.21444157 285.14272266 -173.21972656 280.88183594 C-173.2207758 280.03355058 -173.22182505 279.18526523 -173.22290608 278.31127426 C-173.24032334 264.56610582 -173.27186828 250.82100412 -173.30861118 237.07587531 C-173.3459839 222.97782545 -173.36822807 208.87981061 -173.37635398 194.78171325 C-173.38184939 186.07858016 -173.39922174 177.3756357 -173.43166587 168.67256066 C-173.45276851 162.70894763 -173.45920973 156.74543248 -173.45400551 150.7817848 C-173.45143705 147.33820666 -173.4554438 143.89495871 -173.4768219 140.4514389 C-173.49661447 136.72161105 -173.49197755 132.99260168 -173.48101807 129.26275635 C-173.49266943 128.1693784 -173.5043208 127.07600045 -173.51632524 125.94948983 C-173.45790973 118.63490423 -173.45790973 118.63490423 -171.09493637 115.35857773 C-166.74515385 112.5377199 -162.92364802 112.86627737 -157.86865234 112.88647461 C-156.92226395 112.88632858 -155.97587555 112.88618256 -155.00080872 112.8860321 C-151.86249525 112.88673058 -148.72424063 112.89451998 -145.5859375 112.90234375 C-143.41403231 112.90420816 -141.24212671 112.90563195 -139.07022095 112.90663147 C-133.34585413 112.91045484 -127.62151258 112.92028361 -121.89715576 112.93133545 C-116.05904482 112.94155343 -110.2209298 112.94612992 -104.3828125 112.95117188 C-92.92186389 112.96190602 -81.46093404 112.9789803 -70 113 C-69.80478256 111.58317429 -69.80478256 111.58317429 -69.60562134 110.13772583 C-69.43106415 108.88974213 -69.25650696 107.64175842 -69.07666016 106.35595703 C-68.9052652 105.12265656 -68.73387024 103.88935608 -68.55728149 102.61868286 C-63.97365544 72.85510876 -51.00750198 44.23362381 -32 21 C-31.23945313 20.05511719 -30.47890625 19.11023438 -29.6953125 18.13671875 C-22.95685218 10.2011327 -11.37122045 -2.46716529 0 0 Z " fill="#343333" transform="translate(200,12)"/>
<path d="M0 0 C27.72 0 55.44 0 84 0 C84 12.87 84 25.74 84 39 C80.7 40.98 77.4 42.96 74 45 C66.94864827 50.38883791 61.1733653 56.81788765 56 64 C55.21689453 65.0828125 55.21689453 65.0828125 54.41796875 66.1875 C46.36670696 78.42371845 42.08895374 93.63442585 40 108 C39.81566406 109.25683594 39.63132813 110.51367188 39.44140625 111.80859375 C38.71176881 118.68055755 38.81399824 125.60760187 38.81469727 132.51049805 C38.81250824 134.92840118 38.79429329 137.34584892 38.77539062 139.76367188 C38.23825447 152.72654123 38.23825447 152.72654123 42.07348633 164.75366211 C44.55970138 166.36209296 46.74361959 166.81024074 49.69384766 166.68286133 C54.94313596 165.12852517 58.51043908 160.43964211 62.1875 156.59375 C63.13837353 155.62794026 64.09104027 154.66389302 65.04541016 153.70153809 C67.54259524 151.17392715 70.01481655 148.62322674 72.48248291 146.0668335 C75.00874841 143.45846919 77.55804998 140.87283561 80.10546875 138.28515625 C85.09300517 133.21203386 90.05450565 128.11414289 95 123 C96.485 123.495 96.485 123.495 98 124 C98.8072939 126.46046559 99.44423726 128.79508319 100 131.3125 C101.23037682 137.83285215 101.23037682 137.83285215 105 143 C107.68528464 143.45781902 109.99651714 143.69472304 112.6875 143.75 C113.38939453 143.77964844 114.09128906 143.80929687 114.81445312 143.83984375 C116.54235424 143.91037033 118.2711832 143.95747068 120 144 C120.01458252 144.76666992 120.02916504 145.53333984 120.04418945 146.32324219 C120.1186922 149.79933493 120.21534646 153.27446968 120.3125 156.75 C120.33505859 157.9565625 120.35761719 159.163125 120.38085938 160.40625 C120.41630859 161.56640625 120.45175781 162.7265625 120.48828125 163.921875 C120.52755737 165.52434082 120.52755737 165.52434082 120.56762695 167.15917969 C121.05086618 170.33420601 121.76279133 171.72616987 124 174 C126.92404843 174.97468281 128.82155207 175.13191327 131.86694336 175.14526367 C132.8548436 175.15164352 133.84274384 175.15802338 134.86058044 175.16459656 C135.92623734 175.16570938 136.99189423 175.1668222 138.08984375 175.16796875 C139.18591446 175.17129715 140.28198517 175.17462555 141.41127014 175.17805481 C143.73047465 175.18311981 146.04968645 175.18546327 148.36889648 175.18530273 C151.91988099 175.18748915 155.47055485 175.20564942 159.02148438 175.22460938 C161.27343644 175.22754336 163.52538997 175.22952812 165.77734375 175.23046875 C167.37279274 175.24124702 167.37279274 175.24124702 169.00047302 175.25224304 C169.99152542 175.24916641 170.98257782 175.24608978 172.00366211 175.24291992 C173.30913246 175.24505745 173.30913246 175.24505745 174.64097595 175.24723816 C177.21205659 174.97777535 178.81249651 174.35738696 181 173 C183.20143626 169.83702697 183.29812535 166.92790521 183.4140625 163.140625 C183.45273438 162.02558594 183.49140625 160.91054688 183.53125 159.76171875 C183.5621875 158.60285156 183.593125 157.44398438 183.625 156.25 C183.66367188 155.07566406 183.70234375 153.90132812 183.7421875 152.69140625 C183.8363982 149.79442732 183.92201602 146.89745374 184 144 C185.46373047 143.94392578 185.46373047 143.94392578 186.95703125 143.88671875 C188.22933594 143.82097656 189.50164062 143.75523437 190.8125 143.6875 C192.70935547 143.60048828 192.70935547 143.60048828 194.64453125 143.51171875 C198.24207611 142.96308269 198.82944041 142.70935098 201 140 C201.8489851 138.09346802 201.8489851 138.09346802 202.38671875 135.98828125 C202.7105957 134.85229492 202.7105957 134.85229492 203.04101562 133.69335938 C203.25435547 132.90767578 203.46769531 132.12199219 203.6875 131.3125 C203.91244141 130.51521484 204.13738281 129.71792969 204.36914062 128.89648438 C204.92160901 126.93345841 205.46198869 124.96703739 206 123 C209.35196312 124.45545381 211.53200551 126.29335773 214.09423828 128.88305664 C214.88831085 129.68050797 215.68238342 130.47795929 216.5005188 131.29957581 C217.34855072 132.16106735 218.19658264 133.0225589 219.0703125 133.91015625 C219.94775116 134.79279648 220.82518982 135.67543671 221.72921753 136.58482361 C224.05652696 138.92692839 226.37971267 141.27301684 228.70056152 143.621521 C231.97669315 146.93569494 235.25806718 150.24464947 238.54220581 153.55088806 C240.29001251 155.31098854 242.03513975 157.07375445 243.77737427 158.83937073 C244.56514252 159.63366989 245.35291077 160.42796906 246.16455078 161.24633789 C246.85864044 161.94868057 247.5527301 162.65102325 248.26785278 163.37464905 C251.33490469 166.25260058 253.89571175 166.20182363 258.02734375 166.42578125 C260.12387781 166.14733682 260.12387781 166.14733682 261.6796875 164.45703125 C263.44044666 161.18035221 263.83662114 158.02033149 264.1875 154.375 C264.26500488 153.59793701 264.34250977 152.82087402 264.42236328 152.02026367 C267.39175692 118.38780188 263.68261127 82.89930332 241.5390625 55.91015625 C235.1193374 48.55216364 228.53135637 44.11881382 220 39 C219.67 26.13 219.34 13.26 219 0 C247.05 0 275.1 0 304 0 C303.89816406 13.47457031 303.79632813 26.94914063 303.69140625 40.83203125 C303.66033528 49.41349785 303.63311122 57.99469733 303.62304688 66.57617188 C303.60639771 80.17111828 303.57489824 93.76476429 303.44116211 107.35913086 C303.3437895 117.26450215 303.3006525 127.16846095 303.31963962 137.0743162 C303.32785722 142.30838879 303.31096637 147.53936777 303.22885323 152.7728672 C302.86980445 176.91942564 303.57153651 194.99006728 318.00475883 215.12364769 C321.560642 220.2498314 324.54227337 225.70515846 327.625 231.125 C328.73871244 233.02547821 329.85532381 234.92426486 330.9765625 236.8203125 C333.38076672 240.89490152 335.65263785 245.02203654 337.83740234 249.21826172 C339.03335374 251.30657773 339.03335374 251.30657773 342 253 C345.75322374 252.86351914 348.1447411 252.73049964 351.046875 250.25170898 C353.03812371 247.95604813 354.40029599 245.78394705 355.8125 243.09765625 C356.32474121 242.13504883 356.83698242 241.17244141 357.36474609 240.18066406 C357.90437988 239.15166992 358.44401367 238.12267578 359 237.0625 C360.15686655 234.89086708 361.31576251 232.72031418 362.4765625 230.55078125 C363.35489746 228.90843506 363.35489746 228.90843506 364.25097656 227.23291016 C366.88565914 222.36293994 369.617889 217.55146629 372.375 212.75 C372.83777344 211.94312744 373.30054688 211.13625488 373.77734375 210.30493164 C374.45603516 209.1253186 374.45603516 209.1253186 375.1484375 207.921875 C375.5725035 207.1663522 375.9965695 206.41082939 376.43348598 205.63241196 C378 203 378 203 379.77855778 200.55864334 C386.16472639 191.26021418 385.98879403 182.95193012 385.88647461 172.10449219 C385.8943759 170.22095782 385.90534555 168.33743423 385.91912842 166.45393372 C385.9477047 161.37391814 385.93369303 156.29483051 385.91168666 151.21481609 C385.89599344 145.89364886 385.91994866 140.57265885 385.93959045 135.25152588 C385.97076082 125.19014235 385.96658276 115.1291006 385.94951588 105.06769586 C385.9318104 93.60686475 385.95379898 82.14621547 385.97902286 70.68541098 C386.02999575 47.12347878 386.02620357 23.56198148 386 0 C398.54 0 411.08 0 424 0 C424 89.76 424 179.52 424 272 C284.08 272 144.16 272 0 272 C0 182.24 0 92.48 0 0 Z " fill="#1A9FFD" transform="translate(44,143)"/>
<path d="M0 0 C19.3469675 9.20541195 31.89819648 38.12429773 38.85546875 57.0078125 C54.49390568 101.22145274 53.06708946 148.45612406 45.6875 194.171875 C45.43577026 195.76165161 45.43577026 195.76165161 45.17895508 197.38354492 C42.81800664 211.07866506 39.20784286 224.37331173 35.9375 237.921875 C12.1775 237.921875 -11.5825 237.921875 -36.0625 237.921875 C-51.2836976 192.25828219 -56.2051881 138.52751938 -48.0625 90.921875 C-47.89427734 89.86830811 -47.89427734 89.86830811 -47.72265625 88.79345703 C-44.94040728 71.5460896 -24.96152097 -0.94551216 0 0 Z " fill="#CBCBCB" transform="translate(196.0625,32.078125)"/>
<path d="M0 0 C50.49 0 100.98 0 153 0 C153.33 9.24 153.66 18.48 154 28 C159.13662557 33.3791469 159.13662557 33.3791469 165.6418457 33.63491821 C166.29595838 33.64271817 166.95007105 33.65051812 167.62400532 33.65855443 C169.80850932 33.6784454 171.9912654 33.66272403 174.17578125 33.64697266 C175.74475113 33.65375018 177.31371304 33.66265407 178.88265991 33.67352295 C183.13896075 33.69630731 187.39465528 33.68748379 191.65096664 33.67162752 C196.10627622 33.65896395 200.56153407 33.6707099 205.0168457 33.67855835 C212.49862992 33.6876536 219.98016732 33.67567034 227.46191406 33.65185547 C236.11048697 33.62464433 244.75847053 33.63345859 253.40702915 33.6609875 C260.83394953 33.68368118 268.26069253 33.68687741 275.68763638 33.67379415 C280.12279864 33.66600103 284.55768393 33.66495411 288.99282837 33.68147659 C293.1627319 33.695926 297.33187601 33.68589175 301.50169754 33.65700531 C303.03151819 33.6503969 304.56140281 33.6522881 306.09119797 33.66331863 C308.18104441 33.67699752 310.26846242 33.6598367 312.3581543 33.63491821 C313.52694626 33.63303308 314.69573822 33.63114796 315.89994812 33.6292057 C319.78216799 33.1383757 319.78216799 33.1383757 324 28 C324.33 18.76 324.66 9.52 325 0 C375.49 0 425.98 0 478 0 C478 16.83 478 33.66 478 51 C320.26 51 162.52 51 0 51 C0 34.17 0 17.34 0 0 Z " fill="#CACACA" transform="translate(17,432)"/>
<path d="M0 0 C8.29604358 6.05837329 14.2558425 13.02996051 17 23 C17.98364821 35.32753925 17.07775996 45.17965195 8.94140625 54.9296875 C1.45666011 62.91140874 -7.51114636 67.10893759 -18.5 67.5 C-28.22420844 67.15394276 -37.01012485 63.87165316 -44 57 C-51.44802562 48.47298476 -54.73067146 39.07526509 -54.34375 27.7578125 C-53.12241385 17.95936565 -48.45243056 9.48158411 -40.828125 3.21484375 C-38.61036613 1.65858882 -36.37669239 0.29864803 -34 -1 C-33.39800781 -1.3403125 -32.79601562 -1.680625 -32.17578125 -2.03125 C-22.45086165 -6.58782838 -9.16609836 -5.20388842 0 0 Z " fill="#343434" transform="translate(214,130)"/>
<path d="M0 0 C4.95 0 9.9 0 15 0 C15 68.97 15 137.94 15 209 C10.05 209 5.1 209 0 209 C0 140.03 0 71.06 0 0 Z " fill="#FEA621" transform="translate(398,112)"/>
<path d="M0 0 C4.95 0 9.9 0 15 0 C15 68.97 15 137.94 15 209 C10.05 209 5.1 209 0 209 C0 140.03 0 71.06 0 0 Z " fill="#FEA621" transform="translate(365,112)"/>
<path d="M0 0 C45.54 0 91.08 0 138 0 C138 5.61 138 11.22 138 17 C92.46 17 46.92 17 0 17 C0 11.39 0 5.78 0 0 Z " fill="#575259" transform="translate(187,432)"/>
<path d="M0 0 C15.84 0 31.68 0 48 0 C48 11.55 48 23.1 48 35 C32.16 35 16.32 35 0 35 C0 23.45 0 11.9 0 0 Z " fill="#FD3131" transform="translate(365,29)"/>
<path d="M0 0 C0.16604736 1.18589722 0.16604736 1.18589722 0.33544922 2.39575195 C0.84634126 6.03499383 1.36064972 9.67374534 1.875 13.3125 C2.04902344 14.55580078 2.22304687 15.79910156 2.40234375 17.08007812 C3.32625285 23.59877008 4.32542699 30.07130419 5.63720703 36.52416992 C5.75692871 37.34119385 5.87665039 38.15821777 6 39 C6.17958252 39.91773193 6.35916504 40.83546387 6.54418945 41.78100586 C5.65238868 47.0561935 1.91041642 49.843751 -1.83984375 53.4609375 C-2.63652969 54.25150543 -3.43321564 55.04207336 -4.25404358 55.8565979 C-6.80148279 58.3770894 -9.36928957 60.87569454 -11.9375 63.375 C-13.66472334 65.08070384 -15.39065149 66.78772028 -17.11523438 68.49609375 C-20.26326246 71.60193969 -23.4126451 74.70621554 -26.58178711 77.79052734 C-27.21910263 78.41196625 -27.85641815 79.03340515 -28.51304626 79.67367554 C-30 81 -30 81 -31 81 C-31.53034183 53.89363976 -28.36815906 26.73532323 -9 6 C-2.85542169 0 -2.85542169 0 0 0 Z " fill="#FD3131" transform="translate(130,201)"/>
<path d="M0 0 C12.04029364 5.79393331 19.51959884 18.68205616 24.22558594 30.76171875 C28.84759661 44.12067014 31.20324145 57.90420261 31.0625 72 C31.05798828 72.87011719 31.05347656 73.74023438 31.04882812 74.63671875 C31.0371736 76.75784293 31.01924357 78.8789311 31 81 C30.34 81 29.68 81 29 81 C27.7590332 79.73999023 27.7590332 79.73999023 26.23828125 77.87109375 C21.1630528 71.90418225 15.59090375 66.44138994 10.04614258 60.91577148 C8.17085437 59.04590247 6.30104535 57.17067101 4.43164062 55.29492188 C3.23990435 54.10384539 2.04785845 52.9130786 0.85546875 51.72265625 C0.29715866 51.16232193 -0.26115143 50.60198761 -0.83638 50.02467346 C-3.65130873 47.15942667 -3.65130873 47.15942667 -7 45 C-5.59119464 34.85142052 -4.02224378 24.73698204 -2.375 14.625 C-2.14310927 13.19533194 -1.91133788 11.76564452 -1.6796875 10.3359375 C-1.12116006 6.89040186 -0.56104338 3.44512697 0 0 Z " fill="#FB3131" transform="translate(262,201)"/>
<path d="M0 0 C4.99586287 2.96570886 8.77443487 6.42877335 10.6484375 12.05078125 C11.40166161 18.71143444 11.14022341 23.87074151 7.14453125 29.39453125 C2.81232239 34.19050137 -1.42375267 35.76926107 -7.6015625 36.36328125 C-13.5792612 35.86513969 -18.2402346 33.65066036 -22.2265625 29.11328125 C-25.87480313 23.8555227 -27.16315418 19.49279018 -26.3515625 13.05078125 C-24.24878035 7.40647126 -20.73128606 4.08054546 -16.2265625 0.23828125 C-11.01272286 -1.91526121 -5.27494749 -2.12925621 0 0 Z " fill="#FC3131" transform="translate(203.3515625,143.94921875)"/>
<path d="M0 0 C2.69990662 1.79993774 4.5418865 3.083773 6 6 C6.12298713 8.49496163 6.1883444 10.96094817 6.203125 13.45703125 C6.20882507 14.19700851 6.21452515 14.93698578 6.22039795 15.6993866 C6.22985018 17.26710581 6.23638282 18.83484491 6.24023438 20.40258789 C6.24992032 22.79283707 6.28093195 25.18221905 6.3125 27.57226562 C6.31903223 29.09634907 6.32428184 30.62043865 6.328125 32.14453125 C6.3404718 32.85615921 6.3528186 33.56778717 6.36553955 34.30097961 C6.34585541 38.7208957 5.68388403 41.46989441 3 45 C0.45770394 46.92863839 -0.78345018 47.00902291 -4 46.875 C-7.60717362 45.82290769 -8.75730713 45.01040555 -11 42 C-11.40979806 39.02019608 -11.5849234 36.41678683 -11.56640625 33.4375 C-11.57260483 32.60919678 -11.57880341 31.78089355 -11.58518982 30.92749023 C-11.59228217 29.17921116 -11.58912411 27.43086446 -11.57641602 25.68261719 C-11.5625441 23.00850176 -11.59663146 20.33788268 -11.63476562 17.6640625 C-11.63571681 15.96354081 -11.63385802 14.26301475 -11.62890625 12.5625 C-11.64216446 11.76448975 -11.65542267 10.96647949 -11.66908264 10.14428711 C-11.60327856 6.21920216 -11.37991862 4.4044893 -8.64819336 1.49609375 C-5.38631235 -0.34670212 -3.69275381 -0.61545897 0 0 Z " fill="#323537" transform="translate(173,329)"/>
<path d="M0 0 C4.48566832 0.8010122 5.71361854 2.0556175 8.5 5.625 C8.98767453 8.55595224 9.18082028 10.89159156 9.12890625 13.8125 C9.13131821 14.59262451 9.13373016 15.37274902 9.13621521 16.17651367 C9.13523878 17.82052714 9.12189372 19.46457432 9.09692383 21.10839844 C9.06260015 23.61767824 9.07627537 26.12343578 9.09570312 28.6328125 C9.08880426 30.23438991 9.0791315 31.83595828 9.06640625 33.4375 C9.07136612 34.18346436 9.07632599 34.92942871 9.08143616 35.69799805 C8.97120074 40.60009169 8.03831954 43.21030602 4.5 46.625 C2.28125 47.2890625 2.28125 47.2890625 0 47.25 C-1.12921875 47.26933594 -1.12921875 47.26933594 -2.28125 47.2890625 C-5.65285783 46.27995452 -6.62247879 44.56513683 -8.5 41.625 C-8.90249884 38.76311354 -9.08540451 36.29483806 -9.06640625 33.4375 C-9.07260483 32.65737549 -9.07880341 31.87725098 -9.08518982 31.07348633 C-9.0922712 29.42953739 -9.08914331 27.78551649 -9.07641602 26.14160156 C-9.06253936 23.63211733 -9.09665103 21.12635767 -9.13476562 18.6171875 C-9.13571684 17.01562409 -9.13385787 15.41405604 -9.12890625 13.8125 C-9.14216446 13.06653564 -9.15542267 12.32057129 -9.16908264 11.55200195 C-9.09888701 7.60773502 -8.63355494 5.79608521 -6.17944336 2.65234375 C-3.5 0.625 -3.5 0.625 0 0 Z " fill="#323334" transform="translate(221.5,328.375)"/>
<path d="M0 0 C3.6899688 2.77638178 4.87760333 4.28266085 5.6628418 8.88476562 C5.70234439 10.39145811 5.71292746 11.89910211 5.69921875 13.40625 C5.70637405 14.20857056 5.71352936 15.01089111 5.72090149 15.83752441 C5.72866256 17.52855319 5.72369995 19.21968253 5.70678711 20.91064453 C5.68755111 23.49313825 5.72696558 26.07025356 5.77148438 28.65234375 C5.77177474 30.29948236 5.76863449 31.94662589 5.76171875 33.59375 C5.77700119 34.36158813 5.79228363 35.12942627 5.80802917 35.92053223 C5.74435242 38.86074241 5.57437228 41.26588845 3.72305298 43.63208008 C1.0368677 46.00786658 -0.49824468 47 -4.125 47 C-6.99799727 46.0006966 -8.815375 45.10371296 -11 43 C-12.18774675 39.43675975 -12.19980143 36.15705471 -12.23828125 32.4453125 C-12.246353 31.70675018 -12.25442474 30.96818787 -12.26274109 30.20724487 C-12.27655873 28.64551119 -12.28729125 27.08374761 -12.29516602 25.52197266 C-12.30669676 23.92748142 -12.32716613 22.33302912 -12.35668945 20.73876953 C-12.39940091 18.43235095 -12.41553795 16.12707763 -12.42578125 13.8203125 C-12.45204338 12.75757614 -12.45204338 12.75757614 -12.47883606 11.67337036 C-12.4630729 8.05988882 -12.08670995 6.13343247 -10.09838867 3.07373047 C-6.79705354 -0.18881061 -4.60264586 -0.54148775 0 0 Z " fill="#323435" transform="translate(199,350)"/>
<path d="M0 0 C15.84 0 31.68 0 48 0 C48 4.29 48 8.58 48 13 C32.16 13 16.32 13 0 13 C0 8.71 0 4.42 0 0 Z " fill="#CBCBCB" transform="translate(365,82)"/>
<path d="M0 0 C11.55 0 23.1 0 35 0 C33.47740612 4.56778164 32.06763105 7.95345069 29.7421875 12.0546875 C29.11699219 13.16328125 28.49179687 14.271875 27.84765625 15.4140625 C27.19667969 16.55617188 26.54570312 17.69828125 25.875 18.875 C25.20915523 20.05181177 24.54378604 21.22889276 23.87890625 22.40625 C22.25725735 25.27351326 20.63082801 28.13795084 19 31 C18.34 31 17.68 31 17 31 C14.89929186 27.22863794 12.79971608 23.45664843 10.70117188 19.68408203 C9.98761322 18.40168374 9.27374937 17.11945522 8.55957031 15.83740234 C7.53109081 13.99100948 6.5037226 12.1440021 5.4765625 10.296875 C4.85861816 9.18666992 4.24067383 8.07646484 3.60400391 6.93261719 C2.35420313 4.6475933 1.16476059 2.32952118 0 0 Z " fill="#FC9C5B" transform="translate(371,339)"/>
<path d="M0 0 C9.57 0 19.14 0 29 0 C29 4.62 29 9.24 29 14 C19.43 14 9.86 14 0 14 C0 9.38 0 4.76 0 0 Z " fill="#FAA421" transform="translate(181,287)"/>
</svg>
