<svg version="1.1" id="Layer_1" xmlns="http://www.w3.org/2000/svg" xmlns:xlink="http://www.w3.org/1999/xlink" x="0px" y="0px"
	 width="100%" viewBox="0 0 240 240" enable-background="new 0 0 240 240" xml:space="preserve">
<path fill="#000000" opacity="1.000000" stroke="none" 
	d="
M148.531342,1.000000 
	C153.687881,4.025674 159.311203,3.888330 164.425308,5.520891 
	C182.422623,11.266126 198.451859,20.213507 212.411453,33.037674 
	C223.929062,43.618477 233.113770,55.871933 240.727448,69.798782 
	C241.000000,72.041664 241.000000,74.083336 241.000000,76.562500 
	C234.949936,65.909279 228.936188,54.841705 220.394653,45.320225 
	C197.912216,20.258480 170.167786,5.618519 136.482300,3.289708 
	C90.627281,0.119567 53.933769,17.875172 26.678217,54.328106 
	C7.681439,79.735344 0.082097,108.930130 4.184308,140.518250 
	C10.104861,186.108109 34.481865,218.718597 75.487785,239.126633 
	C76.224670,239.493362 76.891846,240.000168 77.795776,240.720810 
	C75.958336,241.000000 73.916664,241.000000 71.437500,241.000000 
	C63.269600,235.316757 54.529957,231.138290 47.186882,224.862610 
	C35.119537,214.549377 24.378666,203.151764 16.916716,188.960251 
	C10.108488,176.012039 4.351949,162.707169 2.545730,148.003098 
	C2.474075,147.419769 1.927051,146.894852 1.300760,146.171356 
	C1.000000,133.312439 1.000000,120.624878 1.000000,107.468658 
	C3.698889,105.052330 2.918091,101.873222 3.505337,99.284142 
	C8.724942,76.271729 19.031082,56.067909 35.517540,39.014111 
	C54.340626,19.543276 76.821640,7.068251 103.563393,2.397180 
	C104.526985,2.228866 105.428650,1.706055 106.679588,1.174228 
	C120.687561,1.000000 134.375122,1.000000 148.531342,1.000000 
z"/>
<path fill="#000000" opacity="1.000000" stroke="none" 
	d="
M241.000000,182.571533 
	C235.612030,190.737503 231.294662,199.137817 225.226074,206.490707 
	C214.612625,219.350296 202.159515,229.794952 187.610672,237.834488 
	C186.167969,238.631729 184.814301,239.590073 183.209656,240.736816 
	C180.958328,241.000000 178.916672,241.000000 176.437500,241.000000 
	C177.792542,238.571030 180.765335,238.118271 183.203491,236.817596 
	C207.018356,224.113281 225.497025,206.178848 237.565826,181.868576 
	C238.370163,180.248383 239.401855,178.741074 240.663895,177.090622 
	C241.000000,178.714355 241.000000,180.428711 241.000000,182.571533 
z"/>
<path fill="#000000" opacity="1.000000" stroke="none" 
	d="
M58.497139,80.885857 
	C59.181496,77.382210 59.662880,74.248032 62.004700,71.917107 
	C63.997036,71.777496 64.597015,73.365067 65.555077,74.415665 
	C79.648132,89.869957 97.034744,99.217628 117.677063,102.495079 
	C123.433334,103.409027 124.565277,102.436562 124.645645,96.722519 
	C124.826485,83.865028 130.580688,74.153175 142.059967,68.644585 
	C153.473175,63.167717 164.843353,64.420059 174.955917,72.221115 
	C177.876236,74.473923 180.237503,74.844269 183.580490,73.782082 
	C188.090149,72.349190 192.345749,70.242805 197.277832,68.149452 
	C196.994797,74.541443 192.465546,77.810379 190.063232,82.317230 
	C193.959991,83.884247 197.000900,80.776016 201.309464,81.280457 
	C198.652023,86.366020 195.033691,90.137222 190.996460,93.330391 
	C188.208267,95.535652 187.306839,97.874107 187.089478,101.324860 
	C184.912506,135.885849 170.350937,163.315536 138.711319,179.107941 
	C111.320175,192.779770 83.427025,191.394165 56.233856,177.274323 
	C55.496258,176.891342 54.774025,176.463638 54.099377,175.980347 
	C53.706795,175.699142 53.423351,175.265594 52.273010,174.002960 
	C67.793861,173.963135 82.197693,172.215271 94.847748,161.944839 
	C82.004257,159.284836 72.893837,153.064651 68.723915,141.104706 
	C70.585419,138.777130 73.467415,140.602112 75.255470,137.978973 
	C64.476036,131.612061 57.552521,122.733971 57.761971,109.535309 
	C61.020805,108.982094 63.311512,111.856361 66.505806,109.893906 
	C60.397747,101.328621 55.813713,92.264717 58.497139,80.885857 
z"/>
</svg>