<svg version="1.1" id="Layer_1" xmlns="http://www.w3.org/2000/svg" xmlns:xlink="http://www.w3.org/1999/xlink" x="0px" y="0px"
	 width="100%" viewBox="0 0 512 512" enable-background="new 0 0 512 512" xml:space="preserve">
<path fill="#ECEFF1" opacity="1.000000" stroke="none" 
	d="
M1.000000,289.000000 
	C1.000000,267.979095 1.000000,246.958206 1.382608,225.378326 
	C2.172279,223.985275 2.803647,223.188568 2.949723,222.311066 
	C3.845758,216.928360 4.393713,211.478210 5.495005,206.140778 
	C10.971975,179.596634 20.205473,154.476776 33.529121,130.794571 
	C49.215691,102.912369 69.710167,79.076172 94.126808,58.703739 
	C111.775452,43.978294 131.265274,31.981071 152.438934,22.673590 
	C174.794006,12.846784 197.912613,6.133377 222.094818,2.926441 
	C223.130157,2.789139 224.034576,1.664624 225.000000,0.999998 
	C246.020889,1.000000 267.041779,1.000000 288.621704,1.382590 
	C290.014771,2.172256 290.811493,2.803643 291.689026,2.949723 
	C297.071747,3.845771 302.521851,4.393744 307.859283,5.495031 
	C334.403442,10.971948 359.523315,20.205423 383.205475,33.529167 
	C411.087585,49.215797 434.924011,69.710007 455.296326,94.126808 
	C470.021698,111.775528 482.018890,131.265350 491.326385,152.438980 
	C501.153198,174.794037 507.866577,197.912659 511.073547,222.094849 
	C511.210846,223.130188 512.335388,224.034607 513.000000,225.000000 
	C513.000000,246.020889 513.000000,267.041779 512.617371,288.621643 
	C511.833496,289.847717 511.220642,290.468323 511.062317,291.188812 
	C507.867340,305.725311 505.567749,320.520203 501.395203,334.767303 
	C492.806091,364.094513 478.182648,390.502594 459.520264,414.632935 
	C456.068054,419.096680 451.641571,422.806976 447.737640,426.456604 
	C450.824371,416.924194 448.725433,410.721954 441.134216,405.143311 
	C429.251526,396.410858 415.971741,390.966034 401.615326,388.051636 
	C379.613312,383.585144 357.550446,379.408356 335.603790,374.688385 
	C331.778259,373.865662 327.813751,371.594635 324.945129,368.895935 
	C320.362305,364.584564 319.267395,345.888672 322.410095,340.247864 
	C327.589386,330.951691 332.375641,321.420593 337.908356,312.342499 
	C342.114227,305.441498 347.098511,298.997498 351.962036,292.519562 
	C357.151093,285.608032 363.385925,279.362885 367.791199,272.004852 
	C379.147919,253.035721 384.001526,233.072372 373.827637,211.747467 
	C373.153137,210.333679 373.035095,208.515671 373.106293,206.905502 
	C374.321777,179.428284 369.015564,152.505707 365.650604,125.476234 
	C363.055725,104.632416 351.785645,87.405090 329.275543,83.201180 
	C318.420319,81.173897 308.165894,77.980309 298.014862,73.477531 
	C283.435883,67.010574 267.709106,63.961044 251.734528,65.403503 
	C220.887360,68.188927 193.877655,80.258293 171.388351,101.655373 
	C156.874786,115.464066 145.708801,131.749222 142.604965,151.879410 
	C140.638809,164.631210 140.871826,177.753418 140.570541,190.720001 
	C140.354996,199.996262 141.441711,209.298355 137.130966,218.111450 
	C135.782196,220.868958 135.280045,224.171249 134.965088,227.282349 
	C133.023605,246.459198 138.219131,263.959717 150.418198,278.472931 
	C164.505707,295.232880 177.105072,312.649994 187.056305,332.262604 
	C191.154373,340.339355 193.539352,347.816986 193.088730,356.695190 
	C192.567169,366.970795 188.086700,372.899475 178.120911,374.902435 
	C159.371201,378.670776 140.630203,382.488312 121.844841,386.071747 
	C104.886520,389.306641 88.507011,393.831207 74.242111,404.182861 
	C65.097336,410.818970 63.077206,416.131683 65.998398,426.863586 
	C63.293076,424.576263 60.665009,422.501801 58.649151,419.944672 
	C44.410213,401.882477 31.987505,382.745697 22.678055,361.569489 
	C12.849188,339.211792 6.134753,316.090515 2.926880,291.905365 
	C2.789537,290.869934 1.664778,289.965485 1.000000,289.000000 
z"/>
<path fill="#455A64" opacity="1.000000" stroke="none" 
	d="
M66.359009,426.853058 
	C63.077206,416.131683 65.097336,410.818970 74.242111,404.182861 
	C88.507011,393.831207 104.886520,389.306641 121.844841,386.071747 
	C140.630203,382.488312 159.371201,378.670776 178.120911,374.902435 
	C188.086700,372.899475 192.567169,366.970795 193.088730,356.695190 
	C193.539352,347.816986 191.154373,340.339355 187.056305,332.262604 
	C177.105072,312.649994 164.505707,295.232880 150.418198,278.472931 
	C138.219131,263.959717 133.023605,246.459198 134.965088,227.282349 
	C135.280045,224.171249 135.782196,220.868958 137.130966,218.111450 
	C141.441711,209.298355 140.354996,199.996262 140.570541,190.720001 
	C140.871826,177.753418 140.638809,164.631210 142.604965,151.879410 
	C145.708801,131.749222 156.874786,115.464066 171.388351,101.655373 
	C193.877655,80.258293 220.887360,68.188927 251.734528,65.403503 
	C267.709106,63.961044 283.435883,67.010574 298.014862,73.477531 
	C308.165894,77.980309 318.420319,81.173897 329.275543,83.201180 
	C351.785645,87.405090 363.055725,104.632416 365.650604,125.476234 
	C369.015564,152.505707 374.321777,179.428284 373.106293,206.905502 
	C373.035095,208.515671 373.153137,210.333679 373.827637,211.747467 
	C384.001526,233.072372 379.147919,253.035721 367.791199,272.004852 
	C363.385925,279.362885 357.151093,285.608032 351.962036,292.519562 
	C347.098511,298.997498 342.114227,305.441498 337.908356,312.342499 
	C332.375641,321.420593 327.589386,330.951691 322.410095,340.247864 
	C319.267395,345.888672 320.362305,364.584564 324.945129,368.895935 
	C327.813751,371.594635 331.778259,373.865662 335.603790,374.688385 
	C357.550446,379.408356 379.613312,383.585144 401.615326,388.051636 
	C415.971741,390.966034 429.251526,396.410858 441.134216,405.143311 
	C448.725433,410.721954 450.824371,416.924194 447.498779,426.674347 
	C446.285706,428.494324 445.480255,429.776886 444.469299,430.869293 
	C404.730225,473.811249 355.868347,499.887085 298.301514,509.818024 
	C291.552246,510.982391 284.768005,511.944244 278.000000,513.000000 
	C263.979095,513.000000 249.958206,513.000000 235.295578,512.614929 
	C229.384827,511.583374 224.097000,511.061554 218.849808,510.270325 
	C183.512222,504.941803 150.673752,492.769684 120.523544,473.619110 
	C100.203842,460.712616 81.781250,445.490234 66.359009,426.853058 
z"/>
<path fill="#FFFFFF" opacity="1.000000" stroke="none" 
	d="
M65.998398,426.863586 
	C81.781250,445.490234 100.203842,460.712616 120.523544,473.619110 
	C150.673752,492.769684 183.512222,504.941803 218.849808,510.270325 
	C224.097000,511.061554 229.384827,511.583374 234.826920,512.614929 
	C157.074554,513.000000 79.149117,513.000000 1.000000,513.000000 
	C1.000000,438.645935 1.000000,364.291626 1.000000,289.468658 
	C1.664778,289.965485 2.789537,290.869934 2.926880,291.905365 
	C6.134753,316.090515 12.849188,339.211792 22.678055,361.569489 
	C31.987505,382.745697 44.410213,401.882477 58.649151,419.944672 
	C60.665009,422.501801 63.293076,424.576263 65.998398,426.863586 
z"/>
<path fill="#FFFFFF" opacity="1.000000" stroke="none" 
	d="
M278.468658,513.000000 
	C284.768005,511.944244 291.552246,510.982391 298.301514,509.818024 
	C355.868347,499.887085 404.730225,473.811249 444.469299,430.869293 
	C445.480255,429.776886 446.285706,428.494324 447.425903,427.082764 
	C451.641571,422.806976 456.068054,419.096680 459.520264,414.632935 
	C478.182648,390.502594 492.806091,364.094513 501.395203,334.767303 
	C505.567749,320.520203 507.867340,305.725311 511.062317,291.188812 
	C511.220642,290.468323 511.833496,289.847717 512.617371,289.090302 
	C513.000000,363.595459 513.000000,438.190918 513.000000,513.000000 
	C434.979248,513.000000 356.958282,513.000000 278.468658,513.000000 
z"/>
<path fill="#FFFFFF" opacity="1.000000" stroke="none" 
	d="
M224.531342,0.999998 
	C224.034576,1.664624 223.130157,2.789139 222.094818,2.926441 
	C197.912613,6.133377 174.794006,12.846784 152.438934,22.673590 
	C131.265274,31.981071 111.775452,43.978294 94.126808,58.703739 
	C69.710167,79.076172 49.215691,102.912369 33.529121,130.794571 
	C20.205473,154.476776 10.971975,179.596634 5.495005,206.140778 
	C4.393713,211.478210 3.845758,216.928360 2.949723,222.311066 
	C2.803647,223.188568 2.172279,223.985275 1.382608,224.909668 
	C1.000000,150.406296 1.000000,75.812576 1.000000,1.000000 
	C75.354088,1.000000 149.708389,1.000000 224.531342,0.999998 
z"/>
<path fill="#FFFFFF" opacity="1.000000" stroke="none" 
	d="
M513.000000,224.531342 
	C512.335388,224.034607 511.210846,223.130188 511.073547,222.094849 
	C507.866577,197.912659 501.153198,174.794037 491.326385,152.438980 
	C482.018890,131.265350 470.021698,111.775528 455.296326,94.126808 
	C434.924011,69.710007 411.087585,49.215797 383.205475,33.529167 
	C359.523315,20.205423 334.403442,10.971948 307.859283,5.495031 
	C302.521851,4.393744 297.071747,3.845771 291.689026,2.949723 
	C290.811493,2.803643 290.014771,2.172256 289.090332,1.382590 
	C363.593719,1.000000 438.187408,1.000000 513.000000,1.000000 
	C513.000000,75.354088 513.000000,149.708389 513.000000,224.531342 
z"/>
</svg>